%TF.GenerationSoftware,KiCad,Pcbnew,8.0.5*%
%TF.CreationDate,2024-10-24T17:31:16-06:00*%
%TF.ProjectId,fluxgate,666c7578-6761-4746-952e-6b696361645f,rev?*%
%TF.SameCoordinates,Original*%
%TF.FileFunction,Soldermask,Bot*%
%TF.FilePolarity,Negative*%
%FSLAX46Y46*%
G04 Gerber Fmt 4.6, Leading zero omitted, Abs format (unit mm)*
G04 Created by KiCad (PCBNEW 8.0.5) date 2024-10-24 17:31:16*
%MOMM*%
%LPD*%
G01*
G04 APERTURE LIST*
%ADD10O,1.500000X1.050000*%
%ADD11R,1.500000X1.050000*%
%ADD12C,1.600000*%
%ADD13O,1.600000X1.600000*%
%ADD14R,5.080000X1.500000*%
%ADD15C,1.800000*%
%ADD16R,1.800000X1.800000*%
%ADD17C,2.400000*%
%ADD18O,1.700000X1.700000*%
%ADD19R,1.700000X1.700000*%
%ADD20R,1.600000X1.600000*%
%ADD21C,1.500000*%
%ADD22O,1.500000X1.500000*%
%ADD23R,1.500000X1.500000*%
G04 APERTURE END LIST*
D10*
%TO.C,Q3*%
X189992000Y-80899000D03*
X189992000Y-82169000D03*
D11*
X189992000Y-83439000D03*
%TD*%
D12*
%TO.C,C8*%
X192512000Y-110490000D03*
X190012000Y-110490000D03*
%TD*%
D13*
%TO.C,R2*%
X170434000Y-85090000D03*
D12*
X170434000Y-74930000D03*
%TD*%
D13*
%TO.C,R7*%
X192405000Y-54610000D03*
D12*
X182245000Y-54610000D03*
%TD*%
D14*
%TO.C,J1*%
X195326000Y-42858000D03*
X195326000Y-34358000D03*
%TD*%
D12*
%TO.C,C9*%
X181610000Y-86995000D03*
X179110000Y-86995000D03*
%TD*%
D13*
%TO.C,R10*%
X184404000Y-112776000D03*
D12*
X174244000Y-112776000D03*
%TD*%
%TO.C,C4*%
X170180000Y-106005000D03*
X170180000Y-103505000D03*
%TD*%
D13*
%TO.C,R14*%
X156718000Y-96520000D03*
D12*
X166878000Y-96520000D03*
%TD*%
%TO.C,C1*%
X173609000Y-82443000D03*
X173609000Y-84943000D03*
%TD*%
%TO.C,C5*%
X189865000Y-59690000D03*
X187365000Y-59690000D03*
%TD*%
D15*
%TO.C,D1*%
X177165000Y-54610000D03*
D16*
X179705000Y-54610000D03*
%TD*%
D17*
%TO.C,L1*%
X189992000Y-92123000D03*
X189992000Y-95123000D03*
%TD*%
D13*
%TO.C,R5*%
X166878000Y-109728000D03*
D12*
X156718000Y-109728000D03*
%TD*%
%TO.C,C15*%
X166878000Y-102997000D03*
X164378000Y-102997000D03*
%TD*%
%TO.C,C7*%
X175260000Y-37465000D03*
X172760000Y-37465000D03*
%TD*%
%TO.C,C10*%
X171831000Y-109601000D03*
X169331000Y-109601000D03*
%TD*%
D13*
%TO.C,R1*%
X189865000Y-77470000D03*
D12*
X179705000Y-77470000D03*
%TD*%
D18*
%TO.C,J3*%
X195580000Y-55240000D03*
D19*
X195580000Y-52700000D03*
%TD*%
D12*
%TO.C,C16*%
X171958000Y-93218000D03*
X169458000Y-93218000D03*
%TD*%
%TO.C,C13*%
X184444000Y-104013000D03*
X186944000Y-104013000D03*
%TD*%
%TO.C,SW1*%
X196875000Y-59770000D03*
X196875000Y-62270000D03*
X196875000Y-64770000D03*
X193675000Y-59770000D03*
X193675000Y-62270000D03*
D20*
X193675000Y-64770000D03*
%TD*%
D12*
%TO.C,C14*%
X156865000Y-102997000D03*
X159365000Y-102997000D03*
%TD*%
D21*
%TO.C,Y1*%
X156220000Y-65405000D03*
X160020000Y-65405000D03*
%TD*%
D12*
%TO.C,C11*%
X156504000Y-90170000D03*
X159004000Y-90170000D03*
%TD*%
D10*
%TO.C,Q4*%
X173990000Y-31750000D03*
X173990000Y-33020000D03*
D11*
X173990000Y-34290000D03*
%TD*%
D12*
%TO.C,C2*%
X167386000Y-82336000D03*
X167386000Y-84836000D03*
%TD*%
D13*
%TO.C,R16*%
X179705000Y-96520000D03*
D12*
X169545000Y-96520000D03*
%TD*%
D18*
%TO.C,J2*%
X190246000Y-41910000D03*
D19*
X190246000Y-39370000D03*
%TD*%
D13*
%TO.C,R3*%
X164338000Y-85090000D03*
D12*
X164338000Y-74930000D03*
%TD*%
D18*
%TO.C,J5*%
X164099000Y-48260000D03*
X161559000Y-48260000D03*
D19*
X159019000Y-48260000D03*
%TD*%
D12*
%TO.C,C3*%
X192405000Y-45720000D03*
X189905000Y-45720000D03*
%TD*%
D13*
%TO.C,R8*%
X166878000Y-106299000D03*
D12*
X156718000Y-106299000D03*
%TD*%
D13*
%TO.C,R13*%
X166878000Y-99949000D03*
D12*
X156718000Y-99949000D03*
%TD*%
D13*
%TO.C,R9*%
X174244000Y-109728000D03*
D12*
X184404000Y-109728000D03*
%TD*%
D22*
%TO.C,D4*%
X187325000Y-37465000D03*
D23*
X187325000Y-45085000D03*
%TD*%
D14*
%TO.C,J9*%
X195297500Y-107374000D03*
X195297500Y-98874000D03*
%TD*%
D12*
%TO.C,C6*%
X189885000Y-66675000D03*
X187385000Y-66675000D03*
%TD*%
D13*
%TO.C,R12*%
X169545000Y-99949000D03*
D12*
X179705000Y-99949000D03*
%TD*%
D18*
%TO.C,J8*%
X189967870Y-106581807D03*
D19*
X189967870Y-104041807D03*
%TD*%
D13*
%TO.C,R15*%
X166893800Y-93133849D03*
D12*
X156733800Y-93133849D03*
%TD*%
D10*
%TO.C,Q1*%
X189230000Y-31750000D03*
X189230000Y-33020000D03*
D11*
X189230000Y-34290000D03*
%TD*%
D13*
%TO.C,R6*%
X182245000Y-41275000D03*
D12*
X172085000Y-41275000D03*
%TD*%
M02*
