%TF.GenerationSoftware,KiCad,Pcbnew,8.0.5*%
%TF.CreationDate,2024-10-24T17:31:16-06:00*%
%TF.ProjectId,fluxgate,666c7578-6761-4746-952e-6b696361645f,rev?*%
%TF.SameCoordinates,Original*%
%TF.FileFunction,Legend,Top*%
%TF.FilePolarity,Positive*%
%FSLAX46Y46*%
G04 Gerber Fmt 4.6, Leading zero omitted, Abs format (unit mm)*
G04 Created by KiCad (PCBNEW 8.0.5) date 2024-10-24 17:31:16*
%MOMM*%
%LPD*%
G01*
G04 APERTURE LIST*
%ADD10C,0.200000*%
%ADD11C,0.100000*%
%ADD12C,0.150000*%
%ADD13C,0.120000*%
G04 APERTURE END LIST*
D10*
X176115454Y-47749400D02*
X176258311Y-47797019D01*
X176258311Y-47797019D02*
X176496406Y-47797019D01*
X176496406Y-47797019D02*
X176591644Y-47749400D01*
X176591644Y-47749400D02*
X176639263Y-47701780D01*
X176639263Y-47701780D02*
X176686882Y-47606542D01*
X176686882Y-47606542D02*
X176686882Y-47511304D01*
X176686882Y-47511304D02*
X176639263Y-47416066D01*
X176639263Y-47416066D02*
X176591644Y-47368447D01*
X176591644Y-47368447D02*
X176496406Y-47320828D01*
X176496406Y-47320828D02*
X176305930Y-47273209D01*
X176305930Y-47273209D02*
X176210692Y-47225590D01*
X176210692Y-47225590D02*
X176163073Y-47177971D01*
X176163073Y-47177971D02*
X176115454Y-47082733D01*
X176115454Y-47082733D02*
X176115454Y-46987495D01*
X176115454Y-46987495D02*
X176163073Y-46892257D01*
X176163073Y-46892257D02*
X176210692Y-46844638D01*
X176210692Y-46844638D02*
X176305930Y-46797019D01*
X176305930Y-46797019D02*
X176544025Y-46797019D01*
X176544025Y-46797019D02*
X176686882Y-46844638D01*
X177115454Y-47797019D02*
X177115454Y-46797019D01*
X177544025Y-47797019D02*
X177544025Y-47273209D01*
X177544025Y-47273209D02*
X177496406Y-47177971D01*
X177496406Y-47177971D02*
X177401168Y-47130352D01*
X177401168Y-47130352D02*
X177258311Y-47130352D01*
X177258311Y-47130352D02*
X177163073Y-47177971D01*
X177163073Y-47177971D02*
X177115454Y-47225590D01*
X178020216Y-47797019D02*
X178020216Y-47130352D01*
X178020216Y-46797019D02*
X177972597Y-46844638D01*
X177972597Y-46844638D02*
X178020216Y-46892257D01*
X178020216Y-46892257D02*
X178067835Y-46844638D01*
X178067835Y-46844638D02*
X178020216Y-46797019D01*
X178020216Y-46797019D02*
X178020216Y-46892257D01*
X178877358Y-47749400D02*
X178782120Y-47797019D01*
X178782120Y-47797019D02*
X178591644Y-47797019D01*
X178591644Y-47797019D02*
X178496406Y-47749400D01*
X178496406Y-47749400D02*
X178448787Y-47654161D01*
X178448787Y-47654161D02*
X178448787Y-47273209D01*
X178448787Y-47273209D02*
X178496406Y-47177971D01*
X178496406Y-47177971D02*
X178591644Y-47130352D01*
X178591644Y-47130352D02*
X178782120Y-47130352D01*
X178782120Y-47130352D02*
X178877358Y-47177971D01*
X178877358Y-47177971D02*
X178924977Y-47273209D01*
X178924977Y-47273209D02*
X178924977Y-47368447D01*
X178924977Y-47368447D02*
X178448787Y-47463685D01*
X179496406Y-47797019D02*
X179401168Y-47749400D01*
X179401168Y-47749400D02*
X179353549Y-47654161D01*
X179353549Y-47654161D02*
X179353549Y-46797019D01*
X180305930Y-47797019D02*
X180305930Y-46797019D01*
X180305930Y-47749400D02*
X180210692Y-47797019D01*
X180210692Y-47797019D02*
X180020216Y-47797019D01*
X180020216Y-47797019D02*
X179924978Y-47749400D01*
X179924978Y-47749400D02*
X179877359Y-47701780D01*
X179877359Y-47701780D02*
X179829740Y-47606542D01*
X179829740Y-47606542D02*
X179829740Y-47320828D01*
X179829740Y-47320828D02*
X179877359Y-47225590D01*
X179877359Y-47225590D02*
X179924978Y-47177971D01*
X179924978Y-47177971D02*
X180020216Y-47130352D01*
X180020216Y-47130352D02*
X180210692Y-47130352D01*
X180210692Y-47130352D02*
X180305930Y-47177971D01*
X181972597Y-47797019D02*
X181972597Y-47273209D01*
X181972597Y-47273209D02*
X181924978Y-47177971D01*
X181924978Y-47177971D02*
X181829740Y-47130352D01*
X181829740Y-47130352D02*
X181639264Y-47130352D01*
X181639264Y-47130352D02*
X181544026Y-47177971D01*
X181972597Y-47749400D02*
X181877359Y-47797019D01*
X181877359Y-47797019D02*
X181639264Y-47797019D01*
X181639264Y-47797019D02*
X181544026Y-47749400D01*
X181544026Y-47749400D02*
X181496407Y-47654161D01*
X181496407Y-47654161D02*
X181496407Y-47558923D01*
X181496407Y-47558923D02*
X181544026Y-47463685D01*
X181544026Y-47463685D02*
X181639264Y-47416066D01*
X181639264Y-47416066D02*
X181877359Y-47416066D01*
X181877359Y-47416066D02*
X181972597Y-47368447D01*
X182305931Y-47130352D02*
X182686883Y-47130352D01*
X182448788Y-46797019D02*
X182448788Y-47654161D01*
X182448788Y-47654161D02*
X182496407Y-47749400D01*
X182496407Y-47749400D02*
X182591645Y-47797019D01*
X182591645Y-47797019D02*
X182686883Y-47797019D01*
X183782122Y-47416066D02*
X184544027Y-47416066D01*
X184163074Y-47797019D02*
X184163074Y-47035114D01*
X185496407Y-46797019D02*
X185020217Y-46797019D01*
X185020217Y-46797019D02*
X184972598Y-47273209D01*
X184972598Y-47273209D02*
X185020217Y-47225590D01*
X185020217Y-47225590D02*
X185115455Y-47177971D01*
X185115455Y-47177971D02*
X185353550Y-47177971D01*
X185353550Y-47177971D02*
X185448788Y-47225590D01*
X185448788Y-47225590D02*
X185496407Y-47273209D01*
X185496407Y-47273209D02*
X185544026Y-47368447D01*
X185544026Y-47368447D02*
X185544026Y-47606542D01*
X185544026Y-47606542D02*
X185496407Y-47701780D01*
X185496407Y-47701780D02*
X185448788Y-47749400D01*
X185448788Y-47749400D02*
X185353550Y-47797019D01*
X185353550Y-47797019D02*
X185115455Y-47797019D01*
X185115455Y-47797019D02*
X185020217Y-47749400D01*
X185020217Y-47749400D02*
X184972598Y-47701780D01*
X186591646Y-46797019D02*
X186924979Y-47797019D01*
X186924979Y-47797019D02*
X187258312Y-46797019D01*
X187591646Y-47701780D02*
X187639265Y-47749400D01*
X187639265Y-47749400D02*
X187591646Y-47797019D01*
X187591646Y-47797019D02*
X187544027Y-47749400D01*
X187544027Y-47749400D02*
X187591646Y-47701780D01*
X187591646Y-47701780D02*
X187591646Y-47797019D01*
X187591646Y-47416066D02*
X187544027Y-46844638D01*
X187544027Y-46844638D02*
X187591646Y-46797019D01*
X187591646Y-46797019D02*
X187639265Y-46844638D01*
X187639265Y-46844638D02*
X187591646Y-47416066D01*
X187591646Y-47416066D02*
X187591646Y-46797019D01*
D11*
X163276646Y-64887019D02*
X163943312Y-65887019D01*
X163943312Y-64887019D02*
X163276646Y-65887019D01*
X164181408Y-65220352D02*
X164562360Y-65220352D01*
X164324265Y-64887019D02*
X164324265Y-65744161D01*
X164324265Y-65744161D02*
X164371884Y-65839400D01*
X164371884Y-65839400D02*
X164467122Y-65887019D01*
X164467122Y-65887019D02*
X164562360Y-65887019D01*
X165324265Y-65887019D02*
X165324265Y-65363209D01*
X165324265Y-65363209D02*
X165276646Y-65267971D01*
X165276646Y-65267971D02*
X165181408Y-65220352D01*
X165181408Y-65220352D02*
X164990932Y-65220352D01*
X164990932Y-65220352D02*
X164895694Y-65267971D01*
X165324265Y-65839400D02*
X165229027Y-65887019D01*
X165229027Y-65887019D02*
X164990932Y-65887019D01*
X164990932Y-65887019D02*
X164895694Y-65839400D01*
X164895694Y-65839400D02*
X164848075Y-65744161D01*
X164848075Y-65744161D02*
X164848075Y-65648923D01*
X164848075Y-65648923D02*
X164895694Y-65553685D01*
X164895694Y-65553685D02*
X164990932Y-65506066D01*
X164990932Y-65506066D02*
X165229027Y-65506066D01*
X165229027Y-65506066D02*
X165324265Y-65458447D01*
X165943313Y-65887019D02*
X165848075Y-65839400D01*
X165848075Y-65839400D02*
X165800456Y-65744161D01*
X165800456Y-65744161D02*
X165800456Y-64887019D01*
X153921400Y-34139865D02*
X153873780Y-34282722D01*
X153873780Y-34282722D02*
X153873780Y-34520817D01*
X153873780Y-34520817D02*
X153921400Y-34616055D01*
X153921400Y-34616055D02*
X153969019Y-34663674D01*
X153969019Y-34663674D02*
X154064257Y-34711293D01*
X154064257Y-34711293D02*
X154159495Y-34711293D01*
X154159495Y-34711293D02*
X154254733Y-34663674D01*
X154254733Y-34663674D02*
X154302352Y-34616055D01*
X154302352Y-34616055D02*
X154349971Y-34520817D01*
X154349971Y-34520817D02*
X154397590Y-34330341D01*
X154397590Y-34330341D02*
X154445209Y-34235103D01*
X154445209Y-34235103D02*
X154492828Y-34187484D01*
X154492828Y-34187484D02*
X154588066Y-34139865D01*
X154588066Y-34139865D02*
X154683304Y-34139865D01*
X154683304Y-34139865D02*
X154778542Y-34187484D01*
X154778542Y-34187484D02*
X154826161Y-34235103D01*
X154826161Y-34235103D02*
X154873780Y-34330341D01*
X154873780Y-34330341D02*
X154873780Y-34568436D01*
X154873780Y-34568436D02*
X154826161Y-34711293D01*
X153873780Y-35139865D02*
X154873780Y-35139865D01*
X154873780Y-35139865D02*
X154873780Y-35377960D01*
X154873780Y-35377960D02*
X154826161Y-35520817D01*
X154826161Y-35520817D02*
X154730923Y-35616055D01*
X154730923Y-35616055D02*
X154635685Y-35663674D01*
X154635685Y-35663674D02*
X154445209Y-35711293D01*
X154445209Y-35711293D02*
X154302352Y-35711293D01*
X154302352Y-35711293D02*
X154111876Y-35663674D01*
X154111876Y-35663674D02*
X154016638Y-35616055D01*
X154016638Y-35616055D02*
X153921400Y-35520817D01*
X153921400Y-35520817D02*
X153873780Y-35377960D01*
X153873780Y-35377960D02*
X153873780Y-35139865D01*
X153969019Y-37473198D02*
X153921400Y-37425579D01*
X153921400Y-37425579D02*
X153873780Y-37282722D01*
X153873780Y-37282722D02*
X153873780Y-37187484D01*
X153873780Y-37187484D02*
X153921400Y-37044627D01*
X153921400Y-37044627D02*
X154016638Y-36949389D01*
X154016638Y-36949389D02*
X154111876Y-36901770D01*
X154111876Y-36901770D02*
X154302352Y-36854151D01*
X154302352Y-36854151D02*
X154445209Y-36854151D01*
X154445209Y-36854151D02*
X154635685Y-36901770D01*
X154635685Y-36901770D02*
X154730923Y-36949389D01*
X154730923Y-36949389D02*
X154826161Y-37044627D01*
X154826161Y-37044627D02*
X154873780Y-37187484D01*
X154873780Y-37187484D02*
X154873780Y-37282722D01*
X154873780Y-37282722D02*
X154826161Y-37425579D01*
X154826161Y-37425579D02*
X154778542Y-37473198D01*
X154159495Y-37854151D02*
X154159495Y-38330341D01*
X153873780Y-37758913D02*
X154873780Y-38092246D01*
X154873780Y-38092246D02*
X153873780Y-38425579D01*
X153873780Y-39330341D02*
X154349971Y-38997008D01*
X153873780Y-38758913D02*
X154873780Y-38758913D01*
X154873780Y-38758913D02*
X154873780Y-39139865D01*
X154873780Y-39139865D02*
X154826161Y-39235103D01*
X154826161Y-39235103D02*
X154778542Y-39282722D01*
X154778542Y-39282722D02*
X154683304Y-39330341D01*
X154683304Y-39330341D02*
X154540447Y-39330341D01*
X154540447Y-39330341D02*
X154445209Y-39282722D01*
X154445209Y-39282722D02*
X154397590Y-39235103D01*
X154397590Y-39235103D02*
X154349971Y-39139865D01*
X154349971Y-39139865D02*
X154349971Y-38758913D01*
X153873780Y-39758913D02*
X154873780Y-39758913D01*
X154873780Y-39758913D02*
X154873780Y-39997008D01*
X154873780Y-39997008D02*
X154826161Y-40139865D01*
X154826161Y-40139865D02*
X154730923Y-40235103D01*
X154730923Y-40235103D02*
X154635685Y-40282722D01*
X154635685Y-40282722D02*
X154445209Y-40330341D01*
X154445209Y-40330341D02*
X154302352Y-40330341D01*
X154302352Y-40330341D02*
X154111876Y-40282722D01*
X154111876Y-40282722D02*
X154016638Y-40235103D01*
X154016638Y-40235103D02*
X153921400Y-40139865D01*
X153921400Y-40139865D02*
X153873780Y-39997008D01*
X153873780Y-39997008D02*
X153873780Y-39758913D01*
X153949980Y-55777484D02*
X154949980Y-55777484D01*
X154949980Y-55777484D02*
X154235695Y-56110817D01*
X154235695Y-56110817D02*
X154949980Y-56444150D01*
X154949980Y-56444150D02*
X153949980Y-56444150D01*
X154045219Y-57491769D02*
X153997600Y-57444150D01*
X153997600Y-57444150D02*
X153949980Y-57301293D01*
X153949980Y-57301293D02*
X153949980Y-57206055D01*
X153949980Y-57206055D02*
X153997600Y-57063198D01*
X153997600Y-57063198D02*
X154092838Y-56967960D01*
X154092838Y-56967960D02*
X154188076Y-56920341D01*
X154188076Y-56920341D02*
X154378552Y-56872722D01*
X154378552Y-56872722D02*
X154521409Y-56872722D01*
X154521409Y-56872722D02*
X154711885Y-56920341D01*
X154711885Y-56920341D02*
X154807123Y-56967960D01*
X154807123Y-56967960D02*
X154902361Y-57063198D01*
X154902361Y-57063198D02*
X154949980Y-57206055D01*
X154949980Y-57206055D02*
X154949980Y-57301293D01*
X154949980Y-57301293D02*
X154902361Y-57444150D01*
X154902361Y-57444150D02*
X154854742Y-57491769D01*
X154949980Y-57920341D02*
X154140457Y-57920341D01*
X154140457Y-57920341D02*
X154045219Y-57967960D01*
X154045219Y-57967960D02*
X153997600Y-58015579D01*
X153997600Y-58015579D02*
X153949980Y-58110817D01*
X153949980Y-58110817D02*
X153949980Y-58301293D01*
X153949980Y-58301293D02*
X153997600Y-58396531D01*
X153997600Y-58396531D02*
X154045219Y-58444150D01*
X154045219Y-58444150D02*
X154140457Y-58491769D01*
X154140457Y-58491769D02*
X154949980Y-58491769D01*
X155026180Y-46785884D02*
X154216657Y-46785884D01*
X154216657Y-46785884D02*
X154121419Y-46833503D01*
X154121419Y-46833503D02*
X154073800Y-46881122D01*
X154073800Y-46881122D02*
X154026180Y-46976360D01*
X154026180Y-46976360D02*
X154026180Y-47166836D01*
X154026180Y-47166836D02*
X154073800Y-47262074D01*
X154073800Y-47262074D02*
X154121419Y-47309693D01*
X154121419Y-47309693D02*
X154216657Y-47357312D01*
X154216657Y-47357312D02*
X155026180Y-47357312D01*
X154026180Y-47833503D02*
X155026180Y-47833503D01*
X155026180Y-47833503D02*
X155026180Y-48214455D01*
X155026180Y-48214455D02*
X154978561Y-48309693D01*
X154978561Y-48309693D02*
X154930942Y-48357312D01*
X154930942Y-48357312D02*
X154835704Y-48404931D01*
X154835704Y-48404931D02*
X154692847Y-48404931D01*
X154692847Y-48404931D02*
X154597609Y-48357312D01*
X154597609Y-48357312D02*
X154549990Y-48309693D01*
X154549990Y-48309693D02*
X154502371Y-48214455D01*
X154502371Y-48214455D02*
X154502371Y-47833503D01*
X154026180Y-48833503D02*
X155026180Y-48833503D01*
X155026180Y-48833503D02*
X155026180Y-49071598D01*
X155026180Y-49071598D02*
X154978561Y-49214455D01*
X154978561Y-49214455D02*
X154883323Y-49309693D01*
X154883323Y-49309693D02*
X154788085Y-49357312D01*
X154788085Y-49357312D02*
X154597609Y-49404931D01*
X154597609Y-49404931D02*
X154454752Y-49404931D01*
X154454752Y-49404931D02*
X154264276Y-49357312D01*
X154264276Y-49357312D02*
X154169038Y-49309693D01*
X154169038Y-49309693D02*
X154073800Y-49214455D01*
X154073800Y-49214455D02*
X154026180Y-49071598D01*
X154026180Y-49071598D02*
X154026180Y-48833503D01*
X154026180Y-49833503D02*
X155026180Y-49833503D01*
X194979208Y-94717611D02*
X195264922Y-95479515D01*
X195264922Y-95479515D02*
X195550636Y-94717611D01*
X195264922Y-94241420D02*
X195264922Y-93479516D01*
X195598256Y-92289039D02*
X195645875Y-92146182D01*
X195645875Y-92146182D02*
X195645875Y-91908087D01*
X195645875Y-91908087D02*
X195598256Y-91812849D01*
X195598256Y-91812849D02*
X195550636Y-91765230D01*
X195550636Y-91765230D02*
X195455398Y-91717611D01*
X195455398Y-91717611D02*
X195360160Y-91717611D01*
X195360160Y-91717611D02*
X195264922Y-91765230D01*
X195264922Y-91765230D02*
X195217303Y-91812849D01*
X195217303Y-91812849D02*
X195169684Y-91908087D01*
X195169684Y-91908087D02*
X195122065Y-92098563D01*
X195122065Y-92098563D02*
X195074446Y-92193801D01*
X195074446Y-92193801D02*
X195026827Y-92241420D01*
X195026827Y-92241420D02*
X194931589Y-92289039D01*
X194931589Y-92289039D02*
X194836351Y-92289039D01*
X194836351Y-92289039D02*
X194741113Y-92241420D01*
X194741113Y-92241420D02*
X194693494Y-92193801D01*
X194693494Y-92193801D02*
X194645875Y-92098563D01*
X194645875Y-92098563D02*
X194645875Y-91860468D01*
X194645875Y-91860468D02*
X194693494Y-91717611D01*
X195598256Y-90908087D02*
X195645875Y-91003325D01*
X195645875Y-91003325D02*
X195645875Y-91193801D01*
X195645875Y-91193801D02*
X195598256Y-91289039D01*
X195598256Y-91289039D02*
X195503017Y-91336658D01*
X195503017Y-91336658D02*
X195122065Y-91336658D01*
X195122065Y-91336658D02*
X195026827Y-91289039D01*
X195026827Y-91289039D02*
X194979208Y-91193801D01*
X194979208Y-91193801D02*
X194979208Y-91003325D01*
X194979208Y-91003325D02*
X195026827Y-90908087D01*
X195026827Y-90908087D02*
X195122065Y-90860468D01*
X195122065Y-90860468D02*
X195217303Y-90860468D01*
X195217303Y-90860468D02*
X195312541Y-91336658D01*
X194979208Y-90431896D02*
X195645875Y-90431896D01*
X195074446Y-90431896D02*
X195026827Y-90384277D01*
X195026827Y-90384277D02*
X194979208Y-90289039D01*
X194979208Y-90289039D02*
X194979208Y-90146182D01*
X194979208Y-90146182D02*
X195026827Y-90050944D01*
X195026827Y-90050944D02*
X195122065Y-90003325D01*
X195122065Y-90003325D02*
X195645875Y-90003325D01*
X195598256Y-89574753D02*
X195645875Y-89479515D01*
X195645875Y-89479515D02*
X195645875Y-89289039D01*
X195645875Y-89289039D02*
X195598256Y-89193801D01*
X195598256Y-89193801D02*
X195503017Y-89146182D01*
X195503017Y-89146182D02*
X195455398Y-89146182D01*
X195455398Y-89146182D02*
X195360160Y-89193801D01*
X195360160Y-89193801D02*
X195312541Y-89289039D01*
X195312541Y-89289039D02*
X195312541Y-89431896D01*
X195312541Y-89431896D02*
X195264922Y-89527134D01*
X195264922Y-89527134D02*
X195169684Y-89574753D01*
X195169684Y-89574753D02*
X195122065Y-89574753D01*
X195122065Y-89574753D02*
X195026827Y-89527134D01*
X195026827Y-89527134D02*
X194979208Y-89431896D01*
X194979208Y-89431896D02*
X194979208Y-89289039D01*
X194979208Y-89289039D02*
X195026827Y-89193801D01*
X195598256Y-88336658D02*
X195645875Y-88431896D01*
X195645875Y-88431896D02*
X195645875Y-88622372D01*
X195645875Y-88622372D02*
X195598256Y-88717610D01*
X195598256Y-88717610D02*
X195503017Y-88765229D01*
X195503017Y-88765229D02*
X195122065Y-88765229D01*
X195122065Y-88765229D02*
X195026827Y-88717610D01*
X195026827Y-88717610D02*
X194979208Y-88622372D01*
X194979208Y-88622372D02*
X194979208Y-88431896D01*
X194979208Y-88431896D02*
X195026827Y-88336658D01*
X195026827Y-88336658D02*
X195122065Y-88289039D01*
X195122065Y-88289039D02*
X195217303Y-88289039D01*
X195217303Y-88289039D02*
X195312541Y-88765229D01*
X195598256Y-86669991D02*
X195645875Y-86765229D01*
X195645875Y-86765229D02*
X195645875Y-86955705D01*
X195645875Y-86955705D02*
X195598256Y-87050943D01*
X195598256Y-87050943D02*
X195550636Y-87098562D01*
X195550636Y-87098562D02*
X195455398Y-87146181D01*
X195455398Y-87146181D02*
X195169684Y-87146181D01*
X195169684Y-87146181D02*
X195074446Y-87098562D01*
X195074446Y-87098562D02*
X195026827Y-87050943D01*
X195026827Y-87050943D02*
X194979208Y-86955705D01*
X194979208Y-86955705D02*
X194979208Y-86765229D01*
X194979208Y-86765229D02*
X195026827Y-86669991D01*
X195645875Y-86098562D02*
X195598256Y-86193800D01*
X195598256Y-86193800D02*
X195550636Y-86241419D01*
X195550636Y-86241419D02*
X195455398Y-86289038D01*
X195455398Y-86289038D02*
X195169684Y-86289038D01*
X195169684Y-86289038D02*
X195074446Y-86241419D01*
X195074446Y-86241419D02*
X195026827Y-86193800D01*
X195026827Y-86193800D02*
X194979208Y-86098562D01*
X194979208Y-86098562D02*
X194979208Y-85955705D01*
X194979208Y-85955705D02*
X195026827Y-85860467D01*
X195026827Y-85860467D02*
X195074446Y-85812848D01*
X195074446Y-85812848D02*
X195169684Y-85765229D01*
X195169684Y-85765229D02*
X195455398Y-85765229D01*
X195455398Y-85765229D02*
X195550636Y-85812848D01*
X195550636Y-85812848D02*
X195598256Y-85860467D01*
X195598256Y-85860467D02*
X195645875Y-85955705D01*
X195645875Y-85955705D02*
X195645875Y-86098562D01*
X195645875Y-85336657D02*
X194979208Y-85336657D01*
X194645875Y-85336657D02*
X194693494Y-85384276D01*
X194693494Y-85384276D02*
X194741113Y-85336657D01*
X194741113Y-85336657D02*
X194693494Y-85289038D01*
X194693494Y-85289038D02*
X194645875Y-85336657D01*
X194645875Y-85336657D02*
X194741113Y-85336657D01*
X195645875Y-84717610D02*
X195598256Y-84812848D01*
X195598256Y-84812848D02*
X195503017Y-84860467D01*
X195503017Y-84860467D02*
X194645875Y-84860467D01*
X197255819Y-95479515D02*
X196255819Y-95479515D01*
X196255819Y-95479515D02*
X196255819Y-95241420D01*
X196255819Y-95241420D02*
X196303438Y-95098563D01*
X196303438Y-95098563D02*
X196398676Y-95003325D01*
X196398676Y-95003325D02*
X196493914Y-94955706D01*
X196493914Y-94955706D02*
X196684390Y-94908087D01*
X196684390Y-94908087D02*
X196827247Y-94908087D01*
X196827247Y-94908087D02*
X197017723Y-94955706D01*
X197017723Y-94955706D02*
X197112961Y-95003325D01*
X197112961Y-95003325D02*
X197208200Y-95098563D01*
X197208200Y-95098563D02*
X197255819Y-95241420D01*
X197255819Y-95241420D02*
X197255819Y-95479515D01*
X197255819Y-94479515D02*
X196589152Y-94479515D01*
X196779628Y-94479515D02*
X196684390Y-94431896D01*
X196684390Y-94431896D02*
X196636771Y-94384277D01*
X196636771Y-94384277D02*
X196589152Y-94289039D01*
X196589152Y-94289039D02*
X196589152Y-94193801D01*
X197255819Y-93860467D02*
X196589152Y-93860467D01*
X196255819Y-93860467D02*
X196303438Y-93908086D01*
X196303438Y-93908086D02*
X196351057Y-93860467D01*
X196351057Y-93860467D02*
X196303438Y-93812848D01*
X196303438Y-93812848D02*
X196255819Y-93860467D01*
X196255819Y-93860467D02*
X196351057Y-93860467D01*
X196589152Y-93479515D02*
X197255819Y-93241420D01*
X197255819Y-93241420D02*
X196589152Y-93003325D01*
X197208200Y-92241420D02*
X197255819Y-92336658D01*
X197255819Y-92336658D02*
X197255819Y-92527134D01*
X197255819Y-92527134D02*
X197208200Y-92622372D01*
X197208200Y-92622372D02*
X197112961Y-92669991D01*
X197112961Y-92669991D02*
X196732009Y-92669991D01*
X196732009Y-92669991D02*
X196636771Y-92622372D01*
X196636771Y-92622372D02*
X196589152Y-92527134D01*
X196589152Y-92527134D02*
X196589152Y-92336658D01*
X196589152Y-92336658D02*
X196636771Y-92241420D01*
X196636771Y-92241420D02*
X196732009Y-92193801D01*
X196732009Y-92193801D02*
X196827247Y-92193801D01*
X196827247Y-92193801D02*
X196922485Y-92669991D01*
X197208200Y-90574753D02*
X197255819Y-90669991D01*
X197255819Y-90669991D02*
X197255819Y-90860467D01*
X197255819Y-90860467D02*
X197208200Y-90955705D01*
X197208200Y-90955705D02*
X197160580Y-91003324D01*
X197160580Y-91003324D02*
X197065342Y-91050943D01*
X197065342Y-91050943D02*
X196779628Y-91050943D01*
X196779628Y-91050943D02*
X196684390Y-91003324D01*
X196684390Y-91003324D02*
X196636771Y-90955705D01*
X196636771Y-90955705D02*
X196589152Y-90860467D01*
X196589152Y-90860467D02*
X196589152Y-90669991D01*
X196589152Y-90669991D02*
X196636771Y-90574753D01*
X197255819Y-90003324D02*
X197208200Y-90098562D01*
X197208200Y-90098562D02*
X197160580Y-90146181D01*
X197160580Y-90146181D02*
X197065342Y-90193800D01*
X197065342Y-90193800D02*
X196779628Y-90193800D01*
X196779628Y-90193800D02*
X196684390Y-90146181D01*
X196684390Y-90146181D02*
X196636771Y-90098562D01*
X196636771Y-90098562D02*
X196589152Y-90003324D01*
X196589152Y-90003324D02*
X196589152Y-89860467D01*
X196589152Y-89860467D02*
X196636771Y-89765229D01*
X196636771Y-89765229D02*
X196684390Y-89717610D01*
X196684390Y-89717610D02*
X196779628Y-89669991D01*
X196779628Y-89669991D02*
X197065342Y-89669991D01*
X197065342Y-89669991D02*
X197160580Y-89717610D01*
X197160580Y-89717610D02*
X197208200Y-89765229D01*
X197208200Y-89765229D02*
X197255819Y-89860467D01*
X197255819Y-89860467D02*
X197255819Y-90003324D01*
X197255819Y-89241419D02*
X196589152Y-89241419D01*
X196255819Y-89241419D02*
X196303438Y-89289038D01*
X196303438Y-89289038D02*
X196351057Y-89241419D01*
X196351057Y-89241419D02*
X196303438Y-89193800D01*
X196303438Y-89193800D02*
X196255819Y-89241419D01*
X196255819Y-89241419D02*
X196351057Y-89241419D01*
X197255819Y-88622372D02*
X197208200Y-88717610D01*
X197208200Y-88717610D02*
X197112961Y-88765229D01*
X197112961Y-88765229D02*
X196255819Y-88765229D01*
X196874866Y-87479514D02*
X196874866Y-86717610D01*
X196589152Y-86241419D02*
X196874866Y-85479515D01*
X196874866Y-85479515D02*
X197160580Y-86241419D01*
X174727180Y-50138684D02*
X175727180Y-50138684D01*
X175727180Y-50138684D02*
X175012895Y-50472017D01*
X175012895Y-50472017D02*
X175727180Y-50805350D01*
X175727180Y-50805350D02*
X174727180Y-50805350D01*
X174774800Y-51662493D02*
X174727180Y-51567255D01*
X174727180Y-51567255D02*
X174727180Y-51376779D01*
X174727180Y-51376779D02*
X174774800Y-51281541D01*
X174774800Y-51281541D02*
X174870038Y-51233922D01*
X174870038Y-51233922D02*
X175250990Y-51233922D01*
X175250990Y-51233922D02*
X175346228Y-51281541D01*
X175346228Y-51281541D02*
X175393847Y-51376779D01*
X175393847Y-51376779D02*
X175393847Y-51567255D01*
X175393847Y-51567255D02*
X175346228Y-51662493D01*
X175346228Y-51662493D02*
X175250990Y-51710112D01*
X175250990Y-51710112D02*
X175155752Y-51710112D01*
X175155752Y-51710112D02*
X175060514Y-51233922D01*
X174727180Y-52567255D02*
X175250990Y-52567255D01*
X175250990Y-52567255D02*
X175346228Y-52519636D01*
X175346228Y-52519636D02*
X175393847Y-52424398D01*
X175393847Y-52424398D02*
X175393847Y-52233922D01*
X175393847Y-52233922D02*
X175346228Y-52138684D01*
X174774800Y-52567255D02*
X174727180Y-52472017D01*
X174727180Y-52472017D02*
X174727180Y-52233922D01*
X174727180Y-52233922D02*
X174774800Y-52138684D01*
X174774800Y-52138684D02*
X174870038Y-52091065D01*
X174870038Y-52091065D02*
X174965276Y-52091065D01*
X174965276Y-52091065D02*
X175060514Y-52138684D01*
X175060514Y-52138684D02*
X175108133Y-52233922D01*
X175108133Y-52233922D02*
X175108133Y-52472017D01*
X175108133Y-52472017D02*
X175155752Y-52567255D01*
X174774800Y-52995827D02*
X174727180Y-53091065D01*
X174727180Y-53091065D02*
X174727180Y-53281541D01*
X174727180Y-53281541D02*
X174774800Y-53376779D01*
X174774800Y-53376779D02*
X174870038Y-53424398D01*
X174870038Y-53424398D02*
X174917657Y-53424398D01*
X174917657Y-53424398D02*
X175012895Y-53376779D01*
X175012895Y-53376779D02*
X175060514Y-53281541D01*
X175060514Y-53281541D02*
X175060514Y-53138684D01*
X175060514Y-53138684D02*
X175108133Y-53043446D01*
X175108133Y-53043446D02*
X175203371Y-52995827D01*
X175203371Y-52995827D02*
X175250990Y-52995827D01*
X175250990Y-52995827D02*
X175346228Y-53043446D01*
X175346228Y-53043446D02*
X175393847Y-53138684D01*
X175393847Y-53138684D02*
X175393847Y-53281541D01*
X175393847Y-53281541D02*
X175346228Y-53376779D01*
X175393847Y-54281541D02*
X174727180Y-54281541D01*
X175393847Y-53852970D02*
X174870038Y-53852970D01*
X174870038Y-53852970D02*
X174774800Y-53900589D01*
X174774800Y-53900589D02*
X174727180Y-53995827D01*
X174727180Y-53995827D02*
X174727180Y-54138684D01*
X174727180Y-54138684D02*
X174774800Y-54233922D01*
X174774800Y-54233922D02*
X174822419Y-54281541D01*
X174727180Y-54757732D02*
X175393847Y-54757732D01*
X175203371Y-54757732D02*
X175298609Y-54805351D01*
X175298609Y-54805351D02*
X175346228Y-54852970D01*
X175346228Y-54852970D02*
X175393847Y-54948208D01*
X175393847Y-54948208D02*
X175393847Y-55043446D01*
X174774800Y-55757732D02*
X174727180Y-55662494D01*
X174727180Y-55662494D02*
X174727180Y-55472018D01*
X174727180Y-55472018D02*
X174774800Y-55376780D01*
X174774800Y-55376780D02*
X174870038Y-55329161D01*
X174870038Y-55329161D02*
X175250990Y-55329161D01*
X175250990Y-55329161D02*
X175346228Y-55376780D01*
X175346228Y-55376780D02*
X175393847Y-55472018D01*
X175393847Y-55472018D02*
X175393847Y-55662494D01*
X175393847Y-55662494D02*
X175346228Y-55757732D01*
X175346228Y-55757732D02*
X175250990Y-55805351D01*
X175250990Y-55805351D02*
X175155752Y-55805351D01*
X175155752Y-55805351D02*
X175060514Y-55329161D01*
X174727180Y-56233923D02*
X175393847Y-56233923D01*
X175298609Y-56233923D02*
X175346228Y-56281542D01*
X175346228Y-56281542D02*
X175393847Y-56376780D01*
X175393847Y-56376780D02*
X175393847Y-56519637D01*
X175393847Y-56519637D02*
X175346228Y-56614875D01*
X175346228Y-56614875D02*
X175250990Y-56662494D01*
X175250990Y-56662494D02*
X174727180Y-56662494D01*
X175250990Y-56662494D02*
X175346228Y-56710113D01*
X175346228Y-56710113D02*
X175393847Y-56805351D01*
X175393847Y-56805351D02*
X175393847Y-56948208D01*
X175393847Y-56948208D02*
X175346228Y-57043447D01*
X175346228Y-57043447D02*
X175250990Y-57091066D01*
X175250990Y-57091066D02*
X174727180Y-57091066D01*
X174774800Y-57948208D02*
X174727180Y-57852970D01*
X174727180Y-57852970D02*
X174727180Y-57662494D01*
X174727180Y-57662494D02*
X174774800Y-57567256D01*
X174774800Y-57567256D02*
X174870038Y-57519637D01*
X174870038Y-57519637D02*
X175250990Y-57519637D01*
X175250990Y-57519637D02*
X175346228Y-57567256D01*
X175346228Y-57567256D02*
X175393847Y-57662494D01*
X175393847Y-57662494D02*
X175393847Y-57852970D01*
X175393847Y-57852970D02*
X175346228Y-57948208D01*
X175346228Y-57948208D02*
X175250990Y-57995827D01*
X175250990Y-57995827D02*
X175155752Y-57995827D01*
X175155752Y-57995827D02*
X175060514Y-57519637D01*
X175393847Y-58424399D02*
X174727180Y-58424399D01*
X175298609Y-58424399D02*
X175346228Y-58472018D01*
X175346228Y-58472018D02*
X175393847Y-58567256D01*
X175393847Y-58567256D02*
X175393847Y-58710113D01*
X175393847Y-58710113D02*
X175346228Y-58805351D01*
X175346228Y-58805351D02*
X175250990Y-58852970D01*
X175250990Y-58852970D02*
X174727180Y-58852970D01*
X175393847Y-59186304D02*
X175393847Y-59567256D01*
X175727180Y-59329161D02*
X174870038Y-59329161D01*
X174870038Y-59329161D02*
X174774800Y-59376780D01*
X174774800Y-59376780D02*
X174727180Y-59472018D01*
X174727180Y-59472018D02*
X174727180Y-59567256D01*
X154561217Y-115172609D02*
X154227884Y-115172609D01*
X154227884Y-115696419D02*
X154227884Y-114696419D01*
X154227884Y-114696419D02*
X154704074Y-114696419D01*
X155227884Y-115696419D02*
X155132646Y-115648800D01*
X155132646Y-115648800D02*
X155085027Y-115553561D01*
X155085027Y-115553561D02*
X155085027Y-114696419D01*
X156037408Y-115029752D02*
X156037408Y-115696419D01*
X155608837Y-115029752D02*
X155608837Y-115553561D01*
X155608837Y-115553561D02*
X155656456Y-115648800D01*
X155656456Y-115648800D02*
X155751694Y-115696419D01*
X155751694Y-115696419D02*
X155894551Y-115696419D01*
X155894551Y-115696419D02*
X155989789Y-115648800D01*
X155989789Y-115648800D02*
X156037408Y-115601180D01*
X156418361Y-115696419D02*
X156942170Y-115029752D01*
X156418361Y-115029752D02*
X156942170Y-115696419D01*
X157751694Y-115029752D02*
X157751694Y-115839276D01*
X157751694Y-115839276D02*
X157704075Y-115934514D01*
X157704075Y-115934514D02*
X157656456Y-115982133D01*
X157656456Y-115982133D02*
X157561218Y-116029752D01*
X157561218Y-116029752D02*
X157418361Y-116029752D01*
X157418361Y-116029752D02*
X157323123Y-115982133D01*
X157751694Y-115648800D02*
X157656456Y-115696419D01*
X157656456Y-115696419D02*
X157465980Y-115696419D01*
X157465980Y-115696419D02*
X157370742Y-115648800D01*
X157370742Y-115648800D02*
X157323123Y-115601180D01*
X157323123Y-115601180D02*
X157275504Y-115505942D01*
X157275504Y-115505942D02*
X157275504Y-115220228D01*
X157275504Y-115220228D02*
X157323123Y-115124990D01*
X157323123Y-115124990D02*
X157370742Y-115077371D01*
X157370742Y-115077371D02*
X157465980Y-115029752D01*
X157465980Y-115029752D02*
X157656456Y-115029752D01*
X157656456Y-115029752D02*
X157751694Y-115077371D01*
X158656456Y-115696419D02*
X158656456Y-115172609D01*
X158656456Y-115172609D02*
X158608837Y-115077371D01*
X158608837Y-115077371D02*
X158513599Y-115029752D01*
X158513599Y-115029752D02*
X158323123Y-115029752D01*
X158323123Y-115029752D02*
X158227885Y-115077371D01*
X158656456Y-115648800D02*
X158561218Y-115696419D01*
X158561218Y-115696419D02*
X158323123Y-115696419D01*
X158323123Y-115696419D02*
X158227885Y-115648800D01*
X158227885Y-115648800D02*
X158180266Y-115553561D01*
X158180266Y-115553561D02*
X158180266Y-115458323D01*
X158180266Y-115458323D02*
X158227885Y-115363085D01*
X158227885Y-115363085D02*
X158323123Y-115315466D01*
X158323123Y-115315466D02*
X158561218Y-115315466D01*
X158561218Y-115315466D02*
X158656456Y-115267847D01*
X158989790Y-115029752D02*
X159370742Y-115029752D01*
X159132647Y-114696419D02*
X159132647Y-115553561D01*
X159132647Y-115553561D02*
X159180266Y-115648800D01*
X159180266Y-115648800D02*
X159275504Y-115696419D01*
X159275504Y-115696419D02*
X159370742Y-115696419D01*
X160085028Y-115648800D02*
X159989790Y-115696419D01*
X159989790Y-115696419D02*
X159799314Y-115696419D01*
X159799314Y-115696419D02*
X159704076Y-115648800D01*
X159704076Y-115648800D02*
X159656457Y-115553561D01*
X159656457Y-115553561D02*
X159656457Y-115172609D01*
X159656457Y-115172609D02*
X159704076Y-115077371D01*
X159704076Y-115077371D02*
X159799314Y-115029752D01*
X159799314Y-115029752D02*
X159989790Y-115029752D01*
X159989790Y-115029752D02*
X160085028Y-115077371D01*
X160085028Y-115077371D02*
X160132647Y-115172609D01*
X160132647Y-115172609D02*
X160132647Y-115267847D01*
X160132647Y-115267847D02*
X159656457Y-115363085D01*
X161751695Y-115696419D02*
X161751695Y-114696419D01*
X161751695Y-115648800D02*
X161656457Y-115696419D01*
X161656457Y-115696419D02*
X161465981Y-115696419D01*
X161465981Y-115696419D02*
X161370743Y-115648800D01*
X161370743Y-115648800D02*
X161323124Y-115601180D01*
X161323124Y-115601180D02*
X161275505Y-115505942D01*
X161275505Y-115505942D02*
X161275505Y-115220228D01*
X161275505Y-115220228D02*
X161323124Y-115124990D01*
X161323124Y-115124990D02*
X161370743Y-115077371D01*
X161370743Y-115077371D02*
X161465981Y-115029752D01*
X161465981Y-115029752D02*
X161656457Y-115029752D01*
X161656457Y-115029752D02*
X161751695Y-115077371D01*
X162656457Y-115696419D02*
X162656457Y-115172609D01*
X162656457Y-115172609D02*
X162608838Y-115077371D01*
X162608838Y-115077371D02*
X162513600Y-115029752D01*
X162513600Y-115029752D02*
X162323124Y-115029752D01*
X162323124Y-115029752D02*
X162227886Y-115077371D01*
X162656457Y-115648800D02*
X162561219Y-115696419D01*
X162561219Y-115696419D02*
X162323124Y-115696419D01*
X162323124Y-115696419D02*
X162227886Y-115648800D01*
X162227886Y-115648800D02*
X162180267Y-115553561D01*
X162180267Y-115553561D02*
X162180267Y-115458323D01*
X162180267Y-115458323D02*
X162227886Y-115363085D01*
X162227886Y-115363085D02*
X162323124Y-115315466D01*
X162323124Y-115315466D02*
X162561219Y-115315466D01*
X162561219Y-115315466D02*
X162656457Y-115267847D01*
X162989791Y-115029752D02*
X163370743Y-115029752D01*
X163132648Y-114696419D02*
X163132648Y-115553561D01*
X163132648Y-115553561D02*
X163180267Y-115648800D01*
X163180267Y-115648800D02*
X163275505Y-115696419D01*
X163275505Y-115696419D02*
X163370743Y-115696419D01*
X164132648Y-115696419D02*
X164132648Y-115172609D01*
X164132648Y-115172609D02*
X164085029Y-115077371D01*
X164085029Y-115077371D02*
X163989791Y-115029752D01*
X163989791Y-115029752D02*
X163799315Y-115029752D01*
X163799315Y-115029752D02*
X163704077Y-115077371D01*
X164132648Y-115648800D02*
X164037410Y-115696419D01*
X164037410Y-115696419D02*
X163799315Y-115696419D01*
X163799315Y-115696419D02*
X163704077Y-115648800D01*
X163704077Y-115648800D02*
X163656458Y-115553561D01*
X163656458Y-115553561D02*
X163656458Y-115458323D01*
X163656458Y-115458323D02*
X163704077Y-115363085D01*
X163704077Y-115363085D02*
X163799315Y-115315466D01*
X163799315Y-115315466D02*
X164037410Y-115315466D01*
X164037410Y-115315466D02*
X164132648Y-115267847D01*
X164751696Y-115696419D02*
X164656458Y-115648800D01*
X164656458Y-115648800D02*
X164608839Y-115553561D01*
X164608839Y-115553561D02*
X164608839Y-114696419D01*
X165275506Y-115696419D02*
X165180268Y-115648800D01*
X165180268Y-115648800D02*
X165132649Y-115601180D01*
X165132649Y-115601180D02*
X165085030Y-115505942D01*
X165085030Y-115505942D02*
X165085030Y-115220228D01*
X165085030Y-115220228D02*
X165132649Y-115124990D01*
X165132649Y-115124990D02*
X165180268Y-115077371D01*
X165180268Y-115077371D02*
X165275506Y-115029752D01*
X165275506Y-115029752D02*
X165418363Y-115029752D01*
X165418363Y-115029752D02*
X165513601Y-115077371D01*
X165513601Y-115077371D02*
X165561220Y-115124990D01*
X165561220Y-115124990D02*
X165608839Y-115220228D01*
X165608839Y-115220228D02*
X165608839Y-115505942D01*
X165608839Y-115505942D02*
X165561220Y-115601180D01*
X165561220Y-115601180D02*
X165513601Y-115648800D01*
X165513601Y-115648800D02*
X165418363Y-115696419D01*
X165418363Y-115696419D02*
X165275506Y-115696419D01*
X166465982Y-115029752D02*
X166465982Y-115839276D01*
X166465982Y-115839276D02*
X166418363Y-115934514D01*
X166418363Y-115934514D02*
X166370744Y-115982133D01*
X166370744Y-115982133D02*
X166275506Y-116029752D01*
X166275506Y-116029752D02*
X166132649Y-116029752D01*
X166132649Y-116029752D02*
X166037411Y-115982133D01*
X166465982Y-115648800D02*
X166370744Y-115696419D01*
X166370744Y-115696419D02*
X166180268Y-115696419D01*
X166180268Y-115696419D02*
X166085030Y-115648800D01*
X166085030Y-115648800D02*
X166037411Y-115601180D01*
X166037411Y-115601180D02*
X165989792Y-115505942D01*
X165989792Y-115505942D02*
X165989792Y-115220228D01*
X165989792Y-115220228D02*
X166037411Y-115124990D01*
X166037411Y-115124990D02*
X166085030Y-115077371D01*
X166085030Y-115077371D02*
X166180268Y-115029752D01*
X166180268Y-115029752D02*
X166370744Y-115029752D01*
X166370744Y-115029752D02*
X166465982Y-115077371D01*
X167370744Y-115029752D02*
X167370744Y-115839276D01*
X167370744Y-115839276D02*
X167323125Y-115934514D01*
X167323125Y-115934514D02*
X167275506Y-115982133D01*
X167275506Y-115982133D02*
X167180268Y-116029752D01*
X167180268Y-116029752D02*
X167037411Y-116029752D01*
X167037411Y-116029752D02*
X166942173Y-115982133D01*
X167370744Y-115648800D02*
X167275506Y-115696419D01*
X167275506Y-115696419D02*
X167085030Y-115696419D01*
X167085030Y-115696419D02*
X166989792Y-115648800D01*
X166989792Y-115648800D02*
X166942173Y-115601180D01*
X166942173Y-115601180D02*
X166894554Y-115505942D01*
X166894554Y-115505942D02*
X166894554Y-115220228D01*
X166894554Y-115220228D02*
X166942173Y-115124990D01*
X166942173Y-115124990D02*
X166989792Y-115077371D01*
X166989792Y-115077371D02*
X167085030Y-115029752D01*
X167085030Y-115029752D02*
X167275506Y-115029752D01*
X167275506Y-115029752D02*
X167370744Y-115077371D01*
X168227887Y-115648800D02*
X168132649Y-115696419D01*
X168132649Y-115696419D02*
X167942173Y-115696419D01*
X167942173Y-115696419D02*
X167846935Y-115648800D01*
X167846935Y-115648800D02*
X167799316Y-115553561D01*
X167799316Y-115553561D02*
X167799316Y-115172609D01*
X167799316Y-115172609D02*
X167846935Y-115077371D01*
X167846935Y-115077371D02*
X167942173Y-115029752D01*
X167942173Y-115029752D02*
X168132649Y-115029752D01*
X168132649Y-115029752D02*
X168227887Y-115077371D01*
X168227887Y-115077371D02*
X168275506Y-115172609D01*
X168275506Y-115172609D02*
X168275506Y-115267847D01*
X168275506Y-115267847D02*
X167799316Y-115363085D01*
X168704078Y-115696419D02*
X168704078Y-115029752D01*
X168704078Y-115220228D02*
X168751697Y-115124990D01*
X168751697Y-115124990D02*
X168799316Y-115077371D01*
X168799316Y-115077371D02*
X168894554Y-115029752D01*
X168894554Y-115029752D02*
X168989792Y-115029752D01*
X170370745Y-116077371D02*
X170323126Y-116029752D01*
X170323126Y-116029752D02*
X170227888Y-115886895D01*
X170227888Y-115886895D02*
X170180269Y-115791657D01*
X170180269Y-115791657D02*
X170132650Y-115648800D01*
X170132650Y-115648800D02*
X170085031Y-115410704D01*
X170085031Y-115410704D02*
X170085031Y-115220228D01*
X170085031Y-115220228D02*
X170132650Y-114982133D01*
X170132650Y-114982133D02*
X170180269Y-114839276D01*
X170180269Y-114839276D02*
X170227888Y-114744038D01*
X170227888Y-114744038D02*
X170323126Y-114601180D01*
X170323126Y-114601180D02*
X170370745Y-114553561D01*
X170751698Y-115696419D02*
X170751698Y-114696419D01*
X170751698Y-114696419D02*
X171085031Y-115410704D01*
X171085031Y-115410704D02*
X171418364Y-114696419D01*
X171418364Y-114696419D02*
X171418364Y-115696419D01*
X172323126Y-115696419D02*
X172323126Y-115172609D01*
X172323126Y-115172609D02*
X172275507Y-115077371D01*
X172275507Y-115077371D02*
X172180269Y-115029752D01*
X172180269Y-115029752D02*
X171989793Y-115029752D01*
X171989793Y-115029752D02*
X171894555Y-115077371D01*
X172323126Y-115648800D02*
X172227888Y-115696419D01*
X172227888Y-115696419D02*
X171989793Y-115696419D01*
X171989793Y-115696419D02*
X171894555Y-115648800D01*
X171894555Y-115648800D02*
X171846936Y-115553561D01*
X171846936Y-115553561D02*
X171846936Y-115458323D01*
X171846936Y-115458323D02*
X171894555Y-115363085D01*
X171894555Y-115363085D02*
X171989793Y-115315466D01*
X171989793Y-115315466D02*
X172227888Y-115315466D01*
X172227888Y-115315466D02*
X172323126Y-115267847D01*
X173227888Y-115029752D02*
X173227888Y-115696419D01*
X172799317Y-115029752D02*
X172799317Y-115553561D01*
X172799317Y-115553561D02*
X172846936Y-115648800D01*
X172846936Y-115648800D02*
X172942174Y-115696419D01*
X172942174Y-115696419D02*
X173085031Y-115696419D01*
X173085031Y-115696419D02*
X173180269Y-115648800D01*
X173180269Y-115648800D02*
X173227888Y-115601180D01*
X173704079Y-115696419D02*
X173704079Y-115029752D01*
X173704079Y-115220228D02*
X173751698Y-115124990D01*
X173751698Y-115124990D02*
X173799317Y-115077371D01*
X173799317Y-115077371D02*
X173894555Y-115029752D01*
X173894555Y-115029752D02*
X173989793Y-115029752D01*
X174227889Y-115029752D02*
X174465984Y-115696419D01*
X174704079Y-115029752D02*
X174465984Y-115696419D01*
X174465984Y-115696419D02*
X174370746Y-115934514D01*
X174370746Y-115934514D02*
X174323127Y-115982133D01*
X174323127Y-115982133D02*
X174227889Y-116029752D01*
X175513603Y-115648800D02*
X175418365Y-115696419D01*
X175418365Y-115696419D02*
X175227889Y-115696419D01*
X175227889Y-115696419D02*
X175132651Y-115648800D01*
X175132651Y-115648800D02*
X175085032Y-115601180D01*
X175085032Y-115601180D02*
X175037413Y-115505942D01*
X175037413Y-115505942D02*
X175037413Y-115220228D01*
X175037413Y-115220228D02*
X175085032Y-115124990D01*
X175085032Y-115124990D02*
X175132651Y-115077371D01*
X175132651Y-115077371D02*
X175227889Y-115029752D01*
X175227889Y-115029752D02*
X175418365Y-115029752D01*
X175418365Y-115029752D02*
X175513603Y-115077371D01*
X175846937Y-115029752D02*
X176085032Y-115696419D01*
X176323127Y-115029752D02*
X176085032Y-115696419D01*
X176085032Y-115696419D02*
X175989794Y-115934514D01*
X175989794Y-115934514D02*
X175942175Y-115982133D01*
X175942175Y-115982133D02*
X175846937Y-116029752D01*
X177370747Y-114696419D02*
X178037413Y-114696419D01*
X178037413Y-114696419D02*
X177370747Y-115696419D01*
X177370747Y-115696419D02*
X178037413Y-115696419D01*
X178465985Y-115648800D02*
X178465985Y-115696419D01*
X178465985Y-115696419D02*
X178418366Y-115791657D01*
X178418366Y-115791657D02*
X178370747Y-115839276D01*
X180180270Y-115696419D02*
X179608842Y-115696419D01*
X179894556Y-115696419D02*
X179894556Y-114696419D01*
X179894556Y-114696419D02*
X179799318Y-114839276D01*
X179799318Y-114839276D02*
X179704080Y-114934514D01*
X179704080Y-114934514D02*
X179608842Y-114982133D01*
X180799318Y-114696419D02*
X180894556Y-114696419D01*
X180894556Y-114696419D02*
X180989794Y-114744038D01*
X180989794Y-114744038D02*
X181037413Y-114791657D01*
X181037413Y-114791657D02*
X181085032Y-114886895D01*
X181085032Y-114886895D02*
X181132651Y-115077371D01*
X181132651Y-115077371D02*
X181132651Y-115315466D01*
X181132651Y-115315466D02*
X181085032Y-115505942D01*
X181085032Y-115505942D02*
X181037413Y-115601180D01*
X181037413Y-115601180D02*
X180989794Y-115648800D01*
X180989794Y-115648800D02*
X180894556Y-115696419D01*
X180894556Y-115696419D02*
X180799318Y-115696419D01*
X180799318Y-115696419D02*
X180704080Y-115648800D01*
X180704080Y-115648800D02*
X180656461Y-115601180D01*
X180656461Y-115601180D02*
X180608842Y-115505942D01*
X180608842Y-115505942D02*
X180561223Y-115315466D01*
X180561223Y-115315466D02*
X180561223Y-115077371D01*
X180561223Y-115077371D02*
X180608842Y-114886895D01*
X180608842Y-114886895D02*
X180656461Y-114791657D01*
X180656461Y-114791657D02*
X180704080Y-114744038D01*
X180704080Y-114744038D02*
X180799318Y-114696419D01*
X181561223Y-115696419D02*
X181561223Y-115029752D01*
X181561223Y-115124990D02*
X181608842Y-115077371D01*
X181608842Y-115077371D02*
X181704080Y-115029752D01*
X181704080Y-115029752D02*
X181846937Y-115029752D01*
X181846937Y-115029752D02*
X181942175Y-115077371D01*
X181942175Y-115077371D02*
X181989794Y-115172609D01*
X181989794Y-115172609D02*
X181989794Y-115696419D01*
X181989794Y-115172609D02*
X182037413Y-115077371D01*
X182037413Y-115077371D02*
X182132651Y-115029752D01*
X182132651Y-115029752D02*
X182275508Y-115029752D01*
X182275508Y-115029752D02*
X182370747Y-115077371D01*
X182370747Y-115077371D02*
X182418366Y-115172609D01*
X182418366Y-115172609D02*
X182418366Y-115696419D01*
X183323127Y-115696419D02*
X183323127Y-115172609D01*
X183323127Y-115172609D02*
X183275508Y-115077371D01*
X183275508Y-115077371D02*
X183180270Y-115029752D01*
X183180270Y-115029752D02*
X182989794Y-115029752D01*
X182989794Y-115029752D02*
X182894556Y-115077371D01*
X183323127Y-115648800D02*
X183227889Y-115696419D01*
X183227889Y-115696419D02*
X182989794Y-115696419D01*
X182989794Y-115696419D02*
X182894556Y-115648800D01*
X182894556Y-115648800D02*
X182846937Y-115553561D01*
X182846937Y-115553561D02*
X182846937Y-115458323D01*
X182846937Y-115458323D02*
X182894556Y-115363085D01*
X182894556Y-115363085D02*
X182989794Y-115315466D01*
X182989794Y-115315466D02*
X183227889Y-115315466D01*
X183227889Y-115315466D02*
X183323127Y-115267847D01*
X184227889Y-115029752D02*
X184227889Y-115696419D01*
X183799318Y-115029752D02*
X183799318Y-115553561D01*
X183799318Y-115553561D02*
X183846937Y-115648800D01*
X183846937Y-115648800D02*
X183942175Y-115696419D01*
X183942175Y-115696419D02*
X184085032Y-115696419D01*
X184085032Y-115696419D02*
X184180270Y-115648800D01*
X184180270Y-115648800D02*
X184227889Y-115601180D01*
X184704080Y-115696419D02*
X184704080Y-115029752D01*
X184704080Y-115220228D02*
X184751699Y-115124990D01*
X184751699Y-115124990D02*
X184799318Y-115077371D01*
X184799318Y-115077371D02*
X184894556Y-115029752D01*
X184894556Y-115029752D02*
X184989794Y-115029752D01*
X185227890Y-115029752D02*
X185465985Y-115696419D01*
X185704080Y-115029752D02*
X185465985Y-115696419D01*
X185465985Y-115696419D02*
X185370747Y-115934514D01*
X185370747Y-115934514D02*
X185323128Y-115982133D01*
X185323128Y-115982133D02*
X185227890Y-116029752D01*
X186513604Y-115648800D02*
X186418366Y-115696419D01*
X186418366Y-115696419D02*
X186227890Y-115696419D01*
X186227890Y-115696419D02*
X186132652Y-115648800D01*
X186132652Y-115648800D02*
X186085033Y-115601180D01*
X186085033Y-115601180D02*
X186037414Y-115505942D01*
X186037414Y-115505942D02*
X186037414Y-115220228D01*
X186037414Y-115220228D02*
X186085033Y-115124990D01*
X186085033Y-115124990D02*
X186132652Y-115077371D01*
X186132652Y-115077371D02*
X186227890Y-115029752D01*
X186227890Y-115029752D02*
X186418366Y-115029752D01*
X186418366Y-115029752D02*
X186513604Y-115077371D01*
X186846938Y-115029752D02*
X187085033Y-115696419D01*
X187323128Y-115029752D02*
X187085033Y-115696419D01*
X187085033Y-115696419D02*
X186989795Y-115934514D01*
X186989795Y-115934514D02*
X186942176Y-115982133D01*
X186942176Y-115982133D02*
X186846938Y-116029752D01*
X188227890Y-115696419D02*
X187656462Y-115696419D01*
X187942176Y-115696419D02*
X187942176Y-114696419D01*
X187942176Y-114696419D02*
X187846938Y-114839276D01*
X187846938Y-114839276D02*
X187751700Y-114934514D01*
X187751700Y-114934514D02*
X187656462Y-114982133D01*
X188846938Y-114696419D02*
X188942176Y-114696419D01*
X188942176Y-114696419D02*
X189037414Y-114744038D01*
X189037414Y-114744038D02*
X189085033Y-114791657D01*
X189085033Y-114791657D02*
X189132652Y-114886895D01*
X189132652Y-114886895D02*
X189180271Y-115077371D01*
X189180271Y-115077371D02*
X189180271Y-115315466D01*
X189180271Y-115315466D02*
X189132652Y-115505942D01*
X189132652Y-115505942D02*
X189085033Y-115601180D01*
X189085033Y-115601180D02*
X189037414Y-115648800D01*
X189037414Y-115648800D02*
X188942176Y-115696419D01*
X188942176Y-115696419D02*
X188846938Y-115696419D01*
X188846938Y-115696419D02*
X188751700Y-115648800D01*
X188751700Y-115648800D02*
X188704081Y-115601180D01*
X188704081Y-115601180D02*
X188656462Y-115505942D01*
X188656462Y-115505942D02*
X188608843Y-115315466D01*
X188608843Y-115315466D02*
X188608843Y-115077371D01*
X188608843Y-115077371D02*
X188656462Y-114886895D01*
X188656462Y-114886895D02*
X188704081Y-114791657D01*
X188704081Y-114791657D02*
X188751700Y-114744038D01*
X188751700Y-114744038D02*
X188846938Y-114696419D01*
X189608843Y-115601180D02*
X189656462Y-115648800D01*
X189656462Y-115648800D02*
X189608843Y-115696419D01*
X189608843Y-115696419D02*
X189561224Y-115648800D01*
X189561224Y-115648800D02*
X189608843Y-115601180D01*
X189608843Y-115601180D02*
X189608843Y-115696419D01*
X190513604Y-115029752D02*
X190513604Y-115839276D01*
X190513604Y-115839276D02*
X190465985Y-115934514D01*
X190465985Y-115934514D02*
X190418366Y-115982133D01*
X190418366Y-115982133D02*
X190323128Y-116029752D01*
X190323128Y-116029752D02*
X190180271Y-116029752D01*
X190180271Y-116029752D02*
X190085033Y-115982133D01*
X190513604Y-115648800D02*
X190418366Y-115696419D01*
X190418366Y-115696419D02*
X190227890Y-115696419D01*
X190227890Y-115696419D02*
X190132652Y-115648800D01*
X190132652Y-115648800D02*
X190085033Y-115601180D01*
X190085033Y-115601180D02*
X190037414Y-115505942D01*
X190037414Y-115505942D02*
X190037414Y-115220228D01*
X190037414Y-115220228D02*
X190085033Y-115124990D01*
X190085033Y-115124990D02*
X190132652Y-115077371D01*
X190132652Y-115077371D02*
X190227890Y-115029752D01*
X190227890Y-115029752D02*
X190418366Y-115029752D01*
X190418366Y-115029752D02*
X190513604Y-115077371D01*
X190989795Y-115696419D02*
X190989795Y-115029752D01*
X190989795Y-114696419D02*
X190942176Y-114744038D01*
X190942176Y-114744038D02*
X190989795Y-114791657D01*
X190989795Y-114791657D02*
X191037414Y-114744038D01*
X191037414Y-114744038D02*
X190989795Y-114696419D01*
X190989795Y-114696419D02*
X190989795Y-114791657D01*
X191323128Y-115029752D02*
X191704080Y-115029752D01*
X191465985Y-114696419D02*
X191465985Y-115553561D01*
X191465985Y-115553561D02*
X191513604Y-115648800D01*
X191513604Y-115648800D02*
X191608842Y-115696419D01*
X191608842Y-115696419D02*
X191704080Y-115696419D01*
X192037414Y-115696419D02*
X192037414Y-114696419D01*
X192465985Y-115696419D02*
X192465985Y-115172609D01*
X192465985Y-115172609D02*
X192418366Y-115077371D01*
X192418366Y-115077371D02*
X192323128Y-115029752D01*
X192323128Y-115029752D02*
X192180271Y-115029752D01*
X192180271Y-115029752D02*
X192085033Y-115077371D01*
X192085033Y-115077371D02*
X192037414Y-115124990D01*
X193370747Y-115029752D02*
X193370747Y-115696419D01*
X192942176Y-115029752D02*
X192942176Y-115553561D01*
X192942176Y-115553561D02*
X192989795Y-115648800D01*
X192989795Y-115648800D02*
X193085033Y-115696419D01*
X193085033Y-115696419D02*
X193227890Y-115696419D01*
X193227890Y-115696419D02*
X193323128Y-115648800D01*
X193323128Y-115648800D02*
X193370747Y-115601180D01*
X193846938Y-115696419D02*
X193846938Y-114696419D01*
X193846938Y-115077371D02*
X193942176Y-115029752D01*
X193942176Y-115029752D02*
X194132652Y-115029752D01*
X194132652Y-115029752D02*
X194227890Y-115077371D01*
X194227890Y-115077371D02*
X194275509Y-115124990D01*
X194275509Y-115124990D02*
X194323128Y-115220228D01*
X194323128Y-115220228D02*
X194323128Y-115505942D01*
X194323128Y-115505942D02*
X194275509Y-115601180D01*
X194275509Y-115601180D02*
X194227890Y-115648800D01*
X194227890Y-115648800D02*
X194132652Y-115696419D01*
X194132652Y-115696419D02*
X193942176Y-115696419D01*
X193942176Y-115696419D02*
X193846938Y-115648800D01*
X194751700Y-115601180D02*
X194799319Y-115648800D01*
X194799319Y-115648800D02*
X194751700Y-115696419D01*
X194751700Y-115696419D02*
X194704081Y-115648800D01*
X194704081Y-115648800D02*
X194751700Y-115601180D01*
X194751700Y-115601180D02*
X194751700Y-115696419D01*
X195227890Y-115696419D02*
X195227890Y-115029752D01*
X195227890Y-114696419D02*
X195180271Y-114744038D01*
X195180271Y-114744038D02*
X195227890Y-114791657D01*
X195227890Y-114791657D02*
X195275509Y-114744038D01*
X195275509Y-114744038D02*
X195227890Y-114696419D01*
X195227890Y-114696419D02*
X195227890Y-114791657D01*
X195846937Y-115696419D02*
X195751699Y-115648800D01*
X195751699Y-115648800D02*
X195704080Y-115601180D01*
X195704080Y-115601180D02*
X195656461Y-115505942D01*
X195656461Y-115505942D02*
X195656461Y-115220228D01*
X195656461Y-115220228D02*
X195704080Y-115124990D01*
X195704080Y-115124990D02*
X195751699Y-115077371D01*
X195751699Y-115077371D02*
X195846937Y-115029752D01*
X195846937Y-115029752D02*
X195989794Y-115029752D01*
X195989794Y-115029752D02*
X196085032Y-115077371D01*
X196085032Y-115077371D02*
X196132651Y-115124990D01*
X196132651Y-115124990D02*
X196180270Y-115220228D01*
X196180270Y-115220228D02*
X196180270Y-115505942D01*
X196180270Y-115505942D02*
X196132651Y-115601180D01*
X196132651Y-115601180D02*
X196085032Y-115648800D01*
X196085032Y-115648800D02*
X195989794Y-115696419D01*
X195989794Y-115696419D02*
X195846937Y-115696419D01*
X196513604Y-116077371D02*
X196561223Y-116029752D01*
X196561223Y-116029752D02*
X196656461Y-115886895D01*
X196656461Y-115886895D02*
X196704080Y-115791657D01*
X196704080Y-115791657D02*
X196751699Y-115648800D01*
X196751699Y-115648800D02*
X196799318Y-115410704D01*
X196799318Y-115410704D02*
X196799318Y-115220228D01*
X196799318Y-115220228D02*
X196751699Y-114982133D01*
X196751699Y-114982133D02*
X196704080Y-114839276D01*
X196704080Y-114839276D02*
X196656461Y-114744038D01*
X196656461Y-114744038D02*
X196561223Y-114601180D01*
X196561223Y-114601180D02*
X196513604Y-114553561D01*
X154704074Y-111562475D02*
X154227884Y-111562475D01*
X154227884Y-111562475D02*
X154180265Y-112038665D01*
X154180265Y-112038665D02*
X154227884Y-111991046D01*
X154227884Y-111991046D02*
X154323122Y-111943427D01*
X154323122Y-111943427D02*
X154561217Y-111943427D01*
X154561217Y-111943427D02*
X154656455Y-111991046D01*
X154656455Y-111991046D02*
X154704074Y-112038665D01*
X154704074Y-112038665D02*
X154751693Y-112133903D01*
X154751693Y-112133903D02*
X154751693Y-112371998D01*
X154751693Y-112371998D02*
X154704074Y-112467236D01*
X154704074Y-112467236D02*
X154656455Y-112514856D01*
X154656455Y-112514856D02*
X154561217Y-112562475D01*
X154561217Y-112562475D02*
X154323122Y-112562475D01*
X154323122Y-112562475D02*
X154227884Y-112514856D01*
X154227884Y-112514856D02*
X154180265Y-112467236D01*
X155942170Y-111895808D02*
X155942170Y-112562475D01*
X155942170Y-111991046D02*
X155989789Y-111943427D01*
X155989789Y-111943427D02*
X156085027Y-111895808D01*
X156085027Y-111895808D02*
X156227884Y-111895808D01*
X156227884Y-111895808D02*
X156323122Y-111943427D01*
X156323122Y-111943427D02*
X156370741Y-112038665D01*
X156370741Y-112038665D02*
X156370741Y-112562475D01*
X156704075Y-111562475D02*
X157037408Y-112562475D01*
X157037408Y-112562475D02*
X157370741Y-111562475D01*
X158465980Y-112562475D02*
X158465980Y-111895808D01*
X158465980Y-112086284D02*
X158513599Y-111991046D01*
X158513599Y-111991046D02*
X158561218Y-111943427D01*
X158561218Y-111943427D02*
X158656456Y-111895808D01*
X158656456Y-111895808D02*
X158751694Y-111895808D01*
X159465980Y-112514856D02*
X159370742Y-112562475D01*
X159370742Y-112562475D02*
X159180266Y-112562475D01*
X159180266Y-112562475D02*
X159085028Y-112514856D01*
X159085028Y-112514856D02*
X159037409Y-112419617D01*
X159037409Y-112419617D02*
X159037409Y-112038665D01*
X159037409Y-112038665D02*
X159085028Y-111943427D01*
X159085028Y-111943427D02*
X159180266Y-111895808D01*
X159180266Y-111895808D02*
X159370742Y-111895808D01*
X159370742Y-111895808D02*
X159465980Y-111943427D01*
X159465980Y-111943427D02*
X159513599Y-112038665D01*
X159513599Y-112038665D02*
X159513599Y-112133903D01*
X159513599Y-112133903D02*
X159037409Y-112229141D01*
X159894552Y-112514856D02*
X159989790Y-112562475D01*
X159989790Y-112562475D02*
X160180266Y-112562475D01*
X160180266Y-112562475D02*
X160275504Y-112514856D01*
X160275504Y-112514856D02*
X160323123Y-112419617D01*
X160323123Y-112419617D02*
X160323123Y-112371998D01*
X160323123Y-112371998D02*
X160275504Y-112276760D01*
X160275504Y-112276760D02*
X160180266Y-112229141D01*
X160180266Y-112229141D02*
X160037409Y-112229141D01*
X160037409Y-112229141D02*
X159942171Y-112181522D01*
X159942171Y-112181522D02*
X159894552Y-112086284D01*
X159894552Y-112086284D02*
X159894552Y-112038665D01*
X159894552Y-112038665D02*
X159942171Y-111943427D01*
X159942171Y-111943427D02*
X160037409Y-111895808D01*
X160037409Y-111895808D02*
X160180266Y-111895808D01*
X160180266Y-111895808D02*
X160275504Y-111943427D01*
X160894552Y-112562475D02*
X160799314Y-112514856D01*
X160799314Y-112514856D02*
X160751695Y-112467236D01*
X160751695Y-112467236D02*
X160704076Y-112371998D01*
X160704076Y-112371998D02*
X160704076Y-112086284D01*
X160704076Y-112086284D02*
X160751695Y-111991046D01*
X160751695Y-111991046D02*
X160799314Y-111943427D01*
X160799314Y-111943427D02*
X160894552Y-111895808D01*
X160894552Y-111895808D02*
X161037409Y-111895808D01*
X161037409Y-111895808D02*
X161132647Y-111943427D01*
X161132647Y-111943427D02*
X161180266Y-111991046D01*
X161180266Y-111991046D02*
X161227885Y-112086284D01*
X161227885Y-112086284D02*
X161227885Y-112371998D01*
X161227885Y-112371998D02*
X161180266Y-112467236D01*
X161180266Y-112467236D02*
X161132647Y-112514856D01*
X161132647Y-112514856D02*
X161037409Y-112562475D01*
X161037409Y-112562475D02*
X160894552Y-112562475D01*
X161799314Y-112562475D02*
X161704076Y-112514856D01*
X161704076Y-112514856D02*
X161656457Y-112419617D01*
X161656457Y-112419617D02*
X161656457Y-111562475D01*
X162608838Y-111895808D02*
X162608838Y-112562475D01*
X162180267Y-111895808D02*
X162180267Y-112419617D01*
X162180267Y-112419617D02*
X162227886Y-112514856D01*
X162227886Y-112514856D02*
X162323124Y-112562475D01*
X162323124Y-112562475D02*
X162465981Y-112562475D01*
X162465981Y-112562475D02*
X162561219Y-112514856D01*
X162561219Y-112514856D02*
X162608838Y-112467236D01*
X162942172Y-111895808D02*
X163323124Y-111895808D01*
X163085029Y-111562475D02*
X163085029Y-112419617D01*
X163085029Y-112419617D02*
X163132648Y-112514856D01*
X163132648Y-112514856D02*
X163227886Y-112562475D01*
X163227886Y-112562475D02*
X163323124Y-112562475D01*
X163656458Y-112562475D02*
X163656458Y-111895808D01*
X163656458Y-111562475D02*
X163608839Y-111610094D01*
X163608839Y-111610094D02*
X163656458Y-111657713D01*
X163656458Y-111657713D02*
X163704077Y-111610094D01*
X163704077Y-111610094D02*
X163656458Y-111562475D01*
X163656458Y-111562475D02*
X163656458Y-111657713D01*
X164275505Y-112562475D02*
X164180267Y-112514856D01*
X164180267Y-112514856D02*
X164132648Y-112467236D01*
X164132648Y-112467236D02*
X164085029Y-112371998D01*
X164085029Y-112371998D02*
X164085029Y-112086284D01*
X164085029Y-112086284D02*
X164132648Y-111991046D01*
X164132648Y-111991046D02*
X164180267Y-111943427D01*
X164180267Y-111943427D02*
X164275505Y-111895808D01*
X164275505Y-111895808D02*
X164418362Y-111895808D01*
X164418362Y-111895808D02*
X164513600Y-111943427D01*
X164513600Y-111943427D02*
X164561219Y-111991046D01*
X164561219Y-111991046D02*
X164608838Y-112086284D01*
X164608838Y-112086284D02*
X164608838Y-112371998D01*
X164608838Y-112371998D02*
X164561219Y-112467236D01*
X164561219Y-112467236D02*
X164513600Y-112514856D01*
X164513600Y-112514856D02*
X164418362Y-112562475D01*
X164418362Y-112562475D02*
X164275505Y-112562475D01*
X165037410Y-111895808D02*
X165037410Y-112562475D01*
X165037410Y-111991046D02*
X165085029Y-111943427D01*
X165085029Y-111943427D02*
X165180267Y-111895808D01*
X165180267Y-111895808D02*
X165323124Y-111895808D01*
X165323124Y-111895808D02*
X165418362Y-111943427D01*
X165418362Y-111943427D02*
X165465981Y-112038665D01*
X165465981Y-112038665D02*
X165465981Y-112562475D01*
X154656455Y-113172419D02*
X154465979Y-113172419D01*
X154465979Y-113172419D02*
X154370741Y-113220038D01*
X154370741Y-113220038D02*
X154323122Y-113267657D01*
X154323122Y-113267657D02*
X154227884Y-113410514D01*
X154227884Y-113410514D02*
X154180265Y-113600990D01*
X154180265Y-113600990D02*
X154180265Y-113981942D01*
X154180265Y-113981942D02*
X154227884Y-114077180D01*
X154227884Y-114077180D02*
X154275503Y-114124800D01*
X154275503Y-114124800D02*
X154370741Y-114172419D01*
X154370741Y-114172419D02*
X154561217Y-114172419D01*
X154561217Y-114172419D02*
X154656455Y-114124800D01*
X154656455Y-114124800D02*
X154704074Y-114077180D01*
X154704074Y-114077180D02*
X154751693Y-113981942D01*
X154751693Y-113981942D02*
X154751693Y-113743847D01*
X154751693Y-113743847D02*
X154704074Y-113648609D01*
X154704074Y-113648609D02*
X154656455Y-113600990D01*
X154656455Y-113600990D02*
X154561217Y-113553371D01*
X154561217Y-113553371D02*
X154370741Y-113553371D01*
X154370741Y-113553371D02*
X154275503Y-113600990D01*
X154275503Y-113600990D02*
X154227884Y-113648609D01*
X154227884Y-113648609D02*
X154180265Y-113743847D01*
X155942170Y-113505752D02*
X155942170Y-114172419D01*
X155942170Y-113600990D02*
X155989789Y-113553371D01*
X155989789Y-113553371D02*
X156085027Y-113505752D01*
X156085027Y-113505752D02*
X156227884Y-113505752D01*
X156227884Y-113505752D02*
X156323122Y-113553371D01*
X156323122Y-113553371D02*
X156370741Y-113648609D01*
X156370741Y-113648609D02*
X156370741Y-114172419D01*
X156704075Y-113172419D02*
X157037408Y-114172419D01*
X157037408Y-114172419D02*
X157370741Y-113172419D01*
X158418360Y-113124800D02*
X157561218Y-114410514D01*
X158704075Y-114124800D02*
X158799313Y-114172419D01*
X158799313Y-114172419D02*
X158989789Y-114172419D01*
X158989789Y-114172419D02*
X159085027Y-114124800D01*
X159085027Y-114124800D02*
X159132646Y-114029561D01*
X159132646Y-114029561D02*
X159132646Y-113981942D01*
X159132646Y-113981942D02*
X159085027Y-113886704D01*
X159085027Y-113886704D02*
X158989789Y-113839085D01*
X158989789Y-113839085D02*
X158846932Y-113839085D01*
X158846932Y-113839085D02*
X158751694Y-113791466D01*
X158751694Y-113791466D02*
X158704075Y-113696228D01*
X158704075Y-113696228D02*
X158704075Y-113648609D01*
X158704075Y-113648609D02*
X158751694Y-113553371D01*
X158751694Y-113553371D02*
X158846932Y-113505752D01*
X158846932Y-113505752D02*
X158989789Y-113505752D01*
X158989789Y-113505752D02*
X159085027Y-113553371D01*
X159989789Y-113505752D02*
X159989789Y-114505752D01*
X159989789Y-114124800D02*
X159894551Y-114172419D01*
X159894551Y-114172419D02*
X159704075Y-114172419D01*
X159704075Y-114172419D02*
X159608837Y-114124800D01*
X159608837Y-114124800D02*
X159561218Y-114077180D01*
X159561218Y-114077180D02*
X159513599Y-113981942D01*
X159513599Y-113981942D02*
X159513599Y-113696228D01*
X159513599Y-113696228D02*
X159561218Y-113600990D01*
X159561218Y-113600990D02*
X159608837Y-113553371D01*
X159608837Y-113553371D02*
X159704075Y-113505752D01*
X159704075Y-113505752D02*
X159894551Y-113505752D01*
X159894551Y-113505752D02*
X159989789Y-113553371D01*
X160465980Y-114172419D02*
X160465980Y-113505752D01*
X160465980Y-113696228D02*
X160513599Y-113600990D01*
X160513599Y-113600990D02*
X160561218Y-113553371D01*
X160561218Y-113553371D02*
X160656456Y-113505752D01*
X160656456Y-113505752D02*
X160751694Y-113505752D01*
X160942171Y-113505752D02*
X161323123Y-113505752D01*
X161085028Y-113172419D02*
X161085028Y-114029561D01*
X161085028Y-114029561D02*
X161132647Y-114124800D01*
X161132647Y-114124800D02*
X161227885Y-114172419D01*
X161227885Y-114172419D02*
X161323123Y-114172419D01*
X161942171Y-114553371D02*
X161894552Y-114505752D01*
X161894552Y-114505752D02*
X161799314Y-114362895D01*
X161799314Y-114362895D02*
X161751695Y-114267657D01*
X161751695Y-114267657D02*
X161704076Y-114124800D01*
X161704076Y-114124800D02*
X161656457Y-113886704D01*
X161656457Y-113886704D02*
X161656457Y-113696228D01*
X161656457Y-113696228D02*
X161704076Y-113458133D01*
X161704076Y-113458133D02*
X161751695Y-113315276D01*
X161751695Y-113315276D02*
X161799314Y-113220038D01*
X161799314Y-113220038D02*
X161894552Y-113077180D01*
X161894552Y-113077180D02*
X161942171Y-113029561D01*
X162323124Y-114172419D02*
X162323124Y-113172419D01*
X162323124Y-113648609D02*
X162894552Y-113648609D01*
X162894552Y-114172419D02*
X162894552Y-113172419D01*
X163275505Y-113505752D02*
X163799314Y-113505752D01*
X163799314Y-113505752D02*
X163275505Y-114172419D01*
X163275505Y-114172419D02*
X163799314Y-114172419D01*
X164085029Y-114553371D02*
X164132648Y-114505752D01*
X164132648Y-114505752D02*
X164227886Y-114362895D01*
X164227886Y-114362895D02*
X164275505Y-114267657D01*
X164275505Y-114267657D02*
X164323124Y-114124800D01*
X164323124Y-114124800D02*
X164370743Y-113886704D01*
X164370743Y-113886704D02*
X164370743Y-113696228D01*
X164370743Y-113696228D02*
X164323124Y-113458133D01*
X164323124Y-113458133D02*
X164275505Y-113315276D01*
X164275505Y-113315276D02*
X164227886Y-113220038D01*
X164227886Y-113220038D02*
X164132648Y-113077180D01*
X164132648Y-113077180D02*
X164085029Y-113029561D01*
X165608839Y-113505752D02*
X165608839Y-114172419D01*
X165608839Y-113600990D02*
X165656458Y-113553371D01*
X165656458Y-113553371D02*
X165751696Y-113505752D01*
X165751696Y-113505752D02*
X165894553Y-113505752D01*
X165894553Y-113505752D02*
X165989791Y-113553371D01*
X165989791Y-113553371D02*
X166037410Y-113648609D01*
X166037410Y-113648609D02*
X166037410Y-114172419D01*
X166656458Y-114172419D02*
X166561220Y-114124800D01*
X166561220Y-114124800D02*
X166513601Y-114077180D01*
X166513601Y-114077180D02*
X166465982Y-113981942D01*
X166465982Y-113981942D02*
X166465982Y-113696228D01*
X166465982Y-113696228D02*
X166513601Y-113600990D01*
X166513601Y-113600990D02*
X166561220Y-113553371D01*
X166561220Y-113553371D02*
X166656458Y-113505752D01*
X166656458Y-113505752D02*
X166799315Y-113505752D01*
X166799315Y-113505752D02*
X166894553Y-113553371D01*
X166894553Y-113553371D02*
X166942172Y-113600990D01*
X166942172Y-113600990D02*
X166989791Y-113696228D01*
X166989791Y-113696228D02*
X166989791Y-113981942D01*
X166989791Y-113981942D02*
X166942172Y-114077180D01*
X166942172Y-114077180D02*
X166894553Y-114124800D01*
X166894553Y-114124800D02*
X166799315Y-114172419D01*
X166799315Y-114172419D02*
X166656458Y-114172419D01*
X167418363Y-114172419D02*
X167418363Y-113505752D01*
X167418363Y-113172419D02*
X167370744Y-113220038D01*
X167370744Y-113220038D02*
X167418363Y-113267657D01*
X167418363Y-113267657D02*
X167465982Y-113220038D01*
X167465982Y-113220038D02*
X167418363Y-113172419D01*
X167418363Y-113172419D02*
X167418363Y-113267657D01*
X167846934Y-114124800D02*
X167942172Y-114172419D01*
X167942172Y-114172419D02*
X168132648Y-114172419D01*
X168132648Y-114172419D02*
X168227886Y-114124800D01*
X168227886Y-114124800D02*
X168275505Y-114029561D01*
X168275505Y-114029561D02*
X168275505Y-113981942D01*
X168275505Y-113981942D02*
X168227886Y-113886704D01*
X168227886Y-113886704D02*
X168132648Y-113839085D01*
X168132648Y-113839085D02*
X167989791Y-113839085D01*
X167989791Y-113839085D02*
X167894553Y-113791466D01*
X167894553Y-113791466D02*
X167846934Y-113696228D01*
X167846934Y-113696228D02*
X167846934Y-113648609D01*
X167846934Y-113648609D02*
X167894553Y-113553371D01*
X167894553Y-113553371D02*
X167989791Y-113505752D01*
X167989791Y-113505752D02*
X168132648Y-113505752D01*
X168132648Y-113505752D02*
X168227886Y-113553371D01*
X169085029Y-114124800D02*
X168989791Y-114172419D01*
X168989791Y-114172419D02*
X168799315Y-114172419D01*
X168799315Y-114172419D02*
X168704077Y-114124800D01*
X168704077Y-114124800D02*
X168656458Y-114029561D01*
X168656458Y-114029561D02*
X168656458Y-113648609D01*
X168656458Y-113648609D02*
X168704077Y-113553371D01*
X168704077Y-113553371D02*
X168799315Y-113505752D01*
X168799315Y-113505752D02*
X168989791Y-113505752D01*
X168989791Y-113505752D02*
X169085029Y-113553371D01*
X169085029Y-113553371D02*
X169132648Y-113648609D01*
X169132648Y-113648609D02*
X169132648Y-113743847D01*
X169132648Y-113743847D02*
X168656458Y-113839085D01*
D12*
X193590057Y-83915238D02*
X193542438Y-84010476D01*
X193542438Y-84010476D02*
X193447200Y-84105714D01*
X193447200Y-84105714D02*
X193304342Y-84248571D01*
X193304342Y-84248571D02*
X193256723Y-84343809D01*
X193256723Y-84343809D02*
X193256723Y-84439047D01*
X193494819Y-84391428D02*
X193447200Y-84486666D01*
X193447200Y-84486666D02*
X193351961Y-84581904D01*
X193351961Y-84581904D02*
X193161485Y-84629523D01*
X193161485Y-84629523D02*
X192828152Y-84629523D01*
X192828152Y-84629523D02*
X192637676Y-84581904D01*
X192637676Y-84581904D02*
X192542438Y-84486666D01*
X192542438Y-84486666D02*
X192494819Y-84391428D01*
X192494819Y-84391428D02*
X192494819Y-84200952D01*
X192494819Y-84200952D02*
X192542438Y-84105714D01*
X192542438Y-84105714D02*
X192637676Y-84010476D01*
X192637676Y-84010476D02*
X192828152Y-83962857D01*
X192828152Y-83962857D02*
X193161485Y-83962857D01*
X193161485Y-83962857D02*
X193351961Y-84010476D01*
X193351961Y-84010476D02*
X193447200Y-84105714D01*
X193447200Y-84105714D02*
X193494819Y-84200952D01*
X193494819Y-84200952D02*
X193494819Y-84391428D01*
X192494819Y-83629523D02*
X192494819Y-83010476D01*
X192494819Y-83010476D02*
X192875771Y-83343809D01*
X192875771Y-83343809D02*
X192875771Y-83200952D01*
X192875771Y-83200952D02*
X192923390Y-83105714D01*
X192923390Y-83105714D02*
X192971009Y-83058095D01*
X192971009Y-83058095D02*
X193066247Y-83010476D01*
X193066247Y-83010476D02*
X193304342Y-83010476D01*
X193304342Y-83010476D02*
X193399580Y-83058095D01*
X193399580Y-83058095D02*
X193447200Y-83105714D01*
X193447200Y-83105714D02*
X193494819Y-83200952D01*
X193494819Y-83200952D02*
X193494819Y-83486666D01*
X193494819Y-83486666D02*
X193447200Y-83581904D01*
X193447200Y-83581904D02*
X193399580Y-83629523D01*
X194524333Y-110849580D02*
X194476714Y-110897200D01*
X194476714Y-110897200D02*
X194333857Y-110944819D01*
X194333857Y-110944819D02*
X194238619Y-110944819D01*
X194238619Y-110944819D02*
X194095762Y-110897200D01*
X194095762Y-110897200D02*
X194000524Y-110801961D01*
X194000524Y-110801961D02*
X193952905Y-110706723D01*
X193952905Y-110706723D02*
X193905286Y-110516247D01*
X193905286Y-110516247D02*
X193905286Y-110373390D01*
X193905286Y-110373390D02*
X193952905Y-110182914D01*
X193952905Y-110182914D02*
X194000524Y-110087676D01*
X194000524Y-110087676D02*
X194095762Y-109992438D01*
X194095762Y-109992438D02*
X194238619Y-109944819D01*
X194238619Y-109944819D02*
X194333857Y-109944819D01*
X194333857Y-109944819D02*
X194476714Y-109992438D01*
X194476714Y-109992438D02*
X194524333Y-110040057D01*
X195095762Y-110373390D02*
X195000524Y-110325771D01*
X195000524Y-110325771D02*
X194952905Y-110278152D01*
X194952905Y-110278152D02*
X194905286Y-110182914D01*
X194905286Y-110182914D02*
X194905286Y-110135295D01*
X194905286Y-110135295D02*
X194952905Y-110040057D01*
X194952905Y-110040057D02*
X195000524Y-109992438D01*
X195000524Y-109992438D02*
X195095762Y-109944819D01*
X195095762Y-109944819D02*
X195286238Y-109944819D01*
X195286238Y-109944819D02*
X195381476Y-109992438D01*
X195381476Y-109992438D02*
X195429095Y-110040057D01*
X195429095Y-110040057D02*
X195476714Y-110135295D01*
X195476714Y-110135295D02*
X195476714Y-110182914D01*
X195476714Y-110182914D02*
X195429095Y-110278152D01*
X195429095Y-110278152D02*
X195381476Y-110325771D01*
X195381476Y-110325771D02*
X195286238Y-110373390D01*
X195286238Y-110373390D02*
X195095762Y-110373390D01*
X195095762Y-110373390D02*
X195000524Y-110421009D01*
X195000524Y-110421009D02*
X194952905Y-110468628D01*
X194952905Y-110468628D02*
X194905286Y-110563866D01*
X194905286Y-110563866D02*
X194905286Y-110754342D01*
X194905286Y-110754342D02*
X194952905Y-110849580D01*
X194952905Y-110849580D02*
X195000524Y-110897200D01*
X195000524Y-110897200D02*
X195095762Y-110944819D01*
X195095762Y-110944819D02*
X195286238Y-110944819D01*
X195286238Y-110944819D02*
X195381476Y-110897200D01*
X195381476Y-110897200D02*
X195429095Y-110849580D01*
X195429095Y-110849580D02*
X195476714Y-110754342D01*
X195476714Y-110754342D02*
X195476714Y-110563866D01*
X195476714Y-110563866D02*
X195429095Y-110468628D01*
X195429095Y-110468628D02*
X195381476Y-110421009D01*
X195381476Y-110421009D02*
X195286238Y-110373390D01*
X171142819Y-87542666D02*
X170666628Y-87875999D01*
X171142819Y-88114094D02*
X170142819Y-88114094D01*
X170142819Y-88114094D02*
X170142819Y-87733142D01*
X170142819Y-87733142D02*
X170190438Y-87637904D01*
X170190438Y-87637904D02*
X170238057Y-87590285D01*
X170238057Y-87590285D02*
X170333295Y-87542666D01*
X170333295Y-87542666D02*
X170476152Y-87542666D01*
X170476152Y-87542666D02*
X170571390Y-87590285D01*
X170571390Y-87590285D02*
X170619009Y-87637904D01*
X170619009Y-87637904D02*
X170666628Y-87733142D01*
X170666628Y-87733142D02*
X170666628Y-88114094D01*
X170238057Y-87161713D02*
X170190438Y-87114094D01*
X170190438Y-87114094D02*
X170142819Y-87018856D01*
X170142819Y-87018856D02*
X170142819Y-86780761D01*
X170142819Y-86780761D02*
X170190438Y-86685523D01*
X170190438Y-86685523D02*
X170238057Y-86637904D01*
X170238057Y-86637904D02*
X170333295Y-86590285D01*
X170333295Y-86590285D02*
X170428533Y-86590285D01*
X170428533Y-86590285D02*
X170571390Y-86637904D01*
X170571390Y-86637904D02*
X171142819Y-87209332D01*
X171142819Y-87209332D02*
X171142819Y-86590285D01*
X194318095Y-46099819D02*
X194889523Y-46099819D01*
X194603809Y-47099819D02*
X194603809Y-46099819D01*
X195222857Y-47099819D02*
X195222857Y-46099819D01*
X195222857Y-46099819D02*
X195603809Y-46099819D01*
X195603809Y-46099819D02*
X195699047Y-46147438D01*
X195699047Y-46147438D02*
X195746666Y-46195057D01*
X195746666Y-46195057D02*
X195794285Y-46290295D01*
X195794285Y-46290295D02*
X195794285Y-46433152D01*
X195794285Y-46433152D02*
X195746666Y-46528390D01*
X195746666Y-46528390D02*
X195699047Y-46576009D01*
X195699047Y-46576009D02*
X195603809Y-46623628D01*
X195603809Y-46623628D02*
X195222857Y-46623628D01*
X196746666Y-47099819D02*
X196175238Y-47099819D01*
X196460952Y-47099819D02*
X196460952Y-46099819D01*
X196460952Y-46099819D02*
X196365714Y-46242676D01*
X196365714Y-46242676D02*
X196270476Y-46337914D01*
X196270476Y-46337914D02*
X196175238Y-46385533D01*
X178316095Y-90295819D02*
X178887523Y-90295819D01*
X178601809Y-91295819D02*
X178601809Y-90295819D01*
X179220857Y-91295819D02*
X179220857Y-90295819D01*
X179220857Y-90295819D02*
X179601809Y-90295819D01*
X179601809Y-90295819D02*
X179697047Y-90343438D01*
X179697047Y-90343438D02*
X179744666Y-90391057D01*
X179744666Y-90391057D02*
X179792285Y-90486295D01*
X179792285Y-90486295D02*
X179792285Y-90629152D01*
X179792285Y-90629152D02*
X179744666Y-90724390D01*
X179744666Y-90724390D02*
X179697047Y-90772009D01*
X179697047Y-90772009D02*
X179601809Y-90819628D01*
X179601809Y-90819628D02*
X179220857Y-90819628D01*
X180125619Y-90295819D02*
X180792285Y-90295819D01*
X180792285Y-90295819D02*
X180363714Y-91295819D01*
X187158333Y-52694819D02*
X186825000Y-52218628D01*
X186586905Y-52694819D02*
X186586905Y-51694819D01*
X186586905Y-51694819D02*
X186967857Y-51694819D01*
X186967857Y-51694819D02*
X187063095Y-51742438D01*
X187063095Y-51742438D02*
X187110714Y-51790057D01*
X187110714Y-51790057D02*
X187158333Y-51885295D01*
X187158333Y-51885295D02*
X187158333Y-52028152D01*
X187158333Y-52028152D02*
X187110714Y-52123390D01*
X187110714Y-52123390D02*
X187063095Y-52171009D01*
X187063095Y-52171009D02*
X186967857Y-52218628D01*
X186967857Y-52218628D02*
X186586905Y-52218628D01*
X187491667Y-51694819D02*
X188158333Y-51694819D01*
X188158333Y-51694819D02*
X187729762Y-52694819D01*
X194513166Y-31712819D02*
X194513166Y-32427104D01*
X194513166Y-32427104D02*
X194465547Y-32569961D01*
X194465547Y-32569961D02*
X194370309Y-32665200D01*
X194370309Y-32665200D02*
X194227452Y-32712819D01*
X194227452Y-32712819D02*
X194132214Y-32712819D01*
X195513166Y-32712819D02*
X194941738Y-32712819D01*
X195227452Y-32712819D02*
X195227452Y-31712819D01*
X195227452Y-31712819D02*
X195132214Y-31855676D01*
X195132214Y-31855676D02*
X195036976Y-31950914D01*
X195036976Y-31950914D02*
X194941738Y-31998533D01*
X184620819Y-63753904D02*
X185430342Y-63753904D01*
X185430342Y-63753904D02*
X185525580Y-63706285D01*
X185525580Y-63706285D02*
X185573200Y-63658666D01*
X185573200Y-63658666D02*
X185620819Y-63563428D01*
X185620819Y-63563428D02*
X185620819Y-63372952D01*
X185620819Y-63372952D02*
X185573200Y-63277714D01*
X185573200Y-63277714D02*
X185525580Y-63230095D01*
X185525580Y-63230095D02*
X185430342Y-63182476D01*
X185430342Y-63182476D02*
X184620819Y-63182476D01*
X184954152Y-62277714D02*
X185620819Y-62277714D01*
X184573200Y-62515809D02*
X185287485Y-62753904D01*
X185287485Y-62753904D02*
X185287485Y-62134857D01*
X162433095Y-62584819D02*
X162433095Y-63394342D01*
X162433095Y-63394342D02*
X162480714Y-63489580D01*
X162480714Y-63489580D02*
X162528333Y-63537200D01*
X162528333Y-63537200D02*
X162623571Y-63584819D01*
X162623571Y-63584819D02*
X162814047Y-63584819D01*
X162814047Y-63584819D02*
X162909285Y-63537200D01*
X162909285Y-63537200D02*
X162956904Y-63489580D01*
X162956904Y-63489580D02*
X163004523Y-63394342D01*
X163004523Y-63394342D02*
X163004523Y-62584819D01*
X164004523Y-63584819D02*
X163433095Y-63584819D01*
X163718809Y-63584819D02*
X163718809Y-62584819D01*
X163718809Y-62584819D02*
X163623571Y-62727676D01*
X163623571Y-62727676D02*
X163528333Y-62822914D01*
X163528333Y-62822914D02*
X163433095Y-62870533D01*
X183475333Y-87481580D02*
X183427714Y-87529200D01*
X183427714Y-87529200D02*
X183284857Y-87576819D01*
X183284857Y-87576819D02*
X183189619Y-87576819D01*
X183189619Y-87576819D02*
X183046762Y-87529200D01*
X183046762Y-87529200D02*
X182951524Y-87433961D01*
X182951524Y-87433961D02*
X182903905Y-87338723D01*
X182903905Y-87338723D02*
X182856286Y-87148247D01*
X182856286Y-87148247D02*
X182856286Y-87005390D01*
X182856286Y-87005390D02*
X182903905Y-86814914D01*
X182903905Y-86814914D02*
X182951524Y-86719676D01*
X182951524Y-86719676D02*
X183046762Y-86624438D01*
X183046762Y-86624438D02*
X183189619Y-86576819D01*
X183189619Y-86576819D02*
X183284857Y-86576819D01*
X183284857Y-86576819D02*
X183427714Y-86624438D01*
X183427714Y-86624438D02*
X183475333Y-86672057D01*
X183951524Y-87576819D02*
X184142000Y-87576819D01*
X184142000Y-87576819D02*
X184237238Y-87529200D01*
X184237238Y-87529200D02*
X184284857Y-87481580D01*
X184284857Y-87481580D02*
X184380095Y-87338723D01*
X184380095Y-87338723D02*
X184427714Y-87148247D01*
X184427714Y-87148247D02*
X184427714Y-86767295D01*
X184427714Y-86767295D02*
X184380095Y-86672057D01*
X184380095Y-86672057D02*
X184332476Y-86624438D01*
X184332476Y-86624438D02*
X184237238Y-86576819D01*
X184237238Y-86576819D02*
X184046762Y-86576819D01*
X184046762Y-86576819D02*
X183951524Y-86624438D01*
X183951524Y-86624438D02*
X183903905Y-86672057D01*
X183903905Y-86672057D02*
X183856286Y-86767295D01*
X183856286Y-86767295D02*
X183856286Y-87005390D01*
X183856286Y-87005390D02*
X183903905Y-87100628D01*
X183903905Y-87100628D02*
X183951524Y-87148247D01*
X183951524Y-87148247D02*
X184046762Y-87195866D01*
X184046762Y-87195866D02*
X184237238Y-87195866D01*
X184237238Y-87195866D02*
X184332476Y-87148247D01*
X184332476Y-87148247D02*
X184380095Y-87100628D01*
X184380095Y-87100628D02*
X184427714Y-87005390D01*
X186301142Y-112976819D02*
X185967809Y-112500628D01*
X185729714Y-112976819D02*
X185729714Y-111976819D01*
X185729714Y-111976819D02*
X186110666Y-111976819D01*
X186110666Y-111976819D02*
X186205904Y-112024438D01*
X186205904Y-112024438D02*
X186253523Y-112072057D01*
X186253523Y-112072057D02*
X186301142Y-112167295D01*
X186301142Y-112167295D02*
X186301142Y-112310152D01*
X186301142Y-112310152D02*
X186253523Y-112405390D01*
X186253523Y-112405390D02*
X186205904Y-112453009D01*
X186205904Y-112453009D02*
X186110666Y-112500628D01*
X186110666Y-112500628D02*
X185729714Y-112500628D01*
X187253523Y-112976819D02*
X186682095Y-112976819D01*
X186967809Y-112976819D02*
X186967809Y-111976819D01*
X186967809Y-111976819D02*
X186872571Y-112119676D01*
X186872571Y-112119676D02*
X186777333Y-112214914D01*
X186777333Y-112214914D02*
X186682095Y-112262533D01*
X187872571Y-111976819D02*
X187967809Y-111976819D01*
X187967809Y-111976819D02*
X188063047Y-112024438D01*
X188063047Y-112024438D02*
X188110666Y-112072057D01*
X188110666Y-112072057D02*
X188158285Y-112167295D01*
X188158285Y-112167295D02*
X188205904Y-112357771D01*
X188205904Y-112357771D02*
X188205904Y-112595866D01*
X188205904Y-112595866D02*
X188158285Y-112786342D01*
X188158285Y-112786342D02*
X188110666Y-112881580D01*
X188110666Y-112881580D02*
X188063047Y-112929200D01*
X188063047Y-112929200D02*
X187967809Y-112976819D01*
X187967809Y-112976819D02*
X187872571Y-112976819D01*
X187872571Y-112976819D02*
X187777333Y-112929200D01*
X187777333Y-112929200D02*
X187729714Y-112881580D01*
X187729714Y-112881580D02*
X187682095Y-112786342D01*
X187682095Y-112786342D02*
X187634476Y-112595866D01*
X187634476Y-112595866D02*
X187634476Y-112357771D01*
X187634476Y-112357771D02*
X187682095Y-112167295D01*
X187682095Y-112167295D02*
X187729714Y-112072057D01*
X187729714Y-112072057D02*
X187777333Y-112024438D01*
X187777333Y-112024438D02*
X187872571Y-111976819D01*
X170013333Y-102467580D02*
X169965714Y-102515200D01*
X169965714Y-102515200D02*
X169822857Y-102562819D01*
X169822857Y-102562819D02*
X169727619Y-102562819D01*
X169727619Y-102562819D02*
X169584762Y-102515200D01*
X169584762Y-102515200D02*
X169489524Y-102419961D01*
X169489524Y-102419961D02*
X169441905Y-102324723D01*
X169441905Y-102324723D02*
X169394286Y-102134247D01*
X169394286Y-102134247D02*
X169394286Y-101991390D01*
X169394286Y-101991390D02*
X169441905Y-101800914D01*
X169441905Y-101800914D02*
X169489524Y-101705676D01*
X169489524Y-101705676D02*
X169584762Y-101610438D01*
X169584762Y-101610438D02*
X169727619Y-101562819D01*
X169727619Y-101562819D02*
X169822857Y-101562819D01*
X169822857Y-101562819D02*
X169965714Y-101610438D01*
X169965714Y-101610438D02*
X170013333Y-101658057D01*
X170870476Y-101896152D02*
X170870476Y-102562819D01*
X170632381Y-101515200D02*
X170394286Y-102229485D01*
X170394286Y-102229485D02*
X171013333Y-102229485D01*
X154759819Y-97162857D02*
X154283628Y-97496190D01*
X154759819Y-97734285D02*
X153759819Y-97734285D01*
X153759819Y-97734285D02*
X153759819Y-97353333D01*
X153759819Y-97353333D02*
X153807438Y-97258095D01*
X153807438Y-97258095D02*
X153855057Y-97210476D01*
X153855057Y-97210476D02*
X153950295Y-97162857D01*
X153950295Y-97162857D02*
X154093152Y-97162857D01*
X154093152Y-97162857D02*
X154188390Y-97210476D01*
X154188390Y-97210476D02*
X154236009Y-97258095D01*
X154236009Y-97258095D02*
X154283628Y-97353333D01*
X154283628Y-97353333D02*
X154283628Y-97734285D01*
X154759819Y-96210476D02*
X154759819Y-96781904D01*
X154759819Y-96496190D02*
X153759819Y-96496190D01*
X153759819Y-96496190D02*
X153902676Y-96591428D01*
X153902676Y-96591428D02*
X153997914Y-96686666D01*
X153997914Y-96686666D02*
X154045533Y-96781904D01*
X154093152Y-95353333D02*
X154759819Y-95353333D01*
X153712200Y-95591428D02*
X154426485Y-95829523D01*
X154426485Y-95829523D02*
X154426485Y-95210476D01*
X174095580Y-80176666D02*
X174143200Y-80224285D01*
X174143200Y-80224285D02*
X174190819Y-80367142D01*
X174190819Y-80367142D02*
X174190819Y-80462380D01*
X174190819Y-80462380D02*
X174143200Y-80605237D01*
X174143200Y-80605237D02*
X174047961Y-80700475D01*
X174047961Y-80700475D02*
X173952723Y-80748094D01*
X173952723Y-80748094D02*
X173762247Y-80795713D01*
X173762247Y-80795713D02*
X173619390Y-80795713D01*
X173619390Y-80795713D02*
X173428914Y-80748094D01*
X173428914Y-80748094D02*
X173333676Y-80700475D01*
X173333676Y-80700475D02*
X173238438Y-80605237D01*
X173238438Y-80605237D02*
X173190819Y-80462380D01*
X173190819Y-80462380D02*
X173190819Y-80367142D01*
X173190819Y-80367142D02*
X173238438Y-80224285D01*
X173238438Y-80224285D02*
X173286057Y-80176666D01*
X174190819Y-79224285D02*
X174190819Y-79795713D01*
X174190819Y-79509999D02*
X173190819Y-79509999D01*
X173190819Y-79509999D02*
X173333676Y-79605237D01*
X173333676Y-79605237D02*
X173428914Y-79700475D01*
X173428914Y-79700475D02*
X173476533Y-79795713D01*
X157638761Y-73956057D02*
X157543523Y-73908438D01*
X157543523Y-73908438D02*
X157448285Y-73813200D01*
X157448285Y-73813200D02*
X157305428Y-73670342D01*
X157305428Y-73670342D02*
X157210190Y-73622723D01*
X157210190Y-73622723D02*
X157114952Y-73622723D01*
X157162571Y-73860819D02*
X157067333Y-73813200D01*
X157067333Y-73813200D02*
X156972095Y-73717961D01*
X156972095Y-73717961D02*
X156924476Y-73527485D01*
X156924476Y-73527485D02*
X156924476Y-73194152D01*
X156924476Y-73194152D02*
X156972095Y-73003676D01*
X156972095Y-73003676D02*
X157067333Y-72908438D01*
X157067333Y-72908438D02*
X157162571Y-72860819D01*
X157162571Y-72860819D02*
X157353047Y-72860819D01*
X157353047Y-72860819D02*
X157448285Y-72908438D01*
X157448285Y-72908438D02*
X157543523Y-73003676D01*
X157543523Y-73003676D02*
X157591142Y-73194152D01*
X157591142Y-73194152D02*
X157591142Y-73527485D01*
X157591142Y-73527485D02*
X157543523Y-73717961D01*
X157543523Y-73717961D02*
X157448285Y-73813200D01*
X157448285Y-73813200D02*
X157353047Y-73860819D01*
X157353047Y-73860819D02*
X157162571Y-73860819D01*
X158495904Y-72860819D02*
X158019714Y-72860819D01*
X158019714Y-72860819D02*
X157972095Y-73337009D01*
X157972095Y-73337009D02*
X158019714Y-73289390D01*
X158019714Y-73289390D02*
X158114952Y-73241771D01*
X158114952Y-73241771D02*
X158353047Y-73241771D01*
X158353047Y-73241771D02*
X158448285Y-73289390D01*
X158448285Y-73289390D02*
X158495904Y-73337009D01*
X158495904Y-73337009D02*
X158543523Y-73432247D01*
X158543523Y-73432247D02*
X158543523Y-73670342D01*
X158543523Y-73670342D02*
X158495904Y-73765580D01*
X158495904Y-73765580D02*
X158448285Y-73813200D01*
X158448285Y-73813200D02*
X158353047Y-73860819D01*
X158353047Y-73860819D02*
X158114952Y-73860819D01*
X158114952Y-73860819D02*
X158019714Y-73813200D01*
X158019714Y-73813200D02*
X157972095Y-73765580D01*
X188448333Y-57749580D02*
X188400714Y-57797200D01*
X188400714Y-57797200D02*
X188257857Y-57844819D01*
X188257857Y-57844819D02*
X188162619Y-57844819D01*
X188162619Y-57844819D02*
X188019762Y-57797200D01*
X188019762Y-57797200D02*
X187924524Y-57701961D01*
X187924524Y-57701961D02*
X187876905Y-57606723D01*
X187876905Y-57606723D02*
X187829286Y-57416247D01*
X187829286Y-57416247D02*
X187829286Y-57273390D01*
X187829286Y-57273390D02*
X187876905Y-57082914D01*
X187876905Y-57082914D02*
X187924524Y-56987676D01*
X187924524Y-56987676D02*
X188019762Y-56892438D01*
X188019762Y-56892438D02*
X188162619Y-56844819D01*
X188162619Y-56844819D02*
X188257857Y-56844819D01*
X188257857Y-56844819D02*
X188400714Y-56892438D01*
X188400714Y-56892438D02*
X188448333Y-56940057D01*
X189353095Y-56844819D02*
X188876905Y-56844819D01*
X188876905Y-56844819D02*
X188829286Y-57321009D01*
X188829286Y-57321009D02*
X188876905Y-57273390D01*
X188876905Y-57273390D02*
X188972143Y-57225771D01*
X188972143Y-57225771D02*
X189210238Y-57225771D01*
X189210238Y-57225771D02*
X189305476Y-57273390D01*
X189305476Y-57273390D02*
X189353095Y-57321009D01*
X189353095Y-57321009D02*
X189400714Y-57416247D01*
X189400714Y-57416247D02*
X189400714Y-57654342D01*
X189400714Y-57654342D02*
X189353095Y-57749580D01*
X189353095Y-57749580D02*
X189305476Y-57797200D01*
X189305476Y-57797200D02*
X189210238Y-57844819D01*
X189210238Y-57844819D02*
X188972143Y-57844819D01*
X188972143Y-57844819D02*
X188876905Y-57797200D01*
X188876905Y-57797200D02*
X188829286Y-57749580D01*
X163076095Y-69594819D02*
X163647523Y-69594819D01*
X163361809Y-70594819D02*
X163361809Y-69594819D01*
X163980857Y-70594819D02*
X163980857Y-69594819D01*
X163980857Y-69594819D02*
X164361809Y-69594819D01*
X164361809Y-69594819D02*
X164457047Y-69642438D01*
X164457047Y-69642438D02*
X164504666Y-69690057D01*
X164504666Y-69690057D02*
X164552285Y-69785295D01*
X164552285Y-69785295D02*
X164552285Y-69928152D01*
X164552285Y-69928152D02*
X164504666Y-70023390D01*
X164504666Y-70023390D02*
X164457047Y-70071009D01*
X164457047Y-70071009D02*
X164361809Y-70118628D01*
X164361809Y-70118628D02*
X163980857Y-70118628D01*
X165123714Y-70023390D02*
X165028476Y-69975771D01*
X165028476Y-69975771D02*
X164980857Y-69928152D01*
X164980857Y-69928152D02*
X164933238Y-69832914D01*
X164933238Y-69832914D02*
X164933238Y-69785295D01*
X164933238Y-69785295D02*
X164980857Y-69690057D01*
X164980857Y-69690057D02*
X165028476Y-69642438D01*
X165028476Y-69642438D02*
X165123714Y-69594819D01*
X165123714Y-69594819D02*
X165314190Y-69594819D01*
X165314190Y-69594819D02*
X165409428Y-69642438D01*
X165409428Y-69642438D02*
X165457047Y-69690057D01*
X165457047Y-69690057D02*
X165504666Y-69785295D01*
X165504666Y-69785295D02*
X165504666Y-69832914D01*
X165504666Y-69832914D02*
X165457047Y-69928152D01*
X165457047Y-69928152D02*
X165409428Y-69975771D01*
X165409428Y-69975771D02*
X165314190Y-70023390D01*
X165314190Y-70023390D02*
X165123714Y-70023390D01*
X165123714Y-70023390D02*
X165028476Y-70071009D01*
X165028476Y-70071009D02*
X164980857Y-70118628D01*
X164980857Y-70118628D02*
X164933238Y-70213866D01*
X164933238Y-70213866D02*
X164933238Y-70404342D01*
X164933238Y-70404342D02*
X164980857Y-70499580D01*
X164980857Y-70499580D02*
X165028476Y-70547200D01*
X165028476Y-70547200D02*
X165123714Y-70594819D01*
X165123714Y-70594819D02*
X165314190Y-70594819D01*
X165314190Y-70594819D02*
X165409428Y-70547200D01*
X165409428Y-70547200D02*
X165457047Y-70499580D01*
X165457047Y-70499580D02*
X165504666Y-70404342D01*
X165504666Y-70404342D02*
X165504666Y-70213866D01*
X165504666Y-70213866D02*
X165457047Y-70118628D01*
X165457047Y-70118628D02*
X165409428Y-70071009D01*
X165409428Y-70071009D02*
X165314190Y-70023390D01*
X159139095Y-86449819D02*
X159710523Y-86449819D01*
X159424809Y-87449819D02*
X159424809Y-86449819D01*
X160043857Y-87449819D02*
X160043857Y-86449819D01*
X160043857Y-86449819D02*
X160424809Y-86449819D01*
X160424809Y-86449819D02*
X160520047Y-86497438D01*
X160520047Y-86497438D02*
X160567666Y-86545057D01*
X160567666Y-86545057D02*
X160615285Y-86640295D01*
X160615285Y-86640295D02*
X160615285Y-86783152D01*
X160615285Y-86783152D02*
X160567666Y-86878390D01*
X160567666Y-86878390D02*
X160520047Y-86926009D01*
X160520047Y-86926009D02*
X160424809Y-86973628D01*
X160424809Y-86973628D02*
X160043857Y-86973628D01*
X160948619Y-86449819D02*
X161567666Y-86449819D01*
X161567666Y-86449819D02*
X161234333Y-86830771D01*
X161234333Y-86830771D02*
X161377190Y-86830771D01*
X161377190Y-86830771D02*
X161472428Y-86878390D01*
X161472428Y-86878390D02*
X161520047Y-86926009D01*
X161520047Y-86926009D02*
X161567666Y-87021247D01*
X161567666Y-87021247D02*
X161567666Y-87259342D01*
X161567666Y-87259342D02*
X161520047Y-87354580D01*
X161520047Y-87354580D02*
X161472428Y-87402200D01*
X161472428Y-87402200D02*
X161377190Y-87449819D01*
X161377190Y-87449819D02*
X161091476Y-87449819D01*
X161091476Y-87449819D02*
X160996238Y-87402200D01*
X160996238Y-87402200D02*
X160948619Y-87354580D01*
X177696905Y-58024819D02*
X177696905Y-57024819D01*
X177696905Y-57024819D02*
X177935000Y-57024819D01*
X177935000Y-57024819D02*
X178077857Y-57072438D01*
X178077857Y-57072438D02*
X178173095Y-57167676D01*
X178173095Y-57167676D02*
X178220714Y-57262914D01*
X178220714Y-57262914D02*
X178268333Y-57453390D01*
X178268333Y-57453390D02*
X178268333Y-57596247D01*
X178268333Y-57596247D02*
X178220714Y-57786723D01*
X178220714Y-57786723D02*
X178173095Y-57881961D01*
X178173095Y-57881961D02*
X178077857Y-57977200D01*
X178077857Y-57977200D02*
X177935000Y-58024819D01*
X177935000Y-58024819D02*
X177696905Y-58024819D01*
X179220714Y-58024819D02*
X178649286Y-58024819D01*
X178935000Y-58024819D02*
X178935000Y-57024819D01*
X178935000Y-57024819D02*
X178839762Y-57167676D01*
X178839762Y-57167676D02*
X178744524Y-57262914D01*
X178744524Y-57262914D02*
X178649286Y-57310533D01*
X185596819Y-93789666D02*
X185596819Y-94265856D01*
X185596819Y-94265856D02*
X184596819Y-94265856D01*
X185596819Y-92932523D02*
X185596819Y-93503951D01*
X185596819Y-93218237D02*
X184596819Y-93218237D01*
X184596819Y-93218237D02*
X184739676Y-93313475D01*
X184739676Y-93313475D02*
X184834914Y-93408713D01*
X184834914Y-93408713D02*
X184882533Y-93503951D01*
X154759819Y-109640666D02*
X154283628Y-109973999D01*
X154759819Y-110212094D02*
X153759819Y-110212094D01*
X153759819Y-110212094D02*
X153759819Y-109831142D01*
X153759819Y-109831142D02*
X153807438Y-109735904D01*
X153807438Y-109735904D02*
X153855057Y-109688285D01*
X153855057Y-109688285D02*
X153950295Y-109640666D01*
X153950295Y-109640666D02*
X154093152Y-109640666D01*
X154093152Y-109640666D02*
X154188390Y-109688285D01*
X154188390Y-109688285D02*
X154236009Y-109735904D01*
X154236009Y-109735904D02*
X154283628Y-109831142D01*
X154283628Y-109831142D02*
X154283628Y-110212094D01*
X153759819Y-108735904D02*
X153759819Y-109212094D01*
X153759819Y-109212094D02*
X154236009Y-109259713D01*
X154236009Y-109259713D02*
X154188390Y-109212094D01*
X154188390Y-109212094D02*
X154140771Y-109116856D01*
X154140771Y-109116856D02*
X154140771Y-108878761D01*
X154140771Y-108878761D02*
X154188390Y-108783523D01*
X154188390Y-108783523D02*
X154236009Y-108735904D01*
X154236009Y-108735904D02*
X154331247Y-108688285D01*
X154331247Y-108688285D02*
X154569342Y-108688285D01*
X154569342Y-108688285D02*
X154664580Y-108735904D01*
X154664580Y-108735904D02*
X154712200Y-108783523D01*
X154712200Y-108783523D02*
X154759819Y-108878761D01*
X154759819Y-108878761D02*
X154759819Y-109116856D01*
X154759819Y-109116856D02*
X154712200Y-109212094D01*
X154712200Y-109212094D02*
X154664580Y-109259713D01*
X161155142Y-103229580D02*
X161107523Y-103277200D01*
X161107523Y-103277200D02*
X160964666Y-103324819D01*
X160964666Y-103324819D02*
X160869428Y-103324819D01*
X160869428Y-103324819D02*
X160726571Y-103277200D01*
X160726571Y-103277200D02*
X160631333Y-103181961D01*
X160631333Y-103181961D02*
X160583714Y-103086723D01*
X160583714Y-103086723D02*
X160536095Y-102896247D01*
X160536095Y-102896247D02*
X160536095Y-102753390D01*
X160536095Y-102753390D02*
X160583714Y-102562914D01*
X160583714Y-102562914D02*
X160631333Y-102467676D01*
X160631333Y-102467676D02*
X160726571Y-102372438D01*
X160726571Y-102372438D02*
X160869428Y-102324819D01*
X160869428Y-102324819D02*
X160964666Y-102324819D01*
X160964666Y-102324819D02*
X161107523Y-102372438D01*
X161107523Y-102372438D02*
X161155142Y-102420057D01*
X162107523Y-103324819D02*
X161536095Y-103324819D01*
X161821809Y-103324819D02*
X161821809Y-102324819D01*
X161821809Y-102324819D02*
X161726571Y-102467676D01*
X161726571Y-102467676D02*
X161631333Y-102562914D01*
X161631333Y-102562914D02*
X161536095Y-102610533D01*
X163012285Y-102324819D02*
X162536095Y-102324819D01*
X162536095Y-102324819D02*
X162488476Y-102801009D01*
X162488476Y-102801009D02*
X162536095Y-102753390D01*
X162536095Y-102753390D02*
X162631333Y-102705771D01*
X162631333Y-102705771D02*
X162869428Y-102705771D01*
X162869428Y-102705771D02*
X162964666Y-102753390D01*
X162964666Y-102753390D02*
X163012285Y-102801009D01*
X163012285Y-102801009D02*
X163059904Y-102896247D01*
X163059904Y-102896247D02*
X163059904Y-103134342D01*
X163059904Y-103134342D02*
X163012285Y-103229580D01*
X163012285Y-103229580D02*
X162964666Y-103277200D01*
X162964666Y-103277200D02*
X162869428Y-103324819D01*
X162869428Y-103324819D02*
X162631333Y-103324819D01*
X162631333Y-103324819D02*
X162536095Y-103277200D01*
X162536095Y-103277200D02*
X162488476Y-103229580D01*
X177379333Y-37951580D02*
X177331714Y-37999200D01*
X177331714Y-37999200D02*
X177188857Y-38046819D01*
X177188857Y-38046819D02*
X177093619Y-38046819D01*
X177093619Y-38046819D02*
X176950762Y-37999200D01*
X176950762Y-37999200D02*
X176855524Y-37903961D01*
X176855524Y-37903961D02*
X176807905Y-37808723D01*
X176807905Y-37808723D02*
X176760286Y-37618247D01*
X176760286Y-37618247D02*
X176760286Y-37475390D01*
X176760286Y-37475390D02*
X176807905Y-37284914D01*
X176807905Y-37284914D02*
X176855524Y-37189676D01*
X176855524Y-37189676D02*
X176950762Y-37094438D01*
X176950762Y-37094438D02*
X177093619Y-37046819D01*
X177093619Y-37046819D02*
X177188857Y-37046819D01*
X177188857Y-37046819D02*
X177331714Y-37094438D01*
X177331714Y-37094438D02*
X177379333Y-37142057D01*
X177712667Y-37046819D02*
X178379333Y-37046819D01*
X178379333Y-37046819D02*
X177950762Y-38046819D01*
X169791142Y-108055580D02*
X169743523Y-108103200D01*
X169743523Y-108103200D02*
X169600666Y-108150819D01*
X169600666Y-108150819D02*
X169505428Y-108150819D01*
X169505428Y-108150819D02*
X169362571Y-108103200D01*
X169362571Y-108103200D02*
X169267333Y-108007961D01*
X169267333Y-108007961D02*
X169219714Y-107912723D01*
X169219714Y-107912723D02*
X169172095Y-107722247D01*
X169172095Y-107722247D02*
X169172095Y-107579390D01*
X169172095Y-107579390D02*
X169219714Y-107388914D01*
X169219714Y-107388914D02*
X169267333Y-107293676D01*
X169267333Y-107293676D02*
X169362571Y-107198438D01*
X169362571Y-107198438D02*
X169505428Y-107150819D01*
X169505428Y-107150819D02*
X169600666Y-107150819D01*
X169600666Y-107150819D02*
X169743523Y-107198438D01*
X169743523Y-107198438D02*
X169791142Y-107246057D01*
X170743523Y-108150819D02*
X170172095Y-108150819D01*
X170457809Y-108150819D02*
X170457809Y-107150819D01*
X170457809Y-107150819D02*
X170362571Y-107293676D01*
X170362571Y-107293676D02*
X170267333Y-107388914D01*
X170267333Y-107388914D02*
X170172095Y-107436533D01*
X171362571Y-107150819D02*
X171457809Y-107150819D01*
X171457809Y-107150819D02*
X171553047Y-107198438D01*
X171553047Y-107198438D02*
X171600666Y-107246057D01*
X171600666Y-107246057D02*
X171648285Y-107341295D01*
X171648285Y-107341295D02*
X171695904Y-107531771D01*
X171695904Y-107531771D02*
X171695904Y-107769866D01*
X171695904Y-107769866D02*
X171648285Y-107960342D01*
X171648285Y-107960342D02*
X171600666Y-108055580D01*
X171600666Y-108055580D02*
X171553047Y-108103200D01*
X171553047Y-108103200D02*
X171457809Y-108150819D01*
X171457809Y-108150819D02*
X171362571Y-108150819D01*
X171362571Y-108150819D02*
X171267333Y-108103200D01*
X171267333Y-108103200D02*
X171219714Y-108055580D01*
X171219714Y-108055580D02*
X171172095Y-107960342D01*
X171172095Y-107960342D02*
X171124476Y-107769866D01*
X171124476Y-107769866D02*
X171124476Y-107531771D01*
X171124476Y-107531771D02*
X171172095Y-107341295D01*
X171172095Y-107341295D02*
X171219714Y-107246057D01*
X171219714Y-107246057D02*
X171267333Y-107198438D01*
X171267333Y-107198438D02*
X171362571Y-107150819D01*
X185509819Y-83311904D02*
X186319342Y-83311904D01*
X186319342Y-83311904D02*
X186414580Y-83264285D01*
X186414580Y-83264285D02*
X186462200Y-83216666D01*
X186462200Y-83216666D02*
X186509819Y-83121428D01*
X186509819Y-83121428D02*
X186509819Y-82930952D01*
X186509819Y-82930952D02*
X186462200Y-82835714D01*
X186462200Y-82835714D02*
X186414580Y-82788095D01*
X186414580Y-82788095D02*
X186319342Y-82740476D01*
X186319342Y-82740476D02*
X185509819Y-82740476D01*
X185509819Y-81788095D02*
X185509819Y-82264285D01*
X185509819Y-82264285D02*
X185986009Y-82311904D01*
X185986009Y-82311904D02*
X185938390Y-82264285D01*
X185938390Y-82264285D02*
X185890771Y-82169047D01*
X185890771Y-82169047D02*
X185890771Y-81930952D01*
X185890771Y-81930952D02*
X185938390Y-81835714D01*
X185938390Y-81835714D02*
X185986009Y-81788095D01*
X185986009Y-81788095D02*
X186081247Y-81740476D01*
X186081247Y-81740476D02*
X186319342Y-81740476D01*
X186319342Y-81740476D02*
X186414580Y-81788095D01*
X186414580Y-81788095D02*
X186462200Y-81835714D01*
X186462200Y-81835714D02*
X186509819Y-81930952D01*
X186509819Y-81930952D02*
X186509819Y-82169047D01*
X186509819Y-82169047D02*
X186462200Y-82264285D01*
X186462200Y-82264285D02*
X186414580Y-82311904D01*
X184618333Y-75554819D02*
X184285000Y-75078628D01*
X184046905Y-75554819D02*
X184046905Y-74554819D01*
X184046905Y-74554819D02*
X184427857Y-74554819D01*
X184427857Y-74554819D02*
X184523095Y-74602438D01*
X184523095Y-74602438D02*
X184570714Y-74650057D01*
X184570714Y-74650057D02*
X184618333Y-74745295D01*
X184618333Y-74745295D02*
X184618333Y-74888152D01*
X184618333Y-74888152D02*
X184570714Y-74983390D01*
X184570714Y-74983390D02*
X184523095Y-75031009D01*
X184523095Y-75031009D02*
X184427857Y-75078628D01*
X184427857Y-75078628D02*
X184046905Y-75078628D01*
X185570714Y-75554819D02*
X184999286Y-75554819D01*
X185285000Y-75554819D02*
X185285000Y-74554819D01*
X185285000Y-74554819D02*
X185189762Y-74697676D01*
X185189762Y-74697676D02*
X185094524Y-74792914D01*
X185094524Y-74792914D02*
X184999286Y-74840533D01*
X192452666Y-51524819D02*
X192452666Y-52239104D01*
X192452666Y-52239104D02*
X192405047Y-52381961D01*
X192405047Y-52381961D02*
X192309809Y-52477200D01*
X192309809Y-52477200D02*
X192166952Y-52524819D01*
X192166952Y-52524819D02*
X192071714Y-52524819D01*
X192833619Y-51524819D02*
X193452666Y-51524819D01*
X193452666Y-51524819D02*
X193119333Y-51905771D01*
X193119333Y-51905771D02*
X193262190Y-51905771D01*
X193262190Y-51905771D02*
X193357428Y-51953390D01*
X193357428Y-51953390D02*
X193405047Y-52001009D01*
X193405047Y-52001009D02*
X193452666Y-52096247D01*
X193452666Y-52096247D02*
X193452666Y-52334342D01*
X193452666Y-52334342D02*
X193405047Y-52429580D01*
X193405047Y-52429580D02*
X193357428Y-52477200D01*
X193357428Y-52477200D02*
X193262190Y-52524819D01*
X193262190Y-52524819D02*
X192976476Y-52524819D01*
X192976476Y-52524819D02*
X192881238Y-52477200D01*
X192881238Y-52477200D02*
X192833619Y-52429580D01*
X170065142Y-91277580D02*
X170017523Y-91325200D01*
X170017523Y-91325200D02*
X169874666Y-91372819D01*
X169874666Y-91372819D02*
X169779428Y-91372819D01*
X169779428Y-91372819D02*
X169636571Y-91325200D01*
X169636571Y-91325200D02*
X169541333Y-91229961D01*
X169541333Y-91229961D02*
X169493714Y-91134723D01*
X169493714Y-91134723D02*
X169446095Y-90944247D01*
X169446095Y-90944247D02*
X169446095Y-90801390D01*
X169446095Y-90801390D02*
X169493714Y-90610914D01*
X169493714Y-90610914D02*
X169541333Y-90515676D01*
X169541333Y-90515676D02*
X169636571Y-90420438D01*
X169636571Y-90420438D02*
X169779428Y-90372819D01*
X169779428Y-90372819D02*
X169874666Y-90372819D01*
X169874666Y-90372819D02*
X170017523Y-90420438D01*
X170017523Y-90420438D02*
X170065142Y-90468057D01*
X171017523Y-91372819D02*
X170446095Y-91372819D01*
X170731809Y-91372819D02*
X170731809Y-90372819D01*
X170731809Y-90372819D02*
X170636571Y-90515676D01*
X170636571Y-90515676D02*
X170541333Y-90610914D01*
X170541333Y-90610914D02*
X170446095Y-90658533D01*
X171874666Y-90372819D02*
X171684190Y-90372819D01*
X171684190Y-90372819D02*
X171588952Y-90420438D01*
X171588952Y-90420438D02*
X171541333Y-90468057D01*
X171541333Y-90468057D02*
X171446095Y-90610914D01*
X171446095Y-90610914D02*
X171398476Y-90801390D01*
X171398476Y-90801390D02*
X171398476Y-91182342D01*
X171398476Y-91182342D02*
X171446095Y-91277580D01*
X171446095Y-91277580D02*
X171493714Y-91325200D01*
X171493714Y-91325200D02*
X171588952Y-91372819D01*
X171588952Y-91372819D02*
X171779428Y-91372819D01*
X171779428Y-91372819D02*
X171874666Y-91325200D01*
X171874666Y-91325200D02*
X171922285Y-91277580D01*
X171922285Y-91277580D02*
X171969904Y-91182342D01*
X171969904Y-91182342D02*
X171969904Y-90944247D01*
X171969904Y-90944247D02*
X171922285Y-90849009D01*
X171922285Y-90849009D02*
X171874666Y-90801390D01*
X171874666Y-90801390D02*
X171779428Y-90753771D01*
X171779428Y-90753771D02*
X171588952Y-90753771D01*
X171588952Y-90753771D02*
X171493714Y-90801390D01*
X171493714Y-90801390D02*
X171446095Y-90849009D01*
X171446095Y-90849009D02*
X171398476Y-90944247D01*
X185051142Y-106672580D02*
X185003523Y-106720200D01*
X185003523Y-106720200D02*
X184860666Y-106767819D01*
X184860666Y-106767819D02*
X184765428Y-106767819D01*
X184765428Y-106767819D02*
X184622571Y-106720200D01*
X184622571Y-106720200D02*
X184527333Y-106624961D01*
X184527333Y-106624961D02*
X184479714Y-106529723D01*
X184479714Y-106529723D02*
X184432095Y-106339247D01*
X184432095Y-106339247D02*
X184432095Y-106196390D01*
X184432095Y-106196390D02*
X184479714Y-106005914D01*
X184479714Y-106005914D02*
X184527333Y-105910676D01*
X184527333Y-105910676D02*
X184622571Y-105815438D01*
X184622571Y-105815438D02*
X184765428Y-105767819D01*
X184765428Y-105767819D02*
X184860666Y-105767819D01*
X184860666Y-105767819D02*
X185003523Y-105815438D01*
X185003523Y-105815438D02*
X185051142Y-105863057D01*
X186003523Y-106767819D02*
X185432095Y-106767819D01*
X185717809Y-106767819D02*
X185717809Y-105767819D01*
X185717809Y-105767819D02*
X185622571Y-105910676D01*
X185622571Y-105910676D02*
X185527333Y-106005914D01*
X185527333Y-106005914D02*
X185432095Y-106053533D01*
X186336857Y-105767819D02*
X186955904Y-105767819D01*
X186955904Y-105767819D02*
X186622571Y-106148771D01*
X186622571Y-106148771D02*
X186765428Y-106148771D01*
X186765428Y-106148771D02*
X186860666Y-106196390D01*
X186860666Y-106196390D02*
X186908285Y-106244009D01*
X186908285Y-106244009D02*
X186955904Y-106339247D01*
X186955904Y-106339247D02*
X186955904Y-106577342D01*
X186955904Y-106577342D02*
X186908285Y-106672580D01*
X186908285Y-106672580D02*
X186860666Y-106720200D01*
X186860666Y-106720200D02*
X186765428Y-106767819D01*
X186765428Y-106767819D02*
X186479714Y-106767819D01*
X186479714Y-106767819D02*
X186384476Y-106720200D01*
X186384476Y-106720200D02*
X186336857Y-106672580D01*
X192177200Y-63603332D02*
X192224819Y-63460475D01*
X192224819Y-63460475D02*
X192224819Y-63222380D01*
X192224819Y-63222380D02*
X192177200Y-63127142D01*
X192177200Y-63127142D02*
X192129580Y-63079523D01*
X192129580Y-63079523D02*
X192034342Y-63031904D01*
X192034342Y-63031904D02*
X191939104Y-63031904D01*
X191939104Y-63031904D02*
X191843866Y-63079523D01*
X191843866Y-63079523D02*
X191796247Y-63127142D01*
X191796247Y-63127142D02*
X191748628Y-63222380D01*
X191748628Y-63222380D02*
X191701009Y-63412856D01*
X191701009Y-63412856D02*
X191653390Y-63508094D01*
X191653390Y-63508094D02*
X191605771Y-63555713D01*
X191605771Y-63555713D02*
X191510533Y-63603332D01*
X191510533Y-63603332D02*
X191415295Y-63603332D01*
X191415295Y-63603332D02*
X191320057Y-63555713D01*
X191320057Y-63555713D02*
X191272438Y-63508094D01*
X191272438Y-63508094D02*
X191224819Y-63412856D01*
X191224819Y-63412856D02*
X191224819Y-63174761D01*
X191224819Y-63174761D02*
X191272438Y-63031904D01*
X191224819Y-62698570D02*
X192224819Y-62460475D01*
X192224819Y-62460475D02*
X191510533Y-62269999D01*
X191510533Y-62269999D02*
X192224819Y-62079523D01*
X192224819Y-62079523D02*
X191224819Y-61841428D01*
X192224819Y-60936666D02*
X192224819Y-61508094D01*
X192224819Y-61222380D02*
X191224819Y-61222380D01*
X191224819Y-61222380D02*
X191367676Y-61317618D01*
X191367676Y-61317618D02*
X191462914Y-61412856D01*
X191462914Y-61412856D02*
X191510533Y-61508094D01*
X154791580Y-103766857D02*
X154839200Y-103814476D01*
X154839200Y-103814476D02*
X154886819Y-103957333D01*
X154886819Y-103957333D02*
X154886819Y-104052571D01*
X154886819Y-104052571D02*
X154839200Y-104195428D01*
X154839200Y-104195428D02*
X154743961Y-104290666D01*
X154743961Y-104290666D02*
X154648723Y-104338285D01*
X154648723Y-104338285D02*
X154458247Y-104385904D01*
X154458247Y-104385904D02*
X154315390Y-104385904D01*
X154315390Y-104385904D02*
X154124914Y-104338285D01*
X154124914Y-104338285D02*
X154029676Y-104290666D01*
X154029676Y-104290666D02*
X153934438Y-104195428D01*
X153934438Y-104195428D02*
X153886819Y-104052571D01*
X153886819Y-104052571D02*
X153886819Y-103957333D01*
X153886819Y-103957333D02*
X153934438Y-103814476D01*
X153934438Y-103814476D02*
X153982057Y-103766857D01*
X154886819Y-102814476D02*
X154886819Y-103385904D01*
X154886819Y-103100190D02*
X153886819Y-103100190D01*
X153886819Y-103100190D02*
X154029676Y-103195428D01*
X154029676Y-103195428D02*
X154124914Y-103290666D01*
X154124914Y-103290666D02*
X154172533Y-103385904D01*
X154220152Y-101957333D02*
X154886819Y-101957333D01*
X153839200Y-102195428D02*
X154553485Y-102433523D01*
X154553485Y-102433523D02*
X154553485Y-101814476D01*
X157643809Y-68233628D02*
X157643809Y-68709819D01*
X157310476Y-67709819D02*
X157643809Y-68233628D01*
X157643809Y-68233628D02*
X157977142Y-67709819D01*
X158834285Y-68709819D02*
X158262857Y-68709819D01*
X158548571Y-68709819D02*
X158548571Y-67709819D01*
X158548571Y-67709819D02*
X158453333Y-67852676D01*
X158453333Y-67852676D02*
X158358095Y-67947914D01*
X158358095Y-67947914D02*
X158262857Y-67995533D01*
X182334819Y-107441904D02*
X183144342Y-107441904D01*
X183144342Y-107441904D02*
X183239580Y-107394285D01*
X183239580Y-107394285D02*
X183287200Y-107346666D01*
X183287200Y-107346666D02*
X183334819Y-107251428D01*
X183334819Y-107251428D02*
X183334819Y-107060952D01*
X183334819Y-107060952D02*
X183287200Y-106965714D01*
X183287200Y-106965714D02*
X183239580Y-106918095D01*
X183239580Y-106918095D02*
X183144342Y-106870476D01*
X183144342Y-106870476D02*
X182334819Y-106870476D01*
X182430057Y-106441904D02*
X182382438Y-106394285D01*
X182382438Y-106394285D02*
X182334819Y-106299047D01*
X182334819Y-106299047D02*
X182334819Y-106060952D01*
X182334819Y-106060952D02*
X182382438Y-105965714D01*
X182382438Y-105965714D02*
X182430057Y-105918095D01*
X182430057Y-105918095D02*
X182525295Y-105870476D01*
X182525295Y-105870476D02*
X182620533Y-105870476D01*
X182620533Y-105870476D02*
X182763390Y-105918095D01*
X182763390Y-105918095D02*
X183334819Y-106489523D01*
X183334819Y-106489523D02*
X183334819Y-105870476D01*
X161002742Y-90427980D02*
X160955123Y-90475600D01*
X160955123Y-90475600D02*
X160812266Y-90523219D01*
X160812266Y-90523219D02*
X160717028Y-90523219D01*
X160717028Y-90523219D02*
X160574171Y-90475600D01*
X160574171Y-90475600D02*
X160478933Y-90380361D01*
X160478933Y-90380361D02*
X160431314Y-90285123D01*
X160431314Y-90285123D02*
X160383695Y-90094647D01*
X160383695Y-90094647D02*
X160383695Y-89951790D01*
X160383695Y-89951790D02*
X160431314Y-89761314D01*
X160431314Y-89761314D02*
X160478933Y-89666076D01*
X160478933Y-89666076D02*
X160574171Y-89570838D01*
X160574171Y-89570838D02*
X160717028Y-89523219D01*
X160717028Y-89523219D02*
X160812266Y-89523219D01*
X160812266Y-89523219D02*
X160955123Y-89570838D01*
X160955123Y-89570838D02*
X161002742Y-89618457D01*
X161955123Y-90523219D02*
X161383695Y-90523219D01*
X161669409Y-90523219D02*
X161669409Y-89523219D01*
X161669409Y-89523219D02*
X161574171Y-89666076D01*
X161574171Y-89666076D02*
X161478933Y-89761314D01*
X161478933Y-89761314D02*
X161383695Y-89808933D01*
X162907504Y-90523219D02*
X162336076Y-90523219D01*
X162621790Y-90523219D02*
X162621790Y-89523219D01*
X162621790Y-89523219D02*
X162526552Y-89666076D01*
X162526552Y-89666076D02*
X162431314Y-89761314D01*
X162431314Y-89761314D02*
X162336076Y-89808933D01*
X170980057Y-33115238D02*
X170932438Y-33210476D01*
X170932438Y-33210476D02*
X170837200Y-33305714D01*
X170837200Y-33305714D02*
X170694342Y-33448571D01*
X170694342Y-33448571D02*
X170646723Y-33543809D01*
X170646723Y-33543809D02*
X170646723Y-33639047D01*
X170884819Y-33591428D02*
X170837200Y-33686666D01*
X170837200Y-33686666D02*
X170741961Y-33781904D01*
X170741961Y-33781904D02*
X170551485Y-33829523D01*
X170551485Y-33829523D02*
X170218152Y-33829523D01*
X170218152Y-33829523D02*
X170027676Y-33781904D01*
X170027676Y-33781904D02*
X169932438Y-33686666D01*
X169932438Y-33686666D02*
X169884819Y-33591428D01*
X169884819Y-33591428D02*
X169884819Y-33400952D01*
X169884819Y-33400952D02*
X169932438Y-33305714D01*
X169932438Y-33305714D02*
X170027676Y-33210476D01*
X170027676Y-33210476D02*
X170218152Y-33162857D01*
X170218152Y-33162857D02*
X170551485Y-33162857D01*
X170551485Y-33162857D02*
X170741961Y-33210476D01*
X170741961Y-33210476D02*
X170837200Y-33305714D01*
X170837200Y-33305714D02*
X170884819Y-33400952D01*
X170884819Y-33400952D02*
X170884819Y-33591428D01*
X170218152Y-32305714D02*
X170884819Y-32305714D01*
X169837200Y-32543809D02*
X170551485Y-32781904D01*
X170551485Y-32781904D02*
X170551485Y-32162857D01*
X167745580Y-80176666D02*
X167793200Y-80224285D01*
X167793200Y-80224285D02*
X167840819Y-80367142D01*
X167840819Y-80367142D02*
X167840819Y-80462380D01*
X167840819Y-80462380D02*
X167793200Y-80605237D01*
X167793200Y-80605237D02*
X167697961Y-80700475D01*
X167697961Y-80700475D02*
X167602723Y-80748094D01*
X167602723Y-80748094D02*
X167412247Y-80795713D01*
X167412247Y-80795713D02*
X167269390Y-80795713D01*
X167269390Y-80795713D02*
X167078914Y-80748094D01*
X167078914Y-80748094D02*
X166983676Y-80700475D01*
X166983676Y-80700475D02*
X166888438Y-80605237D01*
X166888438Y-80605237D02*
X166840819Y-80462380D01*
X166840819Y-80462380D02*
X166840819Y-80367142D01*
X166840819Y-80367142D02*
X166888438Y-80224285D01*
X166888438Y-80224285D02*
X166936057Y-80176666D01*
X166936057Y-79795713D02*
X166888438Y-79748094D01*
X166888438Y-79748094D02*
X166840819Y-79652856D01*
X166840819Y-79652856D02*
X166840819Y-79414761D01*
X166840819Y-79414761D02*
X166888438Y-79319523D01*
X166888438Y-79319523D02*
X166936057Y-79271904D01*
X166936057Y-79271904D02*
X167031295Y-79224285D01*
X167031295Y-79224285D02*
X167126533Y-79224285D01*
X167126533Y-79224285D02*
X167269390Y-79271904D01*
X167269390Y-79271904D02*
X167840819Y-79843332D01*
X167840819Y-79843332D02*
X167840819Y-79224285D01*
X182572819Y-97162857D02*
X182096628Y-97496190D01*
X182572819Y-97734285D02*
X181572819Y-97734285D01*
X181572819Y-97734285D02*
X181572819Y-97353333D01*
X181572819Y-97353333D02*
X181620438Y-97258095D01*
X181620438Y-97258095D02*
X181668057Y-97210476D01*
X181668057Y-97210476D02*
X181763295Y-97162857D01*
X181763295Y-97162857D02*
X181906152Y-97162857D01*
X181906152Y-97162857D02*
X182001390Y-97210476D01*
X182001390Y-97210476D02*
X182049009Y-97258095D01*
X182049009Y-97258095D02*
X182096628Y-97353333D01*
X182096628Y-97353333D02*
X182096628Y-97734285D01*
X182572819Y-96210476D02*
X182572819Y-96781904D01*
X182572819Y-96496190D02*
X181572819Y-96496190D01*
X181572819Y-96496190D02*
X181715676Y-96591428D01*
X181715676Y-96591428D02*
X181810914Y-96686666D01*
X181810914Y-96686666D02*
X181858533Y-96781904D01*
X181572819Y-95353333D02*
X181572819Y-95543809D01*
X181572819Y-95543809D02*
X181620438Y-95639047D01*
X181620438Y-95639047D02*
X181668057Y-95686666D01*
X181668057Y-95686666D02*
X181810914Y-95781904D01*
X181810914Y-95781904D02*
X182001390Y-95829523D01*
X182001390Y-95829523D02*
X182382342Y-95829523D01*
X182382342Y-95829523D02*
X182477580Y-95781904D01*
X182477580Y-95781904D02*
X182525200Y-95734285D01*
X182525200Y-95734285D02*
X182572819Y-95639047D01*
X182572819Y-95639047D02*
X182572819Y-95448571D01*
X182572819Y-95448571D02*
X182525200Y-95353333D01*
X182525200Y-95353333D02*
X182477580Y-95305714D01*
X182477580Y-95305714D02*
X182382342Y-95258095D01*
X182382342Y-95258095D02*
X182144247Y-95258095D01*
X182144247Y-95258095D02*
X182049009Y-95305714D01*
X182049009Y-95305714D02*
X182001390Y-95353333D01*
X182001390Y-95353333D02*
X181953771Y-95448571D01*
X181953771Y-95448571D02*
X181953771Y-95639047D01*
X181953771Y-95639047D02*
X182001390Y-95734285D01*
X182001390Y-95734285D02*
X182049009Y-95781904D01*
X182049009Y-95781904D02*
X182144247Y-95829523D01*
X155787319Y-37163333D02*
X156501604Y-37163333D01*
X156501604Y-37163333D02*
X156644461Y-37210952D01*
X156644461Y-37210952D02*
X156739700Y-37306190D01*
X156739700Y-37306190D02*
X156787319Y-37449047D01*
X156787319Y-37449047D02*
X156787319Y-37544285D01*
X155787319Y-36782380D02*
X155787319Y-36115714D01*
X155787319Y-36115714D02*
X156787319Y-36544285D01*
X184158095Y-97661819D02*
X184729523Y-97661819D01*
X184443809Y-98661819D02*
X184443809Y-97661819D01*
X185062857Y-98661819D02*
X185062857Y-97661819D01*
X185062857Y-97661819D02*
X185443809Y-97661819D01*
X185443809Y-97661819D02*
X185539047Y-97709438D01*
X185539047Y-97709438D02*
X185586666Y-97757057D01*
X185586666Y-97757057D02*
X185634285Y-97852295D01*
X185634285Y-97852295D02*
X185634285Y-97995152D01*
X185634285Y-97995152D02*
X185586666Y-98090390D01*
X185586666Y-98090390D02*
X185539047Y-98138009D01*
X185539047Y-98138009D02*
X185443809Y-98185628D01*
X185443809Y-98185628D02*
X185062857Y-98185628D01*
X186491428Y-97661819D02*
X186300952Y-97661819D01*
X186300952Y-97661819D02*
X186205714Y-97709438D01*
X186205714Y-97709438D02*
X186158095Y-97757057D01*
X186158095Y-97757057D02*
X186062857Y-97899914D01*
X186062857Y-97899914D02*
X186015238Y-98090390D01*
X186015238Y-98090390D02*
X186015238Y-98471342D01*
X186015238Y-98471342D02*
X186062857Y-98566580D01*
X186062857Y-98566580D02*
X186110476Y-98614200D01*
X186110476Y-98614200D02*
X186205714Y-98661819D01*
X186205714Y-98661819D02*
X186396190Y-98661819D01*
X186396190Y-98661819D02*
X186491428Y-98614200D01*
X186491428Y-98614200D02*
X186539047Y-98566580D01*
X186539047Y-98566580D02*
X186586666Y-98471342D01*
X186586666Y-98471342D02*
X186586666Y-98233247D01*
X186586666Y-98233247D02*
X186539047Y-98138009D01*
X186539047Y-98138009D02*
X186491428Y-98090390D01*
X186491428Y-98090390D02*
X186396190Y-98042771D01*
X186396190Y-98042771D02*
X186205714Y-98042771D01*
X186205714Y-98042771D02*
X186110476Y-98090390D01*
X186110476Y-98090390D02*
X186062857Y-98138009D01*
X186062857Y-98138009D02*
X186015238Y-98233247D01*
X189912666Y-36494819D02*
X189912666Y-37209104D01*
X189912666Y-37209104D02*
X189865047Y-37351961D01*
X189865047Y-37351961D02*
X189769809Y-37447200D01*
X189769809Y-37447200D02*
X189626952Y-37494819D01*
X189626952Y-37494819D02*
X189531714Y-37494819D01*
X190341238Y-36590057D02*
X190388857Y-36542438D01*
X190388857Y-36542438D02*
X190484095Y-36494819D01*
X190484095Y-36494819D02*
X190722190Y-36494819D01*
X190722190Y-36494819D02*
X190817428Y-36542438D01*
X190817428Y-36542438D02*
X190865047Y-36590057D01*
X190865047Y-36590057D02*
X190912666Y-36685295D01*
X190912666Y-36685295D02*
X190912666Y-36780533D01*
X190912666Y-36780533D02*
X190865047Y-36923390D01*
X190865047Y-36923390D02*
X190293619Y-37494819D01*
X190293619Y-37494819D02*
X190912666Y-37494819D01*
X162506819Y-81446666D02*
X162030628Y-81779999D01*
X162506819Y-82018094D02*
X161506819Y-82018094D01*
X161506819Y-82018094D02*
X161506819Y-81637142D01*
X161506819Y-81637142D02*
X161554438Y-81541904D01*
X161554438Y-81541904D02*
X161602057Y-81494285D01*
X161602057Y-81494285D02*
X161697295Y-81446666D01*
X161697295Y-81446666D02*
X161840152Y-81446666D01*
X161840152Y-81446666D02*
X161935390Y-81494285D01*
X161935390Y-81494285D02*
X161983009Y-81541904D01*
X161983009Y-81541904D02*
X162030628Y-81637142D01*
X162030628Y-81637142D02*
X162030628Y-82018094D01*
X161506819Y-81113332D02*
X161506819Y-80494285D01*
X161506819Y-80494285D02*
X161887771Y-80827618D01*
X161887771Y-80827618D02*
X161887771Y-80684761D01*
X161887771Y-80684761D02*
X161935390Y-80589523D01*
X161935390Y-80589523D02*
X161983009Y-80541904D01*
X161983009Y-80541904D02*
X162078247Y-80494285D01*
X162078247Y-80494285D02*
X162316342Y-80494285D01*
X162316342Y-80494285D02*
X162411580Y-80541904D01*
X162411580Y-80541904D02*
X162459200Y-80589523D01*
X162459200Y-80589523D02*
X162506819Y-80684761D01*
X162506819Y-80684761D02*
X162506819Y-80970475D01*
X162506819Y-80970475D02*
X162459200Y-81065713D01*
X162459200Y-81065713D02*
X162411580Y-81113332D01*
X156143819Y-48593333D02*
X156858104Y-48593333D01*
X156858104Y-48593333D02*
X157000961Y-48640952D01*
X157000961Y-48640952D02*
X157096200Y-48736190D01*
X157096200Y-48736190D02*
X157143819Y-48879047D01*
X157143819Y-48879047D02*
X157143819Y-48974285D01*
X156143819Y-47640952D02*
X156143819Y-48117142D01*
X156143819Y-48117142D02*
X156620009Y-48164761D01*
X156620009Y-48164761D02*
X156572390Y-48117142D01*
X156572390Y-48117142D02*
X156524771Y-48021904D01*
X156524771Y-48021904D02*
X156524771Y-47783809D01*
X156524771Y-47783809D02*
X156572390Y-47688571D01*
X156572390Y-47688571D02*
X156620009Y-47640952D01*
X156620009Y-47640952D02*
X156715247Y-47593333D01*
X156715247Y-47593333D02*
X156953342Y-47593333D01*
X156953342Y-47593333D02*
X157048580Y-47640952D01*
X157048580Y-47640952D02*
X157096200Y-47688571D01*
X157096200Y-47688571D02*
X157143819Y-47783809D01*
X157143819Y-47783809D02*
X157143819Y-48021904D01*
X157143819Y-48021904D02*
X157096200Y-48117142D01*
X157096200Y-48117142D02*
X157048580Y-48164761D01*
X182253095Y-34669819D02*
X182824523Y-34669819D01*
X182538809Y-35669819D02*
X182538809Y-34669819D01*
X183157857Y-35669819D02*
X183157857Y-34669819D01*
X183157857Y-34669819D02*
X183538809Y-34669819D01*
X183538809Y-34669819D02*
X183634047Y-34717438D01*
X183634047Y-34717438D02*
X183681666Y-34765057D01*
X183681666Y-34765057D02*
X183729285Y-34860295D01*
X183729285Y-34860295D02*
X183729285Y-35003152D01*
X183729285Y-35003152D02*
X183681666Y-35098390D01*
X183681666Y-35098390D02*
X183634047Y-35146009D01*
X183634047Y-35146009D02*
X183538809Y-35193628D01*
X183538809Y-35193628D02*
X183157857Y-35193628D01*
X184586428Y-35003152D02*
X184586428Y-35669819D01*
X184348333Y-34622200D02*
X184110238Y-35336485D01*
X184110238Y-35336485D02*
X184729285Y-35336485D01*
X191095333Y-48365580D02*
X191047714Y-48413200D01*
X191047714Y-48413200D02*
X190904857Y-48460819D01*
X190904857Y-48460819D02*
X190809619Y-48460819D01*
X190809619Y-48460819D02*
X190666762Y-48413200D01*
X190666762Y-48413200D02*
X190571524Y-48317961D01*
X190571524Y-48317961D02*
X190523905Y-48222723D01*
X190523905Y-48222723D02*
X190476286Y-48032247D01*
X190476286Y-48032247D02*
X190476286Y-47889390D01*
X190476286Y-47889390D02*
X190523905Y-47698914D01*
X190523905Y-47698914D02*
X190571524Y-47603676D01*
X190571524Y-47603676D02*
X190666762Y-47508438D01*
X190666762Y-47508438D02*
X190809619Y-47460819D01*
X190809619Y-47460819D02*
X190904857Y-47460819D01*
X190904857Y-47460819D02*
X191047714Y-47508438D01*
X191047714Y-47508438D02*
X191095333Y-47556057D01*
X191428667Y-47460819D02*
X192047714Y-47460819D01*
X192047714Y-47460819D02*
X191714381Y-47841771D01*
X191714381Y-47841771D02*
X191857238Y-47841771D01*
X191857238Y-47841771D02*
X191952476Y-47889390D01*
X191952476Y-47889390D02*
X192000095Y-47937009D01*
X192000095Y-47937009D02*
X192047714Y-48032247D01*
X192047714Y-48032247D02*
X192047714Y-48270342D01*
X192047714Y-48270342D02*
X192000095Y-48365580D01*
X192000095Y-48365580D02*
X191952476Y-48413200D01*
X191952476Y-48413200D02*
X191857238Y-48460819D01*
X191857238Y-48460819D02*
X191571524Y-48460819D01*
X191571524Y-48460819D02*
X191476286Y-48413200D01*
X191476286Y-48413200D02*
X191428667Y-48365580D01*
X155394819Y-106465666D02*
X154918628Y-106798999D01*
X155394819Y-107037094D02*
X154394819Y-107037094D01*
X154394819Y-107037094D02*
X154394819Y-106656142D01*
X154394819Y-106656142D02*
X154442438Y-106560904D01*
X154442438Y-106560904D02*
X154490057Y-106513285D01*
X154490057Y-106513285D02*
X154585295Y-106465666D01*
X154585295Y-106465666D02*
X154728152Y-106465666D01*
X154728152Y-106465666D02*
X154823390Y-106513285D01*
X154823390Y-106513285D02*
X154871009Y-106560904D01*
X154871009Y-106560904D02*
X154918628Y-106656142D01*
X154918628Y-106656142D02*
X154918628Y-107037094D01*
X154823390Y-105894237D02*
X154775771Y-105989475D01*
X154775771Y-105989475D02*
X154728152Y-106037094D01*
X154728152Y-106037094D02*
X154632914Y-106084713D01*
X154632914Y-106084713D02*
X154585295Y-106084713D01*
X154585295Y-106084713D02*
X154490057Y-106037094D01*
X154490057Y-106037094D02*
X154442438Y-105989475D01*
X154442438Y-105989475D02*
X154394819Y-105894237D01*
X154394819Y-105894237D02*
X154394819Y-105703761D01*
X154394819Y-105703761D02*
X154442438Y-105608523D01*
X154442438Y-105608523D02*
X154490057Y-105560904D01*
X154490057Y-105560904D02*
X154585295Y-105513285D01*
X154585295Y-105513285D02*
X154632914Y-105513285D01*
X154632914Y-105513285D02*
X154728152Y-105560904D01*
X154728152Y-105560904D02*
X154775771Y-105608523D01*
X154775771Y-105608523D02*
X154823390Y-105703761D01*
X154823390Y-105703761D02*
X154823390Y-105894237D01*
X154823390Y-105894237D02*
X154871009Y-105989475D01*
X154871009Y-105989475D02*
X154918628Y-106037094D01*
X154918628Y-106037094D02*
X155013866Y-106084713D01*
X155013866Y-106084713D02*
X155204342Y-106084713D01*
X155204342Y-106084713D02*
X155299580Y-106037094D01*
X155299580Y-106037094D02*
X155347200Y-105989475D01*
X155347200Y-105989475D02*
X155394819Y-105894237D01*
X155394819Y-105894237D02*
X155394819Y-105703761D01*
X155394819Y-105703761D02*
X155347200Y-105608523D01*
X155347200Y-105608523D02*
X155299580Y-105560904D01*
X155299580Y-105560904D02*
X155204342Y-105513285D01*
X155204342Y-105513285D02*
X155013866Y-105513285D01*
X155013866Y-105513285D02*
X154918628Y-105560904D01*
X154918628Y-105560904D02*
X154871009Y-105608523D01*
X154871009Y-105608523D02*
X154823390Y-105703761D01*
X155394819Y-100591857D02*
X154918628Y-100925190D01*
X155394819Y-101163285D02*
X154394819Y-101163285D01*
X154394819Y-101163285D02*
X154394819Y-100782333D01*
X154394819Y-100782333D02*
X154442438Y-100687095D01*
X154442438Y-100687095D02*
X154490057Y-100639476D01*
X154490057Y-100639476D02*
X154585295Y-100591857D01*
X154585295Y-100591857D02*
X154728152Y-100591857D01*
X154728152Y-100591857D02*
X154823390Y-100639476D01*
X154823390Y-100639476D02*
X154871009Y-100687095D01*
X154871009Y-100687095D02*
X154918628Y-100782333D01*
X154918628Y-100782333D02*
X154918628Y-101163285D01*
X155394819Y-99639476D02*
X155394819Y-100210904D01*
X155394819Y-99925190D02*
X154394819Y-99925190D01*
X154394819Y-99925190D02*
X154537676Y-100020428D01*
X154537676Y-100020428D02*
X154632914Y-100115666D01*
X154632914Y-100115666D02*
X154680533Y-100210904D01*
X154394819Y-99306142D02*
X154394819Y-98687095D01*
X154394819Y-98687095D02*
X154775771Y-99020428D01*
X154775771Y-99020428D02*
X154775771Y-98877571D01*
X154775771Y-98877571D02*
X154823390Y-98782333D01*
X154823390Y-98782333D02*
X154871009Y-98734714D01*
X154871009Y-98734714D02*
X154966247Y-98687095D01*
X154966247Y-98687095D02*
X155204342Y-98687095D01*
X155204342Y-98687095D02*
X155299580Y-98734714D01*
X155299580Y-98734714D02*
X155347200Y-98782333D01*
X155347200Y-98782333D02*
X155394819Y-98877571D01*
X155394819Y-98877571D02*
X155394819Y-99163285D01*
X155394819Y-99163285D02*
X155347200Y-99258523D01*
X155347200Y-99258523D02*
X155299580Y-99306142D01*
X186269333Y-110182819D02*
X185936000Y-109706628D01*
X185697905Y-110182819D02*
X185697905Y-109182819D01*
X185697905Y-109182819D02*
X186078857Y-109182819D01*
X186078857Y-109182819D02*
X186174095Y-109230438D01*
X186174095Y-109230438D02*
X186221714Y-109278057D01*
X186221714Y-109278057D02*
X186269333Y-109373295D01*
X186269333Y-109373295D02*
X186269333Y-109516152D01*
X186269333Y-109516152D02*
X186221714Y-109611390D01*
X186221714Y-109611390D02*
X186174095Y-109659009D01*
X186174095Y-109659009D02*
X186078857Y-109706628D01*
X186078857Y-109706628D02*
X185697905Y-109706628D01*
X186745524Y-110182819D02*
X186936000Y-110182819D01*
X186936000Y-110182819D02*
X187031238Y-110135200D01*
X187031238Y-110135200D02*
X187078857Y-110087580D01*
X187078857Y-110087580D02*
X187174095Y-109944723D01*
X187174095Y-109944723D02*
X187221714Y-109754247D01*
X187221714Y-109754247D02*
X187221714Y-109373295D01*
X187221714Y-109373295D02*
X187174095Y-109278057D01*
X187174095Y-109278057D02*
X187126476Y-109230438D01*
X187126476Y-109230438D02*
X187031238Y-109182819D01*
X187031238Y-109182819D02*
X186840762Y-109182819D01*
X186840762Y-109182819D02*
X186745524Y-109230438D01*
X186745524Y-109230438D02*
X186697905Y-109278057D01*
X186697905Y-109278057D02*
X186650286Y-109373295D01*
X186650286Y-109373295D02*
X186650286Y-109611390D01*
X186650286Y-109611390D02*
X186697905Y-109706628D01*
X186697905Y-109706628D02*
X186745524Y-109754247D01*
X186745524Y-109754247D02*
X186840762Y-109801866D01*
X186840762Y-109801866D02*
X187031238Y-109801866D01*
X187031238Y-109801866D02*
X187126476Y-109754247D01*
X187126476Y-109754247D02*
X187174095Y-109706628D01*
X187174095Y-109706628D02*
X187221714Y-109611390D01*
X185859819Y-42013094D02*
X184859819Y-42013094D01*
X184859819Y-42013094D02*
X184859819Y-41774999D01*
X184859819Y-41774999D02*
X184907438Y-41632142D01*
X184907438Y-41632142D02*
X185002676Y-41536904D01*
X185002676Y-41536904D02*
X185097914Y-41489285D01*
X185097914Y-41489285D02*
X185288390Y-41441666D01*
X185288390Y-41441666D02*
X185431247Y-41441666D01*
X185431247Y-41441666D02*
X185621723Y-41489285D01*
X185621723Y-41489285D02*
X185716961Y-41536904D01*
X185716961Y-41536904D02*
X185812200Y-41632142D01*
X185812200Y-41632142D02*
X185859819Y-41774999D01*
X185859819Y-41774999D02*
X185859819Y-42013094D01*
X185193152Y-40584523D02*
X185859819Y-40584523D01*
X184812200Y-40822618D02*
X185526485Y-41060713D01*
X185526485Y-41060713D02*
X185526485Y-40441666D01*
X186029819Y-45346904D02*
X185029819Y-45346904D01*
X186029819Y-44775476D02*
X185458390Y-45204047D01*
X185029819Y-44775476D02*
X185601247Y-45346904D01*
X190792319Y-100457333D02*
X191506604Y-100457333D01*
X191506604Y-100457333D02*
X191649461Y-100504952D01*
X191649461Y-100504952D02*
X191744700Y-100600190D01*
X191744700Y-100600190D02*
X191792319Y-100743047D01*
X191792319Y-100743047D02*
X191792319Y-100838285D01*
X191792319Y-99933523D02*
X191792319Y-99743047D01*
X191792319Y-99743047D02*
X191744700Y-99647809D01*
X191744700Y-99647809D02*
X191697080Y-99600190D01*
X191697080Y-99600190D02*
X191554223Y-99504952D01*
X191554223Y-99504952D02*
X191363747Y-99457333D01*
X191363747Y-99457333D02*
X190982795Y-99457333D01*
X190982795Y-99457333D02*
X190887557Y-99504952D01*
X190887557Y-99504952D02*
X190839938Y-99552571D01*
X190839938Y-99552571D02*
X190792319Y-99647809D01*
X190792319Y-99647809D02*
X190792319Y-99838285D01*
X190792319Y-99838285D02*
X190839938Y-99933523D01*
X190839938Y-99933523D02*
X190887557Y-99981142D01*
X190887557Y-99981142D02*
X190982795Y-100028761D01*
X190982795Y-100028761D02*
X191220890Y-100028761D01*
X191220890Y-100028761D02*
X191316128Y-99981142D01*
X191316128Y-99981142D02*
X191363747Y-99933523D01*
X191363747Y-99933523D02*
X191411366Y-99838285D01*
X191411366Y-99838285D02*
X191411366Y-99647809D01*
X191411366Y-99647809D02*
X191363747Y-99552571D01*
X191363747Y-99552571D02*
X191316128Y-99504952D01*
X191316128Y-99504952D02*
X191220890Y-99457333D01*
X188555333Y-69193580D02*
X188507714Y-69241200D01*
X188507714Y-69241200D02*
X188364857Y-69288819D01*
X188364857Y-69288819D02*
X188269619Y-69288819D01*
X188269619Y-69288819D02*
X188126762Y-69241200D01*
X188126762Y-69241200D02*
X188031524Y-69145961D01*
X188031524Y-69145961D02*
X187983905Y-69050723D01*
X187983905Y-69050723D02*
X187936286Y-68860247D01*
X187936286Y-68860247D02*
X187936286Y-68717390D01*
X187936286Y-68717390D02*
X187983905Y-68526914D01*
X187983905Y-68526914D02*
X188031524Y-68431676D01*
X188031524Y-68431676D02*
X188126762Y-68336438D01*
X188126762Y-68336438D02*
X188269619Y-68288819D01*
X188269619Y-68288819D02*
X188364857Y-68288819D01*
X188364857Y-68288819D02*
X188507714Y-68336438D01*
X188507714Y-68336438D02*
X188555333Y-68384057D01*
X189412476Y-68288819D02*
X189222000Y-68288819D01*
X189222000Y-68288819D02*
X189126762Y-68336438D01*
X189126762Y-68336438D02*
X189079143Y-68384057D01*
X189079143Y-68384057D02*
X188983905Y-68526914D01*
X188983905Y-68526914D02*
X188936286Y-68717390D01*
X188936286Y-68717390D02*
X188936286Y-69098342D01*
X188936286Y-69098342D02*
X188983905Y-69193580D01*
X188983905Y-69193580D02*
X189031524Y-69241200D01*
X189031524Y-69241200D02*
X189126762Y-69288819D01*
X189126762Y-69288819D02*
X189317238Y-69288819D01*
X189317238Y-69288819D02*
X189412476Y-69241200D01*
X189412476Y-69241200D02*
X189460095Y-69193580D01*
X189460095Y-69193580D02*
X189507714Y-69098342D01*
X189507714Y-69098342D02*
X189507714Y-68860247D01*
X189507714Y-68860247D02*
X189460095Y-68765009D01*
X189460095Y-68765009D02*
X189412476Y-68717390D01*
X189412476Y-68717390D02*
X189317238Y-68669771D01*
X189317238Y-68669771D02*
X189126762Y-68669771D01*
X189126762Y-68669771D02*
X189031524Y-68717390D01*
X189031524Y-68717390D02*
X188983905Y-68765009D01*
X188983905Y-68765009D02*
X188936286Y-68860247D01*
X187646819Y-88082333D02*
X188361104Y-88082333D01*
X188361104Y-88082333D02*
X188503961Y-88129952D01*
X188503961Y-88129952D02*
X188599200Y-88225190D01*
X188599200Y-88225190D02*
X188646819Y-88368047D01*
X188646819Y-88368047D02*
X188646819Y-88463285D01*
X188646819Y-87606142D02*
X187646819Y-87606142D01*
X187646819Y-87606142D02*
X187646819Y-87225190D01*
X187646819Y-87225190D02*
X187694438Y-87129952D01*
X187694438Y-87129952D02*
X187742057Y-87082333D01*
X187742057Y-87082333D02*
X187837295Y-87034714D01*
X187837295Y-87034714D02*
X187980152Y-87034714D01*
X187980152Y-87034714D02*
X188075390Y-87082333D01*
X188075390Y-87082333D02*
X188123009Y-87129952D01*
X188123009Y-87129952D02*
X188170628Y-87225190D01*
X188170628Y-87225190D02*
X188170628Y-87606142D01*
X188646819Y-86082333D02*
X188646819Y-86653761D01*
X188646819Y-86368047D02*
X187646819Y-86368047D01*
X187646819Y-86368047D02*
X187789676Y-86463285D01*
X187789676Y-86463285D02*
X187884914Y-86558523D01*
X187884914Y-86558523D02*
X187932533Y-86653761D01*
X193810095Y-70320819D02*
X194381523Y-70320819D01*
X194095809Y-71320819D02*
X194095809Y-70320819D01*
X194714857Y-71320819D02*
X194714857Y-70320819D01*
X194714857Y-70320819D02*
X195095809Y-70320819D01*
X195095809Y-70320819D02*
X195191047Y-70368438D01*
X195191047Y-70368438D02*
X195238666Y-70416057D01*
X195238666Y-70416057D02*
X195286285Y-70511295D01*
X195286285Y-70511295D02*
X195286285Y-70654152D01*
X195286285Y-70654152D02*
X195238666Y-70749390D01*
X195238666Y-70749390D02*
X195191047Y-70797009D01*
X195191047Y-70797009D02*
X195095809Y-70844628D01*
X195095809Y-70844628D02*
X194714857Y-70844628D01*
X196191047Y-70320819D02*
X195714857Y-70320819D01*
X195714857Y-70320819D02*
X195667238Y-70797009D01*
X195667238Y-70797009D02*
X195714857Y-70749390D01*
X195714857Y-70749390D02*
X195810095Y-70701771D01*
X195810095Y-70701771D02*
X196048190Y-70701771D01*
X196048190Y-70701771D02*
X196143428Y-70749390D01*
X196143428Y-70749390D02*
X196191047Y-70797009D01*
X196191047Y-70797009D02*
X196238666Y-70892247D01*
X196238666Y-70892247D02*
X196238666Y-71130342D01*
X196238666Y-71130342D02*
X196191047Y-71225580D01*
X196191047Y-71225580D02*
X196143428Y-71273200D01*
X196143428Y-71273200D02*
X196048190Y-71320819D01*
X196048190Y-71320819D02*
X195810095Y-71320819D01*
X195810095Y-71320819D02*
X195714857Y-71273200D01*
X195714857Y-71273200D02*
X195667238Y-71225580D01*
X182572819Y-100845857D02*
X182096628Y-101179190D01*
X182572819Y-101417285D02*
X181572819Y-101417285D01*
X181572819Y-101417285D02*
X181572819Y-101036333D01*
X181572819Y-101036333D02*
X181620438Y-100941095D01*
X181620438Y-100941095D02*
X181668057Y-100893476D01*
X181668057Y-100893476D02*
X181763295Y-100845857D01*
X181763295Y-100845857D02*
X181906152Y-100845857D01*
X181906152Y-100845857D02*
X182001390Y-100893476D01*
X182001390Y-100893476D02*
X182049009Y-100941095D01*
X182049009Y-100941095D02*
X182096628Y-101036333D01*
X182096628Y-101036333D02*
X182096628Y-101417285D01*
X182572819Y-99893476D02*
X182572819Y-100464904D01*
X182572819Y-100179190D02*
X181572819Y-100179190D01*
X181572819Y-100179190D02*
X181715676Y-100274428D01*
X181715676Y-100274428D02*
X181810914Y-100369666D01*
X181810914Y-100369666D02*
X181858533Y-100464904D01*
X181668057Y-99512523D02*
X181620438Y-99464904D01*
X181620438Y-99464904D02*
X181572819Y-99369666D01*
X181572819Y-99369666D02*
X181572819Y-99131571D01*
X181572819Y-99131571D02*
X181620438Y-99036333D01*
X181620438Y-99036333D02*
X181668057Y-98988714D01*
X181668057Y-98988714D02*
X181763295Y-98941095D01*
X181763295Y-98941095D02*
X181858533Y-98941095D01*
X181858533Y-98941095D02*
X182001390Y-98988714D01*
X182001390Y-98988714D02*
X182572819Y-99560142D01*
X182572819Y-99560142D02*
X182572819Y-98941095D01*
X189634536Y-101166626D02*
X189634536Y-101880911D01*
X189634536Y-101880911D02*
X189586917Y-102023768D01*
X189586917Y-102023768D02*
X189491679Y-102119007D01*
X189491679Y-102119007D02*
X189348822Y-102166626D01*
X189348822Y-102166626D02*
X189253584Y-102166626D01*
X190253584Y-101595197D02*
X190158346Y-101547578D01*
X190158346Y-101547578D02*
X190110727Y-101499959D01*
X190110727Y-101499959D02*
X190063108Y-101404721D01*
X190063108Y-101404721D02*
X190063108Y-101357102D01*
X190063108Y-101357102D02*
X190110727Y-101261864D01*
X190110727Y-101261864D02*
X190158346Y-101214245D01*
X190158346Y-101214245D02*
X190253584Y-101166626D01*
X190253584Y-101166626D02*
X190444060Y-101166626D01*
X190444060Y-101166626D02*
X190539298Y-101214245D01*
X190539298Y-101214245D02*
X190586917Y-101261864D01*
X190586917Y-101261864D02*
X190634536Y-101357102D01*
X190634536Y-101357102D02*
X190634536Y-101404721D01*
X190634536Y-101404721D02*
X190586917Y-101499959D01*
X190586917Y-101499959D02*
X190539298Y-101547578D01*
X190539298Y-101547578D02*
X190444060Y-101595197D01*
X190444060Y-101595197D02*
X190253584Y-101595197D01*
X190253584Y-101595197D02*
X190158346Y-101642816D01*
X190158346Y-101642816D02*
X190110727Y-101690435D01*
X190110727Y-101690435D02*
X190063108Y-101785673D01*
X190063108Y-101785673D02*
X190063108Y-101976149D01*
X190063108Y-101976149D02*
X190110727Y-102071387D01*
X190110727Y-102071387D02*
X190158346Y-102119007D01*
X190158346Y-102119007D02*
X190253584Y-102166626D01*
X190253584Y-102166626D02*
X190444060Y-102166626D01*
X190444060Y-102166626D02*
X190539298Y-102119007D01*
X190539298Y-102119007D02*
X190586917Y-102071387D01*
X190586917Y-102071387D02*
X190634536Y-101976149D01*
X190634536Y-101976149D02*
X190634536Y-101785673D01*
X190634536Y-101785673D02*
X190586917Y-101690435D01*
X190586917Y-101690435D02*
X190539298Y-101642816D01*
X190539298Y-101642816D02*
X190444060Y-101595197D01*
X155394819Y-93860857D02*
X154918628Y-94194190D01*
X155394819Y-94432285D02*
X154394819Y-94432285D01*
X154394819Y-94432285D02*
X154394819Y-94051333D01*
X154394819Y-94051333D02*
X154442438Y-93956095D01*
X154442438Y-93956095D02*
X154490057Y-93908476D01*
X154490057Y-93908476D02*
X154585295Y-93860857D01*
X154585295Y-93860857D02*
X154728152Y-93860857D01*
X154728152Y-93860857D02*
X154823390Y-93908476D01*
X154823390Y-93908476D02*
X154871009Y-93956095D01*
X154871009Y-93956095D02*
X154918628Y-94051333D01*
X154918628Y-94051333D02*
X154918628Y-94432285D01*
X155394819Y-92908476D02*
X155394819Y-93479904D01*
X155394819Y-93194190D02*
X154394819Y-93194190D01*
X154394819Y-93194190D02*
X154537676Y-93289428D01*
X154537676Y-93289428D02*
X154632914Y-93384666D01*
X154632914Y-93384666D02*
X154680533Y-93479904D01*
X154394819Y-92003714D02*
X154394819Y-92479904D01*
X154394819Y-92479904D02*
X154871009Y-92527523D01*
X154871009Y-92527523D02*
X154823390Y-92479904D01*
X154823390Y-92479904D02*
X154775771Y-92384666D01*
X154775771Y-92384666D02*
X154775771Y-92146571D01*
X154775771Y-92146571D02*
X154823390Y-92051333D01*
X154823390Y-92051333D02*
X154871009Y-92003714D01*
X154871009Y-92003714D02*
X154966247Y-91956095D01*
X154966247Y-91956095D02*
X155204342Y-91956095D01*
X155204342Y-91956095D02*
X155299580Y-92003714D01*
X155299580Y-92003714D02*
X155347200Y-92051333D01*
X155347200Y-92051333D02*
X155394819Y-92146571D01*
X155394819Y-92146571D02*
X155394819Y-92384666D01*
X155394819Y-92384666D02*
X155347200Y-92479904D01*
X155347200Y-92479904D02*
X155299580Y-92527523D01*
X193088078Y-78005761D02*
X193659506Y-78005761D01*
X193373792Y-79005761D02*
X193373792Y-78005761D01*
X193992840Y-79005761D02*
X193992840Y-78005761D01*
X193992840Y-78005761D02*
X194373792Y-78005761D01*
X194373792Y-78005761D02*
X194469030Y-78053380D01*
X194469030Y-78053380D02*
X194516649Y-78100999D01*
X194516649Y-78100999D02*
X194564268Y-78196237D01*
X194564268Y-78196237D02*
X194564268Y-78339094D01*
X194564268Y-78339094D02*
X194516649Y-78434332D01*
X194516649Y-78434332D02*
X194469030Y-78481951D01*
X194469030Y-78481951D02*
X194373792Y-78529570D01*
X194373792Y-78529570D02*
X193992840Y-78529570D01*
X195040459Y-79005761D02*
X195230935Y-79005761D01*
X195230935Y-79005761D02*
X195326173Y-78958142D01*
X195326173Y-78958142D02*
X195373792Y-78910522D01*
X195373792Y-78910522D02*
X195469030Y-78767665D01*
X195469030Y-78767665D02*
X195516649Y-78577189D01*
X195516649Y-78577189D02*
X195516649Y-78196237D01*
X195516649Y-78196237D02*
X195469030Y-78100999D01*
X195469030Y-78100999D02*
X195421411Y-78053380D01*
X195421411Y-78053380D02*
X195326173Y-78005761D01*
X195326173Y-78005761D02*
X195135697Y-78005761D01*
X195135697Y-78005761D02*
X195040459Y-78053380D01*
X195040459Y-78053380D02*
X194992840Y-78100999D01*
X194992840Y-78100999D02*
X194945221Y-78196237D01*
X194945221Y-78196237D02*
X194945221Y-78434332D01*
X194945221Y-78434332D02*
X194992840Y-78529570D01*
X194992840Y-78529570D02*
X195040459Y-78577189D01*
X195040459Y-78577189D02*
X195135697Y-78624808D01*
X195135697Y-78624808D02*
X195326173Y-78624808D01*
X195326173Y-78624808D02*
X195421411Y-78577189D01*
X195421411Y-78577189D02*
X195469030Y-78529570D01*
X195469030Y-78529570D02*
X195516649Y-78434332D01*
X186220057Y-33115238D02*
X186172438Y-33210476D01*
X186172438Y-33210476D02*
X186077200Y-33305714D01*
X186077200Y-33305714D02*
X185934342Y-33448571D01*
X185934342Y-33448571D02*
X185886723Y-33543809D01*
X185886723Y-33543809D02*
X185886723Y-33639047D01*
X186124819Y-33591428D02*
X186077200Y-33686666D01*
X186077200Y-33686666D02*
X185981961Y-33781904D01*
X185981961Y-33781904D02*
X185791485Y-33829523D01*
X185791485Y-33829523D02*
X185458152Y-33829523D01*
X185458152Y-33829523D02*
X185267676Y-33781904D01*
X185267676Y-33781904D02*
X185172438Y-33686666D01*
X185172438Y-33686666D02*
X185124819Y-33591428D01*
X185124819Y-33591428D02*
X185124819Y-33400952D01*
X185124819Y-33400952D02*
X185172438Y-33305714D01*
X185172438Y-33305714D02*
X185267676Y-33210476D01*
X185267676Y-33210476D02*
X185458152Y-33162857D01*
X185458152Y-33162857D02*
X185791485Y-33162857D01*
X185791485Y-33162857D02*
X185981961Y-33210476D01*
X185981961Y-33210476D02*
X186077200Y-33305714D01*
X186077200Y-33305714D02*
X186124819Y-33400952D01*
X186124819Y-33400952D02*
X186124819Y-33591428D01*
X186124819Y-32210476D02*
X186124819Y-32781904D01*
X186124819Y-32496190D02*
X185124819Y-32496190D01*
X185124819Y-32496190D02*
X185267676Y-32591428D01*
X185267676Y-32591428D02*
X185362914Y-32686666D01*
X185362914Y-32686666D02*
X185410533Y-32781904D01*
X177125333Y-44142819D02*
X176792000Y-43666628D01*
X176553905Y-44142819D02*
X176553905Y-43142819D01*
X176553905Y-43142819D02*
X176934857Y-43142819D01*
X176934857Y-43142819D02*
X177030095Y-43190438D01*
X177030095Y-43190438D02*
X177077714Y-43238057D01*
X177077714Y-43238057D02*
X177125333Y-43333295D01*
X177125333Y-43333295D02*
X177125333Y-43476152D01*
X177125333Y-43476152D02*
X177077714Y-43571390D01*
X177077714Y-43571390D02*
X177030095Y-43619009D01*
X177030095Y-43619009D02*
X176934857Y-43666628D01*
X176934857Y-43666628D02*
X176553905Y-43666628D01*
X177982476Y-43142819D02*
X177792000Y-43142819D01*
X177792000Y-43142819D02*
X177696762Y-43190438D01*
X177696762Y-43190438D02*
X177649143Y-43238057D01*
X177649143Y-43238057D02*
X177553905Y-43380914D01*
X177553905Y-43380914D02*
X177506286Y-43571390D01*
X177506286Y-43571390D02*
X177506286Y-43952342D01*
X177506286Y-43952342D02*
X177553905Y-44047580D01*
X177553905Y-44047580D02*
X177601524Y-44095200D01*
X177601524Y-44095200D02*
X177696762Y-44142819D01*
X177696762Y-44142819D02*
X177887238Y-44142819D01*
X177887238Y-44142819D02*
X177982476Y-44095200D01*
X177982476Y-44095200D02*
X178030095Y-44047580D01*
X178030095Y-44047580D02*
X178077714Y-43952342D01*
X178077714Y-43952342D02*
X178077714Y-43714247D01*
X178077714Y-43714247D02*
X178030095Y-43619009D01*
X178030095Y-43619009D02*
X177982476Y-43571390D01*
X177982476Y-43571390D02*
X177887238Y-43523771D01*
X177887238Y-43523771D02*
X177696762Y-43523771D01*
X177696762Y-43523771D02*
X177601524Y-43571390D01*
X177601524Y-43571390D02*
X177553905Y-43619009D01*
X177553905Y-43619009D02*
X177506286Y-43714247D01*
X178062095Y-34760819D02*
X178633523Y-34760819D01*
X178347809Y-35760819D02*
X178347809Y-34760819D01*
X178966857Y-35760819D02*
X178966857Y-34760819D01*
X178966857Y-34760819D02*
X179347809Y-34760819D01*
X179347809Y-34760819D02*
X179443047Y-34808438D01*
X179443047Y-34808438D02*
X179490666Y-34856057D01*
X179490666Y-34856057D02*
X179538285Y-34951295D01*
X179538285Y-34951295D02*
X179538285Y-35094152D01*
X179538285Y-35094152D02*
X179490666Y-35189390D01*
X179490666Y-35189390D02*
X179443047Y-35237009D01*
X179443047Y-35237009D02*
X179347809Y-35284628D01*
X179347809Y-35284628D02*
X178966857Y-35284628D01*
X179919238Y-34856057D02*
X179966857Y-34808438D01*
X179966857Y-34808438D02*
X180062095Y-34760819D01*
X180062095Y-34760819D02*
X180300190Y-34760819D01*
X180300190Y-34760819D02*
X180395428Y-34808438D01*
X180395428Y-34808438D02*
X180443047Y-34856057D01*
X180443047Y-34856057D02*
X180490666Y-34951295D01*
X180490666Y-34951295D02*
X180490666Y-35046533D01*
X180490666Y-35046533D02*
X180443047Y-35189390D01*
X180443047Y-35189390D02*
X179871619Y-35760819D01*
X179871619Y-35760819D02*
X180490666Y-35760819D01*
D13*
%TO.C,Q3*%
X187392000Y-82169000D02*
G75*
G02*
X191830478Y-80330522I2600000J0D01*
G01*
X191830478Y-84007478D02*
G75*
G02*
X187391999Y-82169000I-1838478J1838478D01*
G01*
X191842000Y-83969000D02*
X191842000Y-80369000D01*
%TO.C,C8*%
X193082000Y-111415000D02*
X193082000Y-111660000D01*
X193082000Y-109320000D02*
X193082000Y-109565000D01*
X189442000Y-111660000D02*
X193082000Y-111660000D01*
X189442000Y-111415000D02*
X189442000Y-111660000D01*
X189442000Y-109320000D02*
X193082000Y-109320000D01*
X189442000Y-109320000D02*
X189442000Y-109565000D01*
%TO.C,R2*%
X171804000Y-83280000D02*
X171804000Y-76740000D01*
X171804000Y-76740000D02*
X169064000Y-76740000D01*
X170434000Y-84050000D02*
X170434000Y-83280000D01*
X170434000Y-75970000D02*
X170434000Y-76740000D01*
X169064000Y-83280000D02*
X171804000Y-83280000D01*
X169064000Y-76740000D02*
X169064000Y-83280000D01*
D12*
%TO.C,TP1*%
X197480000Y-49995000D02*
X193680000Y-49995000D01*
X197480000Y-47795000D02*
X197480000Y-49995000D01*
X193680000Y-49995000D02*
X193680000Y-47795000D01*
X193680000Y-47795000D02*
X197480000Y-47795000D01*
%TO.C,TP7*%
X181478000Y-94191000D02*
X177678000Y-94191000D01*
X181478000Y-91991000D02*
X181478000Y-94191000D01*
X177678000Y-94191000D02*
X177678000Y-91991000D01*
X177678000Y-91991000D02*
X181478000Y-91991000D01*
D13*
%TO.C,R7*%
X191365000Y-54610000D02*
X190595000Y-54610000D01*
X190595000Y-55980000D02*
X190595000Y-53240000D01*
X190595000Y-53240000D02*
X184055000Y-53240000D01*
X184055000Y-55980000D02*
X190595000Y-55980000D01*
X184055000Y-53240000D02*
X184055000Y-55980000D01*
X183285000Y-54610000D02*
X184055000Y-54610000D01*
%TO.C,J1*%
X192116000Y-38608000D02*
X191616000Y-38358000D01*
X191616000Y-38858000D02*
X192116000Y-38608000D01*
X191616000Y-38358000D02*
X191616000Y-38858000D01*
%TO.C,U4*%
X186812500Y-61670000D02*
X186572500Y-61340000D01*
X187052500Y-61340000D01*
X186812500Y-61670000D01*
G36*
X186812500Y-61670000D02*
G01*
X186572500Y-61340000D01*
X187052500Y-61340000D01*
X186812500Y-61670000D01*
G37*
X188112500Y-64740000D02*
X188912500Y-64740000D01*
X188112500Y-64740000D02*
X187312500Y-64740000D01*
X188112500Y-61620000D02*
X188912500Y-61620000D01*
X188112500Y-61620000D02*
X187312500Y-61620000D01*
%TO.C,U1*%
X167925000Y-60890000D02*
X167245000Y-60890000D01*
X167585000Y-60420000D01*
X167925000Y-60890000D01*
G36*
X167925000Y-60890000D02*
G01*
X167245000Y-60890000D01*
X167585000Y-60420000D01*
X167925000Y-60890000D01*
G37*
D12*
X166820000Y-60705000D02*
X166820000Y-60480000D01*
X166820000Y-60705000D02*
X166495000Y-60705000D01*
X166820000Y-53455000D02*
X166820000Y-53780000D01*
X166820000Y-53455000D02*
X166495000Y-53455000D01*
X159570000Y-60705000D02*
X159895000Y-60705000D01*
X159570000Y-60705000D02*
X159570000Y-60380000D01*
X159570000Y-53455000D02*
X159895000Y-53455000D01*
X159570000Y-53455000D02*
X159570000Y-53780000D01*
D13*
%TO.C,C9*%
X182180000Y-87920000D02*
X182180000Y-88165000D01*
X182180000Y-85825000D02*
X182180000Y-86070000D01*
X178540000Y-88165000D02*
X182180000Y-88165000D01*
X178540000Y-87920000D02*
X178540000Y-88165000D01*
X178540000Y-85825000D02*
X182180000Y-85825000D01*
X178540000Y-85825000D02*
X178540000Y-86070000D01*
%TO.C,R10*%
X183364000Y-112776000D02*
X182594000Y-112776000D01*
X182594000Y-114146000D02*
X182594000Y-111406000D01*
X182594000Y-111406000D02*
X176054000Y-111406000D01*
X176054000Y-114146000D02*
X182594000Y-114146000D01*
X176054000Y-111406000D02*
X176054000Y-114146000D01*
X175284000Y-112776000D02*
X176054000Y-112776000D01*
%TO.C,C4*%
X171350000Y-106575000D02*
X171105000Y-106575000D01*
X171350000Y-102935000D02*
X171350000Y-106575000D01*
X171350000Y-102935000D02*
X171105000Y-102935000D01*
X169255000Y-106575000D02*
X169010000Y-106575000D01*
X169255000Y-102935000D02*
X169010000Y-102935000D01*
X169010000Y-102935000D02*
X169010000Y-106575000D01*
%TO.C,R14*%
X165838000Y-96520000D02*
X165068000Y-96520000D01*
X165068000Y-97890000D02*
X165068000Y-95150000D01*
X165068000Y-95150000D02*
X158528000Y-95150000D01*
X158528000Y-97890000D02*
X165068000Y-97890000D01*
X158528000Y-95150000D02*
X158528000Y-97890000D01*
X157758000Y-96520000D02*
X158528000Y-96520000D01*
%TO.C,C1*%
X174779000Y-85513000D02*
X174779000Y-81873000D01*
X174534000Y-85513000D02*
X174779000Y-85513000D01*
X174534000Y-81873000D02*
X174779000Y-81873000D01*
X172439000Y-85513000D02*
X172684000Y-85513000D01*
X172439000Y-85513000D02*
X172439000Y-81873000D01*
X172439000Y-81873000D02*
X172684000Y-81873000D01*
%TO.C,Q5*%
X161330000Y-76395000D02*
X161000000Y-76155000D01*
X161330000Y-75915000D01*
X161330000Y-76395000D01*
G36*
X161330000Y-76395000D02*
G01*
X161000000Y-76155000D01*
X161330000Y-75915000D01*
X161330000Y-76395000D01*
G37*
X161310000Y-83995000D02*
X161310000Y-77575000D01*
X161310000Y-77575000D02*
X161040000Y-77575000D01*
X154410000Y-83995000D02*
X154410000Y-77575000D01*
X154410000Y-77575000D02*
X154680000Y-77575000D01*
%TO.C,C5*%
X190435000Y-60615000D02*
X190435000Y-60860000D01*
X190435000Y-58520000D02*
X190435000Y-58765000D01*
X186795000Y-60860000D02*
X190435000Y-60860000D01*
X186795000Y-60615000D02*
X186795000Y-60860000D01*
X186795000Y-58520000D02*
X190435000Y-58520000D01*
X186795000Y-58520000D02*
X186795000Y-58765000D01*
D12*
%TO.C,TP8*%
X166238000Y-73490000D02*
X162438000Y-73490000D01*
X166238000Y-71290000D02*
X166238000Y-73490000D01*
X162438000Y-73490000D02*
X162438000Y-71290000D01*
X162438000Y-71290000D02*
X166238000Y-71290000D01*
%TO.C,TP3*%
X158745000Y-88095000D02*
X154945000Y-88095000D01*
X158745000Y-85895000D02*
X158745000Y-88095000D01*
X154945000Y-88095000D02*
X154945000Y-85895000D01*
X154945000Y-85895000D02*
X158745000Y-85895000D01*
D13*
%TO.C,D1*%
X179995000Y-55845516D02*
G75*
G02*
X176762665Y-55688608I-1560000J1235516D01*
G01*
X179475961Y-55690000D02*
G75*
G02*
X177393870Y-55689837I-1040961J1080000D01*
G01*
X177393870Y-53530163D02*
G75*
G02*
X179475961Y-53530000I1041130J-1079837D01*
G01*
X176762665Y-53531392D02*
G75*
G02*
X179995000Y-53374484I1672335J-1078608D01*
G01*
X179995000Y-55846000D02*
X179995000Y-55690000D01*
X179995000Y-53530000D02*
X179995000Y-53374000D01*
%TO.C,L1*%
X193712000Y-93623000D02*
G75*
G02*
X186272000Y-93623000I-3720000J0D01*
G01*
X186272000Y-93623000D02*
G75*
G02*
X193712000Y-93623000I3720000J0D01*
G01*
%TO.C,R5*%
X165838000Y-109728000D02*
X165068000Y-109728000D01*
X165068000Y-111098000D02*
X165068000Y-108358000D01*
X165068000Y-108358000D02*
X158528000Y-108358000D01*
X158528000Y-111098000D02*
X165068000Y-111098000D01*
X158528000Y-108358000D02*
X158528000Y-111098000D01*
X157758000Y-109728000D02*
X158528000Y-109728000D01*
%TO.C,C15*%
X167448000Y-103922000D02*
X167448000Y-104167000D01*
X167448000Y-101827000D02*
X167448000Y-102072000D01*
X163808000Y-104167000D02*
X167448000Y-104167000D01*
X163808000Y-103922000D02*
X163808000Y-104167000D01*
X163808000Y-101827000D02*
X167448000Y-101827000D01*
X163808000Y-101827000D02*
X163808000Y-102072000D01*
%TO.C,C7*%
X175830000Y-38390000D02*
X175830000Y-38635000D01*
X175830000Y-36295000D02*
X175830000Y-36540000D01*
X172190000Y-38635000D02*
X175830000Y-38635000D01*
X172190000Y-38390000D02*
X172190000Y-38635000D01*
X172190000Y-36295000D02*
X175830000Y-36295000D01*
X172190000Y-36295000D02*
X172190000Y-36540000D01*
%TO.C,C10*%
X172401000Y-110526000D02*
X172401000Y-110771000D01*
X172401000Y-108431000D02*
X172401000Y-108676000D01*
X168761000Y-110771000D02*
X172401000Y-110771000D01*
X168761000Y-110526000D02*
X168761000Y-110771000D01*
X168761000Y-108431000D02*
X172401000Y-108431000D01*
X168761000Y-108431000D02*
X168761000Y-108676000D01*
%TO.C,U5*%
X177155866Y-79990122D02*
X176915866Y-79660122D01*
X177395866Y-79660122D01*
X177155866Y-79990122D01*
G36*
X177155866Y-79990122D02*
G01*
X176915866Y-79660122D01*
X177395866Y-79660122D01*
X177155866Y-79990122D01*
G37*
D12*
X183205866Y-85245122D02*
X183205866Y-85040122D01*
X183205866Y-79735122D02*
X183205866Y-79940122D01*
X177705866Y-85245122D02*
X183205866Y-85245122D01*
X177705866Y-85245122D02*
X177705866Y-85040122D01*
X177705866Y-79735122D02*
X183205866Y-79735122D01*
X177705866Y-79735122D02*
X177705866Y-79940122D01*
D13*
%TO.C,R1*%
X188825000Y-77470000D02*
X188055000Y-77470000D01*
X188055000Y-78840000D02*
X188055000Y-76100000D01*
X188055000Y-76100000D02*
X181515000Y-76100000D01*
X181515000Y-78840000D02*
X188055000Y-78840000D01*
X181515000Y-76100000D02*
X181515000Y-78840000D01*
X180745000Y-77470000D02*
X181515000Y-77470000D01*
%TO.C,J3*%
X196910000Y-53970000D02*
X196910000Y-56570000D01*
X194250000Y-56570000D02*
X196910000Y-56570000D01*
X194250000Y-53970000D02*
X196910000Y-53970000D01*
X194250000Y-53970000D02*
X194250000Y-56570000D01*
X194250000Y-52700000D02*
X194250000Y-51370000D01*
X194250000Y-51370000D02*
X195580000Y-51370000D01*
%TO.C,C16*%
X172528000Y-94143000D02*
X172528000Y-94388000D01*
X172528000Y-92048000D02*
X172528000Y-92293000D01*
X168888000Y-94388000D02*
X172528000Y-94388000D01*
X168888000Y-94143000D02*
X168888000Y-94388000D01*
X168888000Y-92048000D02*
X172528000Y-92048000D01*
X168888000Y-92048000D02*
X168888000Y-92293000D01*
%TO.C,C13*%
X187514000Y-105183000D02*
X187514000Y-104938000D01*
X187514000Y-105183000D02*
X183874000Y-105183000D01*
X187514000Y-103088000D02*
X187514000Y-102843000D01*
X187514000Y-102843000D02*
X183874000Y-102843000D01*
X183874000Y-105183000D02*
X183874000Y-104938000D01*
X183874000Y-103088000D02*
X183874000Y-102843000D01*
%TO.C,SW1*%
X197125000Y-66620000D02*
X193425000Y-66620000D01*
X197125000Y-65740000D02*
X197125000Y-66620000D01*
X197125000Y-63240000D02*
X197125000Y-63800000D01*
X197125000Y-60750000D02*
X197125000Y-61300000D01*
X197125000Y-57920000D02*
X197125000Y-58790000D01*
X194125000Y-66920000D02*
X193125000Y-66920000D01*
X193425000Y-66620000D02*
X193425000Y-65770000D01*
X193425000Y-63770000D02*
X193425000Y-63240000D01*
X193425000Y-61300000D02*
X193425000Y-60740000D01*
X193425000Y-58800000D02*
X193425000Y-57920000D01*
X193425000Y-57920000D02*
X197125000Y-57920000D01*
X193125000Y-66920000D02*
X193125000Y-65920000D01*
%TO.C,C14*%
X159935000Y-104167000D02*
X159935000Y-103922000D01*
X159935000Y-104167000D02*
X156295000Y-104167000D01*
X159935000Y-102072000D02*
X159935000Y-101827000D01*
X159935000Y-101827000D02*
X156295000Y-101827000D01*
X156295000Y-104167000D02*
X156295000Y-103922000D01*
X156295000Y-102072000D02*
X156295000Y-101827000D01*
%TO.C,Y1*%
X160470000Y-63555000D02*
G75*
G02*
X160470000Y-67255000I0J-1850000D01*
G01*
X155770000Y-67255000D02*
G75*
G02*
X155770000Y-63555000I0J1850000D01*
G01*
X160470000Y-67255000D02*
X155770000Y-67255000D01*
X160470000Y-63555000D02*
X155770000Y-63555000D01*
%TO.C,U2*%
X180705000Y-107605000D02*
X180225000Y-107605000D01*
X180465000Y-107275000D01*
X180705000Y-107605000D01*
G36*
X180705000Y-107605000D02*
G01*
X180225000Y-107605000D01*
X180465000Y-107275000D01*
X180705000Y-107605000D01*
G37*
D12*
X179915000Y-107530000D02*
X179915000Y-107325000D01*
X179915000Y-107530000D02*
X174415000Y-107530000D01*
X179915000Y-102020000D02*
X179915000Y-102225000D01*
X179915000Y-102020000D02*
X174415000Y-102020000D01*
X174415000Y-107530000D02*
X174415000Y-107325000D01*
X174415000Y-102020000D02*
X174415000Y-102225000D01*
D13*
%TO.C,C11*%
X159574000Y-91340000D02*
X159574000Y-91095000D01*
X159574000Y-91340000D02*
X155934000Y-91340000D01*
X159574000Y-89245000D02*
X159574000Y-89000000D01*
X159574000Y-89000000D02*
X155934000Y-89000000D01*
X155934000Y-91340000D02*
X155934000Y-91095000D01*
X155934000Y-89245000D02*
X155934000Y-89000000D01*
%TO.C,Q4*%
X175828478Y-34858478D02*
G75*
G02*
X171389999Y-33020000I-1838478J1838478D01*
G01*
X171390000Y-33020000D02*
G75*
G02*
X175828478Y-31181522I2600000J0D01*
G01*
X175840000Y-34820000D02*
X175840000Y-31220000D01*
%TO.C,C2*%
X168556000Y-85406000D02*
X168556000Y-81766000D01*
X168311000Y-85406000D02*
X168556000Y-85406000D01*
X168311000Y-81766000D02*
X168556000Y-81766000D01*
X166216000Y-85406000D02*
X166461000Y-85406000D01*
X166216000Y-85406000D02*
X166216000Y-81766000D01*
X166216000Y-81766000D02*
X166461000Y-81766000D01*
%TO.C,R16*%
X178665000Y-96520000D02*
X177895000Y-96520000D01*
X177895000Y-97890000D02*
X177895000Y-95150000D01*
X177895000Y-95150000D02*
X171355000Y-95150000D01*
X171355000Y-97890000D02*
X177895000Y-97890000D01*
X171355000Y-95150000D02*
X171355000Y-97890000D01*
X170585000Y-96520000D02*
X171355000Y-96520000D01*
%TO.C,J7*%
X169332500Y-42900000D02*
X169332500Y-40220000D01*
X169332500Y-37920000D02*
X169332500Y-34250000D01*
X169332500Y-31950000D02*
X169332500Y-30720000D01*
X169332500Y-30720000D02*
X159512500Y-30720000D01*
X168612500Y-42900000D02*
X169332500Y-42900000D01*
X164912500Y-42900000D02*
X167212500Y-42900000D01*
X159062500Y-42900000D02*
X163512500Y-42900000D01*
X157692500Y-41420000D02*
X157692500Y-40560000D01*
D12*
%TO.C,TP6*%
X187320000Y-101557000D02*
X183520000Y-101557000D01*
X187320000Y-99357000D02*
X187320000Y-101557000D01*
X183520000Y-101557000D02*
X183520000Y-99357000D01*
X183520000Y-99357000D02*
X187320000Y-99357000D01*
D13*
%TO.C,J2*%
X191576000Y-40640000D02*
X191576000Y-43240000D01*
X188916000Y-43240000D02*
X191576000Y-43240000D01*
X188916000Y-40640000D02*
X191576000Y-40640000D01*
X188916000Y-40640000D02*
X188916000Y-43240000D01*
X188916000Y-39370000D02*
X188916000Y-38040000D01*
X188916000Y-38040000D02*
X190246000Y-38040000D01*
%TO.C,R3*%
X165708000Y-83280000D02*
X165708000Y-76740000D01*
X165708000Y-76740000D02*
X162968000Y-76740000D01*
X164338000Y-84050000D02*
X164338000Y-83280000D01*
X164338000Y-75970000D02*
X164338000Y-76740000D01*
X162968000Y-83280000D02*
X165708000Y-83280000D01*
X162968000Y-76740000D02*
X162968000Y-83280000D01*
%TO.C,J5*%
X165429000Y-49590000D02*
X165429000Y-46930000D01*
X160289000Y-49590000D02*
X165429000Y-49590000D01*
X160289000Y-49590000D02*
X160289000Y-46930000D01*
X160289000Y-46930000D02*
X165429000Y-46930000D01*
X159019000Y-49590000D02*
X157689000Y-49590000D01*
X157689000Y-49590000D02*
X157689000Y-48260000D01*
D12*
%TO.C,TP4*%
X185415000Y-38565000D02*
X181615000Y-38565000D01*
X185415000Y-36365000D02*
X185415000Y-38565000D01*
X181615000Y-38565000D02*
X181615000Y-36365000D01*
X181615000Y-36365000D02*
X185415000Y-36365000D01*
D13*
%TO.C,C3*%
X192975000Y-46645000D02*
X192975000Y-46890000D01*
X192975000Y-44550000D02*
X192975000Y-44795000D01*
X189335000Y-46890000D02*
X192975000Y-46890000D01*
X189335000Y-46645000D02*
X189335000Y-46890000D01*
X189335000Y-44550000D02*
X192975000Y-44550000D01*
X189335000Y-44550000D02*
X189335000Y-44795000D01*
%TO.C,R8*%
X165838000Y-106299000D02*
X165068000Y-106299000D01*
X165068000Y-107669000D02*
X165068000Y-104929000D01*
X165068000Y-104929000D02*
X158528000Y-104929000D01*
X158528000Y-107669000D02*
X165068000Y-107669000D01*
X158528000Y-104929000D02*
X158528000Y-107669000D01*
X157758000Y-106299000D02*
X158528000Y-106299000D01*
%TO.C,R13*%
X165838000Y-99949000D02*
X165068000Y-99949000D01*
X165068000Y-101319000D02*
X165068000Y-98579000D01*
X165068000Y-98579000D02*
X158528000Y-98579000D01*
X158528000Y-101319000D02*
X165068000Y-101319000D01*
X158528000Y-98579000D02*
X158528000Y-101319000D01*
X157758000Y-99949000D02*
X158528000Y-99949000D01*
%TO.C,R9*%
X183364000Y-109728000D02*
X182594000Y-109728000D01*
X182594000Y-111098000D02*
X182594000Y-108358000D01*
X182594000Y-108358000D02*
X176054000Y-108358000D01*
X176054000Y-111098000D02*
X182594000Y-111098000D01*
X176054000Y-108358000D02*
X176054000Y-111098000D01*
X175284000Y-109728000D02*
X176054000Y-109728000D01*
%TO.C,D4*%
X188245000Y-42915000D02*
X188245000Y-39635000D01*
X188245000Y-39635000D02*
X186405000Y-39635000D01*
X187325000Y-44095000D02*
X187325000Y-42915000D01*
X187325000Y-38455000D02*
X187325000Y-39635000D01*
X186405000Y-42915000D02*
X188245000Y-42915000D01*
X186405000Y-42459000D02*
X188245000Y-42459000D01*
X186405000Y-42339000D02*
X188245000Y-42339000D01*
X186405000Y-42219000D02*
X188245000Y-42219000D01*
X186405000Y-39635000D02*
X186405000Y-42915000D01*
%TO.C,J9*%
X192087500Y-103124000D02*
X191587500Y-102874000D01*
X191587500Y-103374000D02*
X192087500Y-103124000D01*
X191587500Y-102874000D02*
X191587500Y-103374000D01*
%TO.C,C6*%
X190455000Y-67600000D02*
X190455000Y-67845000D01*
X190455000Y-65505000D02*
X190455000Y-65750000D01*
X186815000Y-67845000D02*
X190455000Y-67845000D01*
X186815000Y-67600000D02*
X186815000Y-67845000D01*
X186815000Y-65505000D02*
X190455000Y-65505000D01*
X186815000Y-65505000D02*
X186815000Y-65750000D01*
%TO.C,JP1*%
X190992000Y-87949000D02*
G75*
G02*
X190292000Y-88649000I-699999J-1D01*
G01*
X190292000Y-85849000D02*
G75*
G02*
X190992000Y-86549000I0J-700000D01*
G01*
X189692000Y-88649000D02*
G75*
G02*
X188992000Y-87949000I-1J699999D01*
G01*
X188992000Y-86549000D02*
G75*
G02*
X189692000Y-85849000I700000J0D01*
G01*
X190992000Y-86549000D02*
X190992000Y-87949000D01*
X190292000Y-88649000D02*
X189692000Y-88649000D01*
X189692000Y-85849000D02*
X190292000Y-85849000D01*
X188992000Y-87949000D02*
X188992000Y-86549000D01*
D12*
%TO.C,TP5*%
X196845000Y-69680000D02*
X193045000Y-69680000D01*
X196845000Y-67480000D02*
X196845000Y-69680000D01*
X193045000Y-69680000D02*
X193045000Y-67480000D01*
X193045000Y-67480000D02*
X196845000Y-67480000D01*
D13*
%TO.C,R12*%
X178665000Y-99949000D02*
X177895000Y-99949000D01*
X177895000Y-101319000D02*
X177895000Y-98579000D01*
X177895000Y-98579000D02*
X171355000Y-98579000D01*
X171355000Y-101319000D02*
X177895000Y-101319000D01*
X171355000Y-98579000D02*
X171355000Y-101319000D01*
X170585000Y-99949000D02*
X171355000Y-99949000D01*
%TO.C,J8*%
X191297870Y-105311807D02*
X191297870Y-107911807D01*
X188637870Y-107911807D02*
X191297870Y-107911807D01*
X188637870Y-105311807D02*
X191297870Y-105311807D01*
X188637870Y-105311807D02*
X188637870Y-107911807D01*
X188637870Y-104041807D02*
X188637870Y-102711807D01*
X188637870Y-102711807D02*
X189967870Y-102711807D01*
%TO.C,R15*%
X165853800Y-93133849D02*
X165083800Y-93133849D01*
X165083800Y-94503849D02*
X165083800Y-91763849D01*
X165083800Y-91763849D02*
X158543800Y-91763849D01*
X158543800Y-94503849D02*
X165083800Y-94503849D01*
X158543800Y-91763849D02*
X158543800Y-94503849D01*
X157773800Y-93133849D02*
X158543800Y-93133849D01*
D12*
%TO.C,TP9*%
X196249983Y-81900942D02*
X192449983Y-81900942D01*
X196249983Y-79700942D02*
X196249983Y-81900942D01*
X192449983Y-81900942D02*
X192449983Y-79700942D01*
X192449983Y-79700942D02*
X196249983Y-79700942D01*
D13*
%TO.C,Q1*%
X191068478Y-34858478D02*
G75*
G02*
X186629999Y-33020000I-1838478J1838478D01*
G01*
X186630000Y-33020000D02*
G75*
G02*
X191068478Y-31181522I2600000J0D01*
G01*
X191080000Y-34820000D02*
X191080000Y-31220000D01*
%TO.C,R6*%
X181205000Y-41275000D02*
X180435000Y-41275000D01*
X180435000Y-42645000D02*
X180435000Y-39905000D01*
X180435000Y-39905000D02*
X173895000Y-39905000D01*
X173895000Y-42645000D02*
X180435000Y-42645000D01*
X173895000Y-39905000D02*
X173895000Y-42645000D01*
X173125000Y-41275000D02*
X173895000Y-41275000D01*
D12*
%TO.C,TP2*%
X181605000Y-34120000D02*
X177805000Y-34120000D01*
X181605000Y-31920000D02*
X181605000Y-34120000D01*
X177805000Y-34120000D02*
X177805000Y-31920000D01*
X177805000Y-31920000D02*
X181605000Y-31920000D01*
%TD*%
M02*
