M48
; DRILL file {KiCad 8.0.5} date 2024-10-24T17:31:19-0600
; FORMAT={-:-/ absolute / inch / decimal}
; #@! TF.CreationDate,2024-10-24T17:31:19-06:00
; #@! TF.GenerationSoftware,Kicad,Pcbnew,8.0.5
; #@! TF.FileFunction,Plated,1,2,PTH
FMAT,2
INCH
; #@! TA.AperFunction,Plated,PTH,ViaDrill
T1C0.0118
; #@! TA.AperFunction,Plated,PTH,ComponentDrill
T2C0.0295
; #@! TA.AperFunction,Plated,PTH,ComponentDrill
T3C0.0315
; #@! TA.AperFunction,Plated,PTH,ComponentDrill
T4C0.0354
; #@! TA.AperFunction,Plated,PTH,ComponentDrill
T5C0.0394
; #@! TA.AperFunction,Plated,PTH,ComponentDrill
T6C0.0472
%
G90
G05
T1
X6.17Y-1.54
X6.2Y-2.975
X6.275Y-3.925
X6.28Y-1.32
X6.28Y-1.4
X6.28Y-1.53
X6.32Y-2.23
X6.3506Y-1.99
X6.37Y-2.1685
X6.3797Y-2.214
X6.4475Y-3.59
X6.45Y-3.925
X6.48Y-2.33
X6.535Y-2.165
X6.5707Y-2.0793
X6.65Y-2.85
X6.69Y-2.08
X6.6904Y-2.3143
X6.7545Y-1.79
X6.79Y-1.77
X6.82Y-1.74
X6.8386Y-3.505
X6.89Y-3.02
X7.045Y-4.05
X7.32Y-3.36
X7.6889Y-3.8927
X7.689Y-4.2273
X7.69Y-1.3527
X7.69Y-1.6873
T2
X6.85Y-1.25
X6.85Y-1.3
X6.85Y-1.35
X7.375Y-1.475
X7.375Y-1.775
X7.45Y-1.25
X7.45Y-1.3
X7.45Y-1.35
X7.48Y-3.185
X7.48Y-3.235
X7.48Y-3.285
T3
X6.1504Y-2.575
X6.1616Y-3.55
X6.17Y-3.8
X6.17Y-3.935
X6.17Y-4.185
X6.17Y-4.32
X6.1706Y-3.6667
X6.1758Y-4.055
X6.26Y-3.55
X6.2742Y-4.055
X6.3Y-2.575
X6.47Y-2.95
X6.47Y-3.35
X6.4716Y-4.055
X6.57Y-3.8
X6.57Y-3.935
X6.57Y-4.055
X6.57Y-4.185
X6.57Y-4.32
X6.5706Y-3.6667
X6.59Y-3.2416
X6.59Y-3.34
X6.6666Y-4.315
X6.6716Y-3.67
X6.675Y-3.8
X6.675Y-3.935
X6.7Y-4.075
X6.7Y-4.1734
X6.71Y-2.95
X6.71Y-3.35
X6.765Y-4.315
X6.77Y-3.67
X6.775Y-1.625
X6.8016Y-1.475
X6.835Y-3.2458
X6.835Y-3.3442
X6.86Y-4.32
X6.86Y-4.44
X6.9Y-1.475
X7.0516Y-3.425
X7.075Y-3.05
X7.075Y-3.8
X7.075Y-3.935
X7.15Y-3.425
X7.175Y-1.625
X7.175Y-2.15
X7.26Y-4.32
X7.26Y-4.44
X7.2616Y-4.095
X7.36Y-4.095
X7.3766Y-2.35
X7.3774Y-2.625
X7.475Y-2.35
X7.475Y-3.05
X7.4758Y-2.625
X7.4766Y-1.8
X7.4808Y-4.35
X7.575Y-1.8
X7.575Y-2.15
X7.5792Y-4.35
X7.625Y-2.3531
X7.625Y-2.4516
X7.625Y-2.55
X7.751Y-2.3531
X7.751Y-2.4516
X7.751Y-2.55
T4
X6.975Y-2.15
X7.075Y-2.15
T5
X6.2606Y-1.9
X6.3606Y-1.9
X6.4606Y-1.9
X7.479Y-4.0961
X7.479Y-4.1961
X7.49Y-1.55
X7.49Y-1.65
X7.7Y-2.0748
X7.7Y-2.1748
T6
X7.48Y-3.6269
X7.48Y-3.745
M30
