%TF.GenerationSoftware,KiCad,Pcbnew,8.0.5*%
%TF.CreationDate,2024-10-24T17:31:16-06:00*%
%TF.ProjectId,fluxgate,666c7578-6761-4746-952e-6b696361645f,rev?*%
%TF.SameCoordinates,Original*%
%TF.FileFunction,Soldermask,Top*%
%TF.FilePolarity,Negative*%
%FSLAX46Y46*%
G04 Gerber Fmt 4.6, Leading zero omitted, Abs format (unit mm)*
G04 Created by KiCad (PCBNEW 8.0.5) date 2024-10-24 17:31:16*
%MOMM*%
%LPD*%
G01*
G04 APERTURE LIST*
G04 Aperture macros list*
%AMRoundRect*
0 Rectangle with rounded corners*
0 $1 Rounding radius*
0 $2 $3 $4 $5 $6 $7 $8 $9 X,Y pos of 4 corners*
0 Add a 4 corners polygon primitive as box body*
4,1,4,$2,$3,$4,$5,$6,$7,$8,$9,$2,$3,0*
0 Add four circle primitives for the rounded corners*
1,1,$1+$1,$2,$3*
1,1,$1+$1,$4,$5*
1,1,$1+$1,$6,$7*
1,1,$1+$1,$8,$9*
0 Add four rect primitives between the rounded corners*
20,1,$1+$1,$2,$3,$4,$5,0*
20,1,$1+$1,$4,$5,$6,$7,0*
20,1,$1+$1,$6,$7,$8,$9,0*
20,1,$1+$1,$8,$9,$2,$3,0*%
%AMFreePoly0*
4,1,19,0.000000,0.744911,0.071157,0.744911,0.207708,0.704816,0.327430,0.627875,0.420627,0.520320,0.479746,0.390866,0.500000,0.250000,0.500000,-0.250000,0.479746,-0.390866,0.420627,-0.520320,0.327430,-0.627875,0.207708,-0.704816,0.071157,-0.744911,0.000000,-0.744911,0.000000,-0.750000,-0.500000,-0.750000,-0.500000,0.750000,0.000000,0.750000,0.000000,0.744911,0.000000,0.744911,
$1*%
%AMFreePoly1*
4,1,19,0.500000,-0.750000,0.000000,-0.750000,0.000000,-0.744911,-0.071157,-0.744911,-0.207708,-0.704816,-0.327430,-0.627875,-0.420627,-0.520320,-0.479746,-0.390866,-0.500000,-0.250000,-0.500000,0.250000,-0.479746,0.390866,-0.420627,0.520320,-0.327430,0.627875,-0.207708,0.704816,-0.071157,0.744911,0.000000,0.744911,0.000000,0.750000,0.500000,0.750000,0.500000,-0.750000,0.500000,-0.750000,
$1*%
G04 Aperture macros list end*
%ADD10O,1.500000X1.050000*%
%ADD11R,1.500000X1.050000*%
%ADD12C,1.600000*%
%ADD13O,1.600000X1.600000*%
%ADD14R,3.400000X1.800000*%
%ADD15R,5.080000X1.500000*%
%ADD16RoundRect,0.150000X-0.512500X-0.150000X0.512500X-0.150000X0.512500X0.150000X-0.512500X0.150000X0*%
%ADD17R,0.550000X1.600000*%
%ADD18R,1.600000X0.550000*%
%ADD19RoundRect,0.250000X-0.350000X0.850000X-0.350000X-0.850000X0.350000X-0.850000X0.350000X0.850000X0*%
%ADD20RoundRect,0.249997X-2.650003X2.950003X-2.650003X-2.950003X2.650003X-2.950003X2.650003X2.950003X0*%
%ADD21C,1.800000*%
%ADD22R,1.800000X1.800000*%
%ADD23C,2.400000*%
%ADD24R,1.700000X0.650000*%
%ADD25O,1.700000X1.700000*%
%ADD26R,1.700000X1.700000*%
%ADD27R,1.600000X1.600000*%
%ADD28C,1.500000*%
%ADD29R,1.800000X1.170000*%
%ADD30R,1.350000X1.900000*%
%ADD31R,1.350000X1.550000*%
%ADD32R,1.000000X1.200000*%
%ADD33R,1.100000X0.750000*%
%ADD34R,1.100000X0.850000*%
%ADD35O,1.500000X1.500000*%
%ADD36R,1.500000X1.500000*%
%ADD37FreePoly0,90.000000*%
%ADD38FreePoly1,90.000000*%
G04 APERTURE END LIST*
D10*
%TO.C,Q3*%
X189992000Y-80899000D03*
X189992000Y-82169000D03*
D11*
X189992000Y-83439000D03*
%TD*%
D12*
%TO.C,C8*%
X192512000Y-110490000D03*
X190012000Y-110490000D03*
%TD*%
D13*
%TO.C,R2*%
X170434000Y-85090000D03*
D12*
X170434000Y-74930000D03*
%TD*%
D14*
%TO.C,TP1*%
X195580000Y-48895000D03*
%TD*%
%TO.C,TP7*%
X179578000Y-93091000D03*
%TD*%
D13*
%TO.C,R7*%
X192405000Y-54610000D03*
D12*
X182245000Y-54610000D03*
%TD*%
D15*
%TO.C,J1*%
X195326000Y-42858000D03*
X195326000Y-34358000D03*
X195326000Y-38608000D03*
%TD*%
D16*
%TO.C,U4*%
X189250000Y-62230000D03*
X189250000Y-64130000D03*
X186975000Y-64130000D03*
X186975000Y-63180000D03*
X186975000Y-62230000D03*
%TD*%
D17*
%TO.C,U1*%
X165995000Y-61330000D03*
X165195000Y-61330000D03*
X164395000Y-61330000D03*
X163595000Y-61330000D03*
X162795000Y-61330000D03*
X161995000Y-61330000D03*
X161195000Y-61330000D03*
X160395000Y-61330000D03*
D18*
X158945000Y-59880000D03*
X158945000Y-59080000D03*
X158945000Y-58280000D03*
X158945000Y-57480000D03*
X158945000Y-56680000D03*
X158945000Y-55880000D03*
X158945000Y-55080000D03*
X158945000Y-54280000D03*
D17*
X160395000Y-52830000D03*
X161195000Y-52830000D03*
X161995000Y-52830000D03*
X162795000Y-52830000D03*
X163595000Y-52830000D03*
X164395000Y-52830000D03*
X165195000Y-52830000D03*
X165995000Y-52830000D03*
D18*
X167445000Y-54280000D03*
X167445000Y-55080000D03*
X167445000Y-55880000D03*
X167445000Y-56680000D03*
X167445000Y-57480000D03*
X167445000Y-58280000D03*
X167445000Y-59080000D03*
X167445000Y-59880000D03*
%TD*%
D12*
%TO.C,C9*%
X181610000Y-86995000D03*
X179110000Y-86995000D03*
%TD*%
D13*
%TO.C,R10*%
X184404000Y-112776000D03*
D12*
X174244000Y-112776000D03*
%TD*%
%TO.C,C4*%
X170180000Y-106005000D03*
X170180000Y-103505000D03*
%TD*%
D13*
%TO.C,R14*%
X156718000Y-96520000D03*
D12*
X166878000Y-96520000D03*
%TD*%
%TO.C,C1*%
X173609000Y-82443000D03*
X173609000Y-84943000D03*
%TD*%
D19*
%TO.C,Q5*%
X155580000Y-75845000D03*
D20*
X157860000Y-82145000D03*
D19*
X160140000Y-75845000D03*
%TD*%
D12*
%TO.C,C5*%
X189865000Y-59690000D03*
X187365000Y-59690000D03*
%TD*%
D14*
%TO.C,TP8*%
X164338000Y-72390000D03*
%TD*%
%TO.C,TP3*%
X156845000Y-86995000D03*
%TD*%
D21*
%TO.C,D1*%
X177165000Y-54610000D03*
D22*
X179705000Y-54610000D03*
%TD*%
D23*
%TO.C,L1*%
X189992000Y-92123000D03*
X189992000Y-95123000D03*
%TD*%
D13*
%TO.C,R5*%
X166878000Y-109728000D03*
D12*
X156718000Y-109728000D03*
%TD*%
%TO.C,C15*%
X166878000Y-102997000D03*
X164378000Y-102997000D03*
%TD*%
%TO.C,C7*%
X175260000Y-37465000D03*
X172760000Y-37465000D03*
%TD*%
%TO.C,C10*%
X171831000Y-109601000D03*
X169331000Y-109601000D03*
%TD*%
D24*
%TO.C,U5*%
X184105866Y-80585122D03*
X184105866Y-81855122D03*
X184105866Y-83125122D03*
X184105866Y-84395122D03*
X176805866Y-84395122D03*
X176805866Y-83125122D03*
X176805866Y-81855122D03*
X176805866Y-80585122D03*
%TD*%
D13*
%TO.C,R1*%
X189865000Y-77470000D03*
D12*
X179705000Y-77470000D03*
%TD*%
D25*
%TO.C,J3*%
X195580000Y-55240000D03*
D26*
X195580000Y-52700000D03*
%TD*%
D12*
%TO.C,C16*%
X171958000Y-93218000D03*
X169458000Y-93218000D03*
%TD*%
%TO.C,C13*%
X184444000Y-104013000D03*
X186944000Y-104013000D03*
%TD*%
%TO.C,SW1*%
X196875000Y-59770000D03*
X196875000Y-62270000D03*
X196875000Y-64770000D03*
X193675000Y-59770000D03*
X193675000Y-62270000D03*
D27*
X193675000Y-64770000D03*
%TD*%
D12*
%TO.C,C14*%
X156865000Y-102997000D03*
X159365000Y-102997000D03*
%TD*%
D28*
%TO.C,Y1*%
X156220000Y-65405000D03*
X160020000Y-65405000D03*
%TD*%
D24*
%TO.C,U2*%
X173515000Y-106680000D03*
X173515000Y-105410000D03*
X173515000Y-104140000D03*
X173515000Y-102870000D03*
X180815000Y-102870000D03*
X180815000Y-104140000D03*
X180815000Y-105410000D03*
X180815000Y-106680000D03*
%TD*%
D12*
%TO.C,C11*%
X156504000Y-90170000D03*
X159004000Y-90170000D03*
%TD*%
D10*
%TO.C,Q4*%
X173990000Y-31750000D03*
X173990000Y-33020000D03*
D11*
X173990000Y-34290000D03*
%TD*%
D12*
%TO.C,C2*%
X167386000Y-82336000D03*
X167386000Y-84836000D03*
%TD*%
D13*
%TO.C,R16*%
X179705000Y-96520000D03*
D12*
X169545000Y-96520000D03*
%TD*%
D29*
%TO.C,J7*%
X158412500Y-31075000D03*
D30*
X168887500Y-33100000D03*
X168887500Y-39070000D03*
D31*
X158187500Y-42395000D03*
D32*
X167912500Y-42570000D03*
X164212500Y-42570000D03*
D33*
X158062500Y-32285000D03*
D34*
X158062500Y-33335000D03*
X158062500Y-34435000D03*
X158062500Y-35535000D03*
X158062500Y-36635000D03*
X158062500Y-37735000D03*
X158062500Y-38835000D03*
X158062500Y-39935000D03*
%TD*%
D14*
%TO.C,TP6*%
X185420000Y-100457000D03*
%TD*%
D25*
%TO.C,J2*%
X190246000Y-41910000D03*
D26*
X190246000Y-39370000D03*
%TD*%
D13*
%TO.C,R3*%
X164338000Y-85090000D03*
D12*
X164338000Y-74930000D03*
%TD*%
D25*
%TO.C,J5*%
X164099000Y-48260000D03*
X161559000Y-48260000D03*
D26*
X159019000Y-48260000D03*
%TD*%
D14*
%TO.C,TP4*%
X183515000Y-37465000D03*
%TD*%
D12*
%TO.C,C3*%
X192405000Y-45720000D03*
X189905000Y-45720000D03*
%TD*%
D13*
%TO.C,R8*%
X166878000Y-106299000D03*
D12*
X156718000Y-106299000D03*
%TD*%
D13*
%TO.C,R13*%
X166878000Y-99949000D03*
D12*
X156718000Y-99949000D03*
%TD*%
D13*
%TO.C,R9*%
X174244000Y-109728000D03*
D12*
X184404000Y-109728000D03*
%TD*%
D35*
%TO.C,D4*%
X187325000Y-37465000D03*
D36*
X187325000Y-45085000D03*
%TD*%
D15*
%TO.C,J9*%
X195297500Y-107374000D03*
X195297500Y-98874000D03*
X195297500Y-103124000D03*
%TD*%
D12*
%TO.C,C6*%
X189885000Y-66675000D03*
X187385000Y-66675000D03*
%TD*%
D37*
%TO.C,JP1*%
X189992000Y-86599000D03*
D38*
X189992000Y-87899000D03*
%TD*%
D14*
%TO.C,TP5*%
X194945000Y-68580000D03*
%TD*%
D13*
%TO.C,R12*%
X169545000Y-99949000D03*
D12*
X179705000Y-99949000D03*
%TD*%
D25*
%TO.C,J8*%
X189967870Y-106581807D03*
D26*
X189967870Y-104041807D03*
%TD*%
D13*
%TO.C,R15*%
X166893800Y-93133849D03*
D12*
X156733800Y-93133849D03*
%TD*%
D14*
%TO.C,TP9*%
X194349983Y-80800942D03*
%TD*%
D10*
%TO.C,Q1*%
X189230000Y-31750000D03*
X189230000Y-33020000D03*
D11*
X189230000Y-34290000D03*
%TD*%
D13*
%TO.C,R6*%
X182245000Y-41275000D03*
D12*
X172085000Y-41275000D03*
%TD*%
D14*
%TO.C,TP2*%
X179705000Y-33020000D03*
%TD*%
M02*
