%TF.GenerationSoftware,KiCad,Pcbnew,8.0.5*%
%TF.CreationDate,2024-10-24T17:31:16-06:00*%
%TF.ProjectId,fluxgate,666c7578-6761-4746-952e-6b696361645f,rev?*%
%TF.SameCoordinates,Original*%
%TF.FileFunction,Copper,L2,Bot*%
%TF.FilePolarity,Positive*%
%FSLAX46Y46*%
G04 Gerber Fmt 4.6, Leading zero omitted, Abs format (unit mm)*
G04 Created by KiCad (PCBNEW 8.0.5) date 2024-10-24 17:31:16*
%MOMM*%
%LPD*%
G01*
G04 APERTURE LIST*
%TA.AperFunction,ComponentPad*%
%ADD10O,1.500000X1.050000*%
%TD*%
%TA.AperFunction,ComponentPad*%
%ADD11R,1.500000X1.050000*%
%TD*%
%TA.AperFunction,ComponentPad*%
%ADD12C,1.600000*%
%TD*%
%TA.AperFunction,ComponentPad*%
%ADD13O,1.600000X1.600000*%
%TD*%
%TA.AperFunction,SMDPad,CuDef*%
%ADD14R,5.080000X1.500000*%
%TD*%
%TA.AperFunction,ComponentPad*%
%ADD15C,1.800000*%
%TD*%
%TA.AperFunction,ComponentPad*%
%ADD16R,1.800000X1.800000*%
%TD*%
%TA.AperFunction,ComponentPad*%
%ADD17C,2.400000*%
%TD*%
%TA.AperFunction,ComponentPad*%
%ADD18O,1.700000X1.700000*%
%TD*%
%TA.AperFunction,ComponentPad*%
%ADD19R,1.700000X1.700000*%
%TD*%
%TA.AperFunction,ComponentPad*%
%ADD20R,1.600000X1.600000*%
%TD*%
%TA.AperFunction,ComponentPad*%
%ADD21C,1.500000*%
%TD*%
%TA.AperFunction,ComponentPad*%
%ADD22O,1.500000X1.500000*%
%TD*%
%TA.AperFunction,ComponentPad*%
%ADD23R,1.500000X1.500000*%
%TD*%
%TA.AperFunction,ViaPad*%
%ADD24C,0.600000*%
%TD*%
%TA.AperFunction,Conductor*%
%ADD25C,1.000000*%
%TD*%
%TA.AperFunction,Conductor*%
%ADD26C,0.500000*%
%TD*%
G04 APERTURE END LIST*
D10*
%TO.P,Q3,3,C*%
%TO.N,Net-(Q3-C)*%
X189992000Y-80899000D03*
%TO.P,Q3,2,B*%
%TO.N,Net-(Q3-B)*%
X189992000Y-82169000D03*
D11*
%TO.P,Q3,1,E*%
%TO.N,Net-(JP1-B)*%
X189992000Y-83439000D03*
%TD*%
D12*
%TO.P,C8,2*%
%TO.N,GND*%
X192512000Y-110490000D03*
%TO.P,C8,1*%
%TO.N,SENSOR_GND*%
X190012000Y-110490000D03*
%TD*%
D13*
%TO.P,R2,2*%
%TO.N,Net-(U5A-+)*%
X170434000Y-85090000D03*
D12*
%TO.P,R2,1*%
%TO.N,Net-(C2-Pad2)*%
X170434000Y-74930000D03*
%TD*%
D13*
%TO.P,R7,2*%
%TO.N,GND*%
X192405000Y-54610000D03*
D12*
%TO.P,R7,1*%
%TO.N,Net-(D1-K)*%
X182245000Y-54610000D03*
%TD*%
D14*
%TO.P,J1,2,Ext*%
%TO.N,VDD*%
X195326000Y-42858000D03*
X195326000Y-34358000D03*
%TD*%
D12*
%TO.P,C9,2*%
%TO.N,+3V3*%
X181610000Y-86995000D03*
%TO.P,C9,1*%
%TO.N,GND*%
X179110000Y-86995000D03*
%TD*%
D13*
%TO.P,R10,2*%
%TO.N,Net-(R10-Pad2)*%
X184404000Y-112776000D03*
D12*
%TO.P,R10,1*%
%TO.N,Net-(U2A--)*%
X174244000Y-112776000D03*
%TD*%
%TO.P,C4,2*%
%TO.N,+3V3*%
X170180000Y-106005000D03*
%TO.P,C4,1*%
%TO.N,GND*%
X170180000Y-103505000D03*
%TD*%
D13*
%TO.P,R14,2*%
%TO.N,+3V3*%
X156718000Y-96520000D03*
D12*
%TO.P,R14,1*%
%TO.N,ADC-*%
X166878000Y-96520000D03*
%TD*%
%TO.P,C1,2*%
%TO.N,Net-(U5A-+)*%
X173609000Y-82443000D03*
%TO.P,C1,1*%
%TO.N,GND*%
X173609000Y-84943000D03*
%TD*%
%TO.P,C5,2*%
%TO.N,VDD*%
X189865000Y-59690000D03*
%TO.P,C5,1*%
%TO.N,GND*%
X187365000Y-59690000D03*
%TD*%
D15*
%TO.P,D1,2,A*%
%TO.N,Net-(D1-A)*%
X177165000Y-54610000D03*
D16*
%TO.P,D1,1,K*%
%TO.N,Net-(D1-K)*%
X179705000Y-54610000D03*
%TD*%
D17*
%TO.P,L1,2,2*%
%TO.N,Compensation*%
X189992000Y-92123000D03*
%TO.P,L1,1,1*%
%TO.N,Net-(J8-Pin_1)*%
X189992000Y-95123000D03*
%TD*%
D13*
%TO.P,R5,2*%
%TO.N,+3V3*%
X166878000Y-109728000D03*
D12*
%TO.P,R5,1*%
%TO.N,Net-(U2A-+)*%
X156718000Y-109728000D03*
%TD*%
%TO.P,C15,2*%
%TO.N,Net-(U2B--)*%
X166878000Y-102997000D03*
%TO.P,C15,1*%
%TO.N,Net-(C14-Pad1)*%
X164378000Y-102997000D03*
%TD*%
%TO.P,C7,2*%
%TO.N,GND*%
X175260000Y-37465000D03*
%TO.P,C7,1*%
%TO.N,CARD_GND*%
X172760000Y-37465000D03*
%TD*%
%TO.P,C10,2*%
%TO.N,Net-(U2A-+)*%
X171831000Y-109601000D03*
%TO.P,C10,1*%
%TO.N,GND*%
X169331000Y-109601000D03*
%TD*%
D13*
%TO.P,R1,2*%
%TO.N,Net-(Q3-C)*%
X189865000Y-77470000D03*
D12*
%TO.P,R1,1*%
%TO.N,+3V3*%
X179705000Y-77470000D03*
%TD*%
D18*
%TO.P,J3,2,Pin_2*%
%TO.N,GND*%
X195580000Y-55240000D03*
D19*
%TO.P,J3,1,Pin_1*%
%TO.N,Net-(J3-Pin_1)*%
X195580000Y-52700000D03*
%TD*%
D12*
%TO.P,C16,2*%
%TO.N,ADC-*%
X171958000Y-93218000D03*
%TO.P,C16,1*%
%TO.N,GND*%
X169458000Y-93218000D03*
%TD*%
%TO.P,C13,2*%
%TO.N,Net-(C13-Pad2)*%
X184444000Y-104013000D03*
%TO.P,C13,1*%
%TO.N,Net-(J8-Pin_1)*%
X186944000Y-104013000D03*
%TD*%
%TO.P,SW1,6*%
%TO.N,N/C*%
X196875000Y-59770000D03*
%TO.P,SW1,5*%
X196875000Y-62270000D03*
%TO.P,SW1,4*%
X196875000Y-64770000D03*
%TO.P,SW1,3,C*%
%TO.N,unconnected-(SW1-C-Pad3)*%
X193675000Y-59770000D03*
%TO.P,SW1,2,B*%
%TO.N,Net-(J3-Pin_1)*%
X193675000Y-62270000D03*
D20*
%TO.P,SW1,1,A*%
%TO.N,VDD*%
X193675000Y-64770000D03*
%TD*%
D12*
%TO.P,C14,2*%
%TO.N,ADC+*%
X156865000Y-102997000D03*
%TO.P,C14,1*%
%TO.N,Net-(C14-Pad1)*%
X159365000Y-102997000D03*
%TD*%
D21*
%TO.P,Y1,2,2*%
%TO.N,Net-(U1-XTAL32K1{slash}PF0)*%
X156220000Y-65405000D03*
%TO.P,Y1,1,1*%
%TO.N,Net-(U1-XTAL32K2{slash}PF1)*%
X160020000Y-65405000D03*
%TD*%
D12*
%TO.P,C11,2*%
%TO.N,Net-(C11-Pad2)*%
X156504000Y-90170000D03*
%TO.P,C11,1*%
%TO.N,GND*%
X159004000Y-90170000D03*
%TD*%
D10*
%TO.P,Q4,3,D*%
%TO.N,CARD_GND*%
X173990000Y-31750000D03*
%TO.P,Q4,2,G*%
%TO.N,E_CARD*%
X173990000Y-33020000D03*
D11*
%TO.P,Q4,1,S*%
%TO.N,GND*%
X173990000Y-34290000D03*
%TD*%
D12*
%TO.P,C2,2*%
%TO.N,Net-(C2-Pad2)*%
X167386000Y-82336000D03*
%TO.P,C2,1*%
%TO.N,GND*%
X167386000Y-84836000D03*
%TD*%
D13*
%TO.P,R16,2*%
%TO.N,ADC+*%
X179705000Y-96520000D03*
D12*
%TO.P,R16,1*%
%TO.N,Net-(U2B--)*%
X169545000Y-96520000D03*
%TD*%
D18*
%TO.P,J2,2,Pin_2*%
%TO.N,VDD*%
X190246000Y-41910000D03*
D19*
%TO.P,J2,1,Pin_1*%
%TO.N,Net-(D4-A)*%
X190246000Y-39370000D03*
%TD*%
D13*
%TO.P,R3,2*%
%TO.N,Net-(C2-Pad2)*%
X164338000Y-85090000D03*
D12*
%TO.P,R3,1*%
%TO.N,Comp*%
X164338000Y-74930000D03*
%TD*%
D18*
%TO.P,J5,3,Pin_3*%
%TO.N,GND*%
X164099000Y-48260000D03*
%TO.P,J5,2,Pin_2*%
%TO.N,Net-(J5-Pin_2)*%
X161559000Y-48260000D03*
D19*
%TO.P,J5,1,Pin_1*%
%TO.N,+3V3*%
X159019000Y-48260000D03*
%TD*%
D12*
%TO.P,C3,2*%
%TO.N,GND*%
X192405000Y-45720000D03*
%TO.P,C3,1*%
%TO.N,VDD*%
X189905000Y-45720000D03*
%TD*%
D13*
%TO.P,R8,2*%
%TO.N,Net-(U2A-+)*%
X166878000Y-106299000D03*
D12*
%TO.P,R8,1*%
%TO.N,SENSOR_GND*%
X156718000Y-106299000D03*
%TD*%
D13*
%TO.P,R13,2*%
%TO.N,Net-(C14-Pad1)*%
X166878000Y-99949000D03*
D12*
%TO.P,R13,1*%
%TO.N,Net-(C11-Pad2)*%
X156718000Y-99949000D03*
%TD*%
D13*
%TO.P,R9,2*%
%TO.N,Net-(U2A--)*%
X174244000Y-109728000D03*
D12*
%TO.P,R9,1*%
%TO.N,Net-(C13-Pad2)*%
X184404000Y-109728000D03*
%TD*%
D22*
%TO.P,D4,2,A*%
%TO.N,Net-(D4-A)*%
X187325000Y-37465000D03*
D23*
%TO.P,D4,1,K*%
%TO.N,VDD*%
X187325000Y-45085000D03*
%TD*%
D14*
%TO.P,J9,2,Ext*%
%TO.N,SENSOR_GND*%
X195297500Y-107374000D03*
X195297500Y-98874000D03*
%TD*%
D12*
%TO.P,C6,2*%
%TO.N,+3V3*%
X189885000Y-66675000D03*
%TO.P,C6,1*%
%TO.N,GND*%
X187385000Y-66675000D03*
%TD*%
D13*
%TO.P,R12,2*%
%TO.N,Net-(C14-Pad1)*%
X169545000Y-99949000D03*
D12*
%TO.P,R12,1*%
%TO.N,Net-(R10-Pad2)*%
X179705000Y-99949000D03*
%TD*%
D18*
%TO.P,J8,2,Pin_2*%
%TO.N,SENSOR_GND*%
X189967870Y-106581807D03*
D19*
%TO.P,J8,1,Pin_1*%
%TO.N,Net-(J8-Pin_1)*%
X189967870Y-104041807D03*
%TD*%
D13*
%TO.P,R15,2*%
%TO.N,ADC-*%
X166893800Y-93133849D03*
D12*
%TO.P,R15,1*%
%TO.N,SENSOR_GND*%
X156733800Y-93133849D03*
%TD*%
D10*
%TO.P,Q1,3,D*%
%TO.N,Net-(D4-A)*%
X189230000Y-31750000D03*
%TO.P,Q1,2,G*%
%TO.N,DRIVE_GATE*%
X189230000Y-33020000D03*
D11*
%TO.P,Q1,1,S*%
%TO.N,GND*%
X189230000Y-34290000D03*
%TD*%
D13*
%TO.P,R6,2*%
%TO.N,+3V3*%
X182245000Y-41275000D03*
D12*
%TO.P,R6,1*%
%TO.N,MISO*%
X172085000Y-41275000D03*
%TD*%
D24*
%TO.N,SENSOR_GND*%
X195300600Y-107374000D03*
X195297500Y-98874000D03*
%TO.N,VDD*%
X195326000Y-42858000D03*
X195326000Y-34358000D03*
%TO.N,+3V3*%
X173700196Y-89027000D03*
%TO.N,GND*%
X185928000Y-85344000D03*
X163766500Y-91186000D03*
X157480000Y-75565000D03*
X159385000Y-99695000D03*
X163830000Y-99695000D03*
X178943000Y-102870000D03*
X160528000Y-56642000D03*
X164592000Y-59182000D03*
%TO.N,+3V3*%
X168910000Y-72390000D03*
X161305000Y-50546000D03*
X156718000Y-39116000D03*
X161798000Y-55080000D03*
%TO.N,ADC-*%
X175006000Y-76708000D03*
%TO.N,Net-(D1-A)*%
X165989000Y-54991000D03*
%TO.N,Net-(J5-Pin_2)*%
X162045000Y-56235600D03*
%TO.N,SCK*%
X172466000Y-44958000D03*
X159512000Y-35560000D03*
%TO.N,MISO*%
X159512000Y-33528000D03*
X173228000Y-44196000D03*
%TO.N,CS*%
X159512000Y-38862000D03*
X171565000Y-45466000D03*
%TO.N,MOSI*%
X169926000Y-52832000D03*
X169937174Y-58783287D03*
%TO.N,DRIVE_GATE*%
X166894669Y-52815331D03*
%TD*%
D25*
%TO.N,VDD*%
X195326000Y-42858000D02*
X195326000Y-34358000D01*
%TO.N,SENSOR_GND*%
X195297500Y-107374000D02*
X195297500Y-98874000D01*
D26*
%TO.N,MOSI*%
X169937174Y-57923174D02*
X169926000Y-57912000D01*
X169926000Y-57912000D02*
X169926000Y-52832000D01*
X169937174Y-58783287D02*
X169937174Y-57923174D01*
%TO.N,Net-(J5-Pin_2)*%
X162045000Y-56235600D02*
X162752000Y-55528600D01*
X162752000Y-55528600D02*
X162752000Y-49453000D01*
X162752000Y-49453000D02*
X161559000Y-48260000D01*
D25*
%TO.N,+3V3*%
X173700196Y-89027000D02*
X162470679Y-89027000D01*
X162470679Y-89027000D02*
X161290000Y-87846321D01*
X161290000Y-87846321D02*
X161290000Y-90170000D01*
D26*
X161798000Y-55118000D02*
X161798000Y-55080000D01*
D25*
X161290000Y-99695000D02*
X161290000Y-96520000D01*
X189885000Y-70465000D02*
X189885000Y-69215000D01*
D26*
X159019000Y-41417000D02*
X159019000Y-48260000D01*
D25*
X161290000Y-90170000D02*
X161290000Y-74295000D01*
D26*
X156718000Y-39116000D02*
X159019000Y-41417000D01*
X162052000Y-51293000D02*
X162052000Y-54864000D01*
D25*
X189885000Y-69215000D02*
X189885000Y-66675000D01*
X161290000Y-104775000D02*
X161290000Y-99695000D01*
X161290000Y-96520000D02*
X161290000Y-90170000D01*
D26*
X166878000Y-109307000D02*
X166878000Y-109728000D01*
D25*
X166878000Y-109728000D02*
X161798000Y-109728000D01*
D26*
X162052000Y-54864000D02*
X161798000Y-55118000D01*
X161305000Y-50546000D02*
X162052000Y-51293000D01*
D25*
X161290000Y-109220000D02*
X161290000Y-104775000D01*
X161290000Y-74295000D02*
X163195000Y-72390000D01*
X156718000Y-96520000D02*
X161290000Y-96520000D01*
X187960000Y-72390000D02*
X189885000Y-70465000D01*
X163195000Y-72390000D02*
X187960000Y-72390000D01*
X161798000Y-109728000D02*
X161290000Y-109220000D01*
D26*
X170180000Y-106005000D02*
X166878000Y-109307000D01*
%TO.N,ADC-*%
X175514000Y-91948000D02*
X174244000Y-93218000D01*
X175514000Y-77216000D02*
X175514000Y-91948000D01*
X174244000Y-93218000D02*
X171958000Y-93218000D01*
X175006000Y-76708000D02*
X175514000Y-77216000D01*
%TO.N,Net-(D1-A)*%
X174637000Y-52082000D02*
X177165000Y-54610000D01*
X168898000Y-52082000D02*
X174637000Y-52082000D01*
X165989000Y-54991000D02*
X168898000Y-52082000D01*
%TO.N,SCK*%
X172224000Y-44716000D02*
X166890000Y-44716000D01*
X159512000Y-37338000D02*
X159512000Y-35560000D01*
X172466000Y-44958000D02*
X172224000Y-44716000D01*
X166890000Y-44716000D02*
X159512000Y-37338000D01*
%TO.N,MISO*%
X160528000Y-34544000D02*
X159512000Y-33528000D01*
X167640000Y-43688000D02*
X160528000Y-36576000D01*
X172185950Y-43688000D02*
X167640000Y-43688000D01*
X160528000Y-36576000D02*
X160528000Y-34544000D01*
X173228000Y-44196000D02*
X172693950Y-44196000D01*
X172693950Y-44196000D02*
X172185950Y-43688000D01*
%TO.N,CS*%
X171565000Y-45466000D02*
X166116000Y-45466000D01*
X166116000Y-45466000D02*
X159512000Y-38862000D01*
%TO.N,DRIVE_GATE*%
X166894669Y-52815331D02*
X186690000Y-33020000D01*
X186690000Y-33020000D02*
X189230000Y-33020000D01*
%TD*%
%TA.AperFunction,Conductor*%
%TO.N,GND*%
G36*
X174682834Y-83310867D02*
G01*
X174738767Y-83352739D01*
X174763184Y-83418203D01*
X174763500Y-83427049D01*
X174763500Y-84090690D01*
X174743815Y-84157729D01*
X174727181Y-84178371D01*
X174009000Y-84896552D01*
X174009000Y-84890339D01*
X173981741Y-84788606D01*
X173929080Y-84697394D01*
X173854606Y-84622920D01*
X173763394Y-84570259D01*
X173661661Y-84543000D01*
X173655448Y-84543000D01*
X174334472Y-83863974D01*
X174261480Y-83812864D01*
X174246024Y-83805657D01*
X174193585Y-83759484D01*
X174174433Y-83692290D01*
X174194649Y-83625409D01*
X174246023Y-83580893D01*
X174261734Y-83573568D01*
X174448139Y-83443047D01*
X174472983Y-83418203D01*
X174551819Y-83339368D01*
X174613142Y-83305883D01*
X174682834Y-83310867D01*
G37*
%TD.AperFunction*%
%TA.AperFunction,Conductor*%
G36*
X197816539Y-30492185D02*
G01*
X197862294Y-30544989D01*
X197873500Y-30596500D01*
X197873500Y-32983500D01*
X197853815Y-33050539D01*
X197801011Y-33096294D01*
X197749500Y-33107500D01*
X192738129Y-33107500D01*
X192738123Y-33107501D01*
X192678516Y-33113908D01*
X192543671Y-33164202D01*
X192543664Y-33164206D01*
X192428455Y-33250452D01*
X192428452Y-33250455D01*
X192342206Y-33365664D01*
X192342202Y-33365671D01*
X192291908Y-33500517D01*
X192285501Y-33560116D01*
X192285500Y-33560135D01*
X192285500Y-35155870D01*
X192285501Y-35155876D01*
X192291908Y-35215483D01*
X192342202Y-35350328D01*
X192342206Y-35350335D01*
X192428452Y-35465544D01*
X192428455Y-35465547D01*
X192543664Y-35551793D01*
X192543671Y-35551797D01*
X192678517Y-35602091D01*
X192678516Y-35602091D01*
X192685444Y-35602835D01*
X192738127Y-35608500D01*
X194201500Y-35608499D01*
X194268539Y-35628184D01*
X194314294Y-35680987D01*
X194325500Y-35732499D01*
X194325500Y-41483500D01*
X194305815Y-41550539D01*
X194253011Y-41596294D01*
X194201500Y-41607500D01*
X192738129Y-41607500D01*
X192738123Y-41607501D01*
X192678516Y-41613908D01*
X192543671Y-41664202D01*
X192543664Y-41664206D01*
X192428455Y-41750452D01*
X192428452Y-41750455D01*
X192342206Y-41865664D01*
X192342202Y-41865671D01*
X192291908Y-42000517D01*
X192285501Y-42060116D01*
X192285500Y-42060135D01*
X192285500Y-43655870D01*
X192285501Y-43655876D01*
X192291908Y-43715483D01*
X192342202Y-43850328D01*
X192342206Y-43850335D01*
X192428452Y-43965544D01*
X192428455Y-43965547D01*
X192543664Y-44051793D01*
X192543671Y-44051797D01*
X192678517Y-44102091D01*
X192678516Y-44102091D01*
X192685444Y-44102835D01*
X192738127Y-44108500D01*
X197749500Y-44108499D01*
X197816539Y-44128184D01*
X197862294Y-44180988D01*
X197873500Y-44232499D01*
X197873500Y-58643337D01*
X197853815Y-58710376D01*
X197801011Y-58756131D01*
X197731853Y-58766075D01*
X197678377Y-58744912D01*
X197527734Y-58639432D01*
X197527732Y-58639431D01*
X197321497Y-58543261D01*
X197321488Y-58543258D01*
X197101697Y-58484366D01*
X197101693Y-58484365D01*
X197101692Y-58484365D01*
X197101691Y-58484364D01*
X197101686Y-58484364D01*
X196875002Y-58464532D01*
X196874998Y-58464532D01*
X196648313Y-58484364D01*
X196648302Y-58484366D01*
X196428511Y-58543258D01*
X196428502Y-58543261D01*
X196222267Y-58639431D01*
X196222265Y-58639432D01*
X196035858Y-58769954D01*
X195874954Y-58930858D01*
X195744432Y-59117265D01*
X195744431Y-59117267D01*
X195648261Y-59323502D01*
X195648258Y-59323511D01*
X195589366Y-59543302D01*
X195589364Y-59543313D01*
X195569532Y-59769998D01*
X195569532Y-59770001D01*
X195589364Y-59996686D01*
X195589366Y-59996697D01*
X195648258Y-60216488D01*
X195648261Y-60216497D01*
X195744431Y-60422732D01*
X195744432Y-60422734D01*
X195874954Y-60609141D01*
X196035858Y-60770045D01*
X196035861Y-60770047D01*
X196222266Y-60900568D01*
X196237387Y-60907619D01*
X196289825Y-60953791D01*
X196308976Y-61020985D01*
X196288760Y-61087866D01*
X196237387Y-61132380D01*
X196222266Y-61139432D01*
X196222264Y-61139433D01*
X196035858Y-61269954D01*
X195874954Y-61430858D01*
X195744432Y-61617265D01*
X195744431Y-61617267D01*
X195648261Y-61823502D01*
X195648258Y-61823511D01*
X195589366Y-62043302D01*
X195589364Y-62043313D01*
X195569532Y-62269998D01*
X195569532Y-62270001D01*
X195589364Y-62496686D01*
X195589366Y-62496697D01*
X195648258Y-62716488D01*
X195648261Y-62716497D01*
X195744431Y-62922732D01*
X195744432Y-62922734D01*
X195874954Y-63109141D01*
X196035858Y-63270045D01*
X196035861Y-63270047D01*
X196222266Y-63400568D01*
X196237387Y-63407619D01*
X196289825Y-63453791D01*
X196308976Y-63520985D01*
X196288760Y-63587866D01*
X196237387Y-63632380D01*
X196222266Y-63639432D01*
X196222264Y-63639433D01*
X196035858Y-63769954D01*
X195874954Y-63930858D01*
X195744432Y-64117265D01*
X195744431Y-64117267D01*
X195648261Y-64323502D01*
X195648258Y-64323511D01*
X195589366Y-64543302D01*
X195589364Y-64543313D01*
X195569532Y-64769998D01*
X195569532Y-64770001D01*
X195589364Y-64996686D01*
X195589366Y-64996697D01*
X195648258Y-65216488D01*
X195648261Y-65216497D01*
X195744431Y-65422732D01*
X195744432Y-65422734D01*
X195874954Y-65609141D01*
X196035858Y-65770045D01*
X196064029Y-65789770D01*
X196222266Y-65900568D01*
X196428504Y-65996739D01*
X196648308Y-66055635D01*
X196810230Y-66069801D01*
X196874998Y-66075468D01*
X196875000Y-66075468D01*
X196875002Y-66075468D01*
X196931807Y-66070498D01*
X197101692Y-66055635D01*
X197321496Y-65996739D01*
X197527734Y-65900568D01*
X197678378Y-65795086D01*
X197744583Y-65772760D01*
X197812350Y-65789770D01*
X197860163Y-65840718D01*
X197873500Y-65896662D01*
X197873500Y-97499500D01*
X197853815Y-97566539D01*
X197801011Y-97612294D01*
X197749500Y-97623500D01*
X192709629Y-97623500D01*
X192709623Y-97623501D01*
X192650016Y-97629908D01*
X192515171Y-97680202D01*
X192515164Y-97680206D01*
X192399955Y-97766452D01*
X192399952Y-97766455D01*
X192313706Y-97881664D01*
X192313702Y-97881671D01*
X192263408Y-98016517D01*
X192257001Y-98076116D01*
X192257000Y-98076135D01*
X192257000Y-99671870D01*
X192257001Y-99671876D01*
X192263408Y-99731483D01*
X192313702Y-99866328D01*
X192313706Y-99866335D01*
X192399952Y-99981544D01*
X192399955Y-99981547D01*
X192515164Y-100067793D01*
X192515171Y-100067797D01*
X192650017Y-100118091D01*
X192650016Y-100118091D01*
X192656944Y-100118835D01*
X192709627Y-100124500D01*
X194173000Y-100124499D01*
X194240039Y-100144184D01*
X194285794Y-100196987D01*
X194297000Y-100248499D01*
X194297000Y-105999500D01*
X194277315Y-106066539D01*
X194224511Y-106112294D01*
X194173000Y-106123500D01*
X192709629Y-106123500D01*
X192709623Y-106123501D01*
X192650016Y-106129908D01*
X192515171Y-106180202D01*
X192515164Y-106180206D01*
X192399955Y-106266452D01*
X192399952Y-106266455D01*
X192313706Y-106381664D01*
X192313702Y-106381671D01*
X192263408Y-106516517D01*
X192257001Y-106576116D01*
X192257000Y-106576135D01*
X192257000Y-108171870D01*
X192257001Y-108171876D01*
X192263408Y-108231483D01*
X192313702Y-108366328D01*
X192313706Y-108366335D01*
X192399952Y-108481544D01*
X192399955Y-108481547D01*
X192515164Y-108567793D01*
X192515171Y-108567797D01*
X192650017Y-108618091D01*
X192650016Y-108618091D01*
X192656944Y-108618835D01*
X192709627Y-108624500D01*
X197749500Y-108624499D01*
X197816539Y-108644184D01*
X197862294Y-108696988D01*
X197873500Y-108748499D01*
X197873500Y-115961500D01*
X197853815Y-116028539D01*
X197801011Y-116074294D01*
X197749500Y-116085500D01*
X153913500Y-116085500D01*
X153846461Y-116065815D01*
X153800706Y-116013011D01*
X153789500Y-115961500D01*
X153789500Y-112775998D01*
X172938532Y-112775998D01*
X172938532Y-112776001D01*
X172958364Y-113002686D01*
X172958366Y-113002697D01*
X173017258Y-113222488D01*
X173017261Y-113222497D01*
X173113431Y-113428732D01*
X173113432Y-113428734D01*
X173243954Y-113615141D01*
X173404858Y-113776045D01*
X173404861Y-113776047D01*
X173591266Y-113906568D01*
X173797504Y-114002739D01*
X174017308Y-114061635D01*
X174179230Y-114075801D01*
X174243998Y-114081468D01*
X174244000Y-114081468D01*
X174244002Y-114081468D01*
X174300673Y-114076509D01*
X174470692Y-114061635D01*
X174690496Y-114002739D01*
X174896734Y-113906568D01*
X175083139Y-113776047D01*
X175244047Y-113615139D01*
X175374568Y-113428734D01*
X175470739Y-113222496D01*
X175529635Y-113002692D01*
X175549468Y-112776000D01*
X175549468Y-112775998D01*
X183098532Y-112775998D01*
X183098532Y-112776001D01*
X183118364Y-113002686D01*
X183118366Y-113002697D01*
X183177258Y-113222488D01*
X183177261Y-113222497D01*
X183273431Y-113428732D01*
X183273432Y-113428734D01*
X183403954Y-113615141D01*
X183564858Y-113776045D01*
X183564861Y-113776047D01*
X183751266Y-113906568D01*
X183957504Y-114002739D01*
X184177308Y-114061635D01*
X184339230Y-114075801D01*
X184403998Y-114081468D01*
X184404000Y-114081468D01*
X184404002Y-114081468D01*
X184460673Y-114076509D01*
X184630692Y-114061635D01*
X184850496Y-114002739D01*
X185056734Y-113906568D01*
X185243139Y-113776047D01*
X185404047Y-113615139D01*
X185534568Y-113428734D01*
X185630739Y-113222496D01*
X185689635Y-113002692D01*
X185709468Y-112776000D01*
X185689635Y-112549308D01*
X185630739Y-112329504D01*
X185534568Y-112123266D01*
X185404047Y-111936861D01*
X185404045Y-111936858D01*
X185243141Y-111775954D01*
X185056734Y-111645432D01*
X185056732Y-111645431D01*
X184850497Y-111549261D01*
X184850488Y-111549258D01*
X184630697Y-111490366D01*
X184630693Y-111490365D01*
X184630692Y-111490365D01*
X184630691Y-111490364D01*
X184630686Y-111490364D01*
X184404002Y-111470532D01*
X184403998Y-111470532D01*
X184177313Y-111490364D01*
X184177302Y-111490366D01*
X183957511Y-111549258D01*
X183957502Y-111549261D01*
X183751267Y-111645431D01*
X183751265Y-111645432D01*
X183564858Y-111775954D01*
X183403954Y-111936858D01*
X183273432Y-112123265D01*
X183273431Y-112123267D01*
X183177261Y-112329502D01*
X183177258Y-112329511D01*
X183118366Y-112549302D01*
X183118364Y-112549313D01*
X183098532Y-112775998D01*
X175549468Y-112775998D01*
X175529635Y-112549308D01*
X175470739Y-112329504D01*
X175374568Y-112123266D01*
X175244047Y-111936861D01*
X175244045Y-111936858D01*
X175083141Y-111775954D01*
X174896734Y-111645432D01*
X174896732Y-111645431D01*
X174690497Y-111549261D01*
X174690488Y-111549258D01*
X174470697Y-111490366D01*
X174470693Y-111490365D01*
X174470692Y-111490365D01*
X174470691Y-111490364D01*
X174470686Y-111490364D01*
X174244002Y-111470532D01*
X174243998Y-111470532D01*
X174017313Y-111490364D01*
X174017302Y-111490366D01*
X173797511Y-111549258D01*
X173797502Y-111549261D01*
X173591267Y-111645431D01*
X173591265Y-111645432D01*
X173404858Y-111775954D01*
X173243954Y-111936858D01*
X173113432Y-112123265D01*
X173113431Y-112123267D01*
X173017261Y-112329502D01*
X173017258Y-112329511D01*
X172958366Y-112549302D01*
X172958364Y-112549313D01*
X172938532Y-112775998D01*
X153789500Y-112775998D01*
X153789500Y-109727998D01*
X155412532Y-109727998D01*
X155412532Y-109728001D01*
X155432364Y-109954686D01*
X155432366Y-109954697D01*
X155491258Y-110174488D01*
X155491261Y-110174497D01*
X155587431Y-110380732D01*
X155587432Y-110380734D01*
X155717954Y-110567141D01*
X155878858Y-110728045D01*
X155889656Y-110735606D01*
X156065266Y-110858568D01*
X156271504Y-110954739D01*
X156491308Y-111013635D01*
X156653230Y-111027801D01*
X156717998Y-111033468D01*
X156718000Y-111033468D01*
X156718002Y-111033468D01*
X156774673Y-111028509D01*
X156944692Y-111013635D01*
X157164496Y-110954739D01*
X157370734Y-110858568D01*
X157557139Y-110728047D01*
X157718047Y-110567139D01*
X157848568Y-110380734D01*
X157944739Y-110174496D01*
X158003635Y-109954692D01*
X158023468Y-109728000D01*
X158003635Y-109501308D01*
X157944739Y-109281504D01*
X157848568Y-109075266D01*
X157718047Y-108888861D01*
X157718045Y-108888858D01*
X157557141Y-108727954D01*
X157370734Y-108597432D01*
X157370732Y-108597431D01*
X157164497Y-108501261D01*
X157164488Y-108501258D01*
X156944697Y-108442366D01*
X156944693Y-108442365D01*
X156944692Y-108442365D01*
X156944691Y-108442364D01*
X156944686Y-108442364D01*
X156718002Y-108422532D01*
X156717998Y-108422532D01*
X156491313Y-108442364D01*
X156491302Y-108442366D01*
X156271511Y-108501258D01*
X156271502Y-108501261D01*
X156065267Y-108597431D01*
X156065265Y-108597432D01*
X155878858Y-108727954D01*
X155717954Y-108888858D01*
X155587432Y-109075265D01*
X155587431Y-109075267D01*
X155491261Y-109281502D01*
X155491258Y-109281511D01*
X155432366Y-109501302D01*
X155432364Y-109501313D01*
X155412532Y-109727998D01*
X153789500Y-109727998D01*
X153789500Y-106298998D01*
X155412532Y-106298998D01*
X155412532Y-106299001D01*
X155432364Y-106525686D01*
X155432366Y-106525697D01*
X155491258Y-106745488D01*
X155491261Y-106745497D01*
X155587431Y-106951732D01*
X155587432Y-106951734D01*
X155717954Y-107138141D01*
X155878858Y-107299045D01*
X155878861Y-107299047D01*
X156065266Y-107429568D01*
X156271504Y-107525739D01*
X156491308Y-107584635D01*
X156653230Y-107598801D01*
X156717998Y-107604468D01*
X156718000Y-107604468D01*
X156718002Y-107604468D01*
X156774673Y-107599509D01*
X156944692Y-107584635D01*
X157164496Y-107525739D01*
X157370734Y-107429568D01*
X157557139Y-107299047D01*
X157718047Y-107138139D01*
X157848568Y-106951734D01*
X157944739Y-106745496D01*
X158003635Y-106525692D01*
X158023468Y-106299000D01*
X158020620Y-106266452D01*
X158013075Y-106180204D01*
X158003635Y-106072308D01*
X157944739Y-105852504D01*
X157848568Y-105646266D01*
X157718047Y-105459861D01*
X157718045Y-105459858D01*
X157557141Y-105298954D01*
X157370734Y-105168432D01*
X157370732Y-105168431D01*
X157164497Y-105072261D01*
X157164488Y-105072258D01*
X156944697Y-105013366D01*
X156944693Y-105013365D01*
X156944692Y-105013365D01*
X156944691Y-105013364D01*
X156944686Y-105013364D01*
X156718002Y-104993532D01*
X156717998Y-104993532D01*
X156491313Y-105013364D01*
X156491302Y-105013366D01*
X156271511Y-105072258D01*
X156271502Y-105072261D01*
X156065267Y-105168431D01*
X156065265Y-105168432D01*
X155878858Y-105298954D01*
X155717954Y-105459858D01*
X155587432Y-105646265D01*
X155587431Y-105646267D01*
X155491261Y-105852502D01*
X155491258Y-105852511D01*
X155432366Y-106072302D01*
X155432364Y-106072313D01*
X155412532Y-106298998D01*
X153789500Y-106298998D01*
X153789500Y-99948998D01*
X155412532Y-99948998D01*
X155412532Y-99949001D01*
X155432364Y-100175686D01*
X155432366Y-100175697D01*
X155491258Y-100395488D01*
X155491261Y-100395497D01*
X155587431Y-100601732D01*
X155587432Y-100601734D01*
X155717954Y-100788141D01*
X155878858Y-100949045D01*
X155878861Y-100949047D01*
X156065266Y-101079568D01*
X156271504Y-101175739D01*
X156491308Y-101234635D01*
X156653230Y-101248801D01*
X156717998Y-101254468D01*
X156718000Y-101254468D01*
X156718002Y-101254468D01*
X156774673Y-101249509D01*
X156944692Y-101234635D01*
X157164496Y-101175739D01*
X157370734Y-101079568D01*
X157557139Y-100949047D01*
X157718047Y-100788139D01*
X157848568Y-100601734D01*
X157944739Y-100395496D01*
X158003635Y-100175692D01*
X158023468Y-99949000D01*
X158003635Y-99722308D01*
X157944739Y-99502504D01*
X157848568Y-99296266D01*
X157718047Y-99109861D01*
X157718045Y-99109858D01*
X157557141Y-98948954D01*
X157370734Y-98818432D01*
X157370732Y-98818431D01*
X157164497Y-98722261D01*
X157164488Y-98722258D01*
X156944697Y-98663366D01*
X156944693Y-98663365D01*
X156944692Y-98663365D01*
X156944691Y-98663364D01*
X156944686Y-98663364D01*
X156718002Y-98643532D01*
X156717998Y-98643532D01*
X156491313Y-98663364D01*
X156491302Y-98663366D01*
X156271511Y-98722258D01*
X156271502Y-98722261D01*
X156065267Y-98818431D01*
X156065265Y-98818432D01*
X155878858Y-98948954D01*
X155717954Y-99109858D01*
X155587432Y-99296265D01*
X155587431Y-99296267D01*
X155491261Y-99502502D01*
X155491258Y-99502511D01*
X155432366Y-99722302D01*
X155432364Y-99722313D01*
X155412532Y-99948998D01*
X153789500Y-99948998D01*
X153789500Y-93133847D01*
X155428332Y-93133847D01*
X155428332Y-93133850D01*
X155448164Y-93360535D01*
X155448166Y-93360546D01*
X155507058Y-93580337D01*
X155507061Y-93580346D01*
X155603231Y-93786581D01*
X155603232Y-93786583D01*
X155733754Y-93972990D01*
X155894658Y-94133894D01*
X155894661Y-94133896D01*
X156081066Y-94264417D01*
X156287304Y-94360588D01*
X156507108Y-94419484D01*
X156669030Y-94433650D01*
X156733798Y-94439317D01*
X156733800Y-94439317D01*
X156733802Y-94439317D01*
X156790473Y-94434358D01*
X156960492Y-94419484D01*
X157180296Y-94360588D01*
X157386534Y-94264417D01*
X157572939Y-94133896D01*
X157733847Y-93972988D01*
X157864368Y-93786583D01*
X157960539Y-93580345D01*
X158019435Y-93360541D01*
X158039268Y-93133849D01*
X158019435Y-92907157D01*
X157960539Y-92687353D01*
X157864368Y-92481115D01*
X157766639Y-92341542D01*
X157733845Y-92294707D01*
X157572941Y-92133803D01*
X157386534Y-92003281D01*
X157386532Y-92003280D01*
X157180297Y-91907110D01*
X157180288Y-91907107D01*
X156960497Y-91848215D01*
X156960493Y-91848214D01*
X156960492Y-91848214D01*
X156960491Y-91848213D01*
X156960486Y-91848213D01*
X156733802Y-91828381D01*
X156733798Y-91828381D01*
X156507113Y-91848213D01*
X156507102Y-91848215D01*
X156287311Y-91907107D01*
X156287302Y-91907110D01*
X156081067Y-92003280D01*
X156081065Y-92003281D01*
X155894658Y-92133803D01*
X155733754Y-92294707D01*
X155603232Y-92481114D01*
X155603231Y-92481116D01*
X155507061Y-92687351D01*
X155507058Y-92687360D01*
X155448166Y-92907151D01*
X155448164Y-92907162D01*
X155428332Y-93133847D01*
X153789500Y-93133847D01*
X153789500Y-90169998D01*
X155198532Y-90169998D01*
X155198532Y-90170001D01*
X155218364Y-90396686D01*
X155218366Y-90396697D01*
X155277258Y-90616488D01*
X155277261Y-90616497D01*
X155373431Y-90822732D01*
X155373432Y-90822734D01*
X155503954Y-91009141D01*
X155664858Y-91170045D01*
X155664861Y-91170047D01*
X155851266Y-91300568D01*
X156057504Y-91396739D01*
X156277308Y-91455635D01*
X156439230Y-91469801D01*
X156503998Y-91475468D01*
X156504000Y-91475468D01*
X156504002Y-91475468D01*
X156560673Y-91470509D01*
X156730692Y-91455635D01*
X156950496Y-91396739D01*
X157156734Y-91300568D01*
X157343139Y-91170047D01*
X157504047Y-91009139D01*
X157634568Y-90822734D01*
X157641893Y-90807024D01*
X157688064Y-90754586D01*
X157755257Y-90735433D01*
X157822138Y-90755648D01*
X157866657Y-90807024D01*
X157873864Y-90822480D01*
X157924974Y-90895472D01*
X158604000Y-90216446D01*
X158604000Y-90222661D01*
X158631259Y-90324394D01*
X158683920Y-90415606D01*
X158758394Y-90490080D01*
X158849606Y-90542741D01*
X158951339Y-90570000D01*
X158957553Y-90570000D01*
X158278526Y-91249025D01*
X158351513Y-91300132D01*
X158351521Y-91300136D01*
X158557668Y-91396264D01*
X158557682Y-91396269D01*
X158777389Y-91455139D01*
X158777400Y-91455141D01*
X159003998Y-91474966D01*
X159004002Y-91474966D01*
X159230599Y-91455141D01*
X159230610Y-91455139D01*
X159450317Y-91396269D01*
X159450331Y-91396264D01*
X159656478Y-91300136D01*
X159729471Y-91249024D01*
X159050447Y-90570000D01*
X159056661Y-90570000D01*
X159158394Y-90542741D01*
X159249606Y-90490080D01*
X159324080Y-90415606D01*
X159376741Y-90324394D01*
X159404000Y-90222661D01*
X159404000Y-90216447D01*
X160083025Y-90895472D01*
X160099894Y-90893996D01*
X160118501Y-90879123D01*
X160188000Y-90871929D01*
X160250355Y-90903451D01*
X160285769Y-90963681D01*
X160289500Y-90993871D01*
X160289500Y-95395500D01*
X160269815Y-95462539D01*
X160217011Y-95508294D01*
X160165500Y-95519500D01*
X157595588Y-95519500D01*
X157528549Y-95499815D01*
X157524465Y-95497075D01*
X157475142Y-95462539D01*
X157370734Y-95389432D01*
X157370732Y-95389431D01*
X157164497Y-95293261D01*
X157164488Y-95293258D01*
X156944697Y-95234366D01*
X156944693Y-95234365D01*
X156944692Y-95234365D01*
X156944691Y-95234364D01*
X156944686Y-95234364D01*
X156718002Y-95214532D01*
X156717998Y-95214532D01*
X156491313Y-95234364D01*
X156491302Y-95234366D01*
X156271511Y-95293258D01*
X156271502Y-95293261D01*
X156065267Y-95389431D01*
X156065265Y-95389432D01*
X155878858Y-95519954D01*
X155717954Y-95680858D01*
X155587432Y-95867265D01*
X155587431Y-95867267D01*
X155491261Y-96073502D01*
X155491258Y-96073511D01*
X155432366Y-96293302D01*
X155432364Y-96293313D01*
X155412532Y-96519998D01*
X155412532Y-96520001D01*
X155432364Y-96746686D01*
X155432366Y-96746697D01*
X155491258Y-96966488D01*
X155491261Y-96966497D01*
X155587431Y-97172732D01*
X155587432Y-97172734D01*
X155717954Y-97359141D01*
X155878858Y-97520045D01*
X155878861Y-97520047D01*
X156065266Y-97650568D01*
X156271504Y-97746739D01*
X156491308Y-97805635D01*
X156653230Y-97819801D01*
X156717998Y-97825468D01*
X156718000Y-97825468D01*
X156718002Y-97825468D01*
X156774673Y-97820509D01*
X156944692Y-97805635D01*
X157164496Y-97746739D01*
X157370734Y-97650568D01*
X157524465Y-97542924D01*
X157590671Y-97520598D01*
X157595588Y-97520500D01*
X160165500Y-97520500D01*
X160232539Y-97540185D01*
X160278294Y-97592989D01*
X160289500Y-97644500D01*
X160289500Y-101818522D01*
X160269815Y-101885561D01*
X160217011Y-101931316D01*
X160147853Y-101941260D01*
X160094378Y-101920098D01*
X160045053Y-101885561D01*
X160017734Y-101866432D01*
X160017732Y-101866431D01*
X159811497Y-101770261D01*
X159811488Y-101770258D01*
X159591697Y-101711366D01*
X159591693Y-101711365D01*
X159591692Y-101711365D01*
X159591691Y-101711364D01*
X159591686Y-101711364D01*
X159365002Y-101691532D01*
X159364998Y-101691532D01*
X159138313Y-101711364D01*
X159138302Y-101711366D01*
X158918511Y-101770258D01*
X158918502Y-101770261D01*
X158712267Y-101866431D01*
X158712265Y-101866432D01*
X158525858Y-101996954D01*
X158364954Y-102157858D01*
X158234433Y-102344264D01*
X158234432Y-102344266D01*
X158227380Y-102359387D01*
X158181209Y-102411825D01*
X158114015Y-102430976D01*
X158047134Y-102410760D01*
X158002619Y-102359387D01*
X157995568Y-102344266D01*
X157865047Y-102157861D01*
X157865045Y-102157858D01*
X157704141Y-101996954D01*
X157517734Y-101866432D01*
X157517732Y-101866431D01*
X157311497Y-101770261D01*
X157311488Y-101770258D01*
X157091697Y-101711366D01*
X157091693Y-101711365D01*
X157091692Y-101711365D01*
X157091691Y-101711364D01*
X157091686Y-101711364D01*
X156865002Y-101691532D01*
X156864998Y-101691532D01*
X156638313Y-101711364D01*
X156638302Y-101711366D01*
X156418511Y-101770258D01*
X156418502Y-101770261D01*
X156212267Y-101866431D01*
X156212265Y-101866432D01*
X156025858Y-101996954D01*
X155864954Y-102157858D01*
X155734432Y-102344265D01*
X155734431Y-102344267D01*
X155638261Y-102550502D01*
X155638258Y-102550511D01*
X155579366Y-102770302D01*
X155579364Y-102770313D01*
X155559532Y-102996998D01*
X155559532Y-102997001D01*
X155579364Y-103223686D01*
X155579366Y-103223697D01*
X155638258Y-103443488D01*
X155638261Y-103443497D01*
X155734431Y-103649732D01*
X155734432Y-103649734D01*
X155864954Y-103836141D01*
X156025858Y-103997045D01*
X156025861Y-103997047D01*
X156212266Y-104127568D01*
X156418504Y-104223739D01*
X156638308Y-104282635D01*
X156800230Y-104296801D01*
X156864998Y-104302468D01*
X156865000Y-104302468D01*
X156865002Y-104302468D01*
X156921673Y-104297509D01*
X157091692Y-104282635D01*
X157311496Y-104223739D01*
X157517734Y-104127568D01*
X157704139Y-103997047D01*
X157865047Y-103836139D01*
X157995568Y-103649734D01*
X158002618Y-103634614D01*
X158048789Y-103582176D01*
X158115982Y-103563023D01*
X158182864Y-103583238D01*
X158227381Y-103634614D01*
X158234432Y-103649733D01*
X158234432Y-103649734D01*
X158364954Y-103836141D01*
X158525858Y-103997045D01*
X158525861Y-103997047D01*
X158712266Y-104127568D01*
X158918504Y-104223739D01*
X159138308Y-104282635D01*
X159300230Y-104296801D01*
X159364998Y-104302468D01*
X159365000Y-104302468D01*
X159365002Y-104302468D01*
X159421673Y-104297509D01*
X159591692Y-104282635D01*
X159811496Y-104223739D01*
X160017734Y-104127568D01*
X160094378Y-104073901D01*
X160160583Y-104051575D01*
X160228350Y-104068585D01*
X160276163Y-104119533D01*
X160289500Y-104175477D01*
X160289500Y-104676459D01*
X160289500Y-109318541D01*
X160289500Y-109318543D01*
X160289499Y-109318543D01*
X160327947Y-109511829D01*
X160327950Y-109511839D01*
X160403364Y-109693907D01*
X160403371Y-109693920D01*
X160512859Y-109857780D01*
X160512860Y-109857781D01*
X160512861Y-109857782D01*
X160652218Y-109997139D01*
X160652219Y-109997139D01*
X160659286Y-110004206D01*
X160659285Y-110004206D01*
X160659288Y-110004208D01*
X161020860Y-110365781D01*
X161020861Y-110365782D01*
X161092418Y-110437339D01*
X161160219Y-110505140D01*
X161303752Y-110601045D01*
X161324086Y-110614632D01*
X161430745Y-110658811D01*
X161506164Y-110690051D01*
X161640097Y-110716692D01*
X161699454Y-110728499D01*
X161699457Y-110728500D01*
X161699459Y-110728500D01*
X161896540Y-110728500D01*
X166000412Y-110728500D01*
X166067451Y-110748185D01*
X166071523Y-110750917D01*
X166225266Y-110858568D01*
X166431504Y-110954739D01*
X166651308Y-111013635D01*
X166813230Y-111027801D01*
X166877998Y-111033468D01*
X166878000Y-111033468D01*
X166878002Y-111033468D01*
X166934673Y-111028509D01*
X167104692Y-111013635D01*
X167324496Y-110954739D01*
X167530734Y-110858568D01*
X167717139Y-110728047D01*
X167878047Y-110567139D01*
X168008568Y-110380734D01*
X168030289Y-110334151D01*
X168076459Y-110281715D01*
X168143652Y-110262562D01*
X168210534Y-110282777D01*
X168244244Y-110315434D01*
X168251973Y-110326472D01*
X168251974Y-110326472D01*
X168931000Y-109647446D01*
X168931000Y-109653661D01*
X168958259Y-109755394D01*
X169010920Y-109846606D01*
X169085394Y-109921080D01*
X169176606Y-109973741D01*
X169278339Y-110001000D01*
X169284553Y-110001000D01*
X168605526Y-110680025D01*
X168678513Y-110731132D01*
X168678521Y-110731136D01*
X168884668Y-110827264D01*
X168884682Y-110827269D01*
X169104389Y-110886139D01*
X169104400Y-110886141D01*
X169330998Y-110905966D01*
X169331002Y-110905966D01*
X169557599Y-110886141D01*
X169557610Y-110886139D01*
X169777317Y-110827269D01*
X169777331Y-110827264D01*
X169983478Y-110731136D01*
X170056471Y-110680024D01*
X169377447Y-110001000D01*
X169383661Y-110001000D01*
X169485394Y-109973741D01*
X169576606Y-109921080D01*
X169651080Y-109846606D01*
X169703741Y-109755394D01*
X169731000Y-109653661D01*
X169731000Y-109647447D01*
X170410024Y-110326471D01*
X170461134Y-110253481D01*
X170468340Y-110238028D01*
X170514511Y-110185587D01*
X170581704Y-110166433D01*
X170648585Y-110186646D01*
X170693105Y-110238022D01*
X170700430Y-110253730D01*
X170700432Y-110253734D01*
X170830954Y-110440141D01*
X170991858Y-110601045D01*
X171038693Y-110633839D01*
X171178266Y-110731568D01*
X171384504Y-110827739D01*
X171604308Y-110886635D01*
X171766230Y-110900801D01*
X171830998Y-110906468D01*
X171831000Y-110906468D01*
X171831002Y-110906468D01*
X171887673Y-110901509D01*
X172057692Y-110886635D01*
X172277496Y-110827739D01*
X172483734Y-110731568D01*
X172670139Y-110601047D01*
X172831047Y-110440139D01*
X172893989Y-110350247D01*
X172948564Y-110306623D01*
X173018062Y-110299429D01*
X173080417Y-110330951D01*
X173107944Y-110368965D01*
X173113432Y-110380733D01*
X173113432Y-110380734D01*
X173243954Y-110567141D01*
X173404858Y-110728045D01*
X173415656Y-110735606D01*
X173591266Y-110858568D01*
X173797504Y-110954739D01*
X174017308Y-111013635D01*
X174179230Y-111027801D01*
X174243998Y-111033468D01*
X174244000Y-111033468D01*
X174244002Y-111033468D01*
X174300673Y-111028509D01*
X174470692Y-111013635D01*
X174690496Y-110954739D01*
X174896734Y-110858568D01*
X175083139Y-110728047D01*
X175244047Y-110567139D01*
X175374568Y-110380734D01*
X175470739Y-110174496D01*
X175529635Y-109954692D01*
X175549468Y-109728000D01*
X175549468Y-109727998D01*
X183098532Y-109727998D01*
X183098532Y-109728001D01*
X183118364Y-109954686D01*
X183118366Y-109954697D01*
X183177258Y-110174488D01*
X183177261Y-110174497D01*
X183273431Y-110380732D01*
X183273432Y-110380734D01*
X183403954Y-110567141D01*
X183564858Y-110728045D01*
X183575656Y-110735606D01*
X183751266Y-110858568D01*
X183957504Y-110954739D01*
X184177308Y-111013635D01*
X184339230Y-111027801D01*
X184403998Y-111033468D01*
X184404000Y-111033468D01*
X184404002Y-111033468D01*
X184460673Y-111028509D01*
X184630692Y-111013635D01*
X184850496Y-110954739D01*
X185056734Y-110858568D01*
X185243139Y-110728047D01*
X185404047Y-110567139D01*
X185458061Y-110489998D01*
X188706532Y-110489998D01*
X188706532Y-110490001D01*
X188726364Y-110716686D01*
X188726366Y-110716697D01*
X188785258Y-110936488D01*
X188785261Y-110936497D01*
X188881431Y-111142732D01*
X188881432Y-111142734D01*
X189011954Y-111329141D01*
X189172858Y-111490045D01*
X189219693Y-111522839D01*
X189359266Y-111620568D01*
X189565504Y-111716739D01*
X189785308Y-111775635D01*
X189947230Y-111789801D01*
X190011998Y-111795468D01*
X190012000Y-111795468D01*
X190012002Y-111795468D01*
X190068673Y-111790509D01*
X190238692Y-111775635D01*
X190458496Y-111716739D01*
X190664734Y-111620568D01*
X190851139Y-111490047D01*
X191012047Y-111329139D01*
X191142568Y-111142734D01*
X191149893Y-111127024D01*
X191196064Y-111074586D01*
X191263257Y-111055433D01*
X191330138Y-111075648D01*
X191374657Y-111127024D01*
X191381864Y-111142480D01*
X191432974Y-111215472D01*
X192112000Y-110536446D01*
X192112000Y-110542661D01*
X192139259Y-110644394D01*
X192191920Y-110735606D01*
X192266394Y-110810080D01*
X192357606Y-110862741D01*
X192459339Y-110890000D01*
X192465553Y-110890000D01*
X191786526Y-111569025D01*
X191859513Y-111620132D01*
X191859521Y-111620136D01*
X192065668Y-111716264D01*
X192065682Y-111716269D01*
X192285389Y-111775139D01*
X192285400Y-111775141D01*
X192511998Y-111794966D01*
X192512002Y-111794966D01*
X192738599Y-111775141D01*
X192738610Y-111775139D01*
X192958317Y-111716269D01*
X192958331Y-111716264D01*
X193164478Y-111620136D01*
X193237471Y-111569024D01*
X192558447Y-110890000D01*
X192564661Y-110890000D01*
X192666394Y-110862741D01*
X192757606Y-110810080D01*
X192832080Y-110735606D01*
X192884741Y-110644394D01*
X192912000Y-110542661D01*
X192912000Y-110536447D01*
X193591024Y-111215471D01*
X193642136Y-111142478D01*
X193738264Y-110936331D01*
X193738269Y-110936317D01*
X193797139Y-110716610D01*
X193797141Y-110716599D01*
X193816966Y-110490002D01*
X193816966Y-110489997D01*
X193797141Y-110263400D01*
X193797139Y-110263389D01*
X193738269Y-110043682D01*
X193738264Y-110043668D01*
X193642136Y-109837521D01*
X193642132Y-109837513D01*
X193591025Y-109764526D01*
X192912000Y-110443551D01*
X192912000Y-110437339D01*
X192884741Y-110335606D01*
X192832080Y-110244394D01*
X192757606Y-110169920D01*
X192666394Y-110117259D01*
X192564661Y-110090000D01*
X192558448Y-110090000D01*
X193237472Y-109410974D01*
X193164478Y-109359863D01*
X192958331Y-109263735D01*
X192958317Y-109263730D01*
X192738610Y-109204860D01*
X192738599Y-109204858D01*
X192512002Y-109185034D01*
X192511998Y-109185034D01*
X192285400Y-109204858D01*
X192285389Y-109204860D01*
X192065682Y-109263730D01*
X192065673Y-109263734D01*
X191859516Y-109359866D01*
X191859512Y-109359868D01*
X191786526Y-109410973D01*
X191786526Y-109410974D01*
X192465553Y-110090000D01*
X192459339Y-110090000D01*
X192357606Y-110117259D01*
X192266394Y-110169920D01*
X192191920Y-110244394D01*
X192139259Y-110335606D01*
X192112000Y-110437339D01*
X192112000Y-110443552D01*
X191432974Y-109764526D01*
X191432973Y-109764526D01*
X191381868Y-109837512D01*
X191381867Y-109837514D01*
X191374656Y-109852979D01*
X191328482Y-109905417D01*
X191261288Y-109924567D01*
X191194407Y-109904350D01*
X191149893Y-109852976D01*
X191142568Y-109837266D01*
X191012047Y-109650861D01*
X191012045Y-109650858D01*
X190851141Y-109489954D01*
X190664734Y-109359432D01*
X190664732Y-109359431D01*
X190458497Y-109263261D01*
X190458488Y-109263258D01*
X190238697Y-109204366D01*
X190238693Y-109204365D01*
X190238692Y-109204365D01*
X190238691Y-109204364D01*
X190238686Y-109204364D01*
X190012002Y-109184532D01*
X190011998Y-109184532D01*
X189785313Y-109204364D01*
X189785302Y-109204366D01*
X189565511Y-109263258D01*
X189565502Y-109263261D01*
X189359267Y-109359431D01*
X189359265Y-109359432D01*
X189172858Y-109489954D01*
X189011954Y-109650858D01*
X188881432Y-109837265D01*
X188881431Y-109837267D01*
X188785261Y-110043502D01*
X188785258Y-110043511D01*
X188726366Y-110263302D01*
X188726364Y-110263313D01*
X188706532Y-110489998D01*
X185458061Y-110489998D01*
X185534568Y-110380734D01*
X185630739Y-110174496D01*
X185689635Y-109954692D01*
X185709468Y-109728000D01*
X185689635Y-109501308D01*
X185630739Y-109281504D01*
X185534568Y-109075266D01*
X185404047Y-108888861D01*
X185404045Y-108888858D01*
X185243141Y-108727954D01*
X185056734Y-108597432D01*
X185056732Y-108597431D01*
X184850497Y-108501261D01*
X184850488Y-108501258D01*
X184630697Y-108442366D01*
X184630693Y-108442365D01*
X184630692Y-108442365D01*
X184630691Y-108442364D01*
X184630686Y-108442364D01*
X184404002Y-108422532D01*
X184403998Y-108422532D01*
X184177313Y-108442364D01*
X184177302Y-108442366D01*
X183957511Y-108501258D01*
X183957502Y-108501261D01*
X183751267Y-108597431D01*
X183751265Y-108597432D01*
X183564858Y-108727954D01*
X183403954Y-108888858D01*
X183273432Y-109075265D01*
X183273431Y-109075267D01*
X183177261Y-109281502D01*
X183177258Y-109281511D01*
X183118366Y-109501302D01*
X183118364Y-109501313D01*
X183098532Y-109727998D01*
X175549468Y-109727998D01*
X175529635Y-109501308D01*
X175470739Y-109281504D01*
X175374568Y-109075266D01*
X175244047Y-108888861D01*
X175244045Y-108888858D01*
X175083141Y-108727954D01*
X174896734Y-108597432D01*
X174896732Y-108597431D01*
X174690497Y-108501261D01*
X174690488Y-108501258D01*
X174470697Y-108442366D01*
X174470693Y-108442365D01*
X174470692Y-108442365D01*
X174470691Y-108442364D01*
X174470686Y-108442364D01*
X174244002Y-108422532D01*
X174243998Y-108422532D01*
X174017313Y-108442364D01*
X174017302Y-108442366D01*
X173797511Y-108501258D01*
X173797502Y-108501261D01*
X173591267Y-108597431D01*
X173591265Y-108597432D01*
X173404858Y-108727954D01*
X173243956Y-108888856D01*
X173181011Y-108978751D01*
X173126433Y-109022376D01*
X173056935Y-109029568D01*
X172994580Y-108998046D01*
X172967054Y-108960032D01*
X172961568Y-108948266D01*
X172831047Y-108761861D01*
X172831045Y-108761858D01*
X172670141Y-108600954D01*
X172483734Y-108470432D01*
X172483732Y-108470431D01*
X172277497Y-108374261D01*
X172277488Y-108374258D01*
X172057697Y-108315366D01*
X172057693Y-108315365D01*
X172057692Y-108315365D01*
X172057691Y-108315364D01*
X172057686Y-108315364D01*
X171831002Y-108295532D01*
X171830998Y-108295532D01*
X171604313Y-108315364D01*
X171604302Y-108315366D01*
X171384511Y-108374258D01*
X171384502Y-108374261D01*
X171178267Y-108470431D01*
X171178265Y-108470432D01*
X170991858Y-108600954D01*
X170830954Y-108761858D01*
X170700432Y-108948265D01*
X170700429Y-108948270D01*
X170693104Y-108963979D01*
X170646929Y-109016417D01*
X170579735Y-109035566D01*
X170512855Y-109015347D01*
X170468341Y-108963973D01*
X170461133Y-108948515D01*
X170461132Y-108948513D01*
X170410025Y-108875526D01*
X169731000Y-109554551D01*
X169731000Y-109548339D01*
X169703741Y-109446606D01*
X169651080Y-109355394D01*
X169576606Y-109280920D01*
X169485394Y-109228259D01*
X169383661Y-109201000D01*
X169377446Y-109201000D01*
X170056472Y-108521974D01*
X169983478Y-108470863D01*
X169777331Y-108374735D01*
X169777317Y-108374730D01*
X169557610Y-108315860D01*
X169557599Y-108315858D01*
X169331002Y-108296034D01*
X169330998Y-108296034D01*
X169253225Y-108302838D01*
X169184725Y-108289071D01*
X169134542Y-108240456D01*
X169118609Y-108172427D01*
X169141985Y-108106584D01*
X169154731Y-108091635D01*
X169914652Y-107331714D01*
X169975973Y-107298231D01*
X170013135Y-107295869D01*
X170156366Y-107308400D01*
X170179999Y-107310468D01*
X170180000Y-107310468D01*
X170180002Y-107310468D01*
X170236673Y-107305509D01*
X170406692Y-107290635D01*
X170626496Y-107231739D01*
X170832734Y-107135568D01*
X171019139Y-107005047D01*
X171180047Y-106844139D01*
X171310568Y-106657734D01*
X171345974Y-106581806D01*
X188612211Y-106581806D01*
X188612211Y-106581807D01*
X188632806Y-106817210D01*
X188632808Y-106817220D01*
X188693964Y-107045462D01*
X188693966Y-107045466D01*
X188693967Y-107045470D01*
X188780826Y-107231739D01*
X188793835Y-107259637D01*
X188793837Y-107259641D01*
X188821430Y-107299047D01*
X188929375Y-107453208D01*
X189096469Y-107620302D01*
X189139592Y-107650497D01*
X189290035Y-107755839D01*
X189290037Y-107755840D01*
X189290040Y-107755842D01*
X189504207Y-107855710D01*
X189732462Y-107916870D01*
X189920788Y-107933346D01*
X189967869Y-107937466D01*
X189967870Y-107937466D01*
X189967871Y-107937466D01*
X190007104Y-107934033D01*
X190203278Y-107916870D01*
X190431533Y-107855710D01*
X190645700Y-107755842D01*
X190839271Y-107620302D01*
X191006365Y-107453208D01*
X191141905Y-107259637D01*
X191241773Y-107045470D01*
X191302933Y-106817215D01*
X191323529Y-106581807D01*
X191302933Y-106346399D01*
X191241773Y-106118144D01*
X191141905Y-105903978D01*
X191105861Y-105852502D01*
X191006366Y-105710407D01*
X191006365Y-105710406D01*
X190884437Y-105588478D01*
X190850954Y-105527158D01*
X190855938Y-105457466D01*
X190897809Y-105401532D01*
X190928785Y-105384617D01*
X191060201Y-105335603D01*
X191175416Y-105249353D01*
X191261666Y-105134138D01*
X191311961Y-104999290D01*
X191318370Y-104939680D01*
X191318369Y-103143935D01*
X191311961Y-103084324D01*
X191302397Y-103058682D01*
X191261667Y-102949478D01*
X191261663Y-102949471D01*
X191175417Y-102834262D01*
X191175414Y-102834259D01*
X191060205Y-102748013D01*
X191060198Y-102748009D01*
X190925352Y-102697715D01*
X190925353Y-102697715D01*
X190865753Y-102691308D01*
X190865751Y-102691307D01*
X190865743Y-102691307D01*
X190865734Y-102691307D01*
X189069999Y-102691307D01*
X189069993Y-102691308D01*
X189010386Y-102697715D01*
X188875541Y-102748009D01*
X188875534Y-102748013D01*
X188760325Y-102834259D01*
X188760322Y-102834262D01*
X188674076Y-102949471D01*
X188674072Y-102949478D01*
X188623778Y-103084324D01*
X188618625Y-103132259D01*
X188617371Y-103143930D01*
X188617370Y-103143942D01*
X188617370Y-104939677D01*
X188617371Y-104939683D01*
X188623778Y-104999290D01*
X188674072Y-105134135D01*
X188674076Y-105134142D01*
X188760322Y-105249351D01*
X188760325Y-105249354D01*
X188875534Y-105335600D01*
X188875541Y-105335604D01*
X189006951Y-105384617D01*
X189062885Y-105426488D01*
X189087302Y-105491952D01*
X189072450Y-105560225D01*
X189051300Y-105588480D01*
X188929373Y-105710407D01*
X188793835Y-105903976D01*
X188793834Y-105903978D01*
X188693968Y-106118142D01*
X188693964Y-106118151D01*
X188632808Y-106346393D01*
X188632806Y-106346403D01*
X188612211Y-106581806D01*
X171345974Y-106581806D01*
X171406739Y-106451496D01*
X171465635Y-106231692D01*
X171485468Y-106005000D01*
X171465635Y-105778308D01*
X171406739Y-105558504D01*
X171310568Y-105352266D01*
X171180047Y-105165861D01*
X171180045Y-105165858D01*
X171019141Y-105004954D01*
X170832734Y-104874432D01*
X170832730Y-104874430D01*
X170817022Y-104867105D01*
X170764583Y-104820931D01*
X170745433Y-104753737D01*
X170765650Y-104686857D01*
X170817028Y-104642340D01*
X170832481Y-104635134D01*
X170905471Y-104584024D01*
X170226447Y-103905000D01*
X170232661Y-103905000D01*
X170334394Y-103877741D01*
X170425606Y-103825080D01*
X170500080Y-103750606D01*
X170552741Y-103659394D01*
X170580000Y-103557661D01*
X170580000Y-103551447D01*
X171259024Y-104230471D01*
X171310136Y-104157478D01*
X171377508Y-104012998D01*
X183138532Y-104012998D01*
X183138532Y-104013001D01*
X183158364Y-104239686D01*
X183158366Y-104239697D01*
X183217258Y-104459488D01*
X183217261Y-104459497D01*
X183313431Y-104665732D01*
X183313432Y-104665734D01*
X183443954Y-104852141D01*
X183604858Y-105013045D01*
X183651693Y-105045839D01*
X183791266Y-105143568D01*
X183997504Y-105239739D01*
X184217308Y-105298635D01*
X184379230Y-105312801D01*
X184443998Y-105318468D01*
X184444000Y-105318468D01*
X184444002Y-105318468D01*
X184500673Y-105313509D01*
X184670692Y-105298635D01*
X184890496Y-105239739D01*
X185096734Y-105143568D01*
X185283139Y-105013047D01*
X185444047Y-104852139D01*
X185574568Y-104665734D01*
X185581618Y-104650614D01*
X185627789Y-104598176D01*
X185694982Y-104579023D01*
X185761864Y-104599238D01*
X185806381Y-104650614D01*
X185813432Y-104665733D01*
X185813432Y-104665734D01*
X185943954Y-104852141D01*
X186104858Y-105013045D01*
X186151693Y-105045839D01*
X186291266Y-105143568D01*
X186497504Y-105239739D01*
X186717308Y-105298635D01*
X186879230Y-105312801D01*
X186943998Y-105318468D01*
X186944000Y-105318468D01*
X186944002Y-105318468D01*
X187000673Y-105313509D01*
X187170692Y-105298635D01*
X187390496Y-105239739D01*
X187596734Y-105143568D01*
X187783139Y-105013047D01*
X187944047Y-104852139D01*
X188074568Y-104665734D01*
X188170739Y-104459496D01*
X188229635Y-104239692D01*
X188249468Y-104013000D01*
X188229635Y-103786308D01*
X188170739Y-103566504D01*
X188074568Y-103360266D01*
X187944047Y-103173861D01*
X187944045Y-103173858D01*
X187783141Y-103012954D01*
X187596734Y-102882432D01*
X187596732Y-102882431D01*
X187390497Y-102786261D01*
X187390488Y-102786258D01*
X187170697Y-102727366D01*
X187170693Y-102727365D01*
X187170692Y-102727365D01*
X187170691Y-102727364D01*
X187170686Y-102727364D01*
X186944002Y-102707532D01*
X186943998Y-102707532D01*
X186717313Y-102727364D01*
X186717302Y-102727366D01*
X186497511Y-102786258D01*
X186497502Y-102786261D01*
X186291267Y-102882431D01*
X186291265Y-102882432D01*
X186104858Y-103012954D01*
X185943954Y-103173858D01*
X185820196Y-103350606D01*
X185813432Y-103360266D01*
X185806380Y-103375387D01*
X185760209Y-103427825D01*
X185693015Y-103446976D01*
X185626134Y-103426760D01*
X185581619Y-103375387D01*
X185574568Y-103360266D01*
X185444047Y-103173861D01*
X185444045Y-103173858D01*
X185283141Y-103012954D01*
X185096734Y-102882432D01*
X185096732Y-102882431D01*
X184890497Y-102786261D01*
X184890488Y-102786258D01*
X184670697Y-102727366D01*
X184670693Y-102727365D01*
X184670692Y-102727365D01*
X184670691Y-102727364D01*
X184670686Y-102727364D01*
X184444002Y-102707532D01*
X184443998Y-102707532D01*
X184217313Y-102727364D01*
X184217302Y-102727366D01*
X183997511Y-102786258D01*
X183997502Y-102786261D01*
X183791267Y-102882431D01*
X183791265Y-102882432D01*
X183604858Y-103012954D01*
X183443954Y-103173858D01*
X183313432Y-103360265D01*
X183313431Y-103360267D01*
X183217261Y-103566502D01*
X183217258Y-103566511D01*
X183158366Y-103786302D01*
X183158364Y-103786313D01*
X183138532Y-104012998D01*
X171377508Y-104012998D01*
X171406264Y-103951331D01*
X171406269Y-103951317D01*
X171465139Y-103731610D01*
X171465141Y-103731599D01*
X171484966Y-103505002D01*
X171484966Y-103504997D01*
X171465141Y-103278400D01*
X171465139Y-103278389D01*
X171406269Y-103058682D01*
X171406264Y-103058668D01*
X171310136Y-102852521D01*
X171310132Y-102852513D01*
X171259025Y-102779526D01*
X170580000Y-103458551D01*
X170580000Y-103452339D01*
X170552741Y-103350606D01*
X170500080Y-103259394D01*
X170425606Y-103184920D01*
X170334394Y-103132259D01*
X170232661Y-103105000D01*
X170226448Y-103105000D01*
X170905472Y-102425974D01*
X170832478Y-102374863D01*
X170626331Y-102278735D01*
X170626317Y-102278730D01*
X170406610Y-102219860D01*
X170406599Y-102219858D01*
X170180002Y-102200034D01*
X170179998Y-102200034D01*
X169953400Y-102219858D01*
X169953389Y-102219860D01*
X169733682Y-102278730D01*
X169733673Y-102278734D01*
X169527516Y-102374866D01*
X169527512Y-102374868D01*
X169454526Y-102425973D01*
X169454526Y-102425974D01*
X170133553Y-103105000D01*
X170127339Y-103105000D01*
X170025606Y-103132259D01*
X169934394Y-103184920D01*
X169859920Y-103259394D01*
X169807259Y-103350606D01*
X169780000Y-103452339D01*
X169780000Y-103458552D01*
X169100974Y-102779526D01*
X169100973Y-102779526D01*
X169049868Y-102852512D01*
X169049866Y-102852516D01*
X168953734Y-103058673D01*
X168953730Y-103058682D01*
X168894860Y-103278389D01*
X168894858Y-103278400D01*
X168875034Y-103504997D01*
X168875034Y-103505002D01*
X168894858Y-103731599D01*
X168894860Y-103731610D01*
X168953730Y-103951317D01*
X168953735Y-103951331D01*
X169049863Y-104157478D01*
X169100974Y-104230472D01*
X169780000Y-103551446D01*
X169780000Y-103557661D01*
X169807259Y-103659394D01*
X169859920Y-103750606D01*
X169934394Y-103825080D01*
X170025606Y-103877741D01*
X170127339Y-103905000D01*
X170133553Y-103905000D01*
X169454526Y-104584025D01*
X169527513Y-104635132D01*
X169527515Y-104635133D01*
X169542973Y-104642341D01*
X169595413Y-104688513D01*
X169614566Y-104755706D01*
X169594351Y-104822587D01*
X169542979Y-104867104D01*
X169527270Y-104874429D01*
X169527265Y-104874432D01*
X169340858Y-105004954D01*
X169179954Y-105165858D01*
X169049432Y-105352265D01*
X169049431Y-105352267D01*
X168953261Y-105558502D01*
X168953258Y-105558511D01*
X168894366Y-105778302D01*
X168894364Y-105778313D01*
X168874532Y-106004998D01*
X168874532Y-106005003D01*
X168889129Y-106171861D01*
X168875362Y-106240360D01*
X168853282Y-106270348D01*
X168331899Y-106791731D01*
X168270576Y-106825216D01*
X168200884Y-106820232D01*
X168144951Y-106778360D01*
X168120534Y-106712896D01*
X168124442Y-106671961D01*
X168163635Y-106525692D01*
X168183468Y-106299000D01*
X168180620Y-106266452D01*
X168173075Y-106180204D01*
X168163635Y-106072308D01*
X168104739Y-105852504D01*
X168008568Y-105646266D01*
X167878047Y-105459861D01*
X167878045Y-105459858D01*
X167717141Y-105298954D01*
X167530734Y-105168432D01*
X167530732Y-105168431D01*
X167324497Y-105072261D01*
X167324488Y-105072258D01*
X167104697Y-105013366D01*
X167104693Y-105013365D01*
X167104692Y-105013365D01*
X167104691Y-105013364D01*
X167104686Y-105013364D01*
X166878002Y-104993532D01*
X166877998Y-104993532D01*
X166651313Y-105013364D01*
X166651302Y-105013366D01*
X166431511Y-105072258D01*
X166431502Y-105072261D01*
X166225267Y-105168431D01*
X166225265Y-105168432D01*
X166038858Y-105298954D01*
X165877954Y-105459858D01*
X165747432Y-105646265D01*
X165747431Y-105646267D01*
X165651261Y-105852502D01*
X165651258Y-105852511D01*
X165592366Y-106072302D01*
X165592364Y-106072313D01*
X165572532Y-106298998D01*
X165572532Y-106299001D01*
X165592364Y-106525686D01*
X165592366Y-106525697D01*
X165651258Y-106745488D01*
X165651261Y-106745497D01*
X165747431Y-106951732D01*
X165747432Y-106951734D01*
X165877954Y-107138141D01*
X166038858Y-107299045D01*
X166038861Y-107299047D01*
X166225266Y-107429568D01*
X166431504Y-107525739D01*
X166651308Y-107584635D01*
X166813230Y-107598801D01*
X166877998Y-107604468D01*
X166878000Y-107604468D01*
X166878002Y-107604468D01*
X166934673Y-107599509D01*
X167104692Y-107584635D01*
X167250959Y-107545443D01*
X167320806Y-107547106D01*
X167378669Y-107586268D01*
X167406173Y-107650497D01*
X167394587Y-107719399D01*
X167370731Y-107752899D01*
X166715325Y-108408305D01*
X166656405Y-108440477D01*
X166656536Y-108440964D01*
X166654530Y-108441501D01*
X166654002Y-108441790D01*
X166651932Y-108442197D01*
X166431511Y-108501258D01*
X166431502Y-108501261D01*
X166225267Y-108597431D01*
X166225265Y-108597432D01*
X166071535Y-108705075D01*
X166005329Y-108727402D01*
X166000412Y-108727500D01*
X162414500Y-108727500D01*
X162347461Y-108707815D01*
X162301706Y-108655011D01*
X162290500Y-108603500D01*
X162290500Y-102996998D01*
X163072532Y-102996998D01*
X163072532Y-102997001D01*
X163092364Y-103223686D01*
X163092366Y-103223697D01*
X163151258Y-103443488D01*
X163151261Y-103443497D01*
X163247431Y-103649732D01*
X163247432Y-103649734D01*
X163377954Y-103836141D01*
X163538858Y-103997045D01*
X163538861Y-103997047D01*
X163725266Y-104127568D01*
X163931504Y-104223739D01*
X164151308Y-104282635D01*
X164313230Y-104296801D01*
X164377998Y-104302468D01*
X164378000Y-104302468D01*
X164378002Y-104302468D01*
X164434673Y-104297509D01*
X164604692Y-104282635D01*
X164824496Y-104223739D01*
X165030734Y-104127568D01*
X165217139Y-103997047D01*
X165378047Y-103836139D01*
X165508568Y-103649734D01*
X165515618Y-103634614D01*
X165561789Y-103582176D01*
X165628982Y-103563023D01*
X165695864Y-103583238D01*
X165740381Y-103634614D01*
X165747432Y-103649733D01*
X165747432Y-103649734D01*
X165877954Y-103836141D01*
X166038858Y-103997045D01*
X166038861Y-103997047D01*
X166225266Y-104127568D01*
X166431504Y-104223739D01*
X166651308Y-104282635D01*
X166813230Y-104296801D01*
X166877998Y-104302468D01*
X166878000Y-104302468D01*
X166878002Y-104302468D01*
X166934673Y-104297509D01*
X167104692Y-104282635D01*
X167324496Y-104223739D01*
X167530734Y-104127568D01*
X167717139Y-103997047D01*
X167878047Y-103836139D01*
X168008568Y-103649734D01*
X168104739Y-103443496D01*
X168163635Y-103223692D01*
X168183468Y-102997000D01*
X168163635Y-102770308D01*
X168104739Y-102550504D01*
X168008568Y-102344266D01*
X167878047Y-102157861D01*
X167878045Y-102157858D01*
X167717141Y-101996954D01*
X167530734Y-101866432D01*
X167530732Y-101866431D01*
X167324497Y-101770261D01*
X167324488Y-101770258D01*
X167104697Y-101711366D01*
X167104693Y-101711365D01*
X167104692Y-101711365D01*
X167104691Y-101711364D01*
X167104686Y-101711364D01*
X166878002Y-101691532D01*
X166877998Y-101691532D01*
X166651313Y-101711364D01*
X166651302Y-101711366D01*
X166431511Y-101770258D01*
X166431502Y-101770261D01*
X166225267Y-101866431D01*
X166225265Y-101866432D01*
X166038858Y-101996954D01*
X165877954Y-102157858D01*
X165747433Y-102344264D01*
X165747432Y-102344266D01*
X165740380Y-102359387D01*
X165694209Y-102411825D01*
X165627015Y-102430976D01*
X165560134Y-102410760D01*
X165515619Y-102359387D01*
X165508568Y-102344266D01*
X165378047Y-102157861D01*
X165378045Y-102157858D01*
X165217141Y-101996954D01*
X165030734Y-101866432D01*
X165030732Y-101866431D01*
X164824497Y-101770261D01*
X164824488Y-101770258D01*
X164604697Y-101711366D01*
X164604693Y-101711365D01*
X164604692Y-101711365D01*
X164604691Y-101711364D01*
X164604686Y-101711364D01*
X164378002Y-101691532D01*
X164377998Y-101691532D01*
X164151313Y-101711364D01*
X164151302Y-101711366D01*
X163931511Y-101770258D01*
X163931502Y-101770261D01*
X163725267Y-101866431D01*
X163725265Y-101866432D01*
X163538858Y-101996954D01*
X163377954Y-102157858D01*
X163247432Y-102344265D01*
X163247431Y-102344267D01*
X163151261Y-102550502D01*
X163151258Y-102550511D01*
X163092366Y-102770302D01*
X163092364Y-102770313D01*
X163072532Y-102996998D01*
X162290500Y-102996998D01*
X162290500Y-99948998D01*
X165572532Y-99948998D01*
X165572532Y-99949001D01*
X165592364Y-100175686D01*
X165592366Y-100175697D01*
X165651258Y-100395488D01*
X165651261Y-100395497D01*
X165747431Y-100601732D01*
X165747432Y-100601734D01*
X165877954Y-100788141D01*
X166038858Y-100949045D01*
X166038861Y-100949047D01*
X166225266Y-101079568D01*
X166431504Y-101175739D01*
X166651308Y-101234635D01*
X166813230Y-101248801D01*
X166877998Y-101254468D01*
X166878000Y-101254468D01*
X166878002Y-101254468D01*
X166934673Y-101249509D01*
X167104692Y-101234635D01*
X167324496Y-101175739D01*
X167530734Y-101079568D01*
X167717139Y-100949047D01*
X167878047Y-100788139D01*
X168008568Y-100601734D01*
X168099119Y-100407547D01*
X168145290Y-100355110D01*
X168212484Y-100335958D01*
X168279365Y-100356174D01*
X168323880Y-100407547D01*
X168404648Y-100580754D01*
X168414431Y-100601732D01*
X168414432Y-100601734D01*
X168544954Y-100788141D01*
X168705858Y-100949045D01*
X168705861Y-100949047D01*
X168892266Y-101079568D01*
X169098504Y-101175739D01*
X169318308Y-101234635D01*
X169480230Y-101248801D01*
X169544998Y-101254468D01*
X169545000Y-101254468D01*
X169545002Y-101254468D01*
X169601673Y-101249509D01*
X169771692Y-101234635D01*
X169991496Y-101175739D01*
X170197734Y-101079568D01*
X170384139Y-100949047D01*
X170545047Y-100788139D01*
X170675568Y-100601734D01*
X170771739Y-100395496D01*
X170830635Y-100175692D01*
X170850468Y-99949000D01*
X170850468Y-99948998D01*
X178399532Y-99948998D01*
X178399532Y-99949001D01*
X178419364Y-100175686D01*
X178419366Y-100175697D01*
X178478258Y-100395488D01*
X178478261Y-100395497D01*
X178574431Y-100601732D01*
X178574432Y-100601734D01*
X178704954Y-100788141D01*
X178865858Y-100949045D01*
X178865861Y-100949047D01*
X179052266Y-101079568D01*
X179258504Y-101175739D01*
X179478308Y-101234635D01*
X179640230Y-101248801D01*
X179704998Y-101254468D01*
X179705000Y-101254468D01*
X179705002Y-101254468D01*
X179761673Y-101249509D01*
X179931692Y-101234635D01*
X180151496Y-101175739D01*
X180357734Y-101079568D01*
X180544139Y-100949047D01*
X180705047Y-100788139D01*
X180835568Y-100601734D01*
X180931739Y-100395496D01*
X180990635Y-100175692D01*
X181010468Y-99949000D01*
X180990635Y-99722308D01*
X180931739Y-99502504D01*
X180835568Y-99296266D01*
X180705047Y-99109861D01*
X180705045Y-99109858D01*
X180544141Y-98948954D01*
X180357734Y-98818432D01*
X180357732Y-98818431D01*
X180151497Y-98722261D01*
X180151488Y-98722258D01*
X179931697Y-98663366D01*
X179931693Y-98663365D01*
X179931692Y-98663365D01*
X179931691Y-98663364D01*
X179931686Y-98663364D01*
X179705002Y-98643532D01*
X179704998Y-98643532D01*
X179478313Y-98663364D01*
X179478302Y-98663366D01*
X179258511Y-98722258D01*
X179258502Y-98722261D01*
X179052267Y-98818431D01*
X179052265Y-98818432D01*
X178865858Y-98948954D01*
X178704954Y-99109858D01*
X178574432Y-99296265D01*
X178574431Y-99296267D01*
X178478261Y-99502502D01*
X178478258Y-99502511D01*
X178419366Y-99722302D01*
X178419364Y-99722313D01*
X178399532Y-99948998D01*
X170850468Y-99948998D01*
X170830635Y-99722308D01*
X170771739Y-99502504D01*
X170675568Y-99296266D01*
X170545047Y-99109861D01*
X170545045Y-99109858D01*
X170384141Y-98948954D01*
X170197734Y-98818432D01*
X170197732Y-98818431D01*
X169991497Y-98722261D01*
X169991488Y-98722258D01*
X169771697Y-98663366D01*
X169771693Y-98663365D01*
X169771692Y-98663365D01*
X169771691Y-98663364D01*
X169771686Y-98663364D01*
X169545002Y-98643532D01*
X169544998Y-98643532D01*
X169318313Y-98663364D01*
X169318302Y-98663366D01*
X169098511Y-98722258D01*
X169098502Y-98722261D01*
X168892267Y-98818431D01*
X168892265Y-98818432D01*
X168705858Y-98948954D01*
X168544954Y-99109858D01*
X168414432Y-99296265D01*
X168414431Y-99296267D01*
X168323882Y-99490450D01*
X168277709Y-99542889D01*
X168210516Y-99562041D01*
X168143635Y-99541825D01*
X168099118Y-99490450D01*
X168008568Y-99296267D01*
X168008567Y-99296265D01*
X167878045Y-99109858D01*
X167717141Y-98948954D01*
X167530734Y-98818432D01*
X167530732Y-98818431D01*
X167324497Y-98722261D01*
X167324488Y-98722258D01*
X167104697Y-98663366D01*
X167104693Y-98663365D01*
X167104692Y-98663365D01*
X167104691Y-98663364D01*
X167104686Y-98663364D01*
X166878002Y-98643532D01*
X166877998Y-98643532D01*
X166651313Y-98663364D01*
X166651302Y-98663366D01*
X166431511Y-98722258D01*
X166431502Y-98722261D01*
X166225267Y-98818431D01*
X166225265Y-98818432D01*
X166038858Y-98948954D01*
X165877954Y-99109858D01*
X165747432Y-99296265D01*
X165747431Y-99296267D01*
X165651261Y-99502502D01*
X165651258Y-99502511D01*
X165592366Y-99722302D01*
X165592364Y-99722313D01*
X165572532Y-99948998D01*
X162290500Y-99948998D01*
X162290500Y-96519998D01*
X165572532Y-96519998D01*
X165572532Y-96520001D01*
X165592364Y-96746686D01*
X165592366Y-96746697D01*
X165651258Y-96966488D01*
X165651261Y-96966497D01*
X165747431Y-97172732D01*
X165747432Y-97172734D01*
X165877954Y-97359141D01*
X166038858Y-97520045D01*
X166038861Y-97520047D01*
X166225266Y-97650568D01*
X166431504Y-97746739D01*
X166651308Y-97805635D01*
X166813230Y-97819801D01*
X166877998Y-97825468D01*
X166878000Y-97825468D01*
X166878002Y-97825468D01*
X166934673Y-97820509D01*
X167104692Y-97805635D01*
X167324496Y-97746739D01*
X167530734Y-97650568D01*
X167717139Y-97520047D01*
X167878047Y-97359139D01*
X168008568Y-97172734D01*
X168099119Y-96978547D01*
X168145290Y-96926110D01*
X168212484Y-96906958D01*
X168279365Y-96927174D01*
X168323880Y-96978547D01*
X168404648Y-97151754D01*
X168414431Y-97172732D01*
X168414432Y-97172734D01*
X168544954Y-97359141D01*
X168705858Y-97520045D01*
X168705861Y-97520047D01*
X168892266Y-97650568D01*
X169098504Y-97746739D01*
X169318308Y-97805635D01*
X169480230Y-97819801D01*
X169544998Y-97825468D01*
X169545000Y-97825468D01*
X169545002Y-97825468D01*
X169601673Y-97820509D01*
X169771692Y-97805635D01*
X169991496Y-97746739D01*
X170197734Y-97650568D01*
X170384139Y-97520047D01*
X170545047Y-97359139D01*
X170675568Y-97172734D01*
X170771739Y-96966496D01*
X170830635Y-96746692D01*
X170850468Y-96520000D01*
X170850468Y-96519998D01*
X178399532Y-96519998D01*
X178399532Y-96520001D01*
X178419364Y-96746686D01*
X178419366Y-96746697D01*
X178478258Y-96966488D01*
X178478261Y-96966497D01*
X178574431Y-97172732D01*
X178574432Y-97172734D01*
X178704954Y-97359141D01*
X178865858Y-97520045D01*
X178865861Y-97520047D01*
X179052266Y-97650568D01*
X179258504Y-97746739D01*
X179478308Y-97805635D01*
X179640230Y-97819801D01*
X179704998Y-97825468D01*
X179705000Y-97825468D01*
X179705002Y-97825468D01*
X179761673Y-97820509D01*
X179931692Y-97805635D01*
X180151496Y-97746739D01*
X180357734Y-97650568D01*
X180544139Y-97520047D01*
X180705047Y-97359139D01*
X180835568Y-97172734D01*
X180931739Y-96966496D01*
X180990635Y-96746692D01*
X181010468Y-96520000D01*
X180990635Y-96293308D01*
X180942275Y-96112825D01*
X180931741Y-96073511D01*
X180931738Y-96073502D01*
X180835568Y-95867267D01*
X180835567Y-95867265D01*
X180832502Y-95862888D01*
X180705047Y-95680861D01*
X180705045Y-95680858D01*
X180544141Y-95519954D01*
X180357734Y-95389432D01*
X180357732Y-95389431D01*
X180151497Y-95293261D01*
X180151488Y-95293258D01*
X179931697Y-95234366D01*
X179931693Y-95234365D01*
X179931692Y-95234365D01*
X179931691Y-95234364D01*
X179931686Y-95234364D01*
X179705002Y-95214532D01*
X179704998Y-95214532D01*
X179478313Y-95234364D01*
X179478302Y-95234366D01*
X179258511Y-95293258D01*
X179258502Y-95293261D01*
X179052267Y-95389431D01*
X179052265Y-95389432D01*
X178865858Y-95519954D01*
X178704954Y-95680858D01*
X178574432Y-95867265D01*
X178574431Y-95867267D01*
X178478261Y-96073502D01*
X178478258Y-96073511D01*
X178419366Y-96293302D01*
X178419364Y-96293313D01*
X178399532Y-96519998D01*
X170850468Y-96519998D01*
X170830635Y-96293308D01*
X170782275Y-96112825D01*
X170771741Y-96073511D01*
X170771738Y-96073502D01*
X170675568Y-95867267D01*
X170675567Y-95867265D01*
X170672502Y-95862888D01*
X170545047Y-95680861D01*
X170545045Y-95680858D01*
X170384141Y-95519954D01*
X170197734Y-95389432D01*
X170197732Y-95389431D01*
X169991497Y-95293261D01*
X169991488Y-95293258D01*
X169771697Y-95234366D01*
X169771693Y-95234365D01*
X169771692Y-95234365D01*
X169771691Y-95234364D01*
X169771686Y-95234364D01*
X169545002Y-95214532D01*
X169544998Y-95214532D01*
X169318313Y-95234364D01*
X169318302Y-95234366D01*
X169098511Y-95293258D01*
X169098502Y-95293261D01*
X168892267Y-95389431D01*
X168892265Y-95389432D01*
X168705858Y-95519954D01*
X168544954Y-95680858D01*
X168414432Y-95867265D01*
X168414431Y-95867267D01*
X168323882Y-96061450D01*
X168277709Y-96113889D01*
X168210516Y-96133041D01*
X168143635Y-96112825D01*
X168099118Y-96061450D01*
X168008568Y-95867267D01*
X168008567Y-95867265D01*
X168005502Y-95862888D01*
X167878047Y-95680861D01*
X167878045Y-95680858D01*
X167717141Y-95519954D01*
X167530734Y-95389432D01*
X167530732Y-95389431D01*
X167324497Y-95293261D01*
X167324488Y-95293258D01*
X167104697Y-95234366D01*
X167104693Y-95234365D01*
X167104692Y-95234365D01*
X167104691Y-95234364D01*
X167104686Y-95234364D01*
X166878002Y-95214532D01*
X166877998Y-95214532D01*
X166651313Y-95234364D01*
X166651302Y-95234366D01*
X166431511Y-95293258D01*
X166431502Y-95293261D01*
X166225267Y-95389431D01*
X166225265Y-95389432D01*
X166038858Y-95519954D01*
X165877954Y-95680858D01*
X165747432Y-95867265D01*
X165747431Y-95867267D01*
X165651261Y-96073502D01*
X165651258Y-96073511D01*
X165592366Y-96293302D01*
X165592364Y-96293313D01*
X165572532Y-96519998D01*
X162290500Y-96519998D01*
X162290500Y-90151500D01*
X162310185Y-90084461D01*
X162362989Y-90038706D01*
X162414500Y-90027500D01*
X173798739Y-90027500D01*
X173928778Y-90001632D01*
X173992031Y-89989051D01*
X174174110Y-89913632D01*
X174337978Y-89804139D01*
X174477335Y-89664782D01*
X174512287Y-89612473D01*
X174536398Y-89576389D01*
X174590010Y-89531583D01*
X174659335Y-89522876D01*
X174722362Y-89553030D01*
X174759082Y-89612473D01*
X174763500Y-89645279D01*
X174763500Y-91585770D01*
X174743815Y-91652809D01*
X174727181Y-91673451D01*
X173969451Y-92431181D01*
X173908128Y-92464666D01*
X173881770Y-92467500D01*
X173084663Y-92467500D01*
X173017624Y-92447815D01*
X172983088Y-92414623D01*
X172958045Y-92378858D01*
X172797141Y-92217954D01*
X172610734Y-92087432D01*
X172610732Y-92087431D01*
X172404497Y-91991261D01*
X172404488Y-91991258D01*
X172184697Y-91932366D01*
X172184693Y-91932365D01*
X172184692Y-91932365D01*
X172184691Y-91932364D01*
X172184686Y-91932364D01*
X171958002Y-91912532D01*
X171957998Y-91912532D01*
X171731313Y-91932364D01*
X171731302Y-91932366D01*
X171511511Y-91991258D01*
X171511502Y-91991261D01*
X171305267Y-92087431D01*
X171305265Y-92087432D01*
X171118858Y-92217954D01*
X170957954Y-92378858D01*
X170827432Y-92565265D01*
X170827429Y-92565270D01*
X170820104Y-92580979D01*
X170773929Y-92633417D01*
X170706735Y-92652566D01*
X170639855Y-92632347D01*
X170595341Y-92580973D01*
X170588133Y-92565515D01*
X170588132Y-92565513D01*
X170537025Y-92492526D01*
X169858000Y-93171551D01*
X169858000Y-93165339D01*
X169830741Y-93063606D01*
X169778080Y-92972394D01*
X169703606Y-92897920D01*
X169612394Y-92845259D01*
X169510661Y-92818000D01*
X169504448Y-92818000D01*
X170183472Y-92138974D01*
X170110478Y-92087863D01*
X169904331Y-91991735D01*
X169904317Y-91991730D01*
X169684610Y-91932860D01*
X169684599Y-91932858D01*
X169458002Y-91913034D01*
X169457998Y-91913034D01*
X169231400Y-91932858D01*
X169231389Y-91932860D01*
X169011682Y-91991730D01*
X169011673Y-91991734D01*
X168805516Y-92087866D01*
X168805512Y-92087868D01*
X168732526Y-92138973D01*
X168732526Y-92138974D01*
X169411553Y-92818000D01*
X169405339Y-92818000D01*
X169303606Y-92845259D01*
X169212394Y-92897920D01*
X169137920Y-92972394D01*
X169085259Y-93063606D01*
X169058000Y-93165339D01*
X169058000Y-93171552D01*
X168378974Y-92492526D01*
X168378973Y-92492526D01*
X168327868Y-92565512D01*
X168327865Y-92565518D01*
X168308176Y-92607740D01*
X168262002Y-92660179D01*
X168194808Y-92679329D01*
X168127928Y-92659112D01*
X168083414Y-92607739D01*
X168024368Y-92481115D01*
X167926639Y-92341542D01*
X167893845Y-92294707D01*
X167732941Y-92133803D01*
X167546534Y-92003281D01*
X167546532Y-92003280D01*
X167340297Y-91907110D01*
X167340288Y-91907107D01*
X167120497Y-91848215D01*
X167120493Y-91848214D01*
X167120492Y-91848214D01*
X167120491Y-91848213D01*
X167120486Y-91848213D01*
X166893802Y-91828381D01*
X166893798Y-91828381D01*
X166667113Y-91848213D01*
X166667102Y-91848215D01*
X166447311Y-91907107D01*
X166447302Y-91907110D01*
X166241067Y-92003280D01*
X166241065Y-92003281D01*
X166054658Y-92133803D01*
X165893754Y-92294707D01*
X165763232Y-92481114D01*
X165763231Y-92481116D01*
X165667061Y-92687351D01*
X165667058Y-92687360D01*
X165608166Y-92907151D01*
X165608164Y-92907162D01*
X165588332Y-93133847D01*
X165588332Y-93133850D01*
X165608164Y-93360535D01*
X165608166Y-93360546D01*
X165667058Y-93580337D01*
X165667061Y-93580346D01*
X165763231Y-93786581D01*
X165763232Y-93786583D01*
X165893754Y-93972990D01*
X166054658Y-94133894D01*
X166054661Y-94133896D01*
X166241066Y-94264417D01*
X166447304Y-94360588D01*
X166667108Y-94419484D01*
X166829030Y-94433650D01*
X166893798Y-94439317D01*
X166893800Y-94439317D01*
X166893802Y-94439317D01*
X166950473Y-94434358D01*
X167120492Y-94419484D01*
X167340296Y-94360588D01*
X167546534Y-94264417D01*
X167732939Y-94133896D01*
X167893847Y-93972988D01*
X168024368Y-93786583D01*
X168044174Y-93744108D01*
X168090344Y-93691671D01*
X168157537Y-93672518D01*
X168224419Y-93692733D01*
X168268937Y-93744110D01*
X168327863Y-93870478D01*
X168378974Y-93943472D01*
X169058000Y-93264446D01*
X169058000Y-93270661D01*
X169085259Y-93372394D01*
X169137920Y-93463606D01*
X169212394Y-93538080D01*
X169303606Y-93590741D01*
X169405339Y-93618000D01*
X169411553Y-93618000D01*
X168732526Y-94297025D01*
X168805513Y-94348132D01*
X168805521Y-94348136D01*
X169011668Y-94444264D01*
X169011682Y-94444269D01*
X169231389Y-94503139D01*
X169231400Y-94503141D01*
X169457998Y-94522966D01*
X169458002Y-94522966D01*
X169684599Y-94503141D01*
X169684610Y-94503139D01*
X169904317Y-94444269D01*
X169904331Y-94444264D01*
X170110478Y-94348136D01*
X170183471Y-94297024D01*
X169504447Y-93618000D01*
X169510661Y-93618000D01*
X169612394Y-93590741D01*
X169703606Y-93538080D01*
X169778080Y-93463606D01*
X169830741Y-93372394D01*
X169858000Y-93270661D01*
X169858000Y-93264447D01*
X170537024Y-93943471D01*
X170588134Y-93870481D01*
X170595340Y-93855028D01*
X170641511Y-93802587D01*
X170708704Y-93783433D01*
X170775585Y-93803646D01*
X170820105Y-93855022D01*
X170827430Y-93870730D01*
X170827432Y-93870734D01*
X170957954Y-94057141D01*
X171118858Y-94218045D01*
X171118861Y-94218047D01*
X171305266Y-94348568D01*
X171511504Y-94444739D01*
X171731308Y-94503635D01*
X171893230Y-94517801D01*
X171957998Y-94523468D01*
X171958000Y-94523468D01*
X171958002Y-94523468D01*
X172014673Y-94518509D01*
X172184692Y-94503635D01*
X172404496Y-94444739D01*
X172610734Y-94348568D01*
X172797139Y-94218047D01*
X172958047Y-94057139D01*
X172983088Y-94021377D01*
X173037665Y-93977752D01*
X173084663Y-93968500D01*
X174317920Y-93968500D01*
X174443744Y-93943471D01*
X174462913Y-93939658D01*
X174599495Y-93883084D01*
X174673983Y-93833313D01*
X174722416Y-93800952D01*
X176096951Y-92426416D01*
X176179084Y-92303495D01*
X176235658Y-92166913D01*
X176244393Y-92122995D01*
X188286732Y-92122995D01*
X188286732Y-92123004D01*
X188305777Y-92377154D01*
X188362490Y-92625630D01*
X188362492Y-92625637D01*
X188455608Y-92862890D01*
X188481168Y-92907162D01*
X188583041Y-93083612D01*
X188741950Y-93282877D01*
X188928783Y-93456232D01*
X188928786Y-93456234D01*
X189023115Y-93520547D01*
X189067417Y-93574575D01*
X189075475Y-93643979D01*
X189044733Y-93706722D01*
X189023115Y-93725453D01*
X188928786Y-93789765D01*
X188741952Y-93963121D01*
X188741950Y-93963123D01*
X188583041Y-94162388D01*
X188455608Y-94383109D01*
X188362492Y-94620362D01*
X188362490Y-94620369D01*
X188305777Y-94868845D01*
X188286732Y-95122995D01*
X188286732Y-95123004D01*
X188305777Y-95377154D01*
X188362490Y-95625630D01*
X188362492Y-95625637D01*
X188455608Y-95862890D01*
X188458135Y-95867267D01*
X188583041Y-96083612D01*
X188741950Y-96282877D01*
X188928783Y-96456232D01*
X189139366Y-96599805D01*
X189139371Y-96599807D01*
X189139372Y-96599808D01*
X189139373Y-96599809D01*
X189261328Y-96658538D01*
X189368992Y-96710387D01*
X189368993Y-96710387D01*
X189368996Y-96710389D01*
X189612542Y-96785513D01*
X189864565Y-96823500D01*
X190119435Y-96823500D01*
X190371458Y-96785513D01*
X190615004Y-96710389D01*
X190844634Y-96599805D01*
X191055217Y-96456232D01*
X191242050Y-96282877D01*
X191400959Y-96083612D01*
X191528393Y-95862888D01*
X191621508Y-95625637D01*
X191678222Y-95377157D01*
X191686384Y-95268232D01*
X191697268Y-95123004D01*
X191697268Y-95122995D01*
X191678222Y-94868845D01*
X191621509Y-94620369D01*
X191621508Y-94620363D01*
X191528393Y-94383112D01*
X191400959Y-94162388D01*
X191242050Y-93963123D01*
X191055217Y-93789768D01*
X190960884Y-93725452D01*
X190916583Y-93671425D01*
X190908523Y-93602022D01*
X190939266Y-93539279D01*
X190960884Y-93520547D01*
X191055217Y-93456232D01*
X191242050Y-93282877D01*
X191400959Y-93083612D01*
X191528393Y-92862888D01*
X191621508Y-92625637D01*
X191678222Y-92377157D01*
X191690152Y-92217954D01*
X191697268Y-92123004D01*
X191697268Y-92122995D01*
X191678222Y-91868845D01*
X191673513Y-91848215D01*
X191621508Y-91620363D01*
X191528393Y-91383112D01*
X191400959Y-91162388D01*
X191242050Y-90963123D01*
X191055217Y-90789768D01*
X190844634Y-90646195D01*
X190844630Y-90646193D01*
X190844627Y-90646191D01*
X190844626Y-90646190D01*
X190615006Y-90535612D01*
X190615008Y-90535612D01*
X190371466Y-90460489D01*
X190371462Y-90460488D01*
X190371458Y-90460487D01*
X190250231Y-90442214D01*
X190119440Y-90422500D01*
X190119435Y-90422500D01*
X189864565Y-90422500D01*
X189864559Y-90422500D01*
X189707609Y-90446157D01*
X189612542Y-90460487D01*
X189612539Y-90460488D01*
X189612533Y-90460489D01*
X189368992Y-90535612D01*
X189139373Y-90646190D01*
X189139372Y-90646191D01*
X188928782Y-90789768D01*
X188741952Y-90963121D01*
X188741950Y-90963123D01*
X188583041Y-91162388D01*
X188455608Y-91383109D01*
X188362492Y-91620362D01*
X188362490Y-91620369D01*
X188305777Y-91868845D01*
X188286732Y-92122995D01*
X176244393Y-92122995D01*
X176245096Y-92119462D01*
X176264500Y-92021920D01*
X176264500Y-86994997D01*
X177805034Y-86994997D01*
X177805034Y-86995002D01*
X177824858Y-87221599D01*
X177824860Y-87221610D01*
X177883730Y-87441317D01*
X177883735Y-87441331D01*
X177979863Y-87647478D01*
X178030974Y-87720472D01*
X178710000Y-87041446D01*
X178710000Y-87047661D01*
X178737259Y-87149394D01*
X178789920Y-87240606D01*
X178864394Y-87315080D01*
X178955606Y-87367741D01*
X179057339Y-87395000D01*
X179063553Y-87395000D01*
X178384526Y-88074025D01*
X178457513Y-88125132D01*
X178457521Y-88125136D01*
X178663668Y-88221264D01*
X178663682Y-88221269D01*
X178883389Y-88280139D01*
X178883400Y-88280141D01*
X179109998Y-88299966D01*
X179110002Y-88299966D01*
X179336599Y-88280141D01*
X179336610Y-88280139D01*
X179556317Y-88221269D01*
X179556331Y-88221264D01*
X179762478Y-88125136D01*
X179835471Y-88074024D01*
X179156447Y-87395000D01*
X179162661Y-87395000D01*
X179264394Y-87367741D01*
X179355606Y-87315080D01*
X179430080Y-87240606D01*
X179482741Y-87149394D01*
X179510000Y-87047661D01*
X179510000Y-87041447D01*
X180189024Y-87720471D01*
X180240134Y-87647481D01*
X180247340Y-87632028D01*
X180293511Y-87579587D01*
X180360704Y-87560433D01*
X180427585Y-87580646D01*
X180472105Y-87632022D01*
X180479430Y-87647730D01*
X180479432Y-87647734D01*
X180609954Y-87834141D01*
X180770858Y-87995045D01*
X180770861Y-87995047D01*
X180957266Y-88125568D01*
X181163504Y-88221739D01*
X181383308Y-88280635D01*
X181545230Y-88294801D01*
X181609998Y-88300468D01*
X181610000Y-88300468D01*
X181610002Y-88300468D01*
X181666673Y-88295509D01*
X181836692Y-88280635D01*
X182056496Y-88221739D01*
X182262734Y-88125568D01*
X182449139Y-87995047D01*
X182610047Y-87834139D01*
X182740568Y-87647734D01*
X182836739Y-87441496D01*
X182895635Y-87221692D01*
X182915468Y-86995000D01*
X182895635Y-86768308D01*
X182836739Y-86548504D01*
X182740568Y-86342266D01*
X182610047Y-86155861D01*
X182610045Y-86155858D01*
X182449141Y-85994954D01*
X182262734Y-85864432D01*
X182262732Y-85864431D01*
X182056497Y-85768261D01*
X182056488Y-85768258D01*
X181836697Y-85709366D01*
X181836693Y-85709365D01*
X181836692Y-85709365D01*
X181836691Y-85709364D01*
X181836686Y-85709364D01*
X181610002Y-85689532D01*
X181609998Y-85689532D01*
X181383313Y-85709364D01*
X181383302Y-85709366D01*
X181163511Y-85768258D01*
X181163502Y-85768261D01*
X180957267Y-85864431D01*
X180957265Y-85864432D01*
X180770858Y-85994954D01*
X180609954Y-86155858D01*
X180479432Y-86342265D01*
X180479429Y-86342270D01*
X180472104Y-86357979D01*
X180425929Y-86410417D01*
X180358735Y-86429566D01*
X180291855Y-86409347D01*
X180247341Y-86357973D01*
X180240133Y-86342515D01*
X180240132Y-86342513D01*
X180189025Y-86269526D01*
X179510000Y-86948551D01*
X179510000Y-86942339D01*
X179482741Y-86840606D01*
X179430080Y-86749394D01*
X179355606Y-86674920D01*
X179264394Y-86622259D01*
X179162661Y-86595000D01*
X179156448Y-86595000D01*
X179835472Y-85915974D01*
X179762478Y-85864863D01*
X179556331Y-85768735D01*
X179556317Y-85768730D01*
X179336610Y-85709860D01*
X179336599Y-85709858D01*
X179110002Y-85690034D01*
X179109998Y-85690034D01*
X178883400Y-85709858D01*
X178883389Y-85709860D01*
X178663682Y-85768730D01*
X178663673Y-85768734D01*
X178457516Y-85864866D01*
X178457512Y-85864868D01*
X178384526Y-85915973D01*
X178384526Y-85915974D01*
X179063553Y-86595000D01*
X179057339Y-86595000D01*
X178955606Y-86622259D01*
X178864394Y-86674920D01*
X178789920Y-86749394D01*
X178737259Y-86840606D01*
X178710000Y-86942339D01*
X178710000Y-86948552D01*
X178030974Y-86269526D01*
X178030973Y-86269526D01*
X177979868Y-86342512D01*
X177979866Y-86342516D01*
X177883734Y-86548673D01*
X177883730Y-86548682D01*
X177824860Y-86768389D01*
X177824858Y-86768400D01*
X177805034Y-86994997D01*
X176264500Y-86994997D01*
X176264500Y-80797992D01*
X188741500Y-80797992D01*
X188741500Y-81000007D01*
X188780907Y-81198119D01*
X188780909Y-81198127D01*
X188858213Y-81384755D01*
X188911904Y-81465109D01*
X188932782Y-81531787D01*
X188914297Y-81599167D01*
X188911904Y-81602891D01*
X188858213Y-81683244D01*
X188780909Y-81869872D01*
X188780907Y-81869880D01*
X188741500Y-82067992D01*
X188741500Y-82270007D01*
X188780907Y-82468119D01*
X188780909Y-82468127D01*
X188814325Y-82548800D01*
X188821794Y-82618270D01*
X188802038Y-82663660D01*
X188802454Y-82663887D01*
X188799919Y-82668528D01*
X188799037Y-82670556D01*
X188798206Y-82671665D01*
X188798202Y-82671672D01*
X188747908Y-82806517D01*
X188741501Y-82866116D01*
X188741501Y-82866123D01*
X188741500Y-82866135D01*
X188741500Y-84011870D01*
X188741501Y-84011876D01*
X188747908Y-84071483D01*
X188798202Y-84206328D01*
X188798206Y-84206335D01*
X188884452Y-84321544D01*
X188884455Y-84321547D01*
X188999664Y-84407793D01*
X188999671Y-84407797D01*
X189134517Y-84458091D01*
X189134516Y-84458091D01*
X189141444Y-84458835D01*
X189194127Y-84464500D01*
X190789872Y-84464499D01*
X190849483Y-84458091D01*
X190984331Y-84407796D01*
X191099546Y-84321546D01*
X191185796Y-84206331D01*
X191236091Y-84071483D01*
X191242500Y-84011873D01*
X191242499Y-82866128D01*
X191236091Y-82806517D01*
X191185796Y-82671669D01*
X191184967Y-82670562D01*
X191184485Y-82669268D01*
X191181546Y-82663886D01*
X191182319Y-82663463D01*
X191160551Y-82605099D01*
X191169675Y-82548798D01*
X191203089Y-82468132D01*
X191203089Y-82468131D01*
X191203091Y-82468127D01*
X191242500Y-82270003D01*
X191242500Y-82067997D01*
X191203091Y-81869873D01*
X191125786Y-81683244D01*
X191072094Y-81602889D01*
X191051217Y-81536214D01*
X191069701Y-81468834D01*
X191072078Y-81465134D01*
X191125786Y-81384756D01*
X191203091Y-81198127D01*
X191242500Y-81000003D01*
X191242500Y-80797997D01*
X191203091Y-80599873D01*
X191125786Y-80413244D01*
X191125784Y-80413241D01*
X191125782Y-80413237D01*
X191013558Y-80245281D01*
X190870718Y-80102441D01*
X190702762Y-79990217D01*
X190702752Y-79990212D01*
X190516127Y-79912909D01*
X190516119Y-79912907D01*
X190318007Y-79873500D01*
X190318003Y-79873500D01*
X189665997Y-79873500D01*
X189665992Y-79873500D01*
X189467880Y-79912907D01*
X189467872Y-79912909D01*
X189281247Y-79990212D01*
X189281237Y-79990217D01*
X189113281Y-80102441D01*
X188970441Y-80245281D01*
X188858217Y-80413237D01*
X188858212Y-80413247D01*
X188780909Y-80599872D01*
X188780907Y-80599880D01*
X188741500Y-80797992D01*
X176264500Y-80797992D01*
X176264500Y-77469998D01*
X178399532Y-77469998D01*
X178399532Y-77470001D01*
X178419364Y-77696686D01*
X178419366Y-77696697D01*
X178478258Y-77916488D01*
X178478261Y-77916497D01*
X178574431Y-78122732D01*
X178574432Y-78122734D01*
X178704954Y-78309141D01*
X178865858Y-78470045D01*
X178865861Y-78470047D01*
X179052266Y-78600568D01*
X179258504Y-78696739D01*
X179478308Y-78755635D01*
X179640230Y-78769801D01*
X179704998Y-78775468D01*
X179705000Y-78775468D01*
X179705002Y-78775468D01*
X179761673Y-78770509D01*
X179931692Y-78755635D01*
X180151496Y-78696739D01*
X180357734Y-78600568D01*
X180544139Y-78470047D01*
X180705047Y-78309139D01*
X180835568Y-78122734D01*
X180931739Y-77916496D01*
X180990635Y-77696692D01*
X181010468Y-77470000D01*
X181010468Y-77469998D01*
X188559532Y-77469998D01*
X188559532Y-77470001D01*
X188579364Y-77696686D01*
X188579366Y-77696697D01*
X188638258Y-77916488D01*
X188638261Y-77916497D01*
X188734431Y-78122732D01*
X188734432Y-78122734D01*
X188864954Y-78309141D01*
X189025858Y-78470045D01*
X189025861Y-78470047D01*
X189212266Y-78600568D01*
X189418504Y-78696739D01*
X189638308Y-78755635D01*
X189800230Y-78769801D01*
X189864998Y-78775468D01*
X189865000Y-78775468D01*
X189865002Y-78775468D01*
X189921673Y-78770509D01*
X190091692Y-78755635D01*
X190311496Y-78696739D01*
X190517734Y-78600568D01*
X190704139Y-78470047D01*
X190865047Y-78309139D01*
X190995568Y-78122734D01*
X191091739Y-77916496D01*
X191150635Y-77696692D01*
X191170468Y-77470000D01*
X191167564Y-77436812D01*
X191150635Y-77243313D01*
X191150635Y-77243308D01*
X191091739Y-77023504D01*
X190995568Y-76817266D01*
X190865047Y-76630861D01*
X190865045Y-76630858D01*
X190704141Y-76469954D01*
X190517734Y-76339432D01*
X190517732Y-76339431D01*
X190311497Y-76243261D01*
X190311488Y-76243258D01*
X190091697Y-76184366D01*
X190091693Y-76184365D01*
X190091692Y-76184365D01*
X190091691Y-76184364D01*
X190091686Y-76184364D01*
X189865002Y-76164532D01*
X189864998Y-76164532D01*
X189638313Y-76184364D01*
X189638302Y-76184366D01*
X189418511Y-76243258D01*
X189418502Y-76243261D01*
X189212267Y-76339431D01*
X189212265Y-76339432D01*
X189025858Y-76469954D01*
X188864954Y-76630858D01*
X188734432Y-76817265D01*
X188734431Y-76817267D01*
X188638261Y-77023502D01*
X188638258Y-77023511D01*
X188579366Y-77243302D01*
X188579364Y-77243313D01*
X188559532Y-77469998D01*
X181010468Y-77469998D01*
X181007564Y-77436812D01*
X180990635Y-77243313D01*
X180990635Y-77243308D01*
X180931739Y-77023504D01*
X180835568Y-76817266D01*
X180705047Y-76630861D01*
X180705045Y-76630858D01*
X180544141Y-76469954D01*
X180357734Y-76339432D01*
X180357732Y-76339431D01*
X180151497Y-76243261D01*
X180151488Y-76243258D01*
X179931697Y-76184366D01*
X179931693Y-76184365D01*
X179931692Y-76184365D01*
X179931691Y-76184364D01*
X179931686Y-76184364D01*
X179705002Y-76164532D01*
X179704998Y-76164532D01*
X179478313Y-76184364D01*
X179478302Y-76184366D01*
X179258511Y-76243258D01*
X179258502Y-76243261D01*
X179052267Y-76339431D01*
X179052265Y-76339432D01*
X178865858Y-76469954D01*
X178704954Y-76630858D01*
X178574432Y-76817265D01*
X178574431Y-76817267D01*
X178478261Y-77023502D01*
X178478258Y-77023511D01*
X178419366Y-77243302D01*
X178419364Y-77243313D01*
X178399532Y-77469998D01*
X176264500Y-77469998D01*
X176264500Y-77142079D01*
X176235659Y-76997092D01*
X176235658Y-76997091D01*
X176235658Y-76997087D01*
X176235656Y-76997082D01*
X176179087Y-76860511D01*
X176179080Y-76860498D01*
X176096952Y-76737585D01*
X176067363Y-76707996D01*
X175992416Y-76633049D01*
X175759308Y-76399940D01*
X175736643Y-76363870D01*
X175734812Y-76364753D01*
X175731792Y-76358483D01*
X175731788Y-76358476D01*
X175635816Y-76205738D01*
X175508262Y-76078184D01*
X175355523Y-75982211D01*
X175185254Y-75922631D01*
X175185249Y-75922630D01*
X175006004Y-75902435D01*
X175005996Y-75902435D01*
X174826750Y-75922630D01*
X174826745Y-75922631D01*
X174656476Y-75982211D01*
X174503737Y-76078184D01*
X174376184Y-76205737D01*
X174280211Y-76358476D01*
X174220631Y-76528745D01*
X174220630Y-76528750D01*
X174200435Y-76707996D01*
X174200435Y-76708003D01*
X174220630Y-76887249D01*
X174220631Y-76887254D01*
X174280211Y-77057523D01*
X174376184Y-77210262D01*
X174503738Y-77337816D01*
X174656478Y-77433789D01*
X174656483Y-77433792D01*
X174662753Y-77436812D01*
X174661868Y-77438648D01*
X174697937Y-77461305D01*
X174727180Y-77490547D01*
X174760666Y-77551870D01*
X174763500Y-77578230D01*
X174763500Y-81458951D01*
X174743815Y-81525990D01*
X174691011Y-81571745D01*
X174621853Y-81581689D01*
X174558297Y-81552664D01*
X174551819Y-81546632D01*
X174448141Y-81442954D01*
X174261734Y-81312432D01*
X174261732Y-81312431D01*
X174055497Y-81216261D01*
X174055488Y-81216258D01*
X173835697Y-81157366D01*
X173835693Y-81157365D01*
X173835692Y-81157365D01*
X173835691Y-81157364D01*
X173835686Y-81157364D01*
X173609002Y-81137532D01*
X173608998Y-81137532D01*
X173382313Y-81157364D01*
X173382302Y-81157366D01*
X173162511Y-81216258D01*
X173162502Y-81216261D01*
X172956267Y-81312431D01*
X172956265Y-81312432D01*
X172769858Y-81442954D01*
X172608954Y-81603858D01*
X172478432Y-81790265D01*
X172478431Y-81790267D01*
X172382261Y-81996502D01*
X172382258Y-81996511D01*
X172323366Y-82216302D01*
X172323364Y-82216313D01*
X172303532Y-82442998D01*
X172303532Y-82443001D01*
X172323364Y-82669686D01*
X172323366Y-82669697D01*
X172382258Y-82889488D01*
X172382261Y-82889497D01*
X172478431Y-83095732D01*
X172478432Y-83095734D01*
X172608954Y-83282141D01*
X172769858Y-83443045D01*
X172769861Y-83443047D01*
X172956266Y-83573568D01*
X172971975Y-83580893D01*
X173024414Y-83627064D01*
X173043567Y-83694257D01*
X173023352Y-83761138D01*
X172971979Y-83805656D01*
X172956514Y-83812867D01*
X172956512Y-83812868D01*
X172883526Y-83863973D01*
X172883526Y-83863974D01*
X173562553Y-84543000D01*
X173556339Y-84543000D01*
X173454606Y-84570259D01*
X173363394Y-84622920D01*
X173288920Y-84697394D01*
X173236259Y-84788606D01*
X173209000Y-84890339D01*
X173209000Y-84896552D01*
X172529974Y-84217526D01*
X172529973Y-84217526D01*
X172478868Y-84290512D01*
X172478866Y-84290516D01*
X172382734Y-84496673D01*
X172382730Y-84496682D01*
X172323860Y-84716389D01*
X172323858Y-84716400D01*
X172304034Y-84942997D01*
X172304034Y-84943002D01*
X172323858Y-85169599D01*
X172323860Y-85169610D01*
X172382730Y-85389317D01*
X172382735Y-85389331D01*
X172478863Y-85595478D01*
X172529974Y-85668472D01*
X173209000Y-84989446D01*
X173209000Y-84995661D01*
X173236259Y-85097394D01*
X173288920Y-85188606D01*
X173363394Y-85263080D01*
X173454606Y-85315741D01*
X173556339Y-85343000D01*
X173562553Y-85343000D01*
X172883526Y-86022025D01*
X172956513Y-86073132D01*
X172956521Y-86073136D01*
X173162668Y-86169264D01*
X173162682Y-86169269D01*
X173382389Y-86228139D01*
X173382400Y-86228141D01*
X173608998Y-86247966D01*
X173609002Y-86247966D01*
X173835599Y-86228141D01*
X173835610Y-86228139D01*
X174055317Y-86169269D01*
X174055331Y-86169264D01*
X174261478Y-86073136D01*
X174334471Y-86022024D01*
X173655447Y-85343000D01*
X173661661Y-85343000D01*
X173763394Y-85315741D01*
X173854606Y-85263080D01*
X173929080Y-85188606D01*
X173981741Y-85097394D01*
X174009000Y-84995661D01*
X174009000Y-84989447D01*
X174727181Y-85707628D01*
X174760666Y-85768951D01*
X174763500Y-85795309D01*
X174763500Y-88408720D01*
X174743815Y-88475759D01*
X174691011Y-88521514D01*
X174621853Y-88531458D01*
X174558297Y-88502433D01*
X174536398Y-88477611D01*
X174477335Y-88389218D01*
X174477332Y-88389214D01*
X174337981Y-88249863D01*
X174337977Y-88249860D01*
X174174116Y-88140371D01*
X174174103Y-88140364D01*
X173992035Y-88064950D01*
X173992025Y-88064947D01*
X173798739Y-88026500D01*
X173798737Y-88026500D01*
X162936462Y-88026500D01*
X162869423Y-88006815D01*
X162848781Y-87990181D01*
X162326819Y-87468219D01*
X162293334Y-87406896D01*
X162290500Y-87380538D01*
X162290500Y-85089998D01*
X163032532Y-85089998D01*
X163032532Y-85090001D01*
X163052364Y-85316686D01*
X163052366Y-85316697D01*
X163111258Y-85536488D01*
X163111261Y-85536497D01*
X163207431Y-85742732D01*
X163207432Y-85742734D01*
X163337954Y-85929141D01*
X163498858Y-86090045D01*
X163498861Y-86090047D01*
X163685266Y-86220568D01*
X163891504Y-86316739D01*
X164111308Y-86375635D01*
X164273230Y-86389801D01*
X164337998Y-86395468D01*
X164338000Y-86395468D01*
X164338002Y-86395468D01*
X164394673Y-86390509D01*
X164564692Y-86375635D01*
X164784496Y-86316739D01*
X164990734Y-86220568D01*
X165177139Y-86090047D01*
X165338047Y-85929139D01*
X165468568Y-85742734D01*
X165564739Y-85536496D01*
X165623635Y-85316692D01*
X165643468Y-85090000D01*
X165623635Y-84863308D01*
X165564739Y-84643504D01*
X165468568Y-84437266D01*
X165338047Y-84250861D01*
X165338045Y-84250858D01*
X165177141Y-84089954D01*
X164990734Y-83959432D01*
X164990732Y-83959431D01*
X164784497Y-83863261D01*
X164784488Y-83863258D01*
X164564697Y-83804366D01*
X164564693Y-83804365D01*
X164564692Y-83804365D01*
X164564691Y-83804364D01*
X164564686Y-83804364D01*
X164338002Y-83784532D01*
X164337998Y-83784532D01*
X164111313Y-83804364D01*
X164111302Y-83804366D01*
X163891511Y-83863258D01*
X163891502Y-83863261D01*
X163685267Y-83959431D01*
X163685265Y-83959432D01*
X163498858Y-84089954D01*
X163337954Y-84250858D01*
X163207432Y-84437265D01*
X163207431Y-84437267D01*
X163111261Y-84643502D01*
X163111258Y-84643511D01*
X163052366Y-84863302D01*
X163052364Y-84863313D01*
X163032532Y-85089998D01*
X162290500Y-85089998D01*
X162290500Y-82335998D01*
X166080532Y-82335998D01*
X166080532Y-82336001D01*
X166100364Y-82562686D01*
X166100366Y-82562697D01*
X166159258Y-82782488D01*
X166159261Y-82782497D01*
X166255431Y-82988732D01*
X166255432Y-82988734D01*
X166385954Y-83175141D01*
X166546858Y-83336045D01*
X166546861Y-83336047D01*
X166733266Y-83466568D01*
X166748975Y-83473893D01*
X166801414Y-83520064D01*
X166820567Y-83587257D01*
X166800352Y-83654138D01*
X166748979Y-83698656D01*
X166733514Y-83705867D01*
X166733512Y-83705868D01*
X166660526Y-83756973D01*
X166660526Y-83756974D01*
X167339553Y-84436000D01*
X167333339Y-84436000D01*
X167231606Y-84463259D01*
X167140394Y-84515920D01*
X167065920Y-84590394D01*
X167013259Y-84681606D01*
X166986000Y-84783339D01*
X166986000Y-84789552D01*
X166306974Y-84110526D01*
X166306973Y-84110526D01*
X166255868Y-84183512D01*
X166255866Y-84183516D01*
X166159734Y-84389673D01*
X166159730Y-84389682D01*
X166100860Y-84609389D01*
X166100858Y-84609400D01*
X166081034Y-84835997D01*
X166081034Y-84836002D01*
X166100858Y-85062599D01*
X166100860Y-85062610D01*
X166159730Y-85282317D01*
X166159735Y-85282331D01*
X166255863Y-85488478D01*
X166306974Y-85561472D01*
X166986000Y-84882446D01*
X166986000Y-84888661D01*
X167013259Y-84990394D01*
X167065920Y-85081606D01*
X167140394Y-85156080D01*
X167231606Y-85208741D01*
X167333339Y-85236000D01*
X167339553Y-85236000D01*
X166660526Y-85915025D01*
X166733513Y-85966132D01*
X166733521Y-85966136D01*
X166939668Y-86062264D01*
X166939682Y-86062269D01*
X167159389Y-86121139D01*
X167159400Y-86121141D01*
X167385998Y-86140966D01*
X167386002Y-86140966D01*
X167612599Y-86121141D01*
X167612610Y-86121139D01*
X167832317Y-86062269D01*
X167832331Y-86062264D01*
X168038478Y-85966136D01*
X168111471Y-85915024D01*
X167432447Y-85236000D01*
X167438661Y-85236000D01*
X167540394Y-85208741D01*
X167631606Y-85156080D01*
X167706080Y-85081606D01*
X167758741Y-84990394D01*
X167786000Y-84888661D01*
X167786000Y-84882447D01*
X168465024Y-85561471D01*
X168516136Y-85488478D01*
X168612264Y-85282331D01*
X168612269Y-85282317D01*
X168663800Y-85089998D01*
X169128532Y-85089998D01*
X169128532Y-85090001D01*
X169148364Y-85316686D01*
X169148366Y-85316697D01*
X169207258Y-85536488D01*
X169207261Y-85536497D01*
X169303431Y-85742732D01*
X169303432Y-85742734D01*
X169433954Y-85929141D01*
X169594858Y-86090045D01*
X169594861Y-86090047D01*
X169781266Y-86220568D01*
X169987504Y-86316739D01*
X170207308Y-86375635D01*
X170369230Y-86389801D01*
X170433998Y-86395468D01*
X170434000Y-86395468D01*
X170434002Y-86395468D01*
X170490673Y-86390509D01*
X170660692Y-86375635D01*
X170880496Y-86316739D01*
X171086734Y-86220568D01*
X171273139Y-86090047D01*
X171434047Y-85929139D01*
X171564568Y-85742734D01*
X171660739Y-85536496D01*
X171719635Y-85316692D01*
X171739468Y-85090000D01*
X171719635Y-84863308D01*
X171660739Y-84643504D01*
X171564568Y-84437266D01*
X171434047Y-84250861D01*
X171434045Y-84250858D01*
X171273141Y-84089954D01*
X171086734Y-83959432D01*
X171086732Y-83959431D01*
X170880497Y-83863261D01*
X170880488Y-83863258D01*
X170660697Y-83804366D01*
X170660693Y-83804365D01*
X170660692Y-83804365D01*
X170660691Y-83804364D01*
X170660686Y-83804364D01*
X170434002Y-83784532D01*
X170433998Y-83784532D01*
X170207313Y-83804364D01*
X170207302Y-83804366D01*
X169987511Y-83863258D01*
X169987502Y-83863261D01*
X169781267Y-83959431D01*
X169781265Y-83959432D01*
X169594858Y-84089954D01*
X169433954Y-84250858D01*
X169303432Y-84437265D01*
X169303431Y-84437267D01*
X169207261Y-84643502D01*
X169207258Y-84643511D01*
X169148366Y-84863302D01*
X169148364Y-84863313D01*
X169128532Y-85089998D01*
X168663800Y-85089998D01*
X168671139Y-85062610D01*
X168671141Y-85062599D01*
X168690966Y-84836002D01*
X168690966Y-84835997D01*
X168671141Y-84609400D01*
X168671139Y-84609389D01*
X168612269Y-84389682D01*
X168612264Y-84389668D01*
X168516136Y-84183521D01*
X168516132Y-84183513D01*
X168465025Y-84110526D01*
X167786000Y-84789551D01*
X167786000Y-84783339D01*
X167758741Y-84681606D01*
X167706080Y-84590394D01*
X167631606Y-84515920D01*
X167540394Y-84463259D01*
X167438661Y-84436000D01*
X167432448Y-84436000D01*
X168111472Y-83756974D01*
X168038480Y-83705864D01*
X168023024Y-83698657D01*
X167970585Y-83652484D01*
X167951433Y-83585290D01*
X167971649Y-83518409D01*
X168023023Y-83473893D01*
X168038734Y-83466568D01*
X168225139Y-83336047D01*
X168386047Y-83175139D01*
X168516568Y-82988734D01*
X168612739Y-82782496D01*
X168671635Y-82562692D01*
X168691468Y-82336000D01*
X168671635Y-82109308D01*
X168612739Y-81889504D01*
X168516568Y-81683266D01*
X168386047Y-81496861D01*
X168386045Y-81496858D01*
X168225141Y-81335954D01*
X168038734Y-81205432D01*
X168038732Y-81205431D01*
X167832497Y-81109261D01*
X167832488Y-81109258D01*
X167612697Y-81050366D01*
X167612693Y-81050365D01*
X167612692Y-81050365D01*
X167612691Y-81050364D01*
X167612686Y-81050364D01*
X167386002Y-81030532D01*
X167385998Y-81030532D01*
X167159313Y-81050364D01*
X167159302Y-81050366D01*
X166939511Y-81109258D01*
X166939502Y-81109261D01*
X166733267Y-81205431D01*
X166733265Y-81205432D01*
X166546858Y-81335954D01*
X166385954Y-81496858D01*
X166255432Y-81683265D01*
X166255431Y-81683267D01*
X166159261Y-81889502D01*
X166159258Y-81889511D01*
X166100366Y-82109302D01*
X166100364Y-82109313D01*
X166080532Y-82335998D01*
X162290500Y-82335998D01*
X162290500Y-74760782D01*
X162310185Y-74693743D01*
X162326819Y-74673101D01*
X163573101Y-73426819D01*
X163634424Y-73393334D01*
X163660782Y-73390500D01*
X164172933Y-73390500D01*
X164239972Y-73410185D01*
X164285727Y-73462989D01*
X164295671Y-73532147D01*
X164266646Y-73595703D01*
X164207868Y-73633477D01*
X164183740Y-73638028D01*
X164111313Y-73644364D01*
X164111302Y-73644366D01*
X163891511Y-73703258D01*
X163891502Y-73703261D01*
X163685267Y-73799431D01*
X163685265Y-73799432D01*
X163498860Y-73929953D01*
X163337954Y-74090858D01*
X163207432Y-74277265D01*
X163207431Y-74277267D01*
X163111261Y-74483502D01*
X163111258Y-74483511D01*
X163052366Y-74703302D01*
X163052364Y-74703313D01*
X163032532Y-74929998D01*
X163032532Y-74930001D01*
X163052364Y-75156686D01*
X163052366Y-75156697D01*
X163111258Y-75376488D01*
X163111261Y-75376497D01*
X163207431Y-75582732D01*
X163207432Y-75582734D01*
X163337954Y-75769141D01*
X163498858Y-75930045D01*
X163498861Y-75930047D01*
X163685266Y-76060568D01*
X163891504Y-76156739D01*
X164111308Y-76215635D01*
X164273230Y-76229801D01*
X164337998Y-76235468D01*
X164338000Y-76235468D01*
X164338002Y-76235468D01*
X164394673Y-76230509D01*
X164564692Y-76215635D01*
X164784496Y-76156739D01*
X164990734Y-76060568D01*
X165177139Y-75930047D01*
X165338047Y-75769139D01*
X165468568Y-75582734D01*
X165564739Y-75376496D01*
X165623635Y-75156692D01*
X165643468Y-74930000D01*
X165623635Y-74703308D01*
X165564739Y-74483504D01*
X165468568Y-74277266D01*
X165338047Y-74090861D01*
X165338045Y-74090858D01*
X165177140Y-73929953D01*
X164990734Y-73799432D01*
X164990732Y-73799431D01*
X164784497Y-73703261D01*
X164784488Y-73703258D01*
X164564697Y-73644366D01*
X164564693Y-73644365D01*
X164564692Y-73644365D01*
X164564691Y-73644364D01*
X164564686Y-73644364D01*
X164492260Y-73638028D01*
X164427191Y-73612576D01*
X164386212Y-73555985D01*
X164382334Y-73486223D01*
X164416788Y-73425439D01*
X164478635Y-73392931D01*
X164503067Y-73390500D01*
X170268933Y-73390500D01*
X170335972Y-73410185D01*
X170381727Y-73462989D01*
X170391671Y-73532147D01*
X170362646Y-73595703D01*
X170303868Y-73633477D01*
X170279740Y-73638028D01*
X170207313Y-73644364D01*
X170207302Y-73644366D01*
X169987511Y-73703258D01*
X169987502Y-73703261D01*
X169781267Y-73799431D01*
X169781265Y-73799432D01*
X169594860Y-73929953D01*
X169433954Y-74090858D01*
X169303432Y-74277265D01*
X169303431Y-74277267D01*
X169207261Y-74483502D01*
X169207258Y-74483511D01*
X169148366Y-74703302D01*
X169148364Y-74703313D01*
X169128532Y-74929998D01*
X169128532Y-74930001D01*
X169148364Y-75156686D01*
X169148366Y-75156697D01*
X169207258Y-75376488D01*
X169207261Y-75376497D01*
X169303431Y-75582732D01*
X169303432Y-75582734D01*
X169433954Y-75769141D01*
X169594858Y-75930045D01*
X169594861Y-75930047D01*
X169781266Y-76060568D01*
X169987504Y-76156739D01*
X170207308Y-76215635D01*
X170369230Y-76229801D01*
X170433998Y-76235468D01*
X170434000Y-76235468D01*
X170434002Y-76235468D01*
X170490673Y-76230509D01*
X170660692Y-76215635D01*
X170880496Y-76156739D01*
X171086734Y-76060568D01*
X171273139Y-75930047D01*
X171434047Y-75769139D01*
X171564568Y-75582734D01*
X171660739Y-75376496D01*
X171719635Y-75156692D01*
X171739468Y-74930000D01*
X171719635Y-74703308D01*
X171660739Y-74483504D01*
X171564568Y-74277266D01*
X171434047Y-74090861D01*
X171434045Y-74090858D01*
X171273140Y-73929953D01*
X171086734Y-73799432D01*
X171086732Y-73799431D01*
X170880497Y-73703261D01*
X170880488Y-73703258D01*
X170660697Y-73644366D01*
X170660693Y-73644365D01*
X170660692Y-73644365D01*
X170660691Y-73644364D01*
X170660686Y-73644364D01*
X170588260Y-73638028D01*
X170523191Y-73612576D01*
X170482212Y-73555985D01*
X170478334Y-73486223D01*
X170512788Y-73425439D01*
X170574635Y-73392931D01*
X170599067Y-73390500D01*
X188058542Y-73390500D01*
X188077870Y-73386655D01*
X188155188Y-73371275D01*
X188251836Y-73352051D01*
X188305165Y-73329961D01*
X188433914Y-73276632D01*
X188597782Y-73167139D01*
X188737139Y-73027782D01*
X188737140Y-73027779D01*
X188744206Y-73020714D01*
X188744209Y-73020710D01*
X190522778Y-71242141D01*
X190522782Y-71242139D01*
X190662139Y-71102782D01*
X190771632Y-70938914D01*
X190847051Y-70756835D01*
X190885500Y-70563541D01*
X190885500Y-69116459D01*
X190885500Y-67552588D01*
X190905185Y-67485549D01*
X190907925Y-67481465D01*
X191015568Y-67327734D01*
X191111739Y-67121496D01*
X191170635Y-66901692D01*
X191190468Y-66675000D01*
X191187511Y-66641207D01*
X191170635Y-66448313D01*
X191170635Y-66448308D01*
X191111739Y-66228504D01*
X191015568Y-66022266D01*
X190885047Y-65835861D01*
X190885045Y-65835858D01*
X190724141Y-65674954D01*
X190537734Y-65544432D01*
X190537732Y-65544431D01*
X190331497Y-65448261D01*
X190331488Y-65448258D01*
X190111697Y-65389366D01*
X190111693Y-65389365D01*
X190111692Y-65389365D01*
X190111691Y-65389364D01*
X190111686Y-65389364D01*
X189885002Y-65369532D01*
X189884998Y-65369532D01*
X189658313Y-65389364D01*
X189658302Y-65389366D01*
X189438511Y-65448258D01*
X189438502Y-65448261D01*
X189232267Y-65544431D01*
X189232265Y-65544432D01*
X189045858Y-65674954D01*
X188884954Y-65835858D01*
X188754432Y-66022265D01*
X188754429Y-66022270D01*
X188747104Y-66037979D01*
X188700929Y-66090417D01*
X188633735Y-66109566D01*
X188566855Y-66089347D01*
X188522341Y-66037973D01*
X188515133Y-66022515D01*
X188515132Y-66022513D01*
X188464025Y-65949526D01*
X187785000Y-66628551D01*
X187785000Y-66622339D01*
X187757741Y-66520606D01*
X187705080Y-66429394D01*
X187630606Y-66354920D01*
X187539394Y-66302259D01*
X187437661Y-66275000D01*
X187431448Y-66275000D01*
X188110472Y-65595974D01*
X188037478Y-65544863D01*
X187831331Y-65448735D01*
X187831317Y-65448730D01*
X187611610Y-65389860D01*
X187611599Y-65389858D01*
X187385002Y-65370034D01*
X187384998Y-65370034D01*
X187158400Y-65389858D01*
X187158389Y-65389860D01*
X186938682Y-65448730D01*
X186938673Y-65448734D01*
X186732516Y-65544866D01*
X186732512Y-65544868D01*
X186659526Y-65595973D01*
X186659526Y-65595974D01*
X187338553Y-66275000D01*
X187332339Y-66275000D01*
X187230606Y-66302259D01*
X187139394Y-66354920D01*
X187064920Y-66429394D01*
X187012259Y-66520606D01*
X186985000Y-66622339D01*
X186985000Y-66628552D01*
X186305974Y-65949526D01*
X186305973Y-65949526D01*
X186254868Y-66022512D01*
X186254866Y-66022516D01*
X186158734Y-66228673D01*
X186158730Y-66228682D01*
X186099860Y-66448389D01*
X186099858Y-66448400D01*
X186080034Y-66674997D01*
X186080034Y-66675002D01*
X186099858Y-66901599D01*
X186099860Y-66901610D01*
X186158730Y-67121317D01*
X186158735Y-67121331D01*
X186254863Y-67327478D01*
X186305974Y-67400472D01*
X186985000Y-66721446D01*
X186985000Y-66727661D01*
X187012259Y-66829394D01*
X187064920Y-66920606D01*
X187139394Y-66995080D01*
X187230606Y-67047741D01*
X187332339Y-67075000D01*
X187338553Y-67075000D01*
X186659526Y-67754025D01*
X186732513Y-67805132D01*
X186732521Y-67805136D01*
X186938668Y-67901264D01*
X186938682Y-67901269D01*
X187158389Y-67960139D01*
X187158400Y-67960141D01*
X187384998Y-67979966D01*
X187385002Y-67979966D01*
X187611599Y-67960141D01*
X187611610Y-67960139D01*
X187831317Y-67901269D01*
X187831331Y-67901264D01*
X188037478Y-67805136D01*
X188110471Y-67754024D01*
X187431447Y-67075000D01*
X187437661Y-67075000D01*
X187539394Y-67047741D01*
X187630606Y-66995080D01*
X187705080Y-66920606D01*
X187757741Y-66829394D01*
X187785000Y-66727661D01*
X187785000Y-66721447D01*
X188464024Y-67400471D01*
X188515134Y-67327481D01*
X188522340Y-67312028D01*
X188568511Y-67259587D01*
X188635704Y-67240433D01*
X188702585Y-67260646D01*
X188747105Y-67312022D01*
X188754430Y-67327730D01*
X188754432Y-67327734D01*
X188862075Y-67481465D01*
X188884402Y-67547671D01*
X188884500Y-67552588D01*
X188884500Y-69999218D01*
X188864815Y-70066257D01*
X188848181Y-70086899D01*
X187581899Y-71353181D01*
X187520576Y-71386666D01*
X187494218Y-71389500D01*
X163096455Y-71389500D01*
X162999812Y-71408724D01*
X162903167Y-71427947D01*
X162903161Y-71427949D01*
X162849834Y-71450037D01*
X162849834Y-71450038D01*
X162804315Y-71468892D01*
X162721089Y-71503366D01*
X162721079Y-71503371D01*
X162557219Y-71612859D01*
X162487540Y-71682538D01*
X162417861Y-71752218D01*
X162417858Y-71752221D01*
X160652221Y-73517858D01*
X160652218Y-73517861D01*
X160614094Y-73555985D01*
X160512859Y-73657219D01*
X160403371Y-73821079D01*
X160403364Y-73821092D01*
X160358274Y-73929952D01*
X160358274Y-73929953D01*
X160327949Y-74003164D01*
X160315827Y-74064106D01*
X160289500Y-74196456D01*
X160289500Y-89346126D01*
X160269815Y-89413165D01*
X160217011Y-89458920D01*
X160147853Y-89468864D01*
X160097295Y-89445775D01*
X160083025Y-89444526D01*
X159404000Y-90123551D01*
X159404000Y-90117339D01*
X159376741Y-90015606D01*
X159324080Y-89924394D01*
X159249606Y-89849920D01*
X159158394Y-89797259D01*
X159056661Y-89770000D01*
X159050448Y-89770000D01*
X159729472Y-89090974D01*
X159656478Y-89039863D01*
X159450331Y-88943735D01*
X159450317Y-88943730D01*
X159230610Y-88884860D01*
X159230599Y-88884858D01*
X159004002Y-88865034D01*
X159003998Y-88865034D01*
X158777400Y-88884858D01*
X158777389Y-88884860D01*
X158557682Y-88943730D01*
X158557673Y-88943734D01*
X158351516Y-89039866D01*
X158351512Y-89039868D01*
X158278526Y-89090973D01*
X158278526Y-89090974D01*
X158957553Y-89770000D01*
X158951339Y-89770000D01*
X158849606Y-89797259D01*
X158758394Y-89849920D01*
X158683920Y-89924394D01*
X158631259Y-90015606D01*
X158604000Y-90117339D01*
X158604000Y-90123552D01*
X157924974Y-89444526D01*
X157924973Y-89444526D01*
X157873868Y-89517512D01*
X157873867Y-89517514D01*
X157866656Y-89532979D01*
X157820482Y-89585417D01*
X157753288Y-89604567D01*
X157686407Y-89584350D01*
X157641893Y-89532976D01*
X157634568Y-89517266D01*
X157504047Y-89330861D01*
X157504045Y-89330858D01*
X157343141Y-89169954D01*
X157156734Y-89039432D01*
X157156732Y-89039431D01*
X156950497Y-88943261D01*
X156950488Y-88943258D01*
X156730697Y-88884366D01*
X156730693Y-88884365D01*
X156730692Y-88884365D01*
X156730691Y-88884364D01*
X156730686Y-88884364D01*
X156504002Y-88864532D01*
X156503998Y-88864532D01*
X156277313Y-88884364D01*
X156277302Y-88884366D01*
X156057511Y-88943258D01*
X156057502Y-88943261D01*
X155851267Y-89039431D01*
X155851265Y-89039432D01*
X155664858Y-89169954D01*
X155503954Y-89330858D01*
X155373432Y-89517265D01*
X155373431Y-89517267D01*
X155277261Y-89723502D01*
X155277258Y-89723511D01*
X155218366Y-89943302D01*
X155218364Y-89943313D01*
X155198532Y-90169998D01*
X153789500Y-90169998D01*
X153789500Y-65405000D01*
X154964723Y-65405000D01*
X154983347Y-65617883D01*
X154983793Y-65622975D01*
X154983793Y-65622979D01*
X155040422Y-65834322D01*
X155040424Y-65834326D01*
X155040425Y-65834330D01*
X155041138Y-65835858D01*
X155132897Y-66032638D01*
X155149000Y-66055635D01*
X155258402Y-66211877D01*
X155413123Y-66366598D01*
X155592361Y-66492102D01*
X155790670Y-66584575D01*
X156002023Y-66641207D01*
X156184926Y-66657208D01*
X156219998Y-66660277D01*
X156220000Y-66660277D01*
X156220002Y-66660277D01*
X156248254Y-66657805D01*
X156437977Y-66641207D01*
X156649330Y-66584575D01*
X156847639Y-66492102D01*
X157026877Y-66366598D01*
X157181598Y-66211877D01*
X157307102Y-66032639D01*
X157399575Y-65834330D01*
X157456207Y-65622977D01*
X157475277Y-65405000D01*
X158764723Y-65405000D01*
X158783347Y-65617883D01*
X158783793Y-65622975D01*
X158783793Y-65622979D01*
X158840422Y-65834322D01*
X158840424Y-65834326D01*
X158840425Y-65834330D01*
X158841138Y-65835858D01*
X158932897Y-66032638D01*
X158949000Y-66055635D01*
X159058402Y-66211877D01*
X159213123Y-66366598D01*
X159392361Y-66492102D01*
X159590670Y-66584575D01*
X159802023Y-66641207D01*
X159984926Y-66657208D01*
X160019998Y-66660277D01*
X160020000Y-66660277D01*
X160020002Y-66660277D01*
X160048254Y-66657805D01*
X160237977Y-66641207D01*
X160449330Y-66584575D01*
X160647639Y-66492102D01*
X160826877Y-66366598D01*
X160981598Y-66211877D01*
X161107102Y-66032639D01*
X161199575Y-65834330D01*
X161256207Y-65622977D01*
X161275277Y-65405000D01*
X161273952Y-65389860D01*
X161271569Y-65362618D01*
X161256207Y-65187023D01*
X161199575Y-64975670D01*
X161107102Y-64777362D01*
X161107100Y-64777359D01*
X161107099Y-64777357D01*
X160981599Y-64598124D01*
X160926777Y-64543302D01*
X160826877Y-64443402D01*
X160688978Y-64346844D01*
X160647638Y-64317897D01*
X160548484Y-64271661D01*
X160449330Y-64225425D01*
X160449326Y-64225424D01*
X160449322Y-64225422D01*
X160237977Y-64168793D01*
X160020002Y-64149723D01*
X160019998Y-64149723D01*
X159874682Y-64162436D01*
X159802023Y-64168793D01*
X159802020Y-64168793D01*
X159590677Y-64225422D01*
X159590668Y-64225426D01*
X159392361Y-64317898D01*
X159392357Y-64317900D01*
X159213121Y-64443402D01*
X159058402Y-64598121D01*
X158932900Y-64777357D01*
X158932898Y-64777361D01*
X158840426Y-64975668D01*
X158840422Y-64975677D01*
X158783793Y-65187020D01*
X158783793Y-65187024D01*
X158766048Y-65389860D01*
X158764723Y-65405000D01*
X157475277Y-65405000D01*
X157473952Y-65389860D01*
X157471569Y-65362618D01*
X157456207Y-65187023D01*
X157399575Y-64975670D01*
X157307102Y-64777362D01*
X157307100Y-64777359D01*
X157307099Y-64777357D01*
X157181599Y-64598124D01*
X157126777Y-64543302D01*
X157026877Y-64443402D01*
X156888978Y-64346844D01*
X156847638Y-64317897D01*
X156748484Y-64271661D01*
X156649330Y-64225425D01*
X156649326Y-64225424D01*
X156649322Y-64225422D01*
X156437977Y-64168793D01*
X156220002Y-64149723D01*
X156219998Y-64149723D01*
X156074682Y-64162436D01*
X156002023Y-64168793D01*
X156002020Y-64168793D01*
X155790677Y-64225422D01*
X155790668Y-64225426D01*
X155592361Y-64317898D01*
X155592357Y-64317900D01*
X155413121Y-64443402D01*
X155258402Y-64598121D01*
X155132900Y-64777357D01*
X155132898Y-64777361D01*
X155040426Y-64975668D01*
X155040422Y-64975677D01*
X154983793Y-65187020D01*
X154983793Y-65187024D01*
X154966048Y-65389860D01*
X154964723Y-65405000D01*
X153789500Y-65405000D01*
X153789500Y-59689997D01*
X186060034Y-59689997D01*
X186060034Y-59690002D01*
X186079858Y-59916599D01*
X186079860Y-59916610D01*
X186138730Y-60136317D01*
X186138735Y-60136331D01*
X186234863Y-60342478D01*
X186285974Y-60415472D01*
X186965000Y-59736446D01*
X186965000Y-59742661D01*
X186992259Y-59844394D01*
X187044920Y-59935606D01*
X187119394Y-60010080D01*
X187210606Y-60062741D01*
X187312339Y-60090000D01*
X187318553Y-60090000D01*
X186639526Y-60769025D01*
X186712513Y-60820132D01*
X186712521Y-60820136D01*
X186918668Y-60916264D01*
X186918682Y-60916269D01*
X187138389Y-60975139D01*
X187138400Y-60975141D01*
X187364998Y-60994966D01*
X187365002Y-60994966D01*
X187591599Y-60975141D01*
X187591610Y-60975139D01*
X187811317Y-60916269D01*
X187811331Y-60916264D01*
X188017478Y-60820136D01*
X188090471Y-60769024D01*
X187411447Y-60090000D01*
X187417661Y-60090000D01*
X187519394Y-60062741D01*
X187610606Y-60010080D01*
X187685080Y-59935606D01*
X187737741Y-59844394D01*
X187765000Y-59742661D01*
X187765000Y-59736447D01*
X188444024Y-60415471D01*
X188495134Y-60342481D01*
X188502340Y-60327028D01*
X188548511Y-60274587D01*
X188615704Y-60255433D01*
X188682585Y-60275646D01*
X188727105Y-60327022D01*
X188734430Y-60342730D01*
X188734432Y-60342734D01*
X188864954Y-60529141D01*
X189025858Y-60690045D01*
X189025861Y-60690047D01*
X189212266Y-60820568D01*
X189418504Y-60916739D01*
X189638308Y-60975635D01*
X189800230Y-60989801D01*
X189864998Y-60995468D01*
X189865000Y-60995468D01*
X189865002Y-60995468D01*
X189921673Y-60990509D01*
X190091692Y-60975635D01*
X190311496Y-60916739D01*
X190517734Y-60820568D01*
X190704139Y-60690047D01*
X190865047Y-60529139D01*
X190995568Y-60342734D01*
X191091739Y-60136496D01*
X191150635Y-59916692D01*
X191163469Y-59769998D01*
X192369532Y-59769998D01*
X192369532Y-59770001D01*
X192389364Y-59996686D01*
X192389366Y-59996697D01*
X192448258Y-60216488D01*
X192448261Y-60216497D01*
X192544431Y-60422732D01*
X192544432Y-60422734D01*
X192674954Y-60609141D01*
X192835858Y-60770045D01*
X192835861Y-60770047D01*
X193022266Y-60900568D01*
X193037387Y-60907619D01*
X193089825Y-60953791D01*
X193108976Y-61020985D01*
X193088760Y-61087866D01*
X193037387Y-61132380D01*
X193022266Y-61139432D01*
X193022264Y-61139433D01*
X192835858Y-61269954D01*
X192674954Y-61430858D01*
X192544432Y-61617265D01*
X192544431Y-61617267D01*
X192448261Y-61823502D01*
X192448258Y-61823511D01*
X192389366Y-62043302D01*
X192389364Y-62043313D01*
X192369532Y-62269998D01*
X192369532Y-62270001D01*
X192389364Y-62496686D01*
X192389366Y-62496697D01*
X192448258Y-62716488D01*
X192448261Y-62716497D01*
X192544431Y-62922732D01*
X192544432Y-62922734D01*
X192674954Y-63109141D01*
X192832086Y-63266273D01*
X192865571Y-63327596D01*
X192860587Y-63397288D01*
X192818715Y-63453221D01*
X192772932Y-63474628D01*
X192767522Y-63475906D01*
X192632671Y-63526202D01*
X192632664Y-63526206D01*
X192517455Y-63612452D01*
X192517452Y-63612455D01*
X192431206Y-63727664D01*
X192431202Y-63727671D01*
X192380908Y-63862517D01*
X192374501Y-63922116D01*
X192374501Y-63922123D01*
X192374500Y-63922135D01*
X192374500Y-65617870D01*
X192374501Y-65617876D01*
X192380908Y-65677483D01*
X192431202Y-65812328D01*
X192431206Y-65812335D01*
X192517452Y-65927544D01*
X192517455Y-65927547D01*
X192632664Y-66013793D01*
X192632671Y-66013797D01*
X192767517Y-66064091D01*
X192767516Y-66064091D01*
X192774444Y-66064835D01*
X192827127Y-66070500D01*
X194522872Y-66070499D01*
X194582483Y-66064091D01*
X194717331Y-66013796D01*
X194832546Y-65927546D01*
X194918796Y-65812331D01*
X194969091Y-65677483D01*
X194975500Y-65617873D01*
X194975499Y-63922128D01*
X194969091Y-63862517D01*
X194934567Y-63769954D01*
X194918797Y-63727671D01*
X194918793Y-63727664D01*
X194832547Y-63612455D01*
X194832544Y-63612452D01*
X194717335Y-63526206D01*
X194717328Y-63526202D01*
X194582483Y-63475908D01*
X194577079Y-63474632D01*
X194516363Y-63440060D01*
X194483976Y-63378149D01*
X194490202Y-63308558D01*
X194517910Y-63266275D01*
X194675047Y-63109139D01*
X194805568Y-62922734D01*
X194901739Y-62716496D01*
X194960635Y-62496692D01*
X194980468Y-62270000D01*
X194960635Y-62043308D01*
X194901739Y-61823504D01*
X194805568Y-61617266D01*
X194675047Y-61430861D01*
X194675045Y-61430858D01*
X194514141Y-61269954D01*
X194327734Y-61139432D01*
X194312614Y-61132381D01*
X194260176Y-61086211D01*
X194241023Y-61019018D01*
X194261238Y-60952136D01*
X194312614Y-60907618D01*
X194327734Y-60900568D01*
X194514139Y-60770047D01*
X194675047Y-60609139D01*
X194805568Y-60422734D01*
X194901739Y-60216496D01*
X194960635Y-59996692D01*
X194980468Y-59770000D01*
X194960635Y-59543308D01*
X194901739Y-59323504D01*
X194805568Y-59117266D01*
X194675047Y-58930861D01*
X194675045Y-58930858D01*
X194514141Y-58769954D01*
X194327734Y-58639432D01*
X194327732Y-58639431D01*
X194121497Y-58543261D01*
X194121488Y-58543258D01*
X193901697Y-58484366D01*
X193901693Y-58484365D01*
X193901692Y-58484365D01*
X193901691Y-58484364D01*
X193901686Y-58484364D01*
X193675002Y-58464532D01*
X193674998Y-58464532D01*
X193448313Y-58484364D01*
X193448302Y-58484366D01*
X193228511Y-58543258D01*
X193228502Y-58543261D01*
X193022267Y-58639431D01*
X193022265Y-58639432D01*
X192835858Y-58769954D01*
X192674954Y-58930858D01*
X192544432Y-59117265D01*
X192544431Y-59117267D01*
X192448261Y-59323502D01*
X192448258Y-59323511D01*
X192389366Y-59543302D01*
X192389364Y-59543313D01*
X192369532Y-59769998D01*
X191163469Y-59769998D01*
X191170468Y-59690000D01*
X191150635Y-59463308D01*
X191091739Y-59243504D01*
X190995568Y-59037266D01*
X190865047Y-58850861D01*
X190865045Y-58850858D01*
X190704141Y-58689954D01*
X190517734Y-58559432D01*
X190517732Y-58559431D01*
X190311497Y-58463261D01*
X190311488Y-58463258D01*
X190091697Y-58404366D01*
X190091693Y-58404365D01*
X190091692Y-58404365D01*
X190091691Y-58404364D01*
X190091686Y-58404364D01*
X189865002Y-58384532D01*
X189864998Y-58384532D01*
X189638313Y-58404364D01*
X189638302Y-58404366D01*
X189418511Y-58463258D01*
X189418502Y-58463261D01*
X189212267Y-58559431D01*
X189212265Y-58559432D01*
X189025858Y-58689954D01*
X188864954Y-58850858D01*
X188734432Y-59037265D01*
X188734429Y-59037270D01*
X188727104Y-59052979D01*
X188680929Y-59105417D01*
X188613735Y-59124566D01*
X188546855Y-59104347D01*
X188502341Y-59052973D01*
X188495133Y-59037515D01*
X188495132Y-59037513D01*
X188444025Y-58964526D01*
X187765000Y-59643551D01*
X187765000Y-59637339D01*
X187737741Y-59535606D01*
X187685080Y-59444394D01*
X187610606Y-59369920D01*
X187519394Y-59317259D01*
X187417661Y-59290000D01*
X187411448Y-59290000D01*
X188090472Y-58610974D01*
X188017478Y-58559863D01*
X187811331Y-58463735D01*
X187811317Y-58463730D01*
X187591610Y-58404860D01*
X187591599Y-58404858D01*
X187365002Y-58385034D01*
X187364998Y-58385034D01*
X187138400Y-58404858D01*
X187138389Y-58404860D01*
X186918682Y-58463730D01*
X186918673Y-58463734D01*
X186712516Y-58559866D01*
X186712512Y-58559868D01*
X186639526Y-58610973D01*
X186639526Y-58610974D01*
X187318553Y-59290000D01*
X187312339Y-59290000D01*
X187210606Y-59317259D01*
X187119394Y-59369920D01*
X187044920Y-59444394D01*
X186992259Y-59535606D01*
X186965000Y-59637339D01*
X186965000Y-59643552D01*
X186285974Y-58964526D01*
X186285973Y-58964526D01*
X186234868Y-59037512D01*
X186234866Y-59037516D01*
X186138734Y-59243673D01*
X186138730Y-59243682D01*
X186079860Y-59463389D01*
X186079858Y-59463400D01*
X186060034Y-59689997D01*
X153789500Y-59689997D01*
X153789500Y-39115996D01*
X155912435Y-39115996D01*
X155912435Y-39116003D01*
X155932630Y-39295249D01*
X155932631Y-39295254D01*
X155992211Y-39465523D01*
X156073752Y-39595293D01*
X156088184Y-39618262D01*
X156215738Y-39745816D01*
X156368478Y-39841789D01*
X156368483Y-39841792D01*
X156374753Y-39844812D01*
X156373864Y-39846656D01*
X156409937Y-39869305D01*
X157360778Y-40820145D01*
X158232181Y-41691548D01*
X158265666Y-41752871D01*
X158268500Y-41779229D01*
X158268500Y-46785500D01*
X158248815Y-46852539D01*
X158196011Y-46898294D01*
X158144505Y-46909500D01*
X158121132Y-46909500D01*
X158121123Y-46909501D01*
X158061516Y-46915908D01*
X157926671Y-46966202D01*
X157926664Y-46966206D01*
X157811455Y-47052452D01*
X157811452Y-47052455D01*
X157725206Y-47167664D01*
X157725202Y-47167671D01*
X157674908Y-47302517D01*
X157668501Y-47362116D01*
X157668500Y-47362135D01*
X157668500Y-49157870D01*
X157668501Y-49157876D01*
X157674908Y-49217483D01*
X157725202Y-49352328D01*
X157725206Y-49352335D01*
X157811452Y-49467544D01*
X157811455Y-49467547D01*
X157926664Y-49553793D01*
X157926671Y-49553797D01*
X158061517Y-49604091D01*
X158061516Y-49604091D01*
X158068444Y-49604835D01*
X158121127Y-49610500D01*
X159916872Y-49610499D01*
X159976483Y-49604091D01*
X160111331Y-49553796D01*
X160226546Y-49467546D01*
X160312796Y-49352331D01*
X160361810Y-49220916D01*
X160403681Y-49164984D01*
X160469145Y-49140566D01*
X160537418Y-49155417D01*
X160565673Y-49176569D01*
X160687599Y-49298495D01*
X160784384Y-49366265D01*
X160881165Y-49434032D01*
X160881167Y-49434033D01*
X160881170Y-49434035D01*
X161095337Y-49533903D01*
X161095350Y-49533906D01*
X161100431Y-49535757D01*
X161099632Y-49537950D01*
X161150814Y-49569099D01*
X161181387Y-49631925D01*
X161173140Y-49701306D01*
X161128692Y-49755215D01*
X161100073Y-49769613D01*
X160955480Y-49820209D01*
X160802737Y-49916184D01*
X160675184Y-50043737D01*
X160579211Y-50196476D01*
X160519631Y-50366745D01*
X160519630Y-50366750D01*
X160499435Y-50545996D01*
X160499435Y-50546003D01*
X160519630Y-50725249D01*
X160519631Y-50725254D01*
X160579211Y-50895523D01*
X160675184Y-51048262D01*
X160802738Y-51175816D01*
X160825078Y-51189853D01*
X160955483Y-51271792D01*
X160961753Y-51274812D01*
X160960870Y-51276643D01*
X160996940Y-51299308D01*
X161265181Y-51567548D01*
X161298666Y-51628871D01*
X161301500Y-51655229D01*
X161301500Y-54393059D01*
X161281815Y-54460098D01*
X161265182Y-54480740D01*
X161168183Y-54577739D01*
X161072211Y-54730476D01*
X161012631Y-54900745D01*
X161012630Y-54900750D01*
X160992435Y-55079996D01*
X160992435Y-55080003D01*
X161012630Y-55259249D01*
X161012631Y-55259254D01*
X161072211Y-55429523D01*
X161127205Y-55517044D01*
X161168184Y-55582262D01*
X161295738Y-55709816D01*
X161295741Y-55709818D01*
X161298520Y-55712034D01*
X161299847Y-55713925D01*
X161300662Y-55714740D01*
X161300519Y-55714882D01*
X161338660Y-55769222D01*
X161341510Y-55839034D01*
X161326203Y-55874950D01*
X161319209Y-55886081D01*
X161259633Y-56056337D01*
X161259630Y-56056350D01*
X161239435Y-56235596D01*
X161239435Y-56235603D01*
X161259630Y-56414849D01*
X161259631Y-56414854D01*
X161319211Y-56585123D01*
X161415184Y-56737862D01*
X161542738Y-56865416D01*
X161695478Y-56961389D01*
X161865745Y-57020968D01*
X161865750Y-57020969D01*
X162044996Y-57041165D01*
X162045000Y-57041165D01*
X162045004Y-57041165D01*
X162224249Y-57020969D01*
X162224252Y-57020968D01*
X162224255Y-57020968D01*
X162394522Y-56961389D01*
X162547262Y-56865416D01*
X162674816Y-56737862D01*
X162770789Y-56585122D01*
X162770790Y-56585118D01*
X162773811Y-56578846D01*
X162775655Y-56579734D01*
X162798305Y-56543661D01*
X163334952Y-56007016D01*
X163396121Y-55915468D01*
X163417084Y-55884095D01*
X163473658Y-55747513D01*
X163483096Y-55700062D01*
X163502500Y-55602520D01*
X163502500Y-49659391D01*
X163522185Y-49592352D01*
X163574989Y-49546597D01*
X163644147Y-49536653D01*
X163658593Y-49539616D01*
X163849000Y-49590634D01*
X163849000Y-48693012D01*
X163906007Y-48725925D01*
X164033174Y-48760000D01*
X164164826Y-48760000D01*
X164291993Y-48725925D01*
X164349000Y-48693012D01*
X164349000Y-49590633D01*
X164562483Y-49533433D01*
X164562492Y-49533429D01*
X164776578Y-49433600D01*
X164970082Y-49298105D01*
X165137105Y-49131082D01*
X165272600Y-48937578D01*
X165372429Y-48723492D01*
X165372432Y-48723486D01*
X165429636Y-48510000D01*
X164532012Y-48510000D01*
X164564925Y-48452993D01*
X164599000Y-48325826D01*
X164599000Y-48194174D01*
X164564925Y-48067007D01*
X164532012Y-48010000D01*
X165429636Y-48010000D01*
X165429635Y-48009999D01*
X165372432Y-47796513D01*
X165372429Y-47796507D01*
X165272600Y-47582422D01*
X165272599Y-47582420D01*
X165137113Y-47388926D01*
X165137108Y-47388920D01*
X164970082Y-47221894D01*
X164776578Y-47086399D01*
X164562492Y-46986570D01*
X164562486Y-46986567D01*
X164349000Y-46929364D01*
X164349000Y-47826988D01*
X164291993Y-47794075D01*
X164164826Y-47760000D01*
X164033174Y-47760000D01*
X163906007Y-47794075D01*
X163849000Y-47826988D01*
X163849000Y-46929364D01*
X163848999Y-46929364D01*
X163635513Y-46986567D01*
X163635507Y-46986570D01*
X163421422Y-47086399D01*
X163421420Y-47086400D01*
X163227926Y-47221886D01*
X163227920Y-47221891D01*
X163060891Y-47388920D01*
X163060890Y-47388922D01*
X162930880Y-47574595D01*
X162876303Y-47618219D01*
X162806804Y-47625412D01*
X162744450Y-47593890D01*
X162727730Y-47574594D01*
X162597494Y-47388597D01*
X162430402Y-47221506D01*
X162430395Y-47221501D01*
X162236834Y-47085967D01*
X162236830Y-47085965D01*
X162236828Y-47085964D01*
X162022663Y-46986097D01*
X162022659Y-46986096D01*
X162022655Y-46986094D01*
X161794413Y-46924938D01*
X161794403Y-46924936D01*
X161559001Y-46904341D01*
X161558999Y-46904341D01*
X161323596Y-46924936D01*
X161323586Y-46924938D01*
X161095344Y-46986094D01*
X161095335Y-46986098D01*
X160881171Y-47085964D01*
X160881169Y-47085965D01*
X160687600Y-47221503D01*
X160565673Y-47343430D01*
X160504350Y-47376914D01*
X160434658Y-47371930D01*
X160378725Y-47330058D01*
X160361810Y-47299081D01*
X160312797Y-47167671D01*
X160312793Y-47167664D01*
X160226547Y-47052455D01*
X160226544Y-47052452D01*
X160111335Y-46966206D01*
X160111328Y-46966202D01*
X159976482Y-46915908D01*
X159976483Y-46915908D01*
X159916883Y-46909501D01*
X159916881Y-46909500D01*
X159916873Y-46909500D01*
X159916865Y-46909500D01*
X159893500Y-46909500D01*
X159826461Y-46889815D01*
X159780706Y-46837011D01*
X159769500Y-46785500D01*
X159769500Y-41343079D01*
X159740659Y-41198092D01*
X159740658Y-41198091D01*
X159740658Y-41198087D01*
X159740656Y-41198082D01*
X159684087Y-41061511D01*
X159684080Y-41061498D01*
X159601952Y-40938585D01*
X159551785Y-40888418D01*
X159497416Y-40834049D01*
X157471305Y-38807937D01*
X157448656Y-38771864D01*
X157446812Y-38772753D01*
X157443792Y-38766483D01*
X157433524Y-38750141D01*
X157347816Y-38613738D01*
X157220262Y-38486184D01*
X157197892Y-38472128D01*
X157067523Y-38390211D01*
X156897254Y-38330631D01*
X156897249Y-38330630D01*
X156718004Y-38310435D01*
X156717996Y-38310435D01*
X156538750Y-38330630D01*
X156538745Y-38330631D01*
X156368476Y-38390211D01*
X156215737Y-38486184D01*
X156088184Y-38613737D01*
X155992211Y-38766476D01*
X155932631Y-38936745D01*
X155932630Y-38936750D01*
X155912435Y-39115996D01*
X153789500Y-39115996D01*
X153789500Y-33527996D01*
X158706435Y-33527996D01*
X158706435Y-33528003D01*
X158726630Y-33707249D01*
X158726631Y-33707254D01*
X158786211Y-33877523D01*
X158866996Y-34006091D01*
X158882184Y-34030262D01*
X159009738Y-34157816D01*
X159162478Y-34253789D01*
X159162480Y-34253789D01*
X159162484Y-34253792D01*
X159168756Y-34256813D01*
X159167869Y-34258653D01*
X159203939Y-34281307D01*
X159478279Y-34555647D01*
X159511764Y-34616970D01*
X159506780Y-34686662D01*
X159464908Y-34742595D01*
X159404483Y-34766548D01*
X159332748Y-34774631D01*
X159332745Y-34774631D01*
X159162476Y-34834211D01*
X159009737Y-34930184D01*
X158882184Y-35057737D01*
X158786211Y-35210476D01*
X158726631Y-35380745D01*
X158726630Y-35380750D01*
X158706435Y-35559996D01*
X158706435Y-35560003D01*
X158726630Y-35739249D01*
X158726631Y-35739254D01*
X158754542Y-35819017D01*
X158761500Y-35859972D01*
X158761500Y-37411918D01*
X158761500Y-37411920D01*
X158761499Y-37411920D01*
X158790340Y-37556907D01*
X158790343Y-37556917D01*
X158846912Y-37693488D01*
X158846916Y-37693495D01*
X158864874Y-37720371D01*
X158864875Y-37720374D01*
X158929046Y-37816414D01*
X158929052Y-37816421D01*
X159105567Y-37992935D01*
X159139052Y-38054258D01*
X159134068Y-38123949D01*
X159092197Y-38179883D01*
X159083859Y-38185609D01*
X159009740Y-38232182D01*
X159009737Y-38232184D01*
X158882184Y-38359737D01*
X158786211Y-38512476D01*
X158726631Y-38682745D01*
X158726630Y-38682750D01*
X158706435Y-38861996D01*
X158706435Y-38862003D01*
X158726630Y-39041249D01*
X158726631Y-39041254D01*
X158786211Y-39211523D01*
X158838820Y-39295249D01*
X158882184Y-39364262D01*
X159009738Y-39491816D01*
X159162478Y-39587789D01*
X159168754Y-39590811D01*
X159167867Y-39592651D01*
X159203940Y-39615307D01*
X165637580Y-46048948D01*
X165637584Y-46048951D01*
X165760498Y-46131080D01*
X165760511Y-46131087D01*
X165897082Y-46187656D01*
X165897087Y-46187658D01*
X165897091Y-46187658D01*
X165897092Y-46187659D01*
X166042079Y-46216500D01*
X166042082Y-46216500D01*
X166189917Y-46216500D01*
X171265028Y-46216500D01*
X171305983Y-46223458D01*
X171385745Y-46251368D01*
X171385750Y-46251369D01*
X171564996Y-46271565D01*
X171565000Y-46271565D01*
X171565004Y-46271565D01*
X171744249Y-46251369D01*
X171744252Y-46251368D01*
X171744255Y-46251368D01*
X171914522Y-46191789D01*
X172067262Y-46095816D01*
X172194816Y-45968262D01*
X172290789Y-45815522D01*
X172290790Y-45815517D01*
X172291408Y-45814535D01*
X172343742Y-45768244D01*
X172410284Y-45757287D01*
X172452847Y-45762083D01*
X172465999Y-45763565D01*
X172466000Y-45763565D01*
X172466003Y-45763565D01*
X172547172Y-45754419D01*
X172586135Y-45750029D01*
X172654957Y-45762083D01*
X172706337Y-45809432D01*
X172723961Y-45877042D01*
X172702235Y-45943448D01*
X172687700Y-45960930D01*
X166586606Y-52062024D01*
X166550545Y-52084693D01*
X166551425Y-52086519D01*
X166545147Y-52089542D01*
X166392406Y-52185515D01*
X166264853Y-52313068D01*
X166168880Y-52465807D01*
X166109300Y-52636076D01*
X166109299Y-52636081D01*
X166089104Y-52815327D01*
X166089104Y-52815334D01*
X166109299Y-52994580D01*
X166109300Y-52994585D01*
X166168880Y-53164854D01*
X166264853Y-53317593D01*
X166345264Y-53398004D01*
X166378749Y-53459327D01*
X166373765Y-53529019D01*
X166345264Y-53573366D01*
X165680937Y-54237693D01*
X165644873Y-54260370D01*
X165645750Y-54262191D01*
X165639475Y-54265212D01*
X165486737Y-54361184D01*
X165359184Y-54488737D01*
X165263211Y-54641476D01*
X165203631Y-54811745D01*
X165203630Y-54811750D01*
X165183435Y-54990996D01*
X165183435Y-54991003D01*
X165203630Y-55170249D01*
X165203631Y-55170254D01*
X165263211Y-55340523D01*
X165331461Y-55449141D01*
X165359184Y-55493262D01*
X165486738Y-55620816D01*
X165517427Y-55640099D01*
X165628380Y-55709816D01*
X165639478Y-55716789D01*
X165741063Y-55752335D01*
X165809745Y-55776368D01*
X165809750Y-55776369D01*
X165988996Y-55796565D01*
X165989000Y-55796565D01*
X165989004Y-55796565D01*
X166168249Y-55776369D01*
X166168252Y-55776368D01*
X166168255Y-55776368D01*
X166338522Y-55716789D01*
X166491262Y-55620816D01*
X166618816Y-55493262D01*
X166714789Y-55340522D01*
X166714792Y-55340510D01*
X166717810Y-55334248D01*
X166719650Y-55335134D01*
X166742305Y-55299061D01*
X168963819Y-53077546D01*
X169025142Y-53044062D01*
X169094834Y-53049046D01*
X169150767Y-53090918D01*
X169175184Y-53156382D01*
X169175500Y-53165228D01*
X169175500Y-57985919D01*
X169184291Y-58030111D01*
X169186674Y-58054304D01*
X169186674Y-58483315D01*
X169179716Y-58524269D01*
X169151805Y-58604034D01*
X169131609Y-58783283D01*
X169131609Y-58783290D01*
X169151804Y-58962536D01*
X169151805Y-58962541D01*
X169211385Y-59132810D01*
X169281051Y-59243682D01*
X169307358Y-59285549D01*
X169434912Y-59413103D01*
X169587652Y-59509076D01*
X169685496Y-59543313D01*
X169757919Y-59568655D01*
X169757924Y-59568656D01*
X169937170Y-59588852D01*
X169937174Y-59588852D01*
X169937178Y-59588852D01*
X170116423Y-59568656D01*
X170116426Y-59568655D01*
X170116429Y-59568655D01*
X170286696Y-59509076D01*
X170439436Y-59413103D01*
X170566990Y-59285549D01*
X170662963Y-59132809D01*
X170722542Y-58962542D01*
X170726286Y-58929314D01*
X170742739Y-58783290D01*
X170742739Y-58783283D01*
X170729274Y-58663783D01*
X170722542Y-58604032D01*
X170694632Y-58524269D01*
X170687674Y-58483315D01*
X170687674Y-57849254D01*
X170678883Y-57805062D01*
X170676500Y-57780869D01*
X170676500Y-53131971D01*
X170683458Y-53091017D01*
X170699888Y-53044062D01*
X170711368Y-53011255D01*
X170713247Y-52994585D01*
X170719102Y-52942617D01*
X170746168Y-52878203D01*
X170803763Y-52838648D01*
X170842322Y-52832500D01*
X174274770Y-52832500D01*
X174341809Y-52852185D01*
X174362451Y-52868819D01*
X175747930Y-54254298D01*
X175781415Y-54315621D01*
X175780456Y-54372415D01*
X175778865Y-54378697D01*
X175759700Y-54609993D01*
X175759700Y-54610006D01*
X175778864Y-54841297D01*
X175778866Y-54841308D01*
X175835842Y-55066300D01*
X175929075Y-55278848D01*
X176056016Y-55473147D01*
X176056019Y-55473151D01*
X176056021Y-55473153D01*
X176213216Y-55643913D01*
X176213219Y-55643915D01*
X176213222Y-55643918D01*
X176396365Y-55786464D01*
X176396371Y-55786468D01*
X176396374Y-55786470D01*
X176600497Y-55896936D01*
X176714487Y-55936068D01*
X176820015Y-55972297D01*
X176820017Y-55972297D01*
X176820019Y-55972298D01*
X177048951Y-56010500D01*
X177048952Y-56010500D01*
X177281048Y-56010500D01*
X177281049Y-56010500D01*
X177509981Y-55972298D01*
X177729503Y-55896936D01*
X177933626Y-55786470D01*
X177954425Y-55770282D01*
X177995129Y-55738600D01*
X178116784Y-55643913D01*
X178125130Y-55634846D01*
X178185010Y-55598854D01*
X178254849Y-55600949D01*
X178312468Y-55640469D01*
X178332544Y-55675491D01*
X178361203Y-55752330D01*
X178361206Y-55752335D01*
X178447452Y-55867544D01*
X178447455Y-55867547D01*
X178562664Y-55953793D01*
X178562671Y-55953797D01*
X178697517Y-56004091D01*
X178697516Y-56004091D01*
X178704444Y-56004835D01*
X178757127Y-56010500D01*
X180652872Y-56010499D01*
X180712483Y-56004091D01*
X180847331Y-55953796D01*
X180962546Y-55867546D01*
X181048796Y-55752331D01*
X181099091Y-55617483D01*
X181101887Y-55591468D01*
X181128622Y-55526921D01*
X181186014Y-55487072D01*
X181255839Y-55484576D01*
X181312857Y-55517044D01*
X181405858Y-55610045D01*
X181405861Y-55610047D01*
X181592266Y-55740568D01*
X181798504Y-55836739D01*
X182018308Y-55895635D01*
X182180230Y-55909801D01*
X182244998Y-55915468D01*
X182245000Y-55915468D01*
X182245002Y-55915468D01*
X182301673Y-55910509D01*
X182471692Y-55895635D01*
X182691496Y-55836739D01*
X182897734Y-55740568D01*
X183084139Y-55610047D01*
X183245047Y-55449139D01*
X183375568Y-55262734D01*
X183471739Y-55056496D01*
X183530635Y-54836692D01*
X183547714Y-54641476D01*
X183550468Y-54610001D01*
X183550468Y-54609998D01*
X183530635Y-54383313D01*
X183530635Y-54383308D01*
X183524389Y-54359999D01*
X191126127Y-54359999D01*
X191126128Y-54360000D01*
X192089314Y-54360000D01*
X192084920Y-54364394D01*
X192032259Y-54455606D01*
X192005000Y-54557339D01*
X192005000Y-54662661D01*
X192032259Y-54764394D01*
X192084920Y-54855606D01*
X192089314Y-54860000D01*
X191126128Y-54860000D01*
X191178730Y-55056317D01*
X191178734Y-55056326D01*
X191274865Y-55262482D01*
X191405342Y-55448820D01*
X191566179Y-55609657D01*
X191752517Y-55740134D01*
X191958673Y-55836265D01*
X191958682Y-55836269D01*
X192154999Y-55888872D01*
X192155000Y-55888871D01*
X192155000Y-54925686D01*
X192159394Y-54930080D01*
X192250606Y-54982741D01*
X192352339Y-55010000D01*
X192457661Y-55010000D01*
X192559394Y-54982741D01*
X192650606Y-54930080D01*
X192655000Y-54925686D01*
X192655000Y-55888872D01*
X192851317Y-55836269D01*
X192851326Y-55836265D01*
X193057482Y-55740134D01*
X193243820Y-55609657D01*
X193404657Y-55448820D01*
X193535134Y-55262482D01*
X193631265Y-55056326D01*
X193631269Y-55056317D01*
X193683872Y-54860000D01*
X192720686Y-54860000D01*
X192725080Y-54855606D01*
X192777741Y-54764394D01*
X192805000Y-54662661D01*
X192805000Y-54557339D01*
X192777741Y-54455606D01*
X192725080Y-54364394D01*
X192720686Y-54360000D01*
X193683872Y-54360000D01*
X193683872Y-54359999D01*
X193631269Y-54163682D01*
X193631265Y-54163673D01*
X193535134Y-53957517D01*
X193404657Y-53771179D01*
X193243820Y-53610342D01*
X193057482Y-53479865D01*
X192851328Y-53383734D01*
X192655000Y-53331127D01*
X192655000Y-54294314D01*
X192650606Y-54289920D01*
X192559394Y-54237259D01*
X192457661Y-54210000D01*
X192352339Y-54210000D01*
X192250606Y-54237259D01*
X192159394Y-54289920D01*
X192155000Y-54294314D01*
X192155000Y-53331127D01*
X191958671Y-53383734D01*
X191752517Y-53479865D01*
X191566179Y-53610342D01*
X191405342Y-53771179D01*
X191274865Y-53957517D01*
X191178734Y-54163673D01*
X191178730Y-54163682D01*
X191126127Y-54359999D01*
X183524389Y-54359999D01*
X183471739Y-54163504D01*
X183375568Y-53957266D01*
X183245047Y-53770861D01*
X183245045Y-53770858D01*
X183084141Y-53609954D01*
X182897734Y-53479432D01*
X182897732Y-53479431D01*
X182691497Y-53383261D01*
X182691488Y-53383258D01*
X182471697Y-53324366D01*
X182471693Y-53324365D01*
X182471692Y-53324365D01*
X182471691Y-53324364D01*
X182471686Y-53324364D01*
X182245002Y-53304532D01*
X182244998Y-53304532D01*
X182018313Y-53324364D01*
X182018302Y-53324366D01*
X181798511Y-53383258D01*
X181798502Y-53383261D01*
X181592267Y-53479431D01*
X181592265Y-53479432D01*
X181405862Y-53609951D01*
X181312858Y-53702955D01*
X181251534Y-53736439D01*
X181181843Y-53731455D01*
X181125910Y-53689583D01*
X181101887Y-53628526D01*
X181099091Y-53602516D01*
X181048797Y-53467671D01*
X181048793Y-53467664D01*
X180962547Y-53352455D01*
X180962544Y-53352452D01*
X180847335Y-53266206D01*
X180847328Y-53266202D01*
X180712482Y-53215908D01*
X180712483Y-53215908D01*
X180652883Y-53209501D01*
X180652881Y-53209500D01*
X180652873Y-53209500D01*
X180652864Y-53209500D01*
X178757129Y-53209500D01*
X178757123Y-53209501D01*
X178697516Y-53215908D01*
X178562671Y-53266202D01*
X178562664Y-53266206D01*
X178447455Y-53352452D01*
X178447452Y-53352455D01*
X178361206Y-53467664D01*
X178361203Y-53467670D01*
X178332544Y-53544508D01*
X178290672Y-53600441D01*
X178225208Y-53624858D01*
X178156935Y-53610006D01*
X178125135Y-53585158D01*
X178116784Y-53576087D01*
X178116778Y-53576082D01*
X178116777Y-53576081D01*
X177933634Y-53433535D01*
X177933628Y-53433531D01*
X177729504Y-53323064D01*
X177729495Y-53323061D01*
X177509984Y-53247702D01*
X177319450Y-53215908D01*
X177281049Y-53209500D01*
X177048951Y-53209500D01*
X176920726Y-53230896D01*
X176851361Y-53222514D01*
X176812636Y-53196268D01*
X175418504Y-51802135D01*
X194229500Y-51802135D01*
X194229500Y-53597870D01*
X194229501Y-53597876D01*
X194235908Y-53657483D01*
X194286202Y-53792328D01*
X194286206Y-53792335D01*
X194372452Y-53907544D01*
X194372455Y-53907547D01*
X194487664Y-53993793D01*
X194487671Y-53993797D01*
X194487674Y-53993798D01*
X194619598Y-54043002D01*
X194675531Y-54084873D01*
X194699949Y-54150337D01*
X194685098Y-54218610D01*
X194663947Y-54246865D01*
X194541886Y-54368926D01*
X194406400Y-54562420D01*
X194406399Y-54562422D01*
X194306570Y-54776507D01*
X194306567Y-54776513D01*
X194249364Y-54989999D01*
X194249364Y-54990000D01*
X195146988Y-54990000D01*
X195114075Y-55047007D01*
X195080000Y-55174174D01*
X195080000Y-55305826D01*
X195114075Y-55432993D01*
X195146988Y-55490000D01*
X194249364Y-55490000D01*
X194306567Y-55703486D01*
X194306570Y-55703492D01*
X194406399Y-55917578D01*
X194541894Y-56111082D01*
X194708917Y-56278105D01*
X194902421Y-56413600D01*
X195116507Y-56513429D01*
X195116516Y-56513433D01*
X195330000Y-56570634D01*
X195330000Y-55673012D01*
X195387007Y-55705925D01*
X195514174Y-55740000D01*
X195645826Y-55740000D01*
X195772993Y-55705925D01*
X195830000Y-55673012D01*
X195830000Y-56570633D01*
X196043483Y-56513433D01*
X196043492Y-56513429D01*
X196257578Y-56413600D01*
X196451082Y-56278105D01*
X196618105Y-56111082D01*
X196753600Y-55917578D01*
X196853429Y-55703492D01*
X196853432Y-55703486D01*
X196910636Y-55490000D01*
X196013012Y-55490000D01*
X196045925Y-55432993D01*
X196080000Y-55305826D01*
X196080000Y-55174174D01*
X196045925Y-55047007D01*
X196013012Y-54990000D01*
X196910636Y-54990000D01*
X196910635Y-54989999D01*
X196853432Y-54776513D01*
X196853429Y-54776507D01*
X196753600Y-54562422D01*
X196753599Y-54562420D01*
X196618113Y-54368926D01*
X196618108Y-54368920D01*
X196496053Y-54246865D01*
X196462568Y-54185542D01*
X196467552Y-54115850D01*
X196509424Y-54059917D01*
X196540400Y-54043002D01*
X196672331Y-53993796D01*
X196787546Y-53907546D01*
X196873796Y-53792331D01*
X196924091Y-53657483D01*
X196930500Y-53597873D01*
X196930499Y-51802128D01*
X196924091Y-51742517D01*
X196873796Y-51607669D01*
X196873795Y-51607668D01*
X196873793Y-51607664D01*
X196787547Y-51492455D01*
X196787544Y-51492452D01*
X196672335Y-51406206D01*
X196672328Y-51406202D01*
X196537482Y-51355908D01*
X196537483Y-51355908D01*
X196477883Y-51349501D01*
X196477881Y-51349500D01*
X196477873Y-51349500D01*
X196477864Y-51349500D01*
X194682129Y-51349500D01*
X194682123Y-51349501D01*
X194622516Y-51355908D01*
X194487671Y-51406202D01*
X194487664Y-51406206D01*
X194372455Y-51492452D01*
X194372452Y-51492455D01*
X194286206Y-51607664D01*
X194286202Y-51607671D01*
X194235908Y-51742517D01*
X194229501Y-51802116D01*
X194229501Y-51802123D01*
X194229500Y-51802135D01*
X175418504Y-51802135D01*
X175115421Y-51499052D01*
X175115414Y-51499046D01*
X175041729Y-51449812D01*
X175041729Y-51449813D01*
X174992491Y-51416913D01*
X174855917Y-51360343D01*
X174855907Y-51360340D01*
X174710920Y-51331500D01*
X174710918Y-51331500D01*
X169739230Y-51331500D01*
X169672191Y-51311815D01*
X169626436Y-51259011D01*
X169616492Y-51189853D01*
X169645517Y-51126297D01*
X169651549Y-51119819D01*
X176484232Y-44287135D01*
X186074500Y-44287135D01*
X186074500Y-45882870D01*
X186074501Y-45882876D01*
X186080908Y-45942483D01*
X186131202Y-46077328D01*
X186131206Y-46077335D01*
X186217452Y-46192544D01*
X186217455Y-46192547D01*
X186332664Y-46278793D01*
X186332671Y-46278797D01*
X186467517Y-46329091D01*
X186467516Y-46329091D01*
X186474444Y-46329835D01*
X186527127Y-46335500D01*
X188122872Y-46335499D01*
X188182483Y-46329091D01*
X188317331Y-46278796D01*
X188432546Y-46192546D01*
X188467319Y-46146095D01*
X188523247Y-46104228D01*
X188592939Y-46099243D01*
X188654262Y-46132727D01*
X188678964Y-46168004D01*
X188774431Y-46372732D01*
X188774432Y-46372734D01*
X188904954Y-46559141D01*
X189065858Y-46720045D01*
X189065861Y-46720047D01*
X189252266Y-46850568D01*
X189458504Y-46946739D01*
X189678308Y-47005635D01*
X189840230Y-47019801D01*
X189904998Y-47025468D01*
X189905000Y-47025468D01*
X189905002Y-47025468D01*
X189961673Y-47020509D01*
X190131692Y-47005635D01*
X190351496Y-46946739D01*
X190557734Y-46850568D01*
X190744139Y-46720047D01*
X190905047Y-46559139D01*
X191035568Y-46372734D01*
X191042893Y-46357024D01*
X191089064Y-46304586D01*
X191156257Y-46285433D01*
X191223138Y-46305648D01*
X191267657Y-46357024D01*
X191274864Y-46372480D01*
X191325974Y-46445472D01*
X192005000Y-45766446D01*
X192005000Y-45772661D01*
X192032259Y-45874394D01*
X192084920Y-45965606D01*
X192159394Y-46040080D01*
X192250606Y-46092741D01*
X192352339Y-46120000D01*
X192358553Y-46120000D01*
X191679526Y-46799025D01*
X191752513Y-46850132D01*
X191752521Y-46850136D01*
X191958668Y-46946264D01*
X191958682Y-46946269D01*
X192178389Y-47005139D01*
X192178400Y-47005141D01*
X192404998Y-47024966D01*
X192405002Y-47024966D01*
X192631599Y-47005141D01*
X192631610Y-47005139D01*
X192851317Y-46946269D01*
X192851331Y-46946264D01*
X193057478Y-46850136D01*
X193130471Y-46799024D01*
X192451447Y-46120000D01*
X192457661Y-46120000D01*
X192559394Y-46092741D01*
X192650606Y-46040080D01*
X192725080Y-45965606D01*
X192777741Y-45874394D01*
X192805000Y-45772661D01*
X192805000Y-45766447D01*
X193484024Y-46445471D01*
X193535136Y-46372478D01*
X193631264Y-46166331D01*
X193631269Y-46166317D01*
X193690139Y-45946610D01*
X193690141Y-45946599D01*
X193709966Y-45720002D01*
X193709966Y-45719997D01*
X193690141Y-45493400D01*
X193690139Y-45493389D01*
X193631269Y-45273682D01*
X193631264Y-45273668D01*
X193535136Y-45067521D01*
X193535132Y-45067513D01*
X193484025Y-44994526D01*
X192805000Y-45673551D01*
X192805000Y-45667339D01*
X192777741Y-45565606D01*
X192725080Y-45474394D01*
X192650606Y-45399920D01*
X192559394Y-45347259D01*
X192457661Y-45320000D01*
X192451448Y-45320000D01*
X193130472Y-44640974D01*
X193057478Y-44589863D01*
X192851331Y-44493735D01*
X192851317Y-44493730D01*
X192631610Y-44434860D01*
X192631599Y-44434858D01*
X192405002Y-44415034D01*
X192404998Y-44415034D01*
X192178400Y-44434858D01*
X192178389Y-44434860D01*
X191958682Y-44493730D01*
X191958673Y-44493734D01*
X191752516Y-44589866D01*
X191752512Y-44589868D01*
X191679526Y-44640973D01*
X191679526Y-44640974D01*
X192358553Y-45320000D01*
X192352339Y-45320000D01*
X192250606Y-45347259D01*
X192159394Y-45399920D01*
X192084920Y-45474394D01*
X192032259Y-45565606D01*
X192005000Y-45667339D01*
X192005000Y-45673552D01*
X191325974Y-44994526D01*
X191325973Y-44994526D01*
X191274868Y-45067512D01*
X191274867Y-45067514D01*
X191267656Y-45082979D01*
X191221482Y-45135417D01*
X191154288Y-45154567D01*
X191087407Y-45134350D01*
X191042893Y-45082976D01*
X191035568Y-45067266D01*
X190905047Y-44880861D01*
X190905045Y-44880858D01*
X190744141Y-44719954D01*
X190557734Y-44589432D01*
X190557732Y-44589431D01*
X190351497Y-44493261D01*
X190351488Y-44493258D01*
X190131697Y-44434366D01*
X190131693Y-44434365D01*
X190131692Y-44434365D01*
X190131691Y-44434364D01*
X190131686Y-44434364D01*
X189905002Y-44414532D01*
X189904998Y-44414532D01*
X189678313Y-44434364D01*
X189678302Y-44434366D01*
X189458511Y-44493258D01*
X189458502Y-44493261D01*
X189252267Y-44589431D01*
X189252265Y-44589432D01*
X189065858Y-44719954D01*
X188904954Y-44880858D01*
X188801074Y-45029216D01*
X188746497Y-45072841D01*
X188676999Y-45080035D01*
X188614644Y-45048512D01*
X188579230Y-44988283D01*
X188575499Y-44958093D01*
X188575499Y-44287129D01*
X188575498Y-44287123D01*
X188575497Y-44287116D01*
X188569091Y-44227517D01*
X188557334Y-44195996D01*
X188518797Y-44092671D01*
X188518793Y-44092664D01*
X188432547Y-43977455D01*
X188432544Y-43977452D01*
X188317335Y-43891206D01*
X188317328Y-43891202D01*
X188182482Y-43840908D01*
X188182483Y-43840908D01*
X188122883Y-43834501D01*
X188122881Y-43834500D01*
X188122873Y-43834500D01*
X188122864Y-43834500D01*
X186527129Y-43834500D01*
X186527123Y-43834501D01*
X186467516Y-43840908D01*
X186332671Y-43891202D01*
X186332664Y-43891206D01*
X186217455Y-43977452D01*
X186217452Y-43977455D01*
X186131206Y-44092664D01*
X186131202Y-44092671D01*
X186080908Y-44227517D01*
X186074501Y-44287116D01*
X186074501Y-44287123D01*
X186074500Y-44287135D01*
X176484232Y-44287135D01*
X179496369Y-41274998D01*
X180939532Y-41274998D01*
X180939532Y-41275001D01*
X180959364Y-41501686D01*
X180959366Y-41501697D01*
X181018258Y-41721488D01*
X181018261Y-41721497D01*
X181114431Y-41927732D01*
X181114432Y-41927734D01*
X181244954Y-42114141D01*
X181405858Y-42275045D01*
X181405861Y-42275047D01*
X181592266Y-42405568D01*
X181798504Y-42501739D01*
X182018308Y-42560635D01*
X182180230Y-42574801D01*
X182244998Y-42580468D01*
X182245000Y-42580468D01*
X182245002Y-42580468D01*
X182301673Y-42575509D01*
X182471692Y-42560635D01*
X182691496Y-42501739D01*
X182897734Y-42405568D01*
X183084139Y-42275047D01*
X183245047Y-42114139D01*
X183375568Y-41927734D01*
X183383838Y-41909999D01*
X188890341Y-41909999D01*
X188890341Y-41910000D01*
X188910936Y-42145403D01*
X188910938Y-42145413D01*
X188972094Y-42373655D01*
X188972096Y-42373659D01*
X188972097Y-42373663D01*
X188986975Y-42405568D01*
X189071965Y-42587830D01*
X189071967Y-42587834D01*
X189180281Y-42742521D01*
X189207505Y-42781401D01*
X189374599Y-42948495D01*
X189400089Y-42966343D01*
X189568165Y-43084032D01*
X189568167Y-43084033D01*
X189568170Y-43084035D01*
X189782337Y-43183903D01*
X190010592Y-43245063D01*
X190198918Y-43261539D01*
X190245999Y-43265659D01*
X190246000Y-43265659D01*
X190246001Y-43265659D01*
X190285234Y-43262226D01*
X190481408Y-43245063D01*
X190709663Y-43183903D01*
X190923830Y-43084035D01*
X191117401Y-42948495D01*
X191284495Y-42781401D01*
X191420035Y-42587830D01*
X191519903Y-42373663D01*
X191581063Y-42145408D01*
X191601659Y-41910000D01*
X191581063Y-41674592D01*
X191519903Y-41446337D01*
X191420035Y-41232171D01*
X191396169Y-41198087D01*
X191284496Y-41038600D01*
X191284495Y-41038599D01*
X191162567Y-40916671D01*
X191129084Y-40855351D01*
X191134068Y-40785659D01*
X191175939Y-40729725D01*
X191206915Y-40712810D01*
X191338331Y-40663796D01*
X191453546Y-40577546D01*
X191539796Y-40462331D01*
X191590091Y-40327483D01*
X191596500Y-40267873D01*
X191596499Y-38472128D01*
X191590091Y-38412517D01*
X191581771Y-38390211D01*
X191539797Y-38277671D01*
X191539793Y-38277664D01*
X191453547Y-38162455D01*
X191453544Y-38162452D01*
X191338335Y-38076206D01*
X191338328Y-38076202D01*
X191203482Y-38025908D01*
X191203483Y-38025908D01*
X191143883Y-38019501D01*
X191143881Y-38019500D01*
X191143873Y-38019500D01*
X191143864Y-38019500D01*
X189348129Y-38019500D01*
X189348123Y-38019501D01*
X189288516Y-38025908D01*
X189153671Y-38076202D01*
X189153664Y-38076206D01*
X189038455Y-38162452D01*
X189038452Y-38162455D01*
X188952206Y-38277664D01*
X188952202Y-38277671D01*
X188901908Y-38412517D01*
X188896261Y-38465045D01*
X188895501Y-38472123D01*
X188895500Y-38472135D01*
X188895500Y-40267870D01*
X188895501Y-40267876D01*
X188901908Y-40327483D01*
X188952202Y-40462328D01*
X188952206Y-40462335D01*
X189038452Y-40577544D01*
X189038455Y-40577547D01*
X189153664Y-40663793D01*
X189153671Y-40663797D01*
X189285081Y-40712810D01*
X189341015Y-40754681D01*
X189365432Y-40820145D01*
X189350580Y-40888418D01*
X189329430Y-40916673D01*
X189207503Y-41038600D01*
X189071965Y-41232169D01*
X189071964Y-41232171D01*
X188972098Y-41446335D01*
X188972094Y-41446344D01*
X188910938Y-41674586D01*
X188910936Y-41674596D01*
X188890341Y-41909999D01*
X183383838Y-41909999D01*
X183471739Y-41721496D01*
X183530635Y-41501692D01*
X183550468Y-41275000D01*
X183530635Y-41048308D01*
X183471739Y-40828504D01*
X183375568Y-40622266D01*
X183245047Y-40435861D01*
X183245045Y-40435858D01*
X183084141Y-40274954D01*
X182897734Y-40144432D01*
X182897732Y-40144431D01*
X182691497Y-40048261D01*
X182691488Y-40048258D01*
X182471697Y-39989366D01*
X182471693Y-39989365D01*
X182471692Y-39989365D01*
X182471691Y-39989364D01*
X182471686Y-39989364D01*
X182245002Y-39969532D01*
X182244998Y-39969532D01*
X182018313Y-39989364D01*
X182018302Y-39989366D01*
X181798511Y-40048258D01*
X181798502Y-40048261D01*
X181592267Y-40144431D01*
X181592265Y-40144432D01*
X181405858Y-40274954D01*
X181244954Y-40435858D01*
X181114432Y-40622265D01*
X181114431Y-40622267D01*
X181018261Y-40828502D01*
X181018258Y-40828511D01*
X180959366Y-41048302D01*
X180959364Y-41048313D01*
X180939532Y-41274998D01*
X179496369Y-41274998D01*
X183306370Y-37464997D01*
X186069723Y-37464997D01*
X186069723Y-37465002D01*
X186088793Y-37682975D01*
X186088793Y-37682979D01*
X186145422Y-37894322D01*
X186145424Y-37894326D01*
X186145425Y-37894330D01*
X186191405Y-37992935D01*
X186237897Y-38092638D01*
X186262998Y-38128486D01*
X186363402Y-38271877D01*
X186518123Y-38426598D01*
X186697361Y-38552102D01*
X186895670Y-38644575D01*
X187107023Y-38701207D01*
X187289926Y-38717208D01*
X187324998Y-38720277D01*
X187325000Y-38720277D01*
X187325002Y-38720277D01*
X187353254Y-38717805D01*
X187542977Y-38701207D01*
X187754330Y-38644575D01*
X187952639Y-38552102D01*
X188131877Y-38426598D01*
X188286598Y-38271877D01*
X188412102Y-38092639D01*
X188504575Y-37894330D01*
X188561207Y-37682977D01*
X188580277Y-37465000D01*
X188561207Y-37247023D01*
X188504575Y-37035670D01*
X188412102Y-36837362D01*
X188412100Y-36837359D01*
X188412099Y-36837357D01*
X188286599Y-36658124D01*
X188254333Y-36625858D01*
X188131877Y-36503402D01*
X187964173Y-36385974D01*
X187952638Y-36377897D01*
X187853484Y-36331661D01*
X187754330Y-36285425D01*
X187754326Y-36285424D01*
X187754322Y-36285422D01*
X187542977Y-36228793D01*
X187325002Y-36209723D01*
X187324998Y-36209723D01*
X187179682Y-36222436D01*
X187107023Y-36228793D01*
X187107020Y-36228793D01*
X186895677Y-36285422D01*
X186895668Y-36285426D01*
X186697361Y-36377898D01*
X186697357Y-36377900D01*
X186518121Y-36503402D01*
X186363402Y-36658121D01*
X186237900Y-36837357D01*
X186237898Y-36837361D01*
X186145426Y-37035668D01*
X186145422Y-37035677D01*
X186088793Y-37247020D01*
X186088793Y-37247024D01*
X186069723Y-37464997D01*
X183306370Y-37464997D01*
X186964548Y-33806819D01*
X187025871Y-33773334D01*
X187052229Y-33770500D01*
X187856000Y-33770500D01*
X187923039Y-33790185D01*
X187968794Y-33842989D01*
X187980000Y-33894500D01*
X187980000Y-34040000D01*
X188864134Y-34040000D01*
X188888326Y-34042383D01*
X188891123Y-34042939D01*
X188903995Y-34045499D01*
X188903996Y-34045500D01*
X188903997Y-34045500D01*
X188944170Y-34045500D01*
X188929925Y-34059745D01*
X188880556Y-34145255D01*
X188855000Y-34240630D01*
X188855000Y-34339370D01*
X188880556Y-34434745D01*
X188929925Y-34520255D01*
X188949670Y-34540000D01*
X187980000Y-34540000D01*
X187980000Y-34862844D01*
X187986401Y-34922372D01*
X187986403Y-34922379D01*
X188036645Y-35057086D01*
X188036649Y-35057093D01*
X188122809Y-35172187D01*
X188122812Y-35172190D01*
X188237906Y-35258350D01*
X188237913Y-35258354D01*
X188372620Y-35308596D01*
X188372627Y-35308598D01*
X188432155Y-35314999D01*
X188432172Y-35315000D01*
X188980000Y-35315000D01*
X188980000Y-34570330D01*
X188999745Y-34590075D01*
X189085255Y-34639444D01*
X189180630Y-34665000D01*
X189279370Y-34665000D01*
X189374745Y-34639444D01*
X189460255Y-34590075D01*
X189480000Y-34570330D01*
X189480000Y-35315000D01*
X190027828Y-35315000D01*
X190027844Y-35314999D01*
X190087372Y-35308598D01*
X190087379Y-35308596D01*
X190222086Y-35258354D01*
X190222093Y-35258350D01*
X190337187Y-35172190D01*
X190337190Y-35172187D01*
X190423350Y-35057093D01*
X190423354Y-35057086D01*
X190473596Y-34922379D01*
X190473598Y-34922372D01*
X190479999Y-34862844D01*
X190480000Y-34862827D01*
X190480000Y-34540000D01*
X189510330Y-34540000D01*
X189530075Y-34520255D01*
X189579444Y-34434745D01*
X189605000Y-34339370D01*
X189605000Y-34240630D01*
X189579444Y-34145255D01*
X189530075Y-34059745D01*
X189515830Y-34045500D01*
X189556004Y-34045500D01*
X189556004Y-34045499D01*
X189569473Y-34042820D01*
X189571674Y-34042383D01*
X189595866Y-34040000D01*
X190480000Y-34040000D01*
X190480000Y-33717172D01*
X190479999Y-33717155D01*
X190473598Y-33657627D01*
X190473596Y-33657620D01*
X190423354Y-33522913D01*
X190423353Y-33522911D01*
X190422745Y-33522099D01*
X190422390Y-33521148D01*
X190419103Y-33515128D01*
X190419968Y-33514655D01*
X190398329Y-33456634D01*
X190407452Y-33400338D01*
X190441091Y-33319127D01*
X190480500Y-33121003D01*
X190480500Y-32918997D01*
X190441091Y-32720873D01*
X190363786Y-32534244D01*
X190310094Y-32453889D01*
X190289217Y-32387214D01*
X190307701Y-32319834D01*
X190310078Y-32316134D01*
X190363786Y-32235756D01*
X190441091Y-32049127D01*
X190480500Y-31851003D01*
X190480500Y-31648997D01*
X190441091Y-31450873D01*
X190363786Y-31264244D01*
X190363784Y-31264241D01*
X190363782Y-31264237D01*
X190251558Y-31096281D01*
X190108718Y-30953441D01*
X189940762Y-30841217D01*
X189940752Y-30841212D01*
X189754127Y-30763909D01*
X189754119Y-30763907D01*
X189556007Y-30724500D01*
X189556003Y-30724500D01*
X188903997Y-30724500D01*
X188903992Y-30724500D01*
X188705880Y-30763907D01*
X188705872Y-30763909D01*
X188519247Y-30841212D01*
X188519237Y-30841217D01*
X188351281Y-30953441D01*
X188208441Y-31096281D01*
X188096217Y-31264237D01*
X188096212Y-31264247D01*
X188018909Y-31450872D01*
X188018907Y-31450880D01*
X187979500Y-31648992D01*
X187979500Y-31851007D01*
X188018907Y-32049119D01*
X188018909Y-32049127D01*
X188039173Y-32098048D01*
X188046642Y-32167516D01*
X188015368Y-32229995D01*
X187955279Y-32265648D01*
X187924612Y-32269500D01*
X186616076Y-32269500D01*
X186587242Y-32275234D01*
X186587243Y-32275235D01*
X186471093Y-32298339D01*
X186471083Y-32298342D01*
X186391081Y-32331479D01*
X186391082Y-32331480D01*
X186334505Y-32354915D01*
X186252372Y-32409795D01*
X186211585Y-32437047D01*
X186211581Y-32437050D01*
X174230930Y-44417700D01*
X174169607Y-44451185D01*
X174099915Y-44446201D01*
X174043982Y-44404329D01*
X174019565Y-44338865D01*
X174020029Y-44316135D01*
X174023298Y-44287127D01*
X174033565Y-44196000D01*
X174023706Y-44108500D01*
X174013369Y-44016750D01*
X174013368Y-44016745D01*
X173969439Y-43891204D01*
X173953789Y-43846478D01*
X173946263Y-43834501D01*
X173857815Y-43693737D01*
X173730262Y-43566184D01*
X173577523Y-43470211D01*
X173407254Y-43410631D01*
X173407249Y-43410630D01*
X173228004Y-43390435D01*
X173227996Y-43390435D01*
X173041825Y-43411411D01*
X173041601Y-43409426D01*
X172981656Y-43405747D01*
X172936132Y-43376814D01*
X172664371Y-43105052D01*
X172664364Y-43105046D01*
X172590679Y-43055812D01*
X172590679Y-43055813D01*
X172541441Y-43022913D01*
X172404867Y-42966343D01*
X172404857Y-42966340D01*
X172259870Y-42937500D01*
X172259868Y-42937500D01*
X168002230Y-42937500D01*
X167935191Y-42917815D01*
X167914549Y-42901181D01*
X166288366Y-41274998D01*
X170779532Y-41274998D01*
X170779532Y-41275001D01*
X170799364Y-41501686D01*
X170799366Y-41501697D01*
X170858258Y-41721488D01*
X170858261Y-41721497D01*
X170954431Y-41927732D01*
X170954432Y-41927734D01*
X171084954Y-42114141D01*
X171245858Y-42275045D01*
X171245861Y-42275047D01*
X171432266Y-42405568D01*
X171638504Y-42501739D01*
X171858308Y-42560635D01*
X172020230Y-42574801D01*
X172084998Y-42580468D01*
X172085000Y-42580468D01*
X172085002Y-42580468D01*
X172141673Y-42575509D01*
X172311692Y-42560635D01*
X172531496Y-42501739D01*
X172737734Y-42405568D01*
X172924139Y-42275047D01*
X173085047Y-42114139D01*
X173215568Y-41927734D01*
X173311739Y-41721496D01*
X173370635Y-41501692D01*
X173390468Y-41275000D01*
X173370635Y-41048308D01*
X173311739Y-40828504D01*
X173215568Y-40622266D01*
X173085047Y-40435861D01*
X173085045Y-40435858D01*
X172924141Y-40274954D01*
X172737734Y-40144432D01*
X172737732Y-40144431D01*
X172531497Y-40048261D01*
X172531488Y-40048258D01*
X172311697Y-39989366D01*
X172311693Y-39989365D01*
X172311692Y-39989365D01*
X172311691Y-39989364D01*
X172311686Y-39989364D01*
X172085002Y-39969532D01*
X172084998Y-39969532D01*
X171858313Y-39989364D01*
X171858302Y-39989366D01*
X171638511Y-40048258D01*
X171638502Y-40048261D01*
X171432267Y-40144431D01*
X171432265Y-40144432D01*
X171245858Y-40274954D01*
X171084954Y-40435858D01*
X170954432Y-40622265D01*
X170954431Y-40622267D01*
X170858261Y-40828502D01*
X170858258Y-40828511D01*
X170799366Y-41048302D01*
X170799364Y-41048313D01*
X170779532Y-41274998D01*
X166288366Y-41274998D01*
X162478366Y-37464998D01*
X171454532Y-37464998D01*
X171454532Y-37465001D01*
X171474364Y-37691686D01*
X171474366Y-37691697D01*
X171533258Y-37911488D01*
X171533261Y-37911497D01*
X171629431Y-38117732D01*
X171629432Y-38117734D01*
X171759954Y-38304141D01*
X171920858Y-38465045D01*
X171920861Y-38465047D01*
X172107266Y-38595568D01*
X172313504Y-38691739D01*
X172313509Y-38691740D01*
X172313511Y-38691741D01*
X172348839Y-38701207D01*
X172533308Y-38750635D01*
X172695230Y-38764801D01*
X172759998Y-38770468D01*
X172760000Y-38770468D01*
X172760002Y-38770468D01*
X172816673Y-38765509D01*
X172986692Y-38750635D01*
X173206496Y-38691739D01*
X173412734Y-38595568D01*
X173599139Y-38465047D01*
X173760047Y-38304139D01*
X173890568Y-38117734D01*
X173897893Y-38102024D01*
X173944064Y-38049586D01*
X174011257Y-38030433D01*
X174078138Y-38050648D01*
X174122657Y-38102024D01*
X174129864Y-38117480D01*
X174180974Y-38190472D01*
X174860000Y-37511446D01*
X174860000Y-37517661D01*
X174887259Y-37619394D01*
X174939920Y-37710606D01*
X175014394Y-37785080D01*
X175105606Y-37837741D01*
X175207339Y-37865000D01*
X175213553Y-37865000D01*
X174534526Y-38544025D01*
X174607513Y-38595132D01*
X174607521Y-38595136D01*
X174813668Y-38691264D01*
X174813682Y-38691269D01*
X175033389Y-38750139D01*
X175033400Y-38750141D01*
X175259998Y-38769966D01*
X175260002Y-38769966D01*
X175486599Y-38750141D01*
X175486610Y-38750139D01*
X175706317Y-38691269D01*
X175706331Y-38691264D01*
X175912478Y-38595136D01*
X175985471Y-38544024D01*
X175306447Y-37865000D01*
X175312661Y-37865000D01*
X175414394Y-37837741D01*
X175505606Y-37785080D01*
X175580080Y-37710606D01*
X175632741Y-37619394D01*
X175660000Y-37517661D01*
X175660000Y-37511447D01*
X176339024Y-38190471D01*
X176390136Y-38117478D01*
X176486264Y-37911331D01*
X176486269Y-37911317D01*
X176545139Y-37691610D01*
X176545141Y-37691599D01*
X176564966Y-37465002D01*
X176564966Y-37464997D01*
X176545141Y-37238400D01*
X176545139Y-37238389D01*
X176486269Y-37018682D01*
X176486264Y-37018668D01*
X176390136Y-36812521D01*
X176390132Y-36812513D01*
X176339025Y-36739526D01*
X175660000Y-37418551D01*
X175660000Y-37412339D01*
X175632741Y-37310606D01*
X175580080Y-37219394D01*
X175505606Y-37144920D01*
X175414394Y-37092259D01*
X175312661Y-37065000D01*
X175306448Y-37065000D01*
X175985472Y-36385974D01*
X175912478Y-36334863D01*
X175706331Y-36238735D01*
X175706317Y-36238730D01*
X175486610Y-36179860D01*
X175486599Y-36179858D01*
X175260002Y-36160034D01*
X175259998Y-36160034D01*
X175033400Y-36179858D01*
X175033389Y-36179860D01*
X174813682Y-36238730D01*
X174813673Y-36238734D01*
X174607516Y-36334866D01*
X174607512Y-36334868D01*
X174534526Y-36385973D01*
X174534526Y-36385974D01*
X175213553Y-37065000D01*
X175207339Y-37065000D01*
X175105606Y-37092259D01*
X175014394Y-37144920D01*
X174939920Y-37219394D01*
X174887259Y-37310606D01*
X174860000Y-37412339D01*
X174860000Y-37418552D01*
X174180974Y-36739526D01*
X174180973Y-36739526D01*
X174129868Y-36812512D01*
X174129867Y-36812514D01*
X174122656Y-36827979D01*
X174076482Y-36880417D01*
X174009288Y-36899567D01*
X173942407Y-36879350D01*
X173897893Y-36827976D01*
X173890568Y-36812266D01*
X173782637Y-36658123D01*
X173760045Y-36625858D01*
X173599141Y-36464954D01*
X173412734Y-36334432D01*
X173412732Y-36334431D01*
X173206497Y-36238261D01*
X173206488Y-36238258D01*
X172986697Y-36179366D01*
X172986693Y-36179365D01*
X172986692Y-36179365D01*
X172986691Y-36179364D01*
X172986686Y-36179364D01*
X172760002Y-36159532D01*
X172759998Y-36159532D01*
X172533313Y-36179364D01*
X172533302Y-36179366D01*
X172313511Y-36238258D01*
X172313502Y-36238261D01*
X172107267Y-36334431D01*
X172107265Y-36334432D01*
X171920858Y-36464954D01*
X171759954Y-36625858D01*
X171629432Y-36812265D01*
X171629431Y-36812267D01*
X171533261Y-37018502D01*
X171533258Y-37018511D01*
X171474366Y-37238302D01*
X171474364Y-37238313D01*
X171454532Y-37464998D01*
X162478366Y-37464998D01*
X161314819Y-36301451D01*
X161281334Y-36240128D01*
X161278500Y-36213770D01*
X161278500Y-34470079D01*
X161249659Y-34325092D01*
X161249658Y-34325091D01*
X161249658Y-34325087D01*
X161220127Y-34253792D01*
X161193086Y-34188509D01*
X161193085Y-34188507D01*
X161160186Y-34139270D01*
X161160185Y-34139268D01*
X161110956Y-34065589D01*
X161110952Y-34065584D01*
X160265307Y-33219939D01*
X160242653Y-33183869D01*
X160240813Y-33184756D01*
X160237792Y-33178484D01*
X160237789Y-33178480D01*
X160237789Y-33178478D01*
X160141816Y-33025738D01*
X160014262Y-32898184D01*
X159861523Y-32802211D01*
X159691254Y-32742631D01*
X159691249Y-32742630D01*
X159512004Y-32722435D01*
X159511996Y-32722435D01*
X159332750Y-32742630D01*
X159332745Y-32742631D01*
X159162476Y-32802211D01*
X159009737Y-32898184D01*
X158882184Y-33025737D01*
X158786211Y-33178476D01*
X158726631Y-33348745D01*
X158726630Y-33348750D01*
X158706435Y-33527996D01*
X153789500Y-33527996D01*
X153789500Y-31648992D01*
X172739500Y-31648992D01*
X172739500Y-31851007D01*
X172778907Y-32049119D01*
X172778909Y-32049127D01*
X172856213Y-32235755D01*
X172909904Y-32316109D01*
X172930782Y-32382787D01*
X172912297Y-32450167D01*
X172909904Y-32453891D01*
X172856213Y-32534244D01*
X172778909Y-32720872D01*
X172778907Y-32720880D01*
X172739500Y-32918992D01*
X172739500Y-33121007D01*
X172778907Y-33319119D01*
X172778910Y-33319131D01*
X172812547Y-33400338D01*
X172820016Y-33469807D01*
X172800405Y-33514864D01*
X172800895Y-33515132D01*
X172797910Y-33520596D01*
X172797260Y-33522092D01*
X172796646Y-33522911D01*
X172796645Y-33522913D01*
X172746403Y-33657620D01*
X172746401Y-33657627D01*
X172740000Y-33717155D01*
X172740000Y-34040000D01*
X173624134Y-34040000D01*
X173648326Y-34042383D01*
X173651123Y-34042939D01*
X173663995Y-34045499D01*
X173663996Y-34045500D01*
X173663997Y-34045500D01*
X173704170Y-34045500D01*
X173689925Y-34059745D01*
X173640556Y-34145255D01*
X173615000Y-34240630D01*
X173615000Y-34339370D01*
X173640556Y-34434745D01*
X173689925Y-34520255D01*
X173709670Y-34540000D01*
X172740000Y-34540000D01*
X172740000Y-34862844D01*
X172746401Y-34922372D01*
X172746403Y-34922379D01*
X172796645Y-35057086D01*
X172796649Y-35057093D01*
X172882809Y-35172187D01*
X172882812Y-35172190D01*
X172997906Y-35258350D01*
X172997913Y-35258354D01*
X173132620Y-35308596D01*
X173132627Y-35308598D01*
X173192155Y-35314999D01*
X173192172Y-35315000D01*
X173740000Y-35315000D01*
X173740000Y-34570330D01*
X173759745Y-34590075D01*
X173845255Y-34639444D01*
X173940630Y-34665000D01*
X174039370Y-34665000D01*
X174134745Y-34639444D01*
X174220255Y-34590075D01*
X174240000Y-34570330D01*
X174240000Y-35315000D01*
X174787828Y-35315000D01*
X174787844Y-35314999D01*
X174847372Y-35308598D01*
X174847379Y-35308596D01*
X174982086Y-35258354D01*
X174982093Y-35258350D01*
X175097187Y-35172190D01*
X175097190Y-35172187D01*
X175183350Y-35057093D01*
X175183354Y-35057086D01*
X175233596Y-34922379D01*
X175233598Y-34922372D01*
X175239999Y-34862844D01*
X175240000Y-34862827D01*
X175240000Y-34540000D01*
X174270330Y-34540000D01*
X174290075Y-34520255D01*
X174339444Y-34434745D01*
X174365000Y-34339370D01*
X174365000Y-34240630D01*
X174339444Y-34145255D01*
X174290075Y-34059745D01*
X174275830Y-34045500D01*
X174316004Y-34045500D01*
X174316004Y-34045499D01*
X174329473Y-34042820D01*
X174331674Y-34042383D01*
X174355866Y-34040000D01*
X175240000Y-34040000D01*
X175240000Y-33717172D01*
X175239999Y-33717155D01*
X175233598Y-33657627D01*
X175233596Y-33657620D01*
X175183354Y-33522913D01*
X175183353Y-33522911D01*
X175182745Y-33522099D01*
X175182390Y-33521148D01*
X175179103Y-33515128D01*
X175179968Y-33514655D01*
X175158329Y-33456634D01*
X175167452Y-33400338D01*
X175201091Y-33319127D01*
X175240500Y-33121003D01*
X175240500Y-32918997D01*
X175201091Y-32720873D01*
X175123786Y-32534244D01*
X175070094Y-32453889D01*
X175049217Y-32387214D01*
X175067701Y-32319834D01*
X175070078Y-32316134D01*
X175123786Y-32235756D01*
X175201091Y-32049127D01*
X175240500Y-31851003D01*
X175240500Y-31648997D01*
X175201091Y-31450873D01*
X175123786Y-31264244D01*
X175123784Y-31264241D01*
X175123782Y-31264237D01*
X175011558Y-31096281D01*
X174868718Y-30953441D01*
X174700762Y-30841217D01*
X174700752Y-30841212D01*
X174514127Y-30763909D01*
X174514119Y-30763907D01*
X174316007Y-30724500D01*
X174316003Y-30724500D01*
X173663997Y-30724500D01*
X173663992Y-30724500D01*
X173465880Y-30763907D01*
X173465872Y-30763909D01*
X173279247Y-30841212D01*
X173279237Y-30841217D01*
X173111281Y-30953441D01*
X172968441Y-31096281D01*
X172856217Y-31264237D01*
X172856212Y-31264247D01*
X172778909Y-31450872D01*
X172778907Y-31450880D01*
X172739500Y-31648992D01*
X153789500Y-31648992D01*
X153789500Y-30596500D01*
X153809185Y-30529461D01*
X153861989Y-30483706D01*
X153913500Y-30472500D01*
X197749500Y-30472500D01*
X197816539Y-30492185D01*
G37*
%TD.AperFunction*%
%TD*%
M02*
